%TF.GenerationSoftware,KiCad,Pcbnew,(5.1.8-0-10_14)*%
%TF.CreationDate,2020-12-14T15:32:48+01:00*%
%TF.ProjectId,FlexMAFD,466c6578-4d41-4464-942e-6b696361645f,rev?*%
%TF.SameCoordinates,Original*%
%TF.FileFunction,Copper,L2,Bot*%
%TF.FilePolarity,Positive*%
%FSLAX46Y46*%
G04 Gerber Fmt 4.6, Leading zero omitted, Abs format (unit mm)*
G04 Created by KiCad (PCBNEW (5.1.8-0-10_14)) date 2020-12-14 15:32:48*
%MOMM*%
%LPD*%
G01*
G04 APERTURE LIST*
%TA.AperFunction,ComponentPad*%
%ADD10C,1.600000*%
%TD*%
%TA.AperFunction,ComponentPad*%
%ADD11R,1.800000X2.500000*%
%TD*%
%TA.AperFunction,ComponentPad*%
%ADD12R,2.500000X1.800000*%
%TD*%
%TA.AperFunction,ComponentPad*%
%ADD13R,1.600000X1.600000*%
%TD*%
%TA.AperFunction,ComponentPad*%
%ADD14O,1.600000X1.600000*%
%TD*%
%TA.AperFunction,ComponentPad*%
%ADD15R,1.800000X1.800000*%
%TD*%
%TA.AperFunction,ComponentPad*%
%ADD16C,1.800000*%
%TD*%
%TA.AperFunction,ComponentPad*%
%ADD17C,2.100000*%
%TD*%
%TA.AperFunction,ComponentPad*%
%ADD18C,3.585000*%
%TD*%
%TA.AperFunction,ComponentPad*%
%ADD19C,1.900000*%
%TD*%
%TA.AperFunction,ViaPad*%
%ADD20C,0.600000*%
%TD*%
%TA.AperFunction,Conductor*%
%ADD21C,0.150000*%
%TD*%
%TA.AperFunction,Conductor*%
%ADD22C,0.254000*%
%TD*%
G04 APERTURE END LIST*
D10*
%TO.P,C1,1*%
%TO.N,Net-(C1-Pad1)*%
X29210000Y-59690000D03*
%TO.P,C1,2*%
%TO.N,Earth*%
X31710000Y-59690000D03*
%TD*%
D11*
%TO.P,CON1,3*%
%TO.N,Net-(CON1-Pad3)*%
X86280000Y-55880000D03*
%TO.P,CON1,2*%
%TO.N,Net-(CON1-Pad2)*%
X76280000Y-55880000D03*
D12*
%TO.P,CON1,1*%
%TO.N,Earth*%
X81280000Y-50880000D03*
%TD*%
%TO.P,CON2,1*%
%TO.N,Earth*%
X96520000Y-50880000D03*
D11*
%TO.P,CON2,2*%
%TO.N,Net-(CON2-Pad2)*%
X91520000Y-55880000D03*
%TO.P,CON2,3*%
%TO.N,Net-(CON2-Pad3)*%
X101520000Y-55880000D03*
%TD*%
%TO.P,CON3,3*%
%TO.N,Net-(CON3-Pad3)*%
X116760000Y-55880000D03*
%TO.P,CON3,2*%
%TO.N,Net-(CON3-Pad2)*%
X106760000Y-55880000D03*
D12*
%TO.P,CON3,1*%
%TO.N,Earth*%
X111760000Y-50880000D03*
%TD*%
D13*
%TO.P,D1,1*%
%TO.N,Net-(D1-Pad1)*%
X97790000Y-68580000D03*
D14*
%TO.P,D1,2*%
%TO.N,Net-(D1-Pad2)*%
X97790000Y-76200000D03*
%TD*%
D15*
%TO.P,D2,1*%
%TO.N,Earth*%
X120650000Y-59690000D03*
D16*
%TO.P,D2,2*%
%TO.N,Net-(D2-Pad2)*%
X123190000Y-59690000D03*
%TD*%
D17*
%TO.P,J1,1*%
%TO.N,Net-(J1-Pad1)*%
X113030000Y-66040000D03*
%TO.P,J1,2*%
%TO.N,Net-(J1-Pad2)*%
X113030000Y-73545000D03*
%TO.P,J1,3*%
%TO.N,Net-(J1-Pad3)*%
X113030000Y-81050000D03*
%TO.P,J1,4*%
%TO.N,Net-(J1-Pad4)*%
X110540000Y-68540000D03*
%TO.P,J1,5*%
%TO.N,Net-(D1-Pad2)*%
X110540000Y-78550000D03*
%TO.P,J1,6*%
%TO.N,Net-(J1-Pad6)*%
X123040000Y-71045000D03*
%TO.P,J1,7*%
%TO.N,Net-(J1-Pad7)*%
X123040000Y-76045000D03*
D18*
%TO.P,J1,MH1*%
%TO.N,Net-(J1-PadMH1)*%
X118040000Y-66040000D03*
%TO.P,J1,MH2*%
%TO.N,Net-(J1-PadMH2)*%
X118040000Y-81050000D03*
%TD*%
D10*
%TO.P,R1,1*%
%TO.N,Net-(D1-Pad1)*%
X102870000Y-68580000D03*
D14*
%TO.P,R1,2*%
%TO.N,Net-(J1-Pad4)*%
X102870000Y-76200000D03*
%TD*%
%TO.P,R2,2*%
%TO.N,Net-(R2-Pad2)*%
X80010000Y-68580000D03*
D10*
%TO.P,R2,1*%
%TO.N,Net-(R2-Pad1)*%
X80010000Y-76200000D03*
%TD*%
D13*
%TO.P,U1,1*%
%TO.N,Net-(U1-Pad1)*%
X92710000Y-76200000D03*
D10*
%TO.P,U1,2*%
%TO.N,Net-(D1-Pad1)*%
X92710000Y-73660000D03*
%TO.P,U1,3*%
%TO.N,Net-(D1-Pad2)*%
X92710000Y-71120000D03*
%TO.P,U1,4*%
%TO.N,Net-(U1-Pad4)*%
X92710000Y-68580000D03*
%TO.P,U1,5*%
%TO.N,Earth*%
X85090000Y-68580000D03*
%TO.P,U1,6*%
%TO.N,Net-(R2-Pad2)*%
X85090000Y-71120000D03*
%TO.P,U1,7*%
%TO.N,Net-(U1-Pad7)*%
X85090000Y-73660000D03*
%TO.P,U1,8*%
%TO.N,Net-(C1-Pad1)*%
X85090000Y-76200000D03*
%TD*%
%TO.P,U2,17*%
%TO.N,Net-(U2-Pad17)*%
X62230000Y-73660000D03*
%TO.P,U2,18*%
%TO.N,Net-(U2-Pad18)*%
X62230000Y-71120000D03*
%TO.P,U2,19*%
%TO.N,Net-(U2-Pad19)*%
X62230000Y-68580000D03*
%TO.P,U2,20*%
%TO.N,Net-(U2-Pad20)*%
X62230000Y-66040000D03*
%TO.P,U2,16*%
%TO.N,Net-(U2-Pad16)*%
X62230000Y-76200000D03*
%TO.P,U2,15*%
%TO.N,Net-(U2-Pad15)*%
X62230000Y-78740000D03*
%TO.P,U2,14*%
%TO.N,Net-(U2-Pad14)*%
X62230000Y-81280000D03*
%TO.P,U2,21*%
%TO.N,Net-(U2-Pad21)*%
X59690000Y-66040000D03*
%TO.P,U2,22*%
%TO.N,Net-(U2-Pad22)*%
X57150000Y-66040000D03*
%TO.P,U2,23*%
%TO.N,Net-(U2-Pad23)*%
X54610000Y-66040000D03*
%TO.P,U2,24*%
%TO.N,Net-(CON1-Pad2)*%
X52070000Y-66040000D03*
%TO.P,U2,25*%
%TO.N,Net-(U2-Pad25)*%
X49530000Y-66040000D03*
%TO.P,U2,26*%
%TO.N,Net-(U2-Pad26)*%
X46990000Y-66040000D03*
%TO.P,U2,27*%
%TO.N,Net-(U2-Pad27)*%
X44450000Y-66040000D03*
%TO.P,U2,28*%
%TO.N,Net-(U2-Pad28)*%
X41910000Y-66040000D03*
%TO.P,U2,29*%
%TO.N,Net-(U2-Pad29)*%
X39370000Y-66040000D03*
%TO.P,U2,30*%
%TO.N,Net-(U2-Pad30)*%
X36830000Y-66040000D03*
%TO.P,U2,31*%
%TO.N,Net-(R2-Pad1)*%
X34290000Y-66040000D03*
%TO.P,U2,32*%
%TO.N,Net-(U2-Pad32)*%
X31750000Y-66040000D03*
%TO.P,U2,33*%
%TO.N,Net-(C1-Pad1)*%
X29210000Y-66040000D03*
%TO.P,U2,34*%
%TO.N,Net-(U2-Pad34)*%
X31750000Y-68580000D03*
%TO.P,U2,35*%
%TO.N,Net-(U2-Pad35)*%
X36830000Y-68580000D03*
%TO.P,U2,36*%
%TO.N,Net-(U2-Pad36)*%
X39370000Y-68580000D03*
%TO.P,U2,37*%
%TO.N,Net-(U2-Pad37)*%
X41910000Y-68580000D03*
%TO.P,U2,13*%
%TO.N,Net-(U2-Pad13)*%
X59690000Y-81280000D03*
%TO.P,U2,12*%
%TO.N,Net-(D2-Pad2)*%
X57150000Y-81280000D03*
%TO.P,U2,11*%
%TO.N,Net-(U2-Pad11)*%
X54610000Y-81280000D03*
%TO.P,U2,10*%
%TO.N,Net-(U2-Pad10)*%
X52070000Y-81280000D03*
%TO.P,U2,9*%
%TO.N,Net-(U2-Pad9)*%
X49530000Y-81280000D03*
%TO.P,U2,8*%
%TO.N,Net-(U2-Pad8)*%
X46990000Y-81280000D03*
%TO.P,U2,7*%
%TO.N,Net-(U2-Pad7)*%
X44450000Y-81280000D03*
%TO.P,U2,6*%
%TO.N,Net-(U2-Pad6)*%
X41910000Y-81280000D03*
%TO.P,U2,5*%
%TO.N,Net-(U2-Pad5)*%
X39370000Y-81280000D03*
%TO.P,U2,4*%
%TO.N,Net-(U2-Pad4)*%
X36830000Y-81280000D03*
%TO.P,U2,3*%
%TO.N,Net-(U2-Pad3)*%
X34290000Y-81280000D03*
%TO.P,U2,2*%
%TO.N,Net-(R2-Pad2)*%
X31750000Y-81280000D03*
D13*
%TO.P,U2,1*%
%TO.N,Earth*%
X29210000Y-81280000D03*
D19*
%TO.P,U2,52*%
%TO.N,N/C*%
X39370000Y-73660000D03*
X35560000Y-73660000D03*
%TD*%
D13*
%TO.P,U3,1*%
%TO.N,Net-(C1-Pad1)*%
X74930000Y-81280000D03*
D10*
%TO.P,U3,2*%
%TO.N,Net-(U3-Pad2)*%
X74930000Y-78740000D03*
%TO.P,U3,3*%
%TO.N,Net-(U2-Pad21)*%
X74930000Y-76200000D03*
%TO.P,U3,4*%
%TO.N,Net-(U2-Pad20)*%
X74930000Y-73660000D03*
%TO.P,U3,5*%
%TO.N,Net-(U2-Pad13)*%
X74930000Y-71120000D03*
%TO.P,U3,6*%
%TO.N,Net-(U3-Pad6)*%
X74930000Y-68580000D03*
%TO.P,U3,7*%
%TO.N,Net-(U3-Pad7)*%
X74930000Y-66040000D03*
%TO.P,U3,8*%
%TO.N,Earth*%
X67310000Y-66040000D03*
%TO.P,U3,9*%
%TO.N,Net-(C1-Pad1)*%
X67310000Y-68580000D03*
%TO.P,U3,10*%
%TO.N,Net-(CON3-Pad2)*%
X67310000Y-71120000D03*
%TO.P,U3,11*%
%TO.N,Net-(C1-Pad1)*%
X67310000Y-73660000D03*
%TO.P,U3,12*%
%TO.N,Earth*%
X67310000Y-76200000D03*
%TO.P,U3,13*%
%TO.N,Net-(C1-Pad1)*%
X67310000Y-78740000D03*
%TO.P,U3,14*%
%TO.N,Net-(CON2-Pad2)*%
X67310000Y-81280000D03*
%TD*%
D20*
%TO.N,Net-(U2-Pad21)*%
X63500000Y-62230000D03*
%TD*%
D21*
%TO.N,Net-(C1-Pad1)*%
X29210000Y-66040000D02*
X29210000Y-73660000D01*
X66040000Y-73660000D02*
X67310000Y-73660000D01*
X64770000Y-74930000D02*
X66040000Y-73660000D01*
X30480000Y-74930000D02*
X64770000Y-74930000D01*
X29210000Y-73660000D02*
X30480000Y-74930000D01*
X64770000Y-74930000D02*
X64770000Y-76200000D01*
X64770000Y-76200000D02*
X67310000Y-78740000D01*
X67310000Y-78740000D02*
X72390000Y-78740000D01*
X72390000Y-78740000D02*
X74930000Y-81280000D01*
X64770000Y-74930000D02*
X64770000Y-71120000D01*
X64770000Y-71120000D02*
X67310000Y-68580000D01*
X74930000Y-81280000D02*
X83820000Y-81280000D01*
X85090000Y-80010000D02*
X85090000Y-76200000D01*
X83820000Y-81280000D02*
X85090000Y-80010000D01*
%TO.N,Net-(D1-Pad2)*%
X97790000Y-76200000D02*
X96520000Y-76200000D01*
X93980000Y-71120000D02*
X92710000Y-71120000D01*
X95250000Y-72390000D02*
X93980000Y-71120000D01*
X95250000Y-74930000D02*
X95250000Y-72390000D01*
X96520000Y-76200000D02*
X95250000Y-74930000D01*
%TO.N,Net-(D2-Pad2)*%
X123190000Y-59690000D02*
X121920000Y-60960000D01*
X57150000Y-83820000D02*
X57150000Y-81280000D01*
X58420000Y-85090000D02*
X57150000Y-83820000D01*
X105410000Y-85090000D02*
X58420000Y-85090000D01*
X107950000Y-82550000D02*
X105410000Y-85090000D01*
X107950000Y-62230000D02*
X107950000Y-82550000D01*
X109220000Y-60960000D02*
X107950000Y-62230000D01*
X121920000Y-60960000D02*
X109220000Y-60960000D01*
%TO.N,Net-(R2-Pad1)*%
X80010000Y-76200000D02*
X81280000Y-76200000D01*
X34290000Y-60960000D02*
X34290000Y-66040000D01*
X35560000Y-59690000D02*
X34290000Y-60960000D01*
X78740000Y-59690000D02*
X35560000Y-59690000D01*
X82550000Y-63500000D02*
X78740000Y-59690000D01*
X82550000Y-74930000D02*
X82550000Y-63500000D01*
X81280000Y-76200000D02*
X82550000Y-74930000D01*
%TO.N,Net-(U2-Pad20)*%
X74930000Y-73660000D02*
X72390000Y-73660000D01*
X62230000Y-62230000D02*
X62230000Y-66040000D01*
X63500000Y-60960000D02*
X62230000Y-62230000D01*
X68580000Y-60960000D02*
X63500000Y-60960000D01*
X71120000Y-63500000D02*
X68580000Y-60960000D01*
X71120000Y-72390000D02*
X71120000Y-63500000D01*
X72390000Y-73660000D02*
X71120000Y-72390000D01*
%TO.N,Net-(U2-Pad21)*%
X74930000Y-76200000D02*
X71120000Y-76200000D01*
X68580000Y-62230000D02*
X63500000Y-62230000D01*
X69850000Y-63500000D02*
X68580000Y-62230000D01*
X69850000Y-74930000D02*
X69850000Y-63500000D01*
X71120000Y-76200000D02*
X69850000Y-74930000D01*
%TD*%
D22*
%TO.N,Earth*%
X125070000Y-85700000D02*
X105774932Y-85700000D01*
X105806363Y-85683200D01*
X105914475Y-85594475D01*
X105936712Y-85567379D01*
X108427384Y-83076708D01*
X108454475Y-83054475D01*
X108488053Y-83013560D01*
X108543199Y-82946365D01*
X108548973Y-82935563D01*
X108609128Y-82823020D01*
X108649727Y-82689184D01*
X108660000Y-82584877D01*
X108660000Y-82584876D01*
X108663435Y-82550001D01*
X108660000Y-82515126D01*
X108660000Y-80884042D01*
X111345000Y-80884042D01*
X111345000Y-81215958D01*
X111409754Y-81541496D01*
X111536772Y-81848147D01*
X111721175Y-82124125D01*
X111955875Y-82358825D01*
X112231853Y-82543228D01*
X112538504Y-82670246D01*
X112864042Y-82735000D01*
X113195958Y-82735000D01*
X113521496Y-82670246D01*
X113828147Y-82543228D01*
X114104125Y-82358825D01*
X114338825Y-82124125D01*
X114523228Y-81848147D01*
X114650246Y-81541496D01*
X114715000Y-81215958D01*
X114715000Y-80884042D01*
X114700454Y-80810912D01*
X115612500Y-80810912D01*
X115612500Y-81289088D01*
X115705787Y-81758076D01*
X115888777Y-82199853D01*
X116154437Y-82597441D01*
X116492559Y-82935563D01*
X116890147Y-83201223D01*
X117331924Y-83384213D01*
X117800912Y-83477500D01*
X118279088Y-83477500D01*
X118748076Y-83384213D01*
X119189853Y-83201223D01*
X119587441Y-82935563D01*
X119925563Y-82597441D01*
X120191223Y-82199853D01*
X120374213Y-81758076D01*
X120467500Y-81289088D01*
X120467500Y-80810912D01*
X120374213Y-80341924D01*
X120191223Y-79900147D01*
X119925563Y-79502559D01*
X119587441Y-79164437D01*
X119189853Y-78898777D01*
X118748076Y-78715787D01*
X118279088Y-78622500D01*
X117800912Y-78622500D01*
X117331924Y-78715787D01*
X116890147Y-78898777D01*
X116492559Y-79164437D01*
X116154437Y-79502559D01*
X115888777Y-79900147D01*
X115705787Y-80341924D01*
X115612500Y-80810912D01*
X114700454Y-80810912D01*
X114650246Y-80558504D01*
X114523228Y-80251853D01*
X114338825Y-79975875D01*
X114104125Y-79741175D01*
X113828147Y-79556772D01*
X113521496Y-79429754D01*
X113195958Y-79365000D01*
X112864042Y-79365000D01*
X112538504Y-79429754D01*
X112231853Y-79556772D01*
X111955875Y-79741175D01*
X111721175Y-79975875D01*
X111536772Y-80251853D01*
X111409754Y-80558504D01*
X111345000Y-80884042D01*
X108660000Y-80884042D01*
X108660000Y-78384042D01*
X108855000Y-78384042D01*
X108855000Y-78715958D01*
X108919754Y-79041496D01*
X109046772Y-79348147D01*
X109231175Y-79624125D01*
X109465875Y-79858825D01*
X109741853Y-80043228D01*
X110048504Y-80170246D01*
X110374042Y-80235000D01*
X110705958Y-80235000D01*
X111031496Y-80170246D01*
X111338147Y-80043228D01*
X111614125Y-79858825D01*
X111848825Y-79624125D01*
X112033228Y-79348147D01*
X112160246Y-79041496D01*
X112225000Y-78715958D01*
X112225000Y-78384042D01*
X112160246Y-78058504D01*
X112033228Y-77751853D01*
X111848825Y-77475875D01*
X111614125Y-77241175D01*
X111338147Y-77056772D01*
X111031496Y-76929754D01*
X110705958Y-76865000D01*
X110374042Y-76865000D01*
X110048504Y-76929754D01*
X109741853Y-77056772D01*
X109465875Y-77241175D01*
X109231175Y-77475875D01*
X109046772Y-77751853D01*
X108919754Y-78058504D01*
X108855000Y-78384042D01*
X108660000Y-78384042D01*
X108660000Y-75879042D01*
X121355000Y-75879042D01*
X121355000Y-76210958D01*
X121419754Y-76536496D01*
X121546772Y-76843147D01*
X121731175Y-77119125D01*
X121965875Y-77353825D01*
X122241853Y-77538228D01*
X122548504Y-77665246D01*
X122874042Y-77730000D01*
X123205958Y-77730000D01*
X123531496Y-77665246D01*
X123838147Y-77538228D01*
X124114125Y-77353825D01*
X124348825Y-77119125D01*
X124533228Y-76843147D01*
X124660246Y-76536496D01*
X124725000Y-76210958D01*
X124725000Y-75879042D01*
X124660246Y-75553504D01*
X124533228Y-75246853D01*
X124348825Y-74970875D01*
X124114125Y-74736175D01*
X123838147Y-74551772D01*
X123531496Y-74424754D01*
X123205958Y-74360000D01*
X122874042Y-74360000D01*
X122548504Y-74424754D01*
X122241853Y-74551772D01*
X121965875Y-74736175D01*
X121731175Y-74970875D01*
X121546772Y-75246853D01*
X121419754Y-75553504D01*
X121355000Y-75879042D01*
X108660000Y-75879042D01*
X108660000Y-73379042D01*
X111345000Y-73379042D01*
X111345000Y-73710958D01*
X111409754Y-74036496D01*
X111536772Y-74343147D01*
X111721175Y-74619125D01*
X111955875Y-74853825D01*
X112231853Y-75038228D01*
X112538504Y-75165246D01*
X112864042Y-75230000D01*
X113195958Y-75230000D01*
X113521496Y-75165246D01*
X113828147Y-75038228D01*
X114104125Y-74853825D01*
X114338825Y-74619125D01*
X114523228Y-74343147D01*
X114650246Y-74036496D01*
X114715000Y-73710958D01*
X114715000Y-73379042D01*
X114650246Y-73053504D01*
X114523228Y-72746853D01*
X114338825Y-72470875D01*
X114104125Y-72236175D01*
X113828147Y-72051772D01*
X113521496Y-71924754D01*
X113195958Y-71860000D01*
X112864042Y-71860000D01*
X112538504Y-71924754D01*
X112231853Y-72051772D01*
X111955875Y-72236175D01*
X111721175Y-72470875D01*
X111536772Y-72746853D01*
X111409754Y-73053504D01*
X111345000Y-73379042D01*
X108660000Y-73379042D01*
X108660000Y-70879042D01*
X121355000Y-70879042D01*
X121355000Y-71210958D01*
X121419754Y-71536496D01*
X121546772Y-71843147D01*
X121731175Y-72119125D01*
X121965875Y-72353825D01*
X122241853Y-72538228D01*
X122548504Y-72665246D01*
X122874042Y-72730000D01*
X123205958Y-72730000D01*
X123531496Y-72665246D01*
X123838147Y-72538228D01*
X124114125Y-72353825D01*
X124348825Y-72119125D01*
X124533228Y-71843147D01*
X124660246Y-71536496D01*
X124725000Y-71210958D01*
X124725000Y-70879042D01*
X124660246Y-70553504D01*
X124533228Y-70246853D01*
X124348825Y-69970875D01*
X124114125Y-69736175D01*
X123838147Y-69551772D01*
X123531496Y-69424754D01*
X123205958Y-69360000D01*
X122874042Y-69360000D01*
X122548504Y-69424754D01*
X122241853Y-69551772D01*
X121965875Y-69736175D01*
X121731175Y-69970875D01*
X121546772Y-70246853D01*
X121419754Y-70553504D01*
X121355000Y-70879042D01*
X108660000Y-70879042D01*
X108660000Y-68374042D01*
X108855000Y-68374042D01*
X108855000Y-68705958D01*
X108919754Y-69031496D01*
X109046772Y-69338147D01*
X109231175Y-69614125D01*
X109465875Y-69848825D01*
X109741853Y-70033228D01*
X110048504Y-70160246D01*
X110374042Y-70225000D01*
X110705958Y-70225000D01*
X111031496Y-70160246D01*
X111338147Y-70033228D01*
X111614125Y-69848825D01*
X111848825Y-69614125D01*
X112033228Y-69338147D01*
X112160246Y-69031496D01*
X112225000Y-68705958D01*
X112225000Y-68374042D01*
X112160246Y-68048504D01*
X112033228Y-67741853D01*
X111848825Y-67465875D01*
X111614125Y-67231175D01*
X111338147Y-67046772D01*
X111031496Y-66919754D01*
X110705958Y-66855000D01*
X110374042Y-66855000D01*
X110048504Y-66919754D01*
X109741853Y-67046772D01*
X109465875Y-67231175D01*
X109231175Y-67465875D01*
X109046772Y-67741853D01*
X108919754Y-68048504D01*
X108855000Y-68374042D01*
X108660000Y-68374042D01*
X108660000Y-65874042D01*
X111345000Y-65874042D01*
X111345000Y-66205958D01*
X111409754Y-66531496D01*
X111536772Y-66838147D01*
X111721175Y-67114125D01*
X111955875Y-67348825D01*
X112231853Y-67533228D01*
X112538504Y-67660246D01*
X112864042Y-67725000D01*
X113195958Y-67725000D01*
X113521496Y-67660246D01*
X113828147Y-67533228D01*
X114104125Y-67348825D01*
X114338825Y-67114125D01*
X114523228Y-66838147D01*
X114650246Y-66531496D01*
X114715000Y-66205958D01*
X114715000Y-65874042D01*
X114700454Y-65800912D01*
X115612500Y-65800912D01*
X115612500Y-66279088D01*
X115705787Y-66748076D01*
X115888777Y-67189853D01*
X116154437Y-67587441D01*
X116492559Y-67925563D01*
X116890147Y-68191223D01*
X117331924Y-68374213D01*
X117800912Y-68467500D01*
X118279088Y-68467500D01*
X118748076Y-68374213D01*
X119189853Y-68191223D01*
X119587441Y-67925563D01*
X119925563Y-67587441D01*
X120191223Y-67189853D01*
X120374213Y-66748076D01*
X120467500Y-66279088D01*
X120467500Y-65800912D01*
X120374213Y-65331924D01*
X120191223Y-64890147D01*
X119925563Y-64492559D01*
X119587441Y-64154437D01*
X119189853Y-63888777D01*
X118748076Y-63705787D01*
X118279088Y-63612500D01*
X117800912Y-63612500D01*
X117331924Y-63705787D01*
X116890147Y-63888777D01*
X116492559Y-64154437D01*
X116154437Y-64492559D01*
X115888777Y-64890147D01*
X115705787Y-65331924D01*
X115612500Y-65800912D01*
X114700454Y-65800912D01*
X114650246Y-65548504D01*
X114523228Y-65241853D01*
X114338825Y-64965875D01*
X114104125Y-64731175D01*
X113828147Y-64546772D01*
X113521496Y-64419754D01*
X113195958Y-64355000D01*
X112864042Y-64355000D01*
X112538504Y-64419754D01*
X112231853Y-64546772D01*
X111955875Y-64731175D01*
X111721175Y-64965875D01*
X111536772Y-65241853D01*
X111409754Y-65548504D01*
X111345000Y-65874042D01*
X108660000Y-65874042D01*
X108660000Y-62524091D01*
X109514092Y-61670000D01*
X121885125Y-61670000D01*
X121920000Y-61673435D01*
X121954875Y-61670000D01*
X121954877Y-61670000D01*
X122059184Y-61659727D01*
X122193020Y-61619128D01*
X122316363Y-61553200D01*
X122424475Y-61464475D01*
X122446712Y-61437379D01*
X122725161Y-61158930D01*
X122742257Y-61166011D01*
X123038816Y-61225000D01*
X123341184Y-61225000D01*
X123637743Y-61166011D01*
X123917095Y-61050299D01*
X124168505Y-60882312D01*
X124382312Y-60668505D01*
X124550299Y-60417095D01*
X124666011Y-60137743D01*
X124725000Y-59841184D01*
X124725000Y-59538816D01*
X124666011Y-59242257D01*
X124550299Y-58962905D01*
X124382312Y-58711495D01*
X124168505Y-58497688D01*
X123917095Y-58329701D01*
X123637743Y-58213989D01*
X123341184Y-58155000D01*
X123038816Y-58155000D01*
X122742257Y-58213989D01*
X122462905Y-58329701D01*
X122211495Y-58497688D01*
X122145056Y-58564127D01*
X122139502Y-58545820D01*
X122080537Y-58435506D01*
X122001185Y-58338815D01*
X121904494Y-58259463D01*
X121794180Y-58200498D01*
X121674482Y-58164188D01*
X121550000Y-58151928D01*
X120935750Y-58155000D01*
X120777000Y-58313750D01*
X120777000Y-59563000D01*
X120797000Y-59563000D01*
X120797000Y-59817000D01*
X120777000Y-59817000D01*
X120777000Y-59837000D01*
X120523000Y-59837000D01*
X120523000Y-59817000D01*
X119273750Y-59817000D01*
X119115000Y-59975750D01*
X119113628Y-60250000D01*
X109254874Y-60250000D01*
X109219999Y-60246565D01*
X109185124Y-60250000D01*
X109185123Y-60250000D01*
X109080816Y-60260273D01*
X108946980Y-60300872D01*
X108823637Y-60366800D01*
X108715525Y-60455525D01*
X108693292Y-60482616D01*
X107472617Y-61703292D01*
X107445525Y-61725526D01*
X107356800Y-61833638D01*
X107290872Y-61956981D01*
X107250273Y-62090817D01*
X107245635Y-62137911D01*
X107236565Y-62230000D01*
X107240000Y-62264875D01*
X107240001Y-82255907D01*
X105115909Y-84380000D01*
X58714092Y-84380000D01*
X57860000Y-83525909D01*
X57860000Y-82531452D01*
X58064759Y-82394637D01*
X58264637Y-82194759D01*
X58420000Y-81962241D01*
X58575363Y-82194759D01*
X58775241Y-82394637D01*
X59010273Y-82551680D01*
X59271426Y-82659853D01*
X59548665Y-82715000D01*
X59831335Y-82715000D01*
X60108574Y-82659853D01*
X60369727Y-82551680D01*
X60604759Y-82394637D01*
X60804637Y-82194759D01*
X60960000Y-81962241D01*
X61115363Y-82194759D01*
X61315241Y-82394637D01*
X61550273Y-82551680D01*
X61811426Y-82659853D01*
X62088665Y-82715000D01*
X62371335Y-82715000D01*
X62648574Y-82659853D01*
X62909727Y-82551680D01*
X63144759Y-82394637D01*
X63344637Y-82194759D01*
X63501680Y-81959727D01*
X63609853Y-81698574D01*
X63665000Y-81421335D01*
X63665000Y-81138665D01*
X63609853Y-80861426D01*
X63501680Y-80600273D01*
X63344637Y-80365241D01*
X63144759Y-80165363D01*
X62912241Y-80010000D01*
X63144759Y-79854637D01*
X63344637Y-79654759D01*
X63501680Y-79419727D01*
X63609853Y-79158574D01*
X63665000Y-78881335D01*
X63665000Y-78598665D01*
X63609853Y-78321426D01*
X63501680Y-78060273D01*
X63344637Y-77825241D01*
X63144759Y-77625363D01*
X62912241Y-77470000D01*
X63144759Y-77314637D01*
X63344637Y-77114759D01*
X63501680Y-76879727D01*
X63609853Y-76618574D01*
X63665000Y-76341335D01*
X63665000Y-76058665D01*
X63609853Y-75781426D01*
X63551272Y-75640000D01*
X64060001Y-75640000D01*
X64060001Y-76165116D01*
X64056565Y-76200000D01*
X64070274Y-76339184D01*
X64110872Y-76473019D01*
X64152089Y-76550130D01*
X64176801Y-76596363D01*
X64265526Y-76704475D01*
X64292616Y-76726707D01*
X65923044Y-78357135D01*
X65875000Y-78598665D01*
X65875000Y-78881335D01*
X65930147Y-79158574D01*
X66038320Y-79419727D01*
X66195363Y-79654759D01*
X66395241Y-79854637D01*
X66627759Y-80010000D01*
X66395241Y-80165363D01*
X66195363Y-80365241D01*
X66038320Y-80600273D01*
X65930147Y-80861426D01*
X65875000Y-81138665D01*
X65875000Y-81421335D01*
X65930147Y-81698574D01*
X66038320Y-81959727D01*
X66195363Y-82194759D01*
X66395241Y-82394637D01*
X66630273Y-82551680D01*
X66891426Y-82659853D01*
X67168665Y-82715000D01*
X67451335Y-82715000D01*
X67728574Y-82659853D01*
X67989727Y-82551680D01*
X68224759Y-82394637D01*
X68424637Y-82194759D01*
X68581680Y-81959727D01*
X68689853Y-81698574D01*
X68745000Y-81421335D01*
X68745000Y-81138665D01*
X68689853Y-80861426D01*
X68581680Y-80600273D01*
X68424637Y-80365241D01*
X68224759Y-80165363D01*
X67992241Y-80010000D01*
X68224759Y-79854637D01*
X68424637Y-79654759D01*
X68561452Y-79450000D01*
X72095909Y-79450000D01*
X73491928Y-80846020D01*
X73491928Y-82080000D01*
X73504188Y-82204482D01*
X73540498Y-82324180D01*
X73599463Y-82434494D01*
X73678815Y-82531185D01*
X73775506Y-82610537D01*
X73885820Y-82669502D01*
X74005518Y-82705812D01*
X74130000Y-82718072D01*
X75730000Y-82718072D01*
X75854482Y-82705812D01*
X75974180Y-82669502D01*
X76084494Y-82610537D01*
X76181185Y-82531185D01*
X76260537Y-82434494D01*
X76319502Y-82324180D01*
X76355812Y-82204482D01*
X76368072Y-82080000D01*
X76368072Y-81990000D01*
X83785125Y-81990000D01*
X83820000Y-81993435D01*
X83854875Y-81990000D01*
X83854877Y-81990000D01*
X83959184Y-81979727D01*
X84093020Y-81939128D01*
X84216363Y-81873200D01*
X84324475Y-81784475D01*
X84346712Y-81757379D01*
X85567389Y-80536703D01*
X85594474Y-80514475D01*
X85616704Y-80487388D01*
X85616707Y-80487385D01*
X85683199Y-80406364D01*
X85683201Y-80406362D01*
X85749128Y-80283020D01*
X85789727Y-80149184D01*
X85800000Y-80044877D01*
X85800000Y-80044876D01*
X85803435Y-80010001D01*
X85800000Y-79975126D01*
X85800000Y-77451452D01*
X86004759Y-77314637D01*
X86204637Y-77114759D01*
X86361680Y-76879727D01*
X86469853Y-76618574D01*
X86525000Y-76341335D01*
X86525000Y-76058665D01*
X86469853Y-75781426D01*
X86361680Y-75520273D01*
X86281317Y-75400000D01*
X91271928Y-75400000D01*
X91271928Y-77000000D01*
X91284188Y-77124482D01*
X91320498Y-77244180D01*
X91379463Y-77354494D01*
X91458815Y-77451185D01*
X91555506Y-77530537D01*
X91665820Y-77589502D01*
X91785518Y-77625812D01*
X91910000Y-77638072D01*
X93510000Y-77638072D01*
X93634482Y-77625812D01*
X93754180Y-77589502D01*
X93864494Y-77530537D01*
X93961185Y-77451185D01*
X94040537Y-77354494D01*
X94099502Y-77244180D01*
X94135812Y-77124482D01*
X94148072Y-77000000D01*
X94148072Y-75400000D01*
X94135812Y-75275518D01*
X94099502Y-75155820D01*
X94040537Y-75045506D01*
X93961185Y-74948815D01*
X93864494Y-74869463D01*
X93754180Y-74810498D01*
X93634482Y-74774188D01*
X93626039Y-74773357D01*
X93824637Y-74574759D01*
X93981680Y-74339727D01*
X94089853Y-74078574D01*
X94145000Y-73801335D01*
X94145000Y-73518665D01*
X94089853Y-73241426D01*
X93981680Y-72980273D01*
X93824637Y-72745241D01*
X93624759Y-72545363D01*
X93392241Y-72390000D01*
X93624759Y-72234637D01*
X93824637Y-72034759D01*
X93851085Y-71995176D01*
X94540001Y-72684093D01*
X94540000Y-74895123D01*
X94536565Y-74930000D01*
X94540000Y-74964875D01*
X94540000Y-74964876D01*
X94550273Y-75069183D01*
X94590872Y-75203019D01*
X94656800Y-75326362D01*
X94745525Y-75434474D01*
X94772616Y-75456707D01*
X95993292Y-76677384D01*
X96015525Y-76704475D01*
X96123637Y-76793200D01*
X96246980Y-76859128D01*
X96380816Y-76899727D01*
X96485123Y-76910000D01*
X96485124Y-76910000D01*
X96519999Y-76913435D01*
X96539556Y-76911509D01*
X96675363Y-77114759D01*
X96875241Y-77314637D01*
X97110273Y-77471680D01*
X97371426Y-77579853D01*
X97648665Y-77635000D01*
X97931335Y-77635000D01*
X98208574Y-77579853D01*
X98469727Y-77471680D01*
X98704759Y-77314637D01*
X98904637Y-77114759D01*
X99061680Y-76879727D01*
X99169853Y-76618574D01*
X99225000Y-76341335D01*
X99225000Y-76058665D01*
X101435000Y-76058665D01*
X101435000Y-76341335D01*
X101490147Y-76618574D01*
X101598320Y-76879727D01*
X101755363Y-77114759D01*
X101955241Y-77314637D01*
X102190273Y-77471680D01*
X102451426Y-77579853D01*
X102728665Y-77635000D01*
X103011335Y-77635000D01*
X103288574Y-77579853D01*
X103549727Y-77471680D01*
X103784759Y-77314637D01*
X103984637Y-77114759D01*
X104141680Y-76879727D01*
X104249853Y-76618574D01*
X104305000Y-76341335D01*
X104305000Y-76058665D01*
X104249853Y-75781426D01*
X104141680Y-75520273D01*
X103984637Y-75285241D01*
X103784759Y-75085363D01*
X103549727Y-74928320D01*
X103288574Y-74820147D01*
X103011335Y-74765000D01*
X102728665Y-74765000D01*
X102451426Y-74820147D01*
X102190273Y-74928320D01*
X101955241Y-75085363D01*
X101755363Y-75285241D01*
X101598320Y-75520273D01*
X101490147Y-75781426D01*
X101435000Y-76058665D01*
X99225000Y-76058665D01*
X99169853Y-75781426D01*
X99061680Y-75520273D01*
X98904637Y-75285241D01*
X98704759Y-75085363D01*
X98469727Y-74928320D01*
X98208574Y-74820147D01*
X97931335Y-74765000D01*
X97648665Y-74765000D01*
X97371426Y-74820147D01*
X97110273Y-74928320D01*
X96875241Y-75085363D01*
X96675363Y-75285241D01*
X96648915Y-75324823D01*
X95960000Y-74635909D01*
X95960000Y-72424874D01*
X95963435Y-72389999D01*
X95959872Y-72353825D01*
X95949727Y-72250816D01*
X95909128Y-72116980D01*
X95843200Y-71993637D01*
X95754475Y-71885525D01*
X95727384Y-71863292D01*
X94506712Y-70642621D01*
X94484475Y-70615525D01*
X94376363Y-70526800D01*
X94253020Y-70460872D01*
X94119184Y-70420273D01*
X94014877Y-70410000D01*
X94014875Y-70410000D01*
X93980000Y-70406565D01*
X93960444Y-70408491D01*
X93824637Y-70205241D01*
X93624759Y-70005363D01*
X93392241Y-69850000D01*
X93624759Y-69694637D01*
X93824637Y-69494759D01*
X93981680Y-69259727D01*
X94089853Y-68998574D01*
X94145000Y-68721335D01*
X94145000Y-68438665D01*
X94089853Y-68161426D01*
X93981680Y-67900273D01*
X93901317Y-67780000D01*
X96351928Y-67780000D01*
X96351928Y-69380000D01*
X96364188Y-69504482D01*
X96400498Y-69624180D01*
X96459463Y-69734494D01*
X96538815Y-69831185D01*
X96635506Y-69910537D01*
X96745820Y-69969502D01*
X96865518Y-70005812D01*
X96990000Y-70018072D01*
X98590000Y-70018072D01*
X98714482Y-70005812D01*
X98834180Y-69969502D01*
X98944494Y-69910537D01*
X99041185Y-69831185D01*
X99120537Y-69734494D01*
X99179502Y-69624180D01*
X99215812Y-69504482D01*
X99228072Y-69380000D01*
X99228072Y-68438665D01*
X101435000Y-68438665D01*
X101435000Y-68721335D01*
X101490147Y-68998574D01*
X101598320Y-69259727D01*
X101755363Y-69494759D01*
X101955241Y-69694637D01*
X102190273Y-69851680D01*
X102451426Y-69959853D01*
X102728665Y-70015000D01*
X103011335Y-70015000D01*
X103288574Y-69959853D01*
X103549727Y-69851680D01*
X103784759Y-69694637D01*
X103984637Y-69494759D01*
X104141680Y-69259727D01*
X104249853Y-68998574D01*
X104305000Y-68721335D01*
X104305000Y-68438665D01*
X104249853Y-68161426D01*
X104141680Y-67900273D01*
X103984637Y-67665241D01*
X103784759Y-67465363D01*
X103549727Y-67308320D01*
X103288574Y-67200147D01*
X103011335Y-67145000D01*
X102728665Y-67145000D01*
X102451426Y-67200147D01*
X102190273Y-67308320D01*
X101955241Y-67465363D01*
X101755363Y-67665241D01*
X101598320Y-67900273D01*
X101490147Y-68161426D01*
X101435000Y-68438665D01*
X99228072Y-68438665D01*
X99228072Y-67780000D01*
X99215812Y-67655518D01*
X99179502Y-67535820D01*
X99120537Y-67425506D01*
X99041185Y-67328815D01*
X98944494Y-67249463D01*
X98834180Y-67190498D01*
X98714482Y-67154188D01*
X98590000Y-67141928D01*
X96990000Y-67141928D01*
X96865518Y-67154188D01*
X96745820Y-67190498D01*
X96635506Y-67249463D01*
X96538815Y-67328815D01*
X96459463Y-67425506D01*
X96400498Y-67535820D01*
X96364188Y-67655518D01*
X96351928Y-67780000D01*
X93901317Y-67780000D01*
X93824637Y-67665241D01*
X93624759Y-67465363D01*
X93389727Y-67308320D01*
X93128574Y-67200147D01*
X92851335Y-67145000D01*
X92568665Y-67145000D01*
X92291426Y-67200147D01*
X92030273Y-67308320D01*
X91795241Y-67465363D01*
X91595363Y-67665241D01*
X91438320Y-67900273D01*
X91330147Y-68161426D01*
X91275000Y-68438665D01*
X91275000Y-68721335D01*
X91330147Y-68998574D01*
X91438320Y-69259727D01*
X91595363Y-69494759D01*
X91795241Y-69694637D01*
X92027759Y-69850000D01*
X91795241Y-70005363D01*
X91595363Y-70205241D01*
X91438320Y-70440273D01*
X91330147Y-70701426D01*
X91275000Y-70978665D01*
X91275000Y-71261335D01*
X91330147Y-71538574D01*
X91438320Y-71799727D01*
X91595363Y-72034759D01*
X91795241Y-72234637D01*
X92027759Y-72390000D01*
X91795241Y-72545363D01*
X91595363Y-72745241D01*
X91438320Y-72980273D01*
X91330147Y-73241426D01*
X91275000Y-73518665D01*
X91275000Y-73801335D01*
X91330147Y-74078574D01*
X91438320Y-74339727D01*
X91595363Y-74574759D01*
X91793961Y-74773357D01*
X91785518Y-74774188D01*
X91665820Y-74810498D01*
X91555506Y-74869463D01*
X91458815Y-74948815D01*
X91379463Y-75045506D01*
X91320498Y-75155820D01*
X91284188Y-75275518D01*
X91271928Y-75400000D01*
X86281317Y-75400000D01*
X86204637Y-75285241D01*
X86004759Y-75085363D01*
X85772241Y-74930000D01*
X86004759Y-74774637D01*
X86204637Y-74574759D01*
X86361680Y-74339727D01*
X86469853Y-74078574D01*
X86525000Y-73801335D01*
X86525000Y-73518665D01*
X86469853Y-73241426D01*
X86361680Y-72980273D01*
X86204637Y-72745241D01*
X86004759Y-72545363D01*
X85772241Y-72390000D01*
X86004759Y-72234637D01*
X86204637Y-72034759D01*
X86361680Y-71799727D01*
X86469853Y-71538574D01*
X86525000Y-71261335D01*
X86525000Y-70978665D01*
X86469853Y-70701426D01*
X86361680Y-70440273D01*
X86204637Y-70205241D01*
X86004759Y-70005363D01*
X85770872Y-69849085D01*
X85831514Y-69816671D01*
X85903097Y-69572702D01*
X85090000Y-68759605D01*
X84276903Y-69572702D01*
X84348486Y-69816671D01*
X84412992Y-69847194D01*
X84410273Y-69848320D01*
X84175241Y-70005363D01*
X83975363Y-70205241D01*
X83818320Y-70440273D01*
X83710147Y-70701426D01*
X83655000Y-70978665D01*
X83655000Y-71261335D01*
X83710147Y-71538574D01*
X83818320Y-71799727D01*
X83975363Y-72034759D01*
X84175241Y-72234637D01*
X84407759Y-72390000D01*
X84175241Y-72545363D01*
X83975363Y-72745241D01*
X83818320Y-72980273D01*
X83710147Y-73241426D01*
X83655000Y-73518665D01*
X83655000Y-73801335D01*
X83710147Y-74078574D01*
X83818320Y-74339727D01*
X83975363Y-74574759D01*
X84175241Y-74774637D01*
X84407759Y-74930000D01*
X84175241Y-75085363D01*
X83975363Y-75285241D01*
X83818320Y-75520273D01*
X83710147Y-75781426D01*
X83655000Y-76058665D01*
X83655000Y-76341335D01*
X83710147Y-76618574D01*
X83818320Y-76879727D01*
X83975363Y-77114759D01*
X84175241Y-77314637D01*
X84380001Y-77451453D01*
X84380000Y-79715908D01*
X83525909Y-80570000D01*
X76368072Y-80570000D01*
X76368072Y-80480000D01*
X76355812Y-80355518D01*
X76319502Y-80235820D01*
X76260537Y-80125506D01*
X76181185Y-80028815D01*
X76084494Y-79949463D01*
X75974180Y-79890498D01*
X75854482Y-79854188D01*
X75846039Y-79853357D01*
X76044637Y-79654759D01*
X76201680Y-79419727D01*
X76309853Y-79158574D01*
X76365000Y-78881335D01*
X76365000Y-78598665D01*
X76309853Y-78321426D01*
X76201680Y-78060273D01*
X76044637Y-77825241D01*
X75844759Y-77625363D01*
X75612241Y-77470000D01*
X75844759Y-77314637D01*
X76044637Y-77114759D01*
X76201680Y-76879727D01*
X76309853Y-76618574D01*
X76365000Y-76341335D01*
X76365000Y-76058665D01*
X76309853Y-75781426D01*
X76201680Y-75520273D01*
X76044637Y-75285241D01*
X75844759Y-75085363D01*
X75612241Y-74930000D01*
X75844759Y-74774637D01*
X76044637Y-74574759D01*
X76201680Y-74339727D01*
X76309853Y-74078574D01*
X76365000Y-73801335D01*
X76365000Y-73518665D01*
X76309853Y-73241426D01*
X76201680Y-72980273D01*
X76044637Y-72745241D01*
X75844759Y-72545363D01*
X75612241Y-72390000D01*
X75844759Y-72234637D01*
X76044637Y-72034759D01*
X76201680Y-71799727D01*
X76309853Y-71538574D01*
X76365000Y-71261335D01*
X76365000Y-70978665D01*
X76309853Y-70701426D01*
X76201680Y-70440273D01*
X76044637Y-70205241D01*
X75844759Y-70005363D01*
X75612241Y-69850000D01*
X75844759Y-69694637D01*
X76044637Y-69494759D01*
X76201680Y-69259727D01*
X76309853Y-68998574D01*
X76365000Y-68721335D01*
X76365000Y-68438665D01*
X78575000Y-68438665D01*
X78575000Y-68721335D01*
X78630147Y-68998574D01*
X78738320Y-69259727D01*
X78895363Y-69494759D01*
X79095241Y-69694637D01*
X79330273Y-69851680D01*
X79591426Y-69959853D01*
X79868665Y-70015000D01*
X80151335Y-70015000D01*
X80428574Y-69959853D01*
X80689727Y-69851680D01*
X80924759Y-69694637D01*
X81124637Y-69494759D01*
X81281680Y-69259727D01*
X81389853Y-68998574D01*
X81445000Y-68721335D01*
X81445000Y-68438665D01*
X81389853Y-68161426D01*
X81281680Y-67900273D01*
X81124637Y-67665241D01*
X80924759Y-67465363D01*
X80689727Y-67308320D01*
X80428574Y-67200147D01*
X80151335Y-67145000D01*
X79868665Y-67145000D01*
X79591426Y-67200147D01*
X79330273Y-67308320D01*
X79095241Y-67465363D01*
X78895363Y-67665241D01*
X78738320Y-67900273D01*
X78630147Y-68161426D01*
X78575000Y-68438665D01*
X76365000Y-68438665D01*
X76309853Y-68161426D01*
X76201680Y-67900273D01*
X76044637Y-67665241D01*
X75844759Y-67465363D01*
X75612241Y-67310000D01*
X75844759Y-67154637D01*
X76044637Y-66954759D01*
X76201680Y-66719727D01*
X76309853Y-66458574D01*
X76365000Y-66181335D01*
X76365000Y-65898665D01*
X76309853Y-65621426D01*
X76201680Y-65360273D01*
X76044637Y-65125241D01*
X75844759Y-64925363D01*
X75609727Y-64768320D01*
X75348574Y-64660147D01*
X75071335Y-64605000D01*
X74788665Y-64605000D01*
X74511426Y-64660147D01*
X74250273Y-64768320D01*
X74015241Y-64925363D01*
X73815363Y-65125241D01*
X73658320Y-65360273D01*
X73550147Y-65621426D01*
X73495000Y-65898665D01*
X73495000Y-66181335D01*
X73550147Y-66458574D01*
X73658320Y-66719727D01*
X73815363Y-66954759D01*
X74015241Y-67154637D01*
X74247759Y-67310000D01*
X74015241Y-67465363D01*
X73815363Y-67665241D01*
X73658320Y-67900273D01*
X73550147Y-68161426D01*
X73495000Y-68438665D01*
X73495000Y-68721335D01*
X73550147Y-68998574D01*
X73658320Y-69259727D01*
X73815363Y-69494759D01*
X74015241Y-69694637D01*
X74247759Y-69850000D01*
X74015241Y-70005363D01*
X73815363Y-70205241D01*
X73658320Y-70440273D01*
X73550147Y-70701426D01*
X73495000Y-70978665D01*
X73495000Y-71261335D01*
X73550147Y-71538574D01*
X73658320Y-71799727D01*
X73815363Y-72034759D01*
X74015241Y-72234637D01*
X74247759Y-72390000D01*
X74015241Y-72545363D01*
X73815363Y-72745241D01*
X73678548Y-72950000D01*
X72684092Y-72950000D01*
X71830000Y-72095909D01*
X71830000Y-63534874D01*
X71833435Y-63499999D01*
X71830000Y-63465123D01*
X71819727Y-63360816D01*
X71779128Y-63226980D01*
X71713200Y-63103637D01*
X71713199Y-63103635D01*
X71646707Y-63022615D01*
X71624475Y-62995525D01*
X71597384Y-62973292D01*
X69106712Y-60482621D01*
X69084475Y-60455525D01*
X69016817Y-60400000D01*
X78445909Y-60400000D01*
X81840001Y-63794092D01*
X81840000Y-74635908D01*
X81151085Y-75324824D01*
X81124637Y-75285241D01*
X80924759Y-75085363D01*
X80689727Y-74928320D01*
X80428574Y-74820147D01*
X80151335Y-74765000D01*
X79868665Y-74765000D01*
X79591426Y-74820147D01*
X79330273Y-74928320D01*
X79095241Y-75085363D01*
X78895363Y-75285241D01*
X78738320Y-75520273D01*
X78630147Y-75781426D01*
X78575000Y-76058665D01*
X78575000Y-76341335D01*
X78630147Y-76618574D01*
X78738320Y-76879727D01*
X78895363Y-77114759D01*
X79095241Y-77314637D01*
X79330273Y-77471680D01*
X79591426Y-77579853D01*
X79868665Y-77635000D01*
X80151335Y-77635000D01*
X80428574Y-77579853D01*
X80689727Y-77471680D01*
X80924759Y-77314637D01*
X81124637Y-77114759D01*
X81260444Y-76911509D01*
X81280000Y-76913435D01*
X81314875Y-76910000D01*
X81314877Y-76910000D01*
X81419184Y-76899727D01*
X81553020Y-76859128D01*
X81676363Y-76793200D01*
X81784475Y-76704475D01*
X81806712Y-76677379D01*
X83027389Y-75456703D01*
X83054474Y-75434475D01*
X83076704Y-75407388D01*
X83076707Y-75407385D01*
X83143199Y-75326364D01*
X83143201Y-75326362D01*
X83209128Y-75203020D01*
X83249727Y-75069184D01*
X83260000Y-74964877D01*
X83260000Y-74964876D01*
X83263435Y-74930001D01*
X83260000Y-74895123D01*
X83260000Y-68650512D01*
X83649783Y-68650512D01*
X83691213Y-68930130D01*
X83786397Y-69196292D01*
X83853329Y-69321514D01*
X84097298Y-69393097D01*
X84910395Y-68580000D01*
X85269605Y-68580000D01*
X86082702Y-69393097D01*
X86326671Y-69321514D01*
X86447571Y-69066004D01*
X86516300Y-68791816D01*
X86530217Y-68509488D01*
X86488787Y-68229870D01*
X86393603Y-67963708D01*
X86326671Y-67838486D01*
X86082702Y-67766903D01*
X85269605Y-68580000D01*
X84910395Y-68580000D01*
X84097298Y-67766903D01*
X83853329Y-67838486D01*
X83732429Y-68093996D01*
X83663700Y-68368184D01*
X83649783Y-68650512D01*
X83260000Y-68650512D01*
X83260000Y-67587298D01*
X84276903Y-67587298D01*
X85090000Y-68400395D01*
X85903097Y-67587298D01*
X85831514Y-67343329D01*
X85576004Y-67222429D01*
X85301816Y-67153700D01*
X85019488Y-67139783D01*
X84739870Y-67181213D01*
X84473708Y-67276397D01*
X84348486Y-67343329D01*
X84276903Y-67587298D01*
X83260000Y-67587298D01*
X83260000Y-63534875D01*
X83263435Y-63500000D01*
X83260000Y-63465123D01*
X83249727Y-63360816D01*
X83225173Y-63279872D01*
X101905000Y-63279872D01*
X101905000Y-63720128D01*
X101990890Y-64151925D01*
X102159369Y-64558669D01*
X102403962Y-64924729D01*
X102715271Y-65236038D01*
X103081331Y-65480631D01*
X103488075Y-65649110D01*
X103919872Y-65735000D01*
X104360128Y-65735000D01*
X104791925Y-65649110D01*
X105198669Y-65480631D01*
X105564729Y-65236038D01*
X105876038Y-64924729D01*
X106120631Y-64558669D01*
X106289110Y-64151925D01*
X106375000Y-63720128D01*
X106375000Y-63279872D01*
X106289110Y-62848075D01*
X106120631Y-62441331D01*
X105876038Y-62075271D01*
X105564729Y-61763962D01*
X105198669Y-61519369D01*
X104791925Y-61350890D01*
X104360128Y-61265000D01*
X103919872Y-61265000D01*
X103488075Y-61350890D01*
X103081331Y-61519369D01*
X102715271Y-61763962D01*
X102403962Y-62075271D01*
X102159369Y-62441331D01*
X101990890Y-62848075D01*
X101905000Y-63279872D01*
X83225173Y-63279872D01*
X83209128Y-63226980D01*
X83143200Y-63103637D01*
X83054475Y-62995525D01*
X83027379Y-62973288D01*
X79266712Y-59212621D01*
X79244475Y-59185525D01*
X79136363Y-59096800D01*
X79013020Y-59030872D01*
X78879184Y-58990273D01*
X78774877Y-58980000D01*
X78774875Y-58980000D01*
X78740000Y-58976565D01*
X78705125Y-58980000D01*
X35594874Y-58980000D01*
X35559999Y-58976565D01*
X35525124Y-58980000D01*
X35525123Y-58980000D01*
X35420816Y-58990273D01*
X35286980Y-59030872D01*
X35163637Y-59096800D01*
X35055525Y-59185525D01*
X35033292Y-59212616D01*
X33812617Y-60433292D01*
X33785525Y-60455526D01*
X33696800Y-60563638D01*
X33630872Y-60686981D01*
X33590273Y-60820817D01*
X33580000Y-60925123D01*
X33576565Y-60960000D01*
X33580000Y-60994875D01*
X33580001Y-64788547D01*
X33375241Y-64925363D01*
X33175363Y-65125241D01*
X33020000Y-65357759D01*
X32864637Y-65125241D01*
X32664759Y-64925363D01*
X32429727Y-64768320D01*
X32168574Y-64660147D01*
X31891335Y-64605000D01*
X31608665Y-64605000D01*
X31331426Y-64660147D01*
X31070273Y-64768320D01*
X30835241Y-64925363D01*
X30635363Y-65125241D01*
X30480000Y-65357759D01*
X30324637Y-65125241D01*
X30124759Y-64925363D01*
X29889727Y-64768320D01*
X29628574Y-64660147D01*
X29351335Y-64605000D01*
X29068665Y-64605000D01*
X28791426Y-64660147D01*
X28530273Y-64768320D01*
X28295241Y-64925363D01*
X28095363Y-65125241D01*
X27938320Y-65360273D01*
X27830147Y-65621426D01*
X27775000Y-65898665D01*
X27775000Y-66181335D01*
X27830147Y-66458574D01*
X27938320Y-66719727D01*
X28095363Y-66954759D01*
X28295241Y-67154637D01*
X28500000Y-67291452D01*
X28500001Y-73625115D01*
X28496565Y-73660000D01*
X28510274Y-73799184D01*
X28550872Y-73933019D01*
X28550873Y-73933020D01*
X28616801Y-74056363D01*
X28705526Y-74164475D01*
X28732616Y-74186707D01*
X29953292Y-75407384D01*
X29975525Y-75434475D01*
X30083637Y-75523200D01*
X30206980Y-75589128D01*
X30340816Y-75629727D01*
X30445123Y-75640000D01*
X30445124Y-75640000D01*
X30479999Y-75643435D01*
X30514874Y-75640000D01*
X60908728Y-75640000D01*
X60850147Y-75781426D01*
X60795000Y-76058665D01*
X60795000Y-76341335D01*
X60850147Y-76618574D01*
X60958320Y-76879727D01*
X61115363Y-77114759D01*
X61315241Y-77314637D01*
X61547759Y-77470000D01*
X61315241Y-77625363D01*
X61115363Y-77825241D01*
X60958320Y-78060273D01*
X60850147Y-78321426D01*
X60795000Y-78598665D01*
X60795000Y-78881335D01*
X60850147Y-79158574D01*
X60958320Y-79419727D01*
X61115363Y-79654759D01*
X61315241Y-79854637D01*
X61547759Y-80010000D01*
X61315241Y-80165363D01*
X61115363Y-80365241D01*
X60960000Y-80597759D01*
X60804637Y-80365241D01*
X60604759Y-80165363D01*
X60369727Y-80008320D01*
X60108574Y-79900147D01*
X59831335Y-79845000D01*
X59548665Y-79845000D01*
X59271426Y-79900147D01*
X59010273Y-80008320D01*
X58775241Y-80165363D01*
X58575363Y-80365241D01*
X58420000Y-80597759D01*
X58264637Y-80365241D01*
X58064759Y-80165363D01*
X57829727Y-80008320D01*
X57568574Y-79900147D01*
X57291335Y-79845000D01*
X57008665Y-79845000D01*
X56731426Y-79900147D01*
X56470273Y-80008320D01*
X56235241Y-80165363D01*
X56035363Y-80365241D01*
X55880000Y-80597759D01*
X55724637Y-80365241D01*
X55524759Y-80165363D01*
X55289727Y-80008320D01*
X55028574Y-79900147D01*
X54751335Y-79845000D01*
X54468665Y-79845000D01*
X54191426Y-79900147D01*
X53930273Y-80008320D01*
X53695241Y-80165363D01*
X53495363Y-80365241D01*
X53340000Y-80597759D01*
X53184637Y-80365241D01*
X52984759Y-80165363D01*
X52749727Y-80008320D01*
X52488574Y-79900147D01*
X52211335Y-79845000D01*
X51928665Y-79845000D01*
X51651426Y-79900147D01*
X51390273Y-80008320D01*
X51155241Y-80165363D01*
X50955363Y-80365241D01*
X50800000Y-80597759D01*
X50644637Y-80365241D01*
X50444759Y-80165363D01*
X50209727Y-80008320D01*
X49948574Y-79900147D01*
X49671335Y-79845000D01*
X49388665Y-79845000D01*
X49111426Y-79900147D01*
X48850273Y-80008320D01*
X48615241Y-80165363D01*
X48415363Y-80365241D01*
X48260000Y-80597759D01*
X48104637Y-80365241D01*
X47904759Y-80165363D01*
X47669727Y-80008320D01*
X47408574Y-79900147D01*
X47131335Y-79845000D01*
X46848665Y-79845000D01*
X46571426Y-79900147D01*
X46310273Y-80008320D01*
X46075241Y-80165363D01*
X45875363Y-80365241D01*
X45720000Y-80597759D01*
X45564637Y-80365241D01*
X45364759Y-80165363D01*
X45129727Y-80008320D01*
X44868574Y-79900147D01*
X44591335Y-79845000D01*
X44308665Y-79845000D01*
X44031426Y-79900147D01*
X43770273Y-80008320D01*
X43535241Y-80165363D01*
X43335363Y-80365241D01*
X43180000Y-80597759D01*
X43024637Y-80365241D01*
X42824759Y-80165363D01*
X42589727Y-80008320D01*
X42328574Y-79900147D01*
X42051335Y-79845000D01*
X41768665Y-79845000D01*
X41491426Y-79900147D01*
X41230273Y-80008320D01*
X40995241Y-80165363D01*
X40795363Y-80365241D01*
X40640000Y-80597759D01*
X40484637Y-80365241D01*
X40284759Y-80165363D01*
X40049727Y-80008320D01*
X39788574Y-79900147D01*
X39511335Y-79845000D01*
X39228665Y-79845000D01*
X38951426Y-79900147D01*
X38690273Y-80008320D01*
X38455241Y-80165363D01*
X38255363Y-80365241D01*
X38100000Y-80597759D01*
X37944637Y-80365241D01*
X37744759Y-80165363D01*
X37509727Y-80008320D01*
X37248574Y-79900147D01*
X36971335Y-79845000D01*
X36688665Y-79845000D01*
X36411426Y-79900147D01*
X36150273Y-80008320D01*
X35915241Y-80165363D01*
X35715363Y-80365241D01*
X35560000Y-80597759D01*
X35404637Y-80365241D01*
X35204759Y-80165363D01*
X34969727Y-80008320D01*
X34708574Y-79900147D01*
X34431335Y-79845000D01*
X34148665Y-79845000D01*
X33871426Y-79900147D01*
X33610273Y-80008320D01*
X33375241Y-80165363D01*
X33175363Y-80365241D01*
X33020000Y-80597759D01*
X32864637Y-80365241D01*
X32664759Y-80165363D01*
X32429727Y-80008320D01*
X32168574Y-79900147D01*
X31891335Y-79845000D01*
X31608665Y-79845000D01*
X31331426Y-79900147D01*
X31070273Y-80008320D01*
X30835241Y-80165363D01*
X30636643Y-80363961D01*
X30635812Y-80355518D01*
X30599502Y-80235820D01*
X30540537Y-80125506D01*
X30461185Y-80028815D01*
X30364494Y-79949463D01*
X30254180Y-79890498D01*
X30134482Y-79854188D01*
X30010000Y-79841928D01*
X29495750Y-79845000D01*
X29337000Y-80003750D01*
X29337000Y-81153000D01*
X29357000Y-81153000D01*
X29357000Y-81407000D01*
X29337000Y-81407000D01*
X29337000Y-82556250D01*
X29495750Y-82715000D01*
X30010000Y-82718072D01*
X30134482Y-82705812D01*
X30254180Y-82669502D01*
X30364494Y-82610537D01*
X30461185Y-82531185D01*
X30540537Y-82434494D01*
X30599502Y-82324180D01*
X30635812Y-82204482D01*
X30636643Y-82196039D01*
X30835241Y-82394637D01*
X31070273Y-82551680D01*
X31331426Y-82659853D01*
X31608665Y-82715000D01*
X31891335Y-82715000D01*
X32168574Y-82659853D01*
X32429727Y-82551680D01*
X32664759Y-82394637D01*
X32864637Y-82194759D01*
X33020000Y-81962241D01*
X33175363Y-82194759D01*
X33375241Y-82394637D01*
X33610273Y-82551680D01*
X33871426Y-82659853D01*
X34148665Y-82715000D01*
X34431335Y-82715000D01*
X34708574Y-82659853D01*
X34969727Y-82551680D01*
X35204759Y-82394637D01*
X35404637Y-82194759D01*
X35560000Y-81962241D01*
X35715363Y-82194759D01*
X35915241Y-82394637D01*
X36150273Y-82551680D01*
X36411426Y-82659853D01*
X36688665Y-82715000D01*
X36971335Y-82715000D01*
X37248574Y-82659853D01*
X37509727Y-82551680D01*
X37744759Y-82394637D01*
X37944637Y-82194759D01*
X38100000Y-81962241D01*
X38255363Y-82194759D01*
X38455241Y-82394637D01*
X38690273Y-82551680D01*
X38951426Y-82659853D01*
X39228665Y-82715000D01*
X39511335Y-82715000D01*
X39788574Y-82659853D01*
X40049727Y-82551680D01*
X40284759Y-82394637D01*
X40484637Y-82194759D01*
X40640000Y-81962241D01*
X40795363Y-82194759D01*
X40995241Y-82394637D01*
X41230273Y-82551680D01*
X41491426Y-82659853D01*
X41768665Y-82715000D01*
X42051335Y-82715000D01*
X42328574Y-82659853D01*
X42589727Y-82551680D01*
X42824759Y-82394637D01*
X43024637Y-82194759D01*
X43180000Y-81962241D01*
X43335363Y-82194759D01*
X43535241Y-82394637D01*
X43770273Y-82551680D01*
X44031426Y-82659853D01*
X44308665Y-82715000D01*
X44591335Y-82715000D01*
X44868574Y-82659853D01*
X45129727Y-82551680D01*
X45364759Y-82394637D01*
X45564637Y-82194759D01*
X45720000Y-81962241D01*
X45875363Y-82194759D01*
X46075241Y-82394637D01*
X46310273Y-82551680D01*
X46571426Y-82659853D01*
X46848665Y-82715000D01*
X47131335Y-82715000D01*
X47408574Y-82659853D01*
X47669727Y-82551680D01*
X47904759Y-82394637D01*
X48104637Y-82194759D01*
X48260000Y-81962241D01*
X48415363Y-82194759D01*
X48615241Y-82394637D01*
X48850273Y-82551680D01*
X49111426Y-82659853D01*
X49388665Y-82715000D01*
X49671335Y-82715000D01*
X49948574Y-82659853D01*
X50209727Y-82551680D01*
X50444759Y-82394637D01*
X50644637Y-82194759D01*
X50800000Y-81962241D01*
X50955363Y-82194759D01*
X51155241Y-82394637D01*
X51390273Y-82551680D01*
X51651426Y-82659853D01*
X51928665Y-82715000D01*
X52211335Y-82715000D01*
X52488574Y-82659853D01*
X52749727Y-82551680D01*
X52984759Y-82394637D01*
X53184637Y-82194759D01*
X53340000Y-81962241D01*
X53495363Y-82194759D01*
X53695241Y-82394637D01*
X53930273Y-82551680D01*
X54191426Y-82659853D01*
X54468665Y-82715000D01*
X54751335Y-82715000D01*
X55028574Y-82659853D01*
X55289727Y-82551680D01*
X55524759Y-82394637D01*
X55724637Y-82194759D01*
X55880000Y-81962241D01*
X56035363Y-82194759D01*
X56235241Y-82394637D01*
X56440001Y-82531453D01*
X56440000Y-83785125D01*
X56436565Y-83820000D01*
X56440000Y-83854875D01*
X56440000Y-83854876D01*
X56450273Y-83959183D01*
X56490872Y-84093019D01*
X56556800Y-84216362D01*
X56645525Y-84324474D01*
X56672617Y-84346708D01*
X57893292Y-85567384D01*
X57915525Y-85594475D01*
X58023637Y-85683200D01*
X58055068Y-85700000D01*
X27330000Y-85700000D01*
X27330000Y-82080000D01*
X27771928Y-82080000D01*
X27784188Y-82204482D01*
X27820498Y-82324180D01*
X27879463Y-82434494D01*
X27958815Y-82531185D01*
X28055506Y-82610537D01*
X28165820Y-82669502D01*
X28285518Y-82705812D01*
X28410000Y-82718072D01*
X28924250Y-82715000D01*
X29083000Y-82556250D01*
X29083000Y-81407000D01*
X27933750Y-81407000D01*
X27775000Y-81565750D01*
X27771928Y-82080000D01*
X27330000Y-82080000D01*
X27330000Y-80480000D01*
X27771928Y-80480000D01*
X27775000Y-80994250D01*
X27933750Y-81153000D01*
X29083000Y-81153000D01*
X29083000Y-80003750D01*
X28924250Y-79845000D01*
X28410000Y-79841928D01*
X28285518Y-79854188D01*
X28165820Y-79890498D01*
X28055506Y-79949463D01*
X27958815Y-80028815D01*
X27879463Y-80125506D01*
X27820498Y-80235820D01*
X27784188Y-80355518D01*
X27771928Y-80480000D01*
X27330000Y-80480000D01*
X27330000Y-59548665D01*
X27775000Y-59548665D01*
X27775000Y-59831335D01*
X27830147Y-60108574D01*
X27938320Y-60369727D01*
X28095363Y-60604759D01*
X28295241Y-60804637D01*
X28530273Y-60961680D01*
X28791426Y-61069853D01*
X29068665Y-61125000D01*
X29351335Y-61125000D01*
X29628574Y-61069853D01*
X29889727Y-60961680D01*
X30124759Y-60804637D01*
X30246694Y-60682702D01*
X30896903Y-60682702D01*
X30968486Y-60926671D01*
X31223996Y-61047571D01*
X31498184Y-61116300D01*
X31780512Y-61130217D01*
X32060130Y-61088787D01*
X32326292Y-60993603D01*
X32451514Y-60926671D01*
X32523097Y-60682702D01*
X31710000Y-59869605D01*
X30896903Y-60682702D01*
X30246694Y-60682702D01*
X30324637Y-60604759D01*
X30458692Y-60404131D01*
X30473329Y-60431514D01*
X30717298Y-60503097D01*
X31530395Y-59690000D01*
X31889605Y-59690000D01*
X32702702Y-60503097D01*
X32946671Y-60431514D01*
X33067571Y-60176004D01*
X33136300Y-59901816D01*
X33150217Y-59619488D01*
X33108787Y-59339870D01*
X33013603Y-59073708D01*
X32946671Y-58948486D01*
X32702702Y-58876903D01*
X31889605Y-59690000D01*
X31530395Y-59690000D01*
X30717298Y-58876903D01*
X30473329Y-58948486D01*
X30459676Y-58977341D01*
X30324637Y-58775241D01*
X30246694Y-58697298D01*
X30896903Y-58697298D01*
X31710000Y-59510395D01*
X32430395Y-58790000D01*
X119111928Y-58790000D01*
X119115000Y-59404250D01*
X119273750Y-59563000D01*
X120523000Y-59563000D01*
X120523000Y-58313750D01*
X120364250Y-58155000D01*
X119750000Y-58151928D01*
X119625518Y-58164188D01*
X119505820Y-58200498D01*
X119395506Y-58259463D01*
X119298815Y-58338815D01*
X119219463Y-58435506D01*
X119160498Y-58545820D01*
X119124188Y-58665518D01*
X119111928Y-58790000D01*
X32430395Y-58790000D01*
X32523097Y-58697298D01*
X32451514Y-58453329D01*
X32196004Y-58332429D01*
X31921816Y-58263700D01*
X31639488Y-58249783D01*
X31359870Y-58291213D01*
X31093708Y-58386397D01*
X30968486Y-58453329D01*
X30896903Y-58697298D01*
X30246694Y-58697298D01*
X30124759Y-58575363D01*
X29889727Y-58418320D01*
X29628574Y-58310147D01*
X29351335Y-58255000D01*
X29068665Y-58255000D01*
X28791426Y-58310147D01*
X28530273Y-58418320D01*
X28295241Y-58575363D01*
X28095363Y-58775241D01*
X27938320Y-59010273D01*
X27830147Y-59271426D01*
X27775000Y-59548665D01*
X27330000Y-59548665D01*
X27330000Y-54389872D01*
X40945000Y-54389872D01*
X40945000Y-54830128D01*
X41030890Y-55261925D01*
X41199369Y-55668669D01*
X41443962Y-56034729D01*
X41755271Y-56346038D01*
X42121331Y-56590631D01*
X42528075Y-56759110D01*
X42959872Y-56845000D01*
X43400128Y-56845000D01*
X43831925Y-56759110D01*
X44238669Y-56590631D01*
X44604729Y-56346038D01*
X44916038Y-56034729D01*
X45160631Y-55668669D01*
X45329110Y-55261925D01*
X45415000Y-54830128D01*
X45415000Y-54630000D01*
X74741928Y-54630000D01*
X74741928Y-57130000D01*
X74754188Y-57254482D01*
X74790498Y-57374180D01*
X74849463Y-57484494D01*
X74928815Y-57581185D01*
X75025506Y-57660537D01*
X75135820Y-57719502D01*
X75255518Y-57755812D01*
X75380000Y-57768072D01*
X77180000Y-57768072D01*
X77304482Y-57755812D01*
X77424180Y-57719502D01*
X77534494Y-57660537D01*
X77631185Y-57581185D01*
X77710537Y-57484494D01*
X77769502Y-57374180D01*
X77805812Y-57254482D01*
X77818072Y-57130000D01*
X77818072Y-55758363D01*
X80045000Y-55758363D01*
X80045000Y-56001637D01*
X80092460Y-56240236D01*
X80185557Y-56464992D01*
X80320713Y-56667267D01*
X80492733Y-56839287D01*
X80695008Y-56974443D01*
X80919764Y-57067540D01*
X81158363Y-57115000D01*
X81401637Y-57115000D01*
X81640236Y-57067540D01*
X81864992Y-56974443D01*
X82067267Y-56839287D01*
X82239287Y-56667267D01*
X82374443Y-56464992D01*
X82467540Y-56240236D01*
X82515000Y-56001637D01*
X82515000Y-55758363D01*
X82467540Y-55519764D01*
X82374443Y-55295008D01*
X82239287Y-55092733D01*
X82067267Y-54920713D01*
X81864992Y-54785557D01*
X81640236Y-54692460D01*
X81401637Y-54645000D01*
X81158363Y-54645000D01*
X80919764Y-54692460D01*
X80695008Y-54785557D01*
X80492733Y-54920713D01*
X80320713Y-55092733D01*
X80185557Y-55295008D01*
X80092460Y-55519764D01*
X80045000Y-55758363D01*
X77818072Y-55758363D01*
X77818072Y-54630000D01*
X84741928Y-54630000D01*
X84741928Y-57130000D01*
X84754188Y-57254482D01*
X84790498Y-57374180D01*
X84849463Y-57484494D01*
X84928815Y-57581185D01*
X85025506Y-57660537D01*
X85135820Y-57719502D01*
X85255518Y-57755812D01*
X85380000Y-57768072D01*
X87180000Y-57768072D01*
X87304482Y-57755812D01*
X87424180Y-57719502D01*
X87534494Y-57660537D01*
X87631185Y-57581185D01*
X87710537Y-57484494D01*
X87769502Y-57374180D01*
X87805812Y-57254482D01*
X87818072Y-57130000D01*
X87818072Y-54630000D01*
X89981928Y-54630000D01*
X89981928Y-57130000D01*
X89994188Y-57254482D01*
X90030498Y-57374180D01*
X90089463Y-57484494D01*
X90168815Y-57581185D01*
X90265506Y-57660537D01*
X90375820Y-57719502D01*
X90495518Y-57755812D01*
X90620000Y-57768072D01*
X92420000Y-57768072D01*
X92544482Y-57755812D01*
X92664180Y-57719502D01*
X92774494Y-57660537D01*
X92871185Y-57581185D01*
X92950537Y-57484494D01*
X93009502Y-57374180D01*
X93045812Y-57254482D01*
X93058072Y-57130000D01*
X93058072Y-55758363D01*
X95285000Y-55758363D01*
X95285000Y-56001637D01*
X95332460Y-56240236D01*
X95425557Y-56464992D01*
X95560713Y-56667267D01*
X95732733Y-56839287D01*
X95935008Y-56974443D01*
X96159764Y-57067540D01*
X96398363Y-57115000D01*
X96641637Y-57115000D01*
X96880236Y-57067540D01*
X97104992Y-56974443D01*
X97307267Y-56839287D01*
X97479287Y-56667267D01*
X97614443Y-56464992D01*
X97707540Y-56240236D01*
X97755000Y-56001637D01*
X97755000Y-55758363D01*
X97707540Y-55519764D01*
X97614443Y-55295008D01*
X97479287Y-55092733D01*
X97307267Y-54920713D01*
X97104992Y-54785557D01*
X96880236Y-54692460D01*
X96641637Y-54645000D01*
X96398363Y-54645000D01*
X96159764Y-54692460D01*
X95935008Y-54785557D01*
X95732733Y-54920713D01*
X95560713Y-55092733D01*
X95425557Y-55295008D01*
X95332460Y-55519764D01*
X95285000Y-55758363D01*
X93058072Y-55758363D01*
X93058072Y-54630000D01*
X99981928Y-54630000D01*
X99981928Y-57130000D01*
X99994188Y-57254482D01*
X100030498Y-57374180D01*
X100089463Y-57484494D01*
X100168815Y-57581185D01*
X100265506Y-57660537D01*
X100375820Y-57719502D01*
X100495518Y-57755812D01*
X100620000Y-57768072D01*
X102420000Y-57768072D01*
X102544482Y-57755812D01*
X102664180Y-57719502D01*
X102774494Y-57660537D01*
X102871185Y-57581185D01*
X102950537Y-57484494D01*
X103009502Y-57374180D01*
X103045812Y-57254482D01*
X103058072Y-57130000D01*
X103058072Y-54630000D01*
X105221928Y-54630000D01*
X105221928Y-57130000D01*
X105234188Y-57254482D01*
X105270498Y-57374180D01*
X105329463Y-57484494D01*
X105408815Y-57581185D01*
X105505506Y-57660537D01*
X105615820Y-57719502D01*
X105735518Y-57755812D01*
X105860000Y-57768072D01*
X107660000Y-57768072D01*
X107784482Y-57755812D01*
X107904180Y-57719502D01*
X108014494Y-57660537D01*
X108111185Y-57581185D01*
X108190537Y-57484494D01*
X108249502Y-57374180D01*
X108285812Y-57254482D01*
X108298072Y-57130000D01*
X108298072Y-55758363D01*
X110525000Y-55758363D01*
X110525000Y-56001637D01*
X110572460Y-56240236D01*
X110665557Y-56464992D01*
X110800713Y-56667267D01*
X110972733Y-56839287D01*
X111175008Y-56974443D01*
X111399764Y-57067540D01*
X111638363Y-57115000D01*
X111881637Y-57115000D01*
X112120236Y-57067540D01*
X112344992Y-56974443D01*
X112547267Y-56839287D01*
X112719287Y-56667267D01*
X112854443Y-56464992D01*
X112947540Y-56240236D01*
X112995000Y-56001637D01*
X112995000Y-55758363D01*
X112947540Y-55519764D01*
X112854443Y-55295008D01*
X112719287Y-55092733D01*
X112547267Y-54920713D01*
X112344992Y-54785557D01*
X112120236Y-54692460D01*
X111881637Y-54645000D01*
X111638363Y-54645000D01*
X111399764Y-54692460D01*
X111175008Y-54785557D01*
X110972733Y-54920713D01*
X110800713Y-55092733D01*
X110665557Y-55295008D01*
X110572460Y-55519764D01*
X110525000Y-55758363D01*
X108298072Y-55758363D01*
X108298072Y-54630000D01*
X115221928Y-54630000D01*
X115221928Y-57130000D01*
X115234188Y-57254482D01*
X115270498Y-57374180D01*
X115329463Y-57484494D01*
X115408815Y-57581185D01*
X115505506Y-57660537D01*
X115615820Y-57719502D01*
X115735518Y-57755812D01*
X115860000Y-57768072D01*
X117660000Y-57768072D01*
X117784482Y-57755812D01*
X117904180Y-57719502D01*
X118014494Y-57660537D01*
X118111185Y-57581185D01*
X118190537Y-57484494D01*
X118249502Y-57374180D01*
X118285812Y-57254482D01*
X118298072Y-57130000D01*
X118298072Y-54630000D01*
X118285812Y-54505518D01*
X118249502Y-54385820D01*
X118190537Y-54275506D01*
X118111185Y-54178815D01*
X118014494Y-54099463D01*
X117904180Y-54040498D01*
X117784482Y-54004188D01*
X117660000Y-53991928D01*
X115860000Y-53991928D01*
X115735518Y-54004188D01*
X115615820Y-54040498D01*
X115505506Y-54099463D01*
X115408815Y-54178815D01*
X115329463Y-54275506D01*
X115270498Y-54385820D01*
X115234188Y-54505518D01*
X115221928Y-54630000D01*
X108298072Y-54630000D01*
X108285812Y-54505518D01*
X108249502Y-54385820D01*
X108190537Y-54275506D01*
X108111185Y-54178815D01*
X108014494Y-54099463D01*
X107904180Y-54040498D01*
X107784482Y-54004188D01*
X107660000Y-53991928D01*
X105860000Y-53991928D01*
X105735518Y-54004188D01*
X105615820Y-54040498D01*
X105505506Y-54099463D01*
X105408815Y-54178815D01*
X105329463Y-54275506D01*
X105270498Y-54385820D01*
X105234188Y-54505518D01*
X105221928Y-54630000D01*
X103058072Y-54630000D01*
X103045812Y-54505518D01*
X103009502Y-54385820D01*
X102950537Y-54275506D01*
X102871185Y-54178815D01*
X102774494Y-54099463D01*
X102664180Y-54040498D01*
X102544482Y-54004188D01*
X102420000Y-53991928D01*
X100620000Y-53991928D01*
X100495518Y-54004188D01*
X100375820Y-54040498D01*
X100265506Y-54099463D01*
X100168815Y-54178815D01*
X100089463Y-54275506D01*
X100030498Y-54385820D01*
X99994188Y-54505518D01*
X99981928Y-54630000D01*
X93058072Y-54630000D01*
X93045812Y-54505518D01*
X93009502Y-54385820D01*
X92950537Y-54275506D01*
X92871185Y-54178815D01*
X92774494Y-54099463D01*
X92664180Y-54040498D01*
X92544482Y-54004188D01*
X92420000Y-53991928D01*
X90620000Y-53991928D01*
X90495518Y-54004188D01*
X90375820Y-54040498D01*
X90265506Y-54099463D01*
X90168815Y-54178815D01*
X90089463Y-54275506D01*
X90030498Y-54385820D01*
X89994188Y-54505518D01*
X89981928Y-54630000D01*
X87818072Y-54630000D01*
X87805812Y-54505518D01*
X87769502Y-54385820D01*
X87710537Y-54275506D01*
X87631185Y-54178815D01*
X87534494Y-54099463D01*
X87424180Y-54040498D01*
X87304482Y-54004188D01*
X87180000Y-53991928D01*
X85380000Y-53991928D01*
X85255518Y-54004188D01*
X85135820Y-54040498D01*
X85025506Y-54099463D01*
X84928815Y-54178815D01*
X84849463Y-54275506D01*
X84790498Y-54385820D01*
X84754188Y-54505518D01*
X84741928Y-54630000D01*
X77818072Y-54630000D01*
X77805812Y-54505518D01*
X77769502Y-54385820D01*
X77710537Y-54275506D01*
X77631185Y-54178815D01*
X77534494Y-54099463D01*
X77424180Y-54040498D01*
X77304482Y-54004188D01*
X77180000Y-53991928D01*
X75380000Y-53991928D01*
X75255518Y-54004188D01*
X75135820Y-54040498D01*
X75025506Y-54099463D01*
X74928815Y-54178815D01*
X74849463Y-54275506D01*
X74790498Y-54385820D01*
X74754188Y-54505518D01*
X74741928Y-54630000D01*
X45415000Y-54630000D01*
X45415000Y-54389872D01*
X45329110Y-53958075D01*
X45160631Y-53551331D01*
X44916038Y-53185271D01*
X44604729Y-52873962D01*
X44238669Y-52629369D01*
X43831925Y-52460890D01*
X43400128Y-52375000D01*
X42959872Y-52375000D01*
X42528075Y-52460890D01*
X42121331Y-52629369D01*
X41755271Y-52873962D01*
X41443962Y-53185271D01*
X41199369Y-53551331D01*
X41030890Y-53958075D01*
X40945000Y-54389872D01*
X27330000Y-54389872D01*
X27330000Y-50758363D01*
X75045000Y-50758363D01*
X75045000Y-51001637D01*
X75092460Y-51240236D01*
X75185557Y-51464992D01*
X75320713Y-51667267D01*
X75492733Y-51839287D01*
X75695008Y-51974443D01*
X75919764Y-52067540D01*
X76158363Y-52115000D01*
X76401637Y-52115000D01*
X76640236Y-52067540D01*
X76864992Y-51974443D01*
X77067267Y-51839287D01*
X77126554Y-51780000D01*
X79391928Y-51780000D01*
X79404188Y-51904482D01*
X79440498Y-52024180D01*
X79499463Y-52134494D01*
X79578815Y-52231185D01*
X79675506Y-52310537D01*
X79785820Y-52369502D01*
X79905518Y-52405812D01*
X80030000Y-52418072D01*
X80994250Y-52415000D01*
X81153000Y-52256250D01*
X81153000Y-51007000D01*
X81407000Y-51007000D01*
X81407000Y-52256250D01*
X81565750Y-52415000D01*
X82530000Y-52418072D01*
X82654482Y-52405812D01*
X82774180Y-52369502D01*
X82884494Y-52310537D01*
X82981185Y-52231185D01*
X83060537Y-52134494D01*
X83119502Y-52024180D01*
X83155812Y-51904482D01*
X83168072Y-51780000D01*
X83165000Y-51165750D01*
X83006250Y-51007000D01*
X81407000Y-51007000D01*
X81153000Y-51007000D01*
X79553750Y-51007000D01*
X79395000Y-51165750D01*
X79391928Y-51780000D01*
X77126554Y-51780000D01*
X77239287Y-51667267D01*
X77374443Y-51464992D01*
X77467540Y-51240236D01*
X77515000Y-51001637D01*
X77515000Y-50758363D01*
X85045000Y-50758363D01*
X85045000Y-51001637D01*
X85092460Y-51240236D01*
X85185557Y-51464992D01*
X85320713Y-51667267D01*
X85492733Y-51839287D01*
X85695008Y-51974443D01*
X85919764Y-52067540D01*
X86158363Y-52115000D01*
X86401637Y-52115000D01*
X86640236Y-52067540D01*
X86864992Y-51974443D01*
X87067267Y-51839287D01*
X87239287Y-51667267D01*
X87374443Y-51464992D01*
X87467540Y-51240236D01*
X87515000Y-51001637D01*
X87515000Y-50758363D01*
X90285000Y-50758363D01*
X90285000Y-51001637D01*
X90332460Y-51240236D01*
X90425557Y-51464992D01*
X90560713Y-51667267D01*
X90732733Y-51839287D01*
X90935008Y-51974443D01*
X91159764Y-52067540D01*
X91398363Y-52115000D01*
X91641637Y-52115000D01*
X91880236Y-52067540D01*
X92104992Y-51974443D01*
X92307267Y-51839287D01*
X92366554Y-51780000D01*
X94631928Y-51780000D01*
X94644188Y-51904482D01*
X94680498Y-52024180D01*
X94739463Y-52134494D01*
X94818815Y-52231185D01*
X94915506Y-52310537D01*
X95025820Y-52369502D01*
X95145518Y-52405812D01*
X95270000Y-52418072D01*
X96234250Y-52415000D01*
X96393000Y-52256250D01*
X96393000Y-51007000D01*
X96647000Y-51007000D01*
X96647000Y-52256250D01*
X96805750Y-52415000D01*
X97770000Y-52418072D01*
X97894482Y-52405812D01*
X98014180Y-52369502D01*
X98124494Y-52310537D01*
X98221185Y-52231185D01*
X98300537Y-52134494D01*
X98359502Y-52024180D01*
X98395812Y-51904482D01*
X98408072Y-51780000D01*
X98405000Y-51165750D01*
X98246250Y-51007000D01*
X96647000Y-51007000D01*
X96393000Y-51007000D01*
X94793750Y-51007000D01*
X94635000Y-51165750D01*
X94631928Y-51780000D01*
X92366554Y-51780000D01*
X92479287Y-51667267D01*
X92614443Y-51464992D01*
X92707540Y-51240236D01*
X92755000Y-51001637D01*
X92755000Y-50758363D01*
X100285000Y-50758363D01*
X100285000Y-51001637D01*
X100332460Y-51240236D01*
X100425557Y-51464992D01*
X100560713Y-51667267D01*
X100732733Y-51839287D01*
X100935008Y-51974443D01*
X101159764Y-52067540D01*
X101398363Y-52115000D01*
X101641637Y-52115000D01*
X101880236Y-52067540D01*
X102104992Y-51974443D01*
X102307267Y-51839287D01*
X102479287Y-51667267D01*
X102614443Y-51464992D01*
X102707540Y-51240236D01*
X102755000Y-51001637D01*
X102755000Y-50758363D01*
X105525000Y-50758363D01*
X105525000Y-51001637D01*
X105572460Y-51240236D01*
X105665557Y-51464992D01*
X105800713Y-51667267D01*
X105972733Y-51839287D01*
X106175008Y-51974443D01*
X106399764Y-52067540D01*
X106638363Y-52115000D01*
X106881637Y-52115000D01*
X107120236Y-52067540D01*
X107344992Y-51974443D01*
X107547267Y-51839287D01*
X107606554Y-51780000D01*
X109871928Y-51780000D01*
X109884188Y-51904482D01*
X109920498Y-52024180D01*
X109979463Y-52134494D01*
X110058815Y-52231185D01*
X110155506Y-52310537D01*
X110265820Y-52369502D01*
X110385518Y-52405812D01*
X110510000Y-52418072D01*
X111474250Y-52415000D01*
X111633000Y-52256250D01*
X111633000Y-51007000D01*
X111887000Y-51007000D01*
X111887000Y-52256250D01*
X112045750Y-52415000D01*
X113010000Y-52418072D01*
X113134482Y-52405812D01*
X113254180Y-52369502D01*
X113364494Y-52310537D01*
X113461185Y-52231185D01*
X113540537Y-52134494D01*
X113599502Y-52024180D01*
X113635812Y-51904482D01*
X113648072Y-51780000D01*
X113645000Y-51165750D01*
X113486250Y-51007000D01*
X111887000Y-51007000D01*
X111633000Y-51007000D01*
X110033750Y-51007000D01*
X109875000Y-51165750D01*
X109871928Y-51780000D01*
X107606554Y-51780000D01*
X107719287Y-51667267D01*
X107854443Y-51464992D01*
X107947540Y-51240236D01*
X107995000Y-51001637D01*
X107995000Y-50758363D01*
X115525000Y-50758363D01*
X115525000Y-51001637D01*
X115572460Y-51240236D01*
X115665557Y-51464992D01*
X115800713Y-51667267D01*
X115972733Y-51839287D01*
X116175008Y-51974443D01*
X116399764Y-52067540D01*
X116638363Y-52115000D01*
X116881637Y-52115000D01*
X117120236Y-52067540D01*
X117344992Y-51974443D01*
X117547267Y-51839287D01*
X117719287Y-51667267D01*
X117854443Y-51464992D01*
X117947540Y-51240236D01*
X117995000Y-51001637D01*
X117995000Y-50758363D01*
X117947540Y-50519764D01*
X117854443Y-50295008D01*
X117719287Y-50092733D01*
X117547267Y-49920713D01*
X117344992Y-49785557D01*
X117120236Y-49692460D01*
X116881637Y-49645000D01*
X116638363Y-49645000D01*
X116399764Y-49692460D01*
X116175008Y-49785557D01*
X115972733Y-49920713D01*
X115800713Y-50092733D01*
X115665557Y-50295008D01*
X115572460Y-50519764D01*
X115525000Y-50758363D01*
X107995000Y-50758363D01*
X107947540Y-50519764D01*
X107854443Y-50295008D01*
X107719287Y-50092733D01*
X107606554Y-49980000D01*
X109871928Y-49980000D01*
X109875000Y-50594250D01*
X110033750Y-50753000D01*
X111633000Y-50753000D01*
X111633000Y-49503750D01*
X111887000Y-49503750D01*
X111887000Y-50753000D01*
X113486250Y-50753000D01*
X113645000Y-50594250D01*
X113648072Y-49980000D01*
X113635812Y-49855518D01*
X113599502Y-49735820D01*
X113540537Y-49625506D01*
X113461185Y-49528815D01*
X113364494Y-49449463D01*
X113254180Y-49390498D01*
X113134482Y-49354188D01*
X113010000Y-49341928D01*
X112045750Y-49345000D01*
X111887000Y-49503750D01*
X111633000Y-49503750D01*
X111474250Y-49345000D01*
X110510000Y-49341928D01*
X110385518Y-49354188D01*
X110265820Y-49390498D01*
X110155506Y-49449463D01*
X110058815Y-49528815D01*
X109979463Y-49625506D01*
X109920498Y-49735820D01*
X109884188Y-49855518D01*
X109871928Y-49980000D01*
X107606554Y-49980000D01*
X107547267Y-49920713D01*
X107344992Y-49785557D01*
X107120236Y-49692460D01*
X106881637Y-49645000D01*
X106638363Y-49645000D01*
X106399764Y-49692460D01*
X106175008Y-49785557D01*
X105972733Y-49920713D01*
X105800713Y-50092733D01*
X105665557Y-50295008D01*
X105572460Y-50519764D01*
X105525000Y-50758363D01*
X102755000Y-50758363D01*
X102707540Y-50519764D01*
X102614443Y-50295008D01*
X102479287Y-50092733D01*
X102307267Y-49920713D01*
X102104992Y-49785557D01*
X101880236Y-49692460D01*
X101641637Y-49645000D01*
X101398363Y-49645000D01*
X101159764Y-49692460D01*
X100935008Y-49785557D01*
X100732733Y-49920713D01*
X100560713Y-50092733D01*
X100425557Y-50295008D01*
X100332460Y-50519764D01*
X100285000Y-50758363D01*
X92755000Y-50758363D01*
X92707540Y-50519764D01*
X92614443Y-50295008D01*
X92479287Y-50092733D01*
X92366554Y-49980000D01*
X94631928Y-49980000D01*
X94635000Y-50594250D01*
X94793750Y-50753000D01*
X96393000Y-50753000D01*
X96393000Y-49503750D01*
X96647000Y-49503750D01*
X96647000Y-50753000D01*
X98246250Y-50753000D01*
X98405000Y-50594250D01*
X98408072Y-49980000D01*
X98395812Y-49855518D01*
X98359502Y-49735820D01*
X98300537Y-49625506D01*
X98221185Y-49528815D01*
X98124494Y-49449463D01*
X98014180Y-49390498D01*
X97894482Y-49354188D01*
X97770000Y-49341928D01*
X96805750Y-49345000D01*
X96647000Y-49503750D01*
X96393000Y-49503750D01*
X96234250Y-49345000D01*
X95270000Y-49341928D01*
X95145518Y-49354188D01*
X95025820Y-49390498D01*
X94915506Y-49449463D01*
X94818815Y-49528815D01*
X94739463Y-49625506D01*
X94680498Y-49735820D01*
X94644188Y-49855518D01*
X94631928Y-49980000D01*
X92366554Y-49980000D01*
X92307267Y-49920713D01*
X92104992Y-49785557D01*
X91880236Y-49692460D01*
X91641637Y-49645000D01*
X91398363Y-49645000D01*
X91159764Y-49692460D01*
X90935008Y-49785557D01*
X90732733Y-49920713D01*
X90560713Y-50092733D01*
X90425557Y-50295008D01*
X90332460Y-50519764D01*
X90285000Y-50758363D01*
X87515000Y-50758363D01*
X87467540Y-50519764D01*
X87374443Y-50295008D01*
X87239287Y-50092733D01*
X87067267Y-49920713D01*
X86864992Y-49785557D01*
X86640236Y-49692460D01*
X86401637Y-49645000D01*
X86158363Y-49645000D01*
X85919764Y-49692460D01*
X85695008Y-49785557D01*
X85492733Y-49920713D01*
X85320713Y-50092733D01*
X85185557Y-50295008D01*
X85092460Y-50519764D01*
X85045000Y-50758363D01*
X77515000Y-50758363D01*
X77467540Y-50519764D01*
X77374443Y-50295008D01*
X77239287Y-50092733D01*
X77126554Y-49980000D01*
X79391928Y-49980000D01*
X79395000Y-50594250D01*
X79553750Y-50753000D01*
X81153000Y-50753000D01*
X81153000Y-49503750D01*
X81407000Y-49503750D01*
X81407000Y-50753000D01*
X83006250Y-50753000D01*
X83165000Y-50594250D01*
X83168072Y-49980000D01*
X83155812Y-49855518D01*
X83119502Y-49735820D01*
X83060537Y-49625506D01*
X82981185Y-49528815D01*
X82884494Y-49449463D01*
X82774180Y-49390498D01*
X82654482Y-49354188D01*
X82530000Y-49341928D01*
X81565750Y-49345000D01*
X81407000Y-49503750D01*
X81153000Y-49503750D01*
X80994250Y-49345000D01*
X80030000Y-49341928D01*
X79905518Y-49354188D01*
X79785820Y-49390498D01*
X79675506Y-49449463D01*
X79578815Y-49528815D01*
X79499463Y-49625506D01*
X79440498Y-49735820D01*
X79404188Y-49855518D01*
X79391928Y-49980000D01*
X77126554Y-49980000D01*
X77067267Y-49920713D01*
X76864992Y-49785557D01*
X76640236Y-49692460D01*
X76401637Y-49645000D01*
X76158363Y-49645000D01*
X75919764Y-49692460D01*
X75695008Y-49785557D01*
X75492733Y-49920713D01*
X75320713Y-50092733D01*
X75185557Y-50295008D01*
X75092460Y-50519764D01*
X75045000Y-50758363D01*
X27330000Y-50758363D01*
X27330000Y-48258363D01*
X75045000Y-48258363D01*
X75045000Y-48501637D01*
X75092460Y-48740236D01*
X75185557Y-48964992D01*
X75320713Y-49167267D01*
X75492733Y-49339287D01*
X75695008Y-49474443D01*
X75919764Y-49567540D01*
X76158363Y-49615000D01*
X76401637Y-49615000D01*
X76640236Y-49567540D01*
X76864992Y-49474443D01*
X77067267Y-49339287D01*
X77239287Y-49167267D01*
X77374443Y-48964992D01*
X77467540Y-48740236D01*
X77515000Y-48501637D01*
X77515000Y-48258363D01*
X85045000Y-48258363D01*
X85045000Y-48501637D01*
X85092460Y-48740236D01*
X85185557Y-48964992D01*
X85320713Y-49167267D01*
X85492733Y-49339287D01*
X85695008Y-49474443D01*
X85919764Y-49567540D01*
X86158363Y-49615000D01*
X86401637Y-49615000D01*
X86640236Y-49567540D01*
X86864992Y-49474443D01*
X87067267Y-49339287D01*
X87239287Y-49167267D01*
X87374443Y-48964992D01*
X87467540Y-48740236D01*
X87515000Y-48501637D01*
X87515000Y-48258363D01*
X90285000Y-48258363D01*
X90285000Y-48501637D01*
X90332460Y-48740236D01*
X90425557Y-48964992D01*
X90560713Y-49167267D01*
X90732733Y-49339287D01*
X90935008Y-49474443D01*
X91159764Y-49567540D01*
X91398363Y-49615000D01*
X91641637Y-49615000D01*
X91880236Y-49567540D01*
X92104992Y-49474443D01*
X92307267Y-49339287D01*
X92479287Y-49167267D01*
X92614443Y-48964992D01*
X92707540Y-48740236D01*
X92755000Y-48501637D01*
X92755000Y-48258363D01*
X100285000Y-48258363D01*
X100285000Y-48501637D01*
X100332460Y-48740236D01*
X100425557Y-48964992D01*
X100560713Y-49167267D01*
X100732733Y-49339287D01*
X100935008Y-49474443D01*
X101159764Y-49567540D01*
X101398363Y-49615000D01*
X101641637Y-49615000D01*
X101880236Y-49567540D01*
X102104992Y-49474443D01*
X102307267Y-49339287D01*
X102479287Y-49167267D01*
X102614443Y-48964992D01*
X102707540Y-48740236D01*
X102755000Y-48501637D01*
X102755000Y-48258363D01*
X105525000Y-48258363D01*
X105525000Y-48501637D01*
X105572460Y-48740236D01*
X105665557Y-48964992D01*
X105800713Y-49167267D01*
X105972733Y-49339287D01*
X106175008Y-49474443D01*
X106399764Y-49567540D01*
X106638363Y-49615000D01*
X106881637Y-49615000D01*
X107120236Y-49567540D01*
X107344992Y-49474443D01*
X107547267Y-49339287D01*
X107719287Y-49167267D01*
X107854443Y-48964992D01*
X107947540Y-48740236D01*
X107995000Y-48501637D01*
X107995000Y-48258363D01*
X115525000Y-48258363D01*
X115525000Y-48501637D01*
X115572460Y-48740236D01*
X115665557Y-48964992D01*
X115800713Y-49167267D01*
X115972733Y-49339287D01*
X116175008Y-49474443D01*
X116399764Y-49567540D01*
X116638363Y-49615000D01*
X116881637Y-49615000D01*
X117120236Y-49567540D01*
X117344992Y-49474443D01*
X117547267Y-49339287D01*
X117719287Y-49167267D01*
X117854443Y-48964992D01*
X117947540Y-48740236D01*
X117995000Y-48501637D01*
X117995000Y-48258363D01*
X117947540Y-48019764D01*
X117854443Y-47795008D01*
X117719287Y-47592733D01*
X117547267Y-47420713D01*
X117344992Y-47285557D01*
X117120236Y-47192460D01*
X116881637Y-47145000D01*
X116638363Y-47145000D01*
X116399764Y-47192460D01*
X116175008Y-47285557D01*
X115972733Y-47420713D01*
X115800713Y-47592733D01*
X115665557Y-47795008D01*
X115572460Y-48019764D01*
X115525000Y-48258363D01*
X107995000Y-48258363D01*
X107947540Y-48019764D01*
X107854443Y-47795008D01*
X107719287Y-47592733D01*
X107547267Y-47420713D01*
X107344992Y-47285557D01*
X107120236Y-47192460D01*
X106881637Y-47145000D01*
X106638363Y-47145000D01*
X106399764Y-47192460D01*
X106175008Y-47285557D01*
X105972733Y-47420713D01*
X105800713Y-47592733D01*
X105665557Y-47795008D01*
X105572460Y-48019764D01*
X105525000Y-48258363D01*
X102755000Y-48258363D01*
X102707540Y-48019764D01*
X102614443Y-47795008D01*
X102479287Y-47592733D01*
X102307267Y-47420713D01*
X102104992Y-47285557D01*
X101880236Y-47192460D01*
X101641637Y-47145000D01*
X101398363Y-47145000D01*
X101159764Y-47192460D01*
X100935008Y-47285557D01*
X100732733Y-47420713D01*
X100560713Y-47592733D01*
X100425557Y-47795008D01*
X100332460Y-48019764D01*
X100285000Y-48258363D01*
X92755000Y-48258363D01*
X92707540Y-48019764D01*
X92614443Y-47795008D01*
X92479287Y-47592733D01*
X92307267Y-47420713D01*
X92104992Y-47285557D01*
X91880236Y-47192460D01*
X91641637Y-47145000D01*
X91398363Y-47145000D01*
X91159764Y-47192460D01*
X90935008Y-47285557D01*
X90732733Y-47420713D01*
X90560713Y-47592733D01*
X90425557Y-47795008D01*
X90332460Y-48019764D01*
X90285000Y-48258363D01*
X87515000Y-48258363D01*
X87467540Y-48019764D01*
X87374443Y-47795008D01*
X87239287Y-47592733D01*
X87067267Y-47420713D01*
X86864992Y-47285557D01*
X86640236Y-47192460D01*
X86401637Y-47145000D01*
X86158363Y-47145000D01*
X85919764Y-47192460D01*
X85695008Y-47285557D01*
X85492733Y-47420713D01*
X85320713Y-47592733D01*
X85185557Y-47795008D01*
X85092460Y-48019764D01*
X85045000Y-48258363D01*
X77515000Y-48258363D01*
X77467540Y-48019764D01*
X77374443Y-47795008D01*
X77239287Y-47592733D01*
X77067267Y-47420713D01*
X76864992Y-47285557D01*
X76640236Y-47192460D01*
X76401637Y-47145000D01*
X76158363Y-47145000D01*
X75919764Y-47192460D01*
X75695008Y-47285557D01*
X75492733Y-47420713D01*
X75320713Y-47592733D01*
X75185557Y-47795008D01*
X75092460Y-48019764D01*
X75045000Y-48258363D01*
X27330000Y-48258363D01*
X27330000Y-45110000D01*
X125070001Y-45110000D01*
X125070000Y-85700000D01*
%TA.AperFunction,Conductor*%
D21*
G36*
X125070000Y-85700000D02*
G01*
X105774932Y-85700000D01*
X105806363Y-85683200D01*
X105914475Y-85594475D01*
X105936712Y-85567379D01*
X108427384Y-83076708D01*
X108454475Y-83054475D01*
X108488053Y-83013560D01*
X108543199Y-82946365D01*
X108548973Y-82935563D01*
X108609128Y-82823020D01*
X108649727Y-82689184D01*
X108660000Y-82584877D01*
X108660000Y-82584876D01*
X108663435Y-82550001D01*
X108660000Y-82515126D01*
X108660000Y-80884042D01*
X111345000Y-80884042D01*
X111345000Y-81215958D01*
X111409754Y-81541496D01*
X111536772Y-81848147D01*
X111721175Y-82124125D01*
X111955875Y-82358825D01*
X112231853Y-82543228D01*
X112538504Y-82670246D01*
X112864042Y-82735000D01*
X113195958Y-82735000D01*
X113521496Y-82670246D01*
X113828147Y-82543228D01*
X114104125Y-82358825D01*
X114338825Y-82124125D01*
X114523228Y-81848147D01*
X114650246Y-81541496D01*
X114715000Y-81215958D01*
X114715000Y-80884042D01*
X114700454Y-80810912D01*
X115612500Y-80810912D01*
X115612500Y-81289088D01*
X115705787Y-81758076D01*
X115888777Y-82199853D01*
X116154437Y-82597441D01*
X116492559Y-82935563D01*
X116890147Y-83201223D01*
X117331924Y-83384213D01*
X117800912Y-83477500D01*
X118279088Y-83477500D01*
X118748076Y-83384213D01*
X119189853Y-83201223D01*
X119587441Y-82935563D01*
X119925563Y-82597441D01*
X120191223Y-82199853D01*
X120374213Y-81758076D01*
X120467500Y-81289088D01*
X120467500Y-80810912D01*
X120374213Y-80341924D01*
X120191223Y-79900147D01*
X119925563Y-79502559D01*
X119587441Y-79164437D01*
X119189853Y-78898777D01*
X118748076Y-78715787D01*
X118279088Y-78622500D01*
X117800912Y-78622500D01*
X117331924Y-78715787D01*
X116890147Y-78898777D01*
X116492559Y-79164437D01*
X116154437Y-79502559D01*
X115888777Y-79900147D01*
X115705787Y-80341924D01*
X115612500Y-80810912D01*
X114700454Y-80810912D01*
X114650246Y-80558504D01*
X114523228Y-80251853D01*
X114338825Y-79975875D01*
X114104125Y-79741175D01*
X113828147Y-79556772D01*
X113521496Y-79429754D01*
X113195958Y-79365000D01*
X112864042Y-79365000D01*
X112538504Y-79429754D01*
X112231853Y-79556772D01*
X111955875Y-79741175D01*
X111721175Y-79975875D01*
X111536772Y-80251853D01*
X111409754Y-80558504D01*
X111345000Y-80884042D01*
X108660000Y-80884042D01*
X108660000Y-78384042D01*
X108855000Y-78384042D01*
X108855000Y-78715958D01*
X108919754Y-79041496D01*
X109046772Y-79348147D01*
X109231175Y-79624125D01*
X109465875Y-79858825D01*
X109741853Y-80043228D01*
X110048504Y-80170246D01*
X110374042Y-80235000D01*
X110705958Y-80235000D01*
X111031496Y-80170246D01*
X111338147Y-80043228D01*
X111614125Y-79858825D01*
X111848825Y-79624125D01*
X112033228Y-79348147D01*
X112160246Y-79041496D01*
X112225000Y-78715958D01*
X112225000Y-78384042D01*
X112160246Y-78058504D01*
X112033228Y-77751853D01*
X111848825Y-77475875D01*
X111614125Y-77241175D01*
X111338147Y-77056772D01*
X111031496Y-76929754D01*
X110705958Y-76865000D01*
X110374042Y-76865000D01*
X110048504Y-76929754D01*
X109741853Y-77056772D01*
X109465875Y-77241175D01*
X109231175Y-77475875D01*
X109046772Y-77751853D01*
X108919754Y-78058504D01*
X108855000Y-78384042D01*
X108660000Y-78384042D01*
X108660000Y-75879042D01*
X121355000Y-75879042D01*
X121355000Y-76210958D01*
X121419754Y-76536496D01*
X121546772Y-76843147D01*
X121731175Y-77119125D01*
X121965875Y-77353825D01*
X122241853Y-77538228D01*
X122548504Y-77665246D01*
X122874042Y-77730000D01*
X123205958Y-77730000D01*
X123531496Y-77665246D01*
X123838147Y-77538228D01*
X124114125Y-77353825D01*
X124348825Y-77119125D01*
X124533228Y-76843147D01*
X124660246Y-76536496D01*
X124725000Y-76210958D01*
X124725000Y-75879042D01*
X124660246Y-75553504D01*
X124533228Y-75246853D01*
X124348825Y-74970875D01*
X124114125Y-74736175D01*
X123838147Y-74551772D01*
X123531496Y-74424754D01*
X123205958Y-74360000D01*
X122874042Y-74360000D01*
X122548504Y-74424754D01*
X122241853Y-74551772D01*
X121965875Y-74736175D01*
X121731175Y-74970875D01*
X121546772Y-75246853D01*
X121419754Y-75553504D01*
X121355000Y-75879042D01*
X108660000Y-75879042D01*
X108660000Y-73379042D01*
X111345000Y-73379042D01*
X111345000Y-73710958D01*
X111409754Y-74036496D01*
X111536772Y-74343147D01*
X111721175Y-74619125D01*
X111955875Y-74853825D01*
X112231853Y-75038228D01*
X112538504Y-75165246D01*
X112864042Y-75230000D01*
X113195958Y-75230000D01*
X113521496Y-75165246D01*
X113828147Y-75038228D01*
X114104125Y-74853825D01*
X114338825Y-74619125D01*
X114523228Y-74343147D01*
X114650246Y-74036496D01*
X114715000Y-73710958D01*
X114715000Y-73379042D01*
X114650246Y-73053504D01*
X114523228Y-72746853D01*
X114338825Y-72470875D01*
X114104125Y-72236175D01*
X113828147Y-72051772D01*
X113521496Y-71924754D01*
X113195958Y-71860000D01*
X112864042Y-71860000D01*
X112538504Y-71924754D01*
X112231853Y-72051772D01*
X111955875Y-72236175D01*
X111721175Y-72470875D01*
X111536772Y-72746853D01*
X111409754Y-73053504D01*
X111345000Y-73379042D01*
X108660000Y-73379042D01*
X108660000Y-70879042D01*
X121355000Y-70879042D01*
X121355000Y-71210958D01*
X121419754Y-71536496D01*
X121546772Y-71843147D01*
X121731175Y-72119125D01*
X121965875Y-72353825D01*
X122241853Y-72538228D01*
X122548504Y-72665246D01*
X122874042Y-72730000D01*
X123205958Y-72730000D01*
X123531496Y-72665246D01*
X123838147Y-72538228D01*
X124114125Y-72353825D01*
X124348825Y-72119125D01*
X124533228Y-71843147D01*
X124660246Y-71536496D01*
X124725000Y-71210958D01*
X124725000Y-70879042D01*
X124660246Y-70553504D01*
X124533228Y-70246853D01*
X124348825Y-69970875D01*
X124114125Y-69736175D01*
X123838147Y-69551772D01*
X123531496Y-69424754D01*
X123205958Y-69360000D01*
X122874042Y-69360000D01*
X122548504Y-69424754D01*
X122241853Y-69551772D01*
X121965875Y-69736175D01*
X121731175Y-69970875D01*
X121546772Y-70246853D01*
X121419754Y-70553504D01*
X121355000Y-70879042D01*
X108660000Y-70879042D01*
X108660000Y-68374042D01*
X108855000Y-68374042D01*
X108855000Y-68705958D01*
X108919754Y-69031496D01*
X109046772Y-69338147D01*
X109231175Y-69614125D01*
X109465875Y-69848825D01*
X109741853Y-70033228D01*
X110048504Y-70160246D01*
X110374042Y-70225000D01*
X110705958Y-70225000D01*
X111031496Y-70160246D01*
X111338147Y-70033228D01*
X111614125Y-69848825D01*
X111848825Y-69614125D01*
X112033228Y-69338147D01*
X112160246Y-69031496D01*
X112225000Y-68705958D01*
X112225000Y-68374042D01*
X112160246Y-68048504D01*
X112033228Y-67741853D01*
X111848825Y-67465875D01*
X111614125Y-67231175D01*
X111338147Y-67046772D01*
X111031496Y-66919754D01*
X110705958Y-66855000D01*
X110374042Y-66855000D01*
X110048504Y-66919754D01*
X109741853Y-67046772D01*
X109465875Y-67231175D01*
X109231175Y-67465875D01*
X109046772Y-67741853D01*
X108919754Y-68048504D01*
X108855000Y-68374042D01*
X108660000Y-68374042D01*
X108660000Y-65874042D01*
X111345000Y-65874042D01*
X111345000Y-66205958D01*
X111409754Y-66531496D01*
X111536772Y-66838147D01*
X111721175Y-67114125D01*
X111955875Y-67348825D01*
X112231853Y-67533228D01*
X112538504Y-67660246D01*
X112864042Y-67725000D01*
X113195958Y-67725000D01*
X113521496Y-67660246D01*
X113828147Y-67533228D01*
X114104125Y-67348825D01*
X114338825Y-67114125D01*
X114523228Y-66838147D01*
X114650246Y-66531496D01*
X114715000Y-66205958D01*
X114715000Y-65874042D01*
X114700454Y-65800912D01*
X115612500Y-65800912D01*
X115612500Y-66279088D01*
X115705787Y-66748076D01*
X115888777Y-67189853D01*
X116154437Y-67587441D01*
X116492559Y-67925563D01*
X116890147Y-68191223D01*
X117331924Y-68374213D01*
X117800912Y-68467500D01*
X118279088Y-68467500D01*
X118748076Y-68374213D01*
X119189853Y-68191223D01*
X119587441Y-67925563D01*
X119925563Y-67587441D01*
X120191223Y-67189853D01*
X120374213Y-66748076D01*
X120467500Y-66279088D01*
X120467500Y-65800912D01*
X120374213Y-65331924D01*
X120191223Y-64890147D01*
X119925563Y-64492559D01*
X119587441Y-64154437D01*
X119189853Y-63888777D01*
X118748076Y-63705787D01*
X118279088Y-63612500D01*
X117800912Y-63612500D01*
X117331924Y-63705787D01*
X116890147Y-63888777D01*
X116492559Y-64154437D01*
X116154437Y-64492559D01*
X115888777Y-64890147D01*
X115705787Y-65331924D01*
X115612500Y-65800912D01*
X114700454Y-65800912D01*
X114650246Y-65548504D01*
X114523228Y-65241853D01*
X114338825Y-64965875D01*
X114104125Y-64731175D01*
X113828147Y-64546772D01*
X113521496Y-64419754D01*
X113195958Y-64355000D01*
X112864042Y-64355000D01*
X112538504Y-64419754D01*
X112231853Y-64546772D01*
X111955875Y-64731175D01*
X111721175Y-64965875D01*
X111536772Y-65241853D01*
X111409754Y-65548504D01*
X111345000Y-65874042D01*
X108660000Y-65874042D01*
X108660000Y-62524091D01*
X109514092Y-61670000D01*
X121885125Y-61670000D01*
X121920000Y-61673435D01*
X121954875Y-61670000D01*
X121954877Y-61670000D01*
X122059184Y-61659727D01*
X122193020Y-61619128D01*
X122316363Y-61553200D01*
X122424475Y-61464475D01*
X122446712Y-61437379D01*
X122725161Y-61158930D01*
X122742257Y-61166011D01*
X123038816Y-61225000D01*
X123341184Y-61225000D01*
X123637743Y-61166011D01*
X123917095Y-61050299D01*
X124168505Y-60882312D01*
X124382312Y-60668505D01*
X124550299Y-60417095D01*
X124666011Y-60137743D01*
X124725000Y-59841184D01*
X124725000Y-59538816D01*
X124666011Y-59242257D01*
X124550299Y-58962905D01*
X124382312Y-58711495D01*
X124168505Y-58497688D01*
X123917095Y-58329701D01*
X123637743Y-58213989D01*
X123341184Y-58155000D01*
X123038816Y-58155000D01*
X122742257Y-58213989D01*
X122462905Y-58329701D01*
X122211495Y-58497688D01*
X122145056Y-58564127D01*
X122139502Y-58545820D01*
X122080537Y-58435506D01*
X122001185Y-58338815D01*
X121904494Y-58259463D01*
X121794180Y-58200498D01*
X121674482Y-58164188D01*
X121550000Y-58151928D01*
X120935750Y-58155000D01*
X120777000Y-58313750D01*
X120777000Y-59563000D01*
X120797000Y-59563000D01*
X120797000Y-59817000D01*
X120777000Y-59817000D01*
X120777000Y-59837000D01*
X120523000Y-59837000D01*
X120523000Y-59817000D01*
X119273750Y-59817000D01*
X119115000Y-59975750D01*
X119113628Y-60250000D01*
X109254874Y-60250000D01*
X109219999Y-60246565D01*
X109185124Y-60250000D01*
X109185123Y-60250000D01*
X109080816Y-60260273D01*
X108946980Y-60300872D01*
X108823637Y-60366800D01*
X108715525Y-60455525D01*
X108693292Y-60482616D01*
X107472617Y-61703292D01*
X107445525Y-61725526D01*
X107356800Y-61833638D01*
X107290872Y-61956981D01*
X107250273Y-62090817D01*
X107245635Y-62137911D01*
X107236565Y-62230000D01*
X107240000Y-62264875D01*
X107240001Y-82255907D01*
X105115909Y-84380000D01*
X58714092Y-84380000D01*
X57860000Y-83525909D01*
X57860000Y-82531452D01*
X58064759Y-82394637D01*
X58264637Y-82194759D01*
X58420000Y-81962241D01*
X58575363Y-82194759D01*
X58775241Y-82394637D01*
X59010273Y-82551680D01*
X59271426Y-82659853D01*
X59548665Y-82715000D01*
X59831335Y-82715000D01*
X60108574Y-82659853D01*
X60369727Y-82551680D01*
X60604759Y-82394637D01*
X60804637Y-82194759D01*
X60960000Y-81962241D01*
X61115363Y-82194759D01*
X61315241Y-82394637D01*
X61550273Y-82551680D01*
X61811426Y-82659853D01*
X62088665Y-82715000D01*
X62371335Y-82715000D01*
X62648574Y-82659853D01*
X62909727Y-82551680D01*
X63144759Y-82394637D01*
X63344637Y-82194759D01*
X63501680Y-81959727D01*
X63609853Y-81698574D01*
X63665000Y-81421335D01*
X63665000Y-81138665D01*
X63609853Y-80861426D01*
X63501680Y-80600273D01*
X63344637Y-80365241D01*
X63144759Y-80165363D01*
X62912241Y-80010000D01*
X63144759Y-79854637D01*
X63344637Y-79654759D01*
X63501680Y-79419727D01*
X63609853Y-79158574D01*
X63665000Y-78881335D01*
X63665000Y-78598665D01*
X63609853Y-78321426D01*
X63501680Y-78060273D01*
X63344637Y-77825241D01*
X63144759Y-77625363D01*
X62912241Y-77470000D01*
X63144759Y-77314637D01*
X63344637Y-77114759D01*
X63501680Y-76879727D01*
X63609853Y-76618574D01*
X63665000Y-76341335D01*
X63665000Y-76058665D01*
X63609853Y-75781426D01*
X63551272Y-75640000D01*
X64060001Y-75640000D01*
X64060001Y-76165116D01*
X64056565Y-76200000D01*
X64070274Y-76339184D01*
X64110872Y-76473019D01*
X64152089Y-76550130D01*
X64176801Y-76596363D01*
X64265526Y-76704475D01*
X64292616Y-76726707D01*
X65923044Y-78357135D01*
X65875000Y-78598665D01*
X65875000Y-78881335D01*
X65930147Y-79158574D01*
X66038320Y-79419727D01*
X66195363Y-79654759D01*
X66395241Y-79854637D01*
X66627759Y-80010000D01*
X66395241Y-80165363D01*
X66195363Y-80365241D01*
X66038320Y-80600273D01*
X65930147Y-80861426D01*
X65875000Y-81138665D01*
X65875000Y-81421335D01*
X65930147Y-81698574D01*
X66038320Y-81959727D01*
X66195363Y-82194759D01*
X66395241Y-82394637D01*
X66630273Y-82551680D01*
X66891426Y-82659853D01*
X67168665Y-82715000D01*
X67451335Y-82715000D01*
X67728574Y-82659853D01*
X67989727Y-82551680D01*
X68224759Y-82394637D01*
X68424637Y-82194759D01*
X68581680Y-81959727D01*
X68689853Y-81698574D01*
X68745000Y-81421335D01*
X68745000Y-81138665D01*
X68689853Y-80861426D01*
X68581680Y-80600273D01*
X68424637Y-80365241D01*
X68224759Y-80165363D01*
X67992241Y-80010000D01*
X68224759Y-79854637D01*
X68424637Y-79654759D01*
X68561452Y-79450000D01*
X72095909Y-79450000D01*
X73491928Y-80846020D01*
X73491928Y-82080000D01*
X73504188Y-82204482D01*
X73540498Y-82324180D01*
X73599463Y-82434494D01*
X73678815Y-82531185D01*
X73775506Y-82610537D01*
X73885820Y-82669502D01*
X74005518Y-82705812D01*
X74130000Y-82718072D01*
X75730000Y-82718072D01*
X75854482Y-82705812D01*
X75974180Y-82669502D01*
X76084494Y-82610537D01*
X76181185Y-82531185D01*
X76260537Y-82434494D01*
X76319502Y-82324180D01*
X76355812Y-82204482D01*
X76368072Y-82080000D01*
X76368072Y-81990000D01*
X83785125Y-81990000D01*
X83820000Y-81993435D01*
X83854875Y-81990000D01*
X83854877Y-81990000D01*
X83959184Y-81979727D01*
X84093020Y-81939128D01*
X84216363Y-81873200D01*
X84324475Y-81784475D01*
X84346712Y-81757379D01*
X85567389Y-80536703D01*
X85594474Y-80514475D01*
X85616704Y-80487388D01*
X85616707Y-80487385D01*
X85683199Y-80406364D01*
X85683201Y-80406362D01*
X85749128Y-80283020D01*
X85789727Y-80149184D01*
X85800000Y-80044877D01*
X85800000Y-80044876D01*
X85803435Y-80010001D01*
X85800000Y-79975126D01*
X85800000Y-77451452D01*
X86004759Y-77314637D01*
X86204637Y-77114759D01*
X86361680Y-76879727D01*
X86469853Y-76618574D01*
X86525000Y-76341335D01*
X86525000Y-76058665D01*
X86469853Y-75781426D01*
X86361680Y-75520273D01*
X86281317Y-75400000D01*
X91271928Y-75400000D01*
X91271928Y-77000000D01*
X91284188Y-77124482D01*
X91320498Y-77244180D01*
X91379463Y-77354494D01*
X91458815Y-77451185D01*
X91555506Y-77530537D01*
X91665820Y-77589502D01*
X91785518Y-77625812D01*
X91910000Y-77638072D01*
X93510000Y-77638072D01*
X93634482Y-77625812D01*
X93754180Y-77589502D01*
X93864494Y-77530537D01*
X93961185Y-77451185D01*
X94040537Y-77354494D01*
X94099502Y-77244180D01*
X94135812Y-77124482D01*
X94148072Y-77000000D01*
X94148072Y-75400000D01*
X94135812Y-75275518D01*
X94099502Y-75155820D01*
X94040537Y-75045506D01*
X93961185Y-74948815D01*
X93864494Y-74869463D01*
X93754180Y-74810498D01*
X93634482Y-74774188D01*
X93626039Y-74773357D01*
X93824637Y-74574759D01*
X93981680Y-74339727D01*
X94089853Y-74078574D01*
X94145000Y-73801335D01*
X94145000Y-73518665D01*
X94089853Y-73241426D01*
X93981680Y-72980273D01*
X93824637Y-72745241D01*
X93624759Y-72545363D01*
X93392241Y-72390000D01*
X93624759Y-72234637D01*
X93824637Y-72034759D01*
X93851085Y-71995176D01*
X94540001Y-72684093D01*
X94540000Y-74895123D01*
X94536565Y-74930000D01*
X94540000Y-74964875D01*
X94540000Y-74964876D01*
X94550273Y-75069183D01*
X94590872Y-75203019D01*
X94656800Y-75326362D01*
X94745525Y-75434474D01*
X94772616Y-75456707D01*
X95993292Y-76677384D01*
X96015525Y-76704475D01*
X96123637Y-76793200D01*
X96246980Y-76859128D01*
X96380816Y-76899727D01*
X96485123Y-76910000D01*
X96485124Y-76910000D01*
X96519999Y-76913435D01*
X96539556Y-76911509D01*
X96675363Y-77114759D01*
X96875241Y-77314637D01*
X97110273Y-77471680D01*
X97371426Y-77579853D01*
X97648665Y-77635000D01*
X97931335Y-77635000D01*
X98208574Y-77579853D01*
X98469727Y-77471680D01*
X98704759Y-77314637D01*
X98904637Y-77114759D01*
X99061680Y-76879727D01*
X99169853Y-76618574D01*
X99225000Y-76341335D01*
X99225000Y-76058665D01*
X101435000Y-76058665D01*
X101435000Y-76341335D01*
X101490147Y-76618574D01*
X101598320Y-76879727D01*
X101755363Y-77114759D01*
X101955241Y-77314637D01*
X102190273Y-77471680D01*
X102451426Y-77579853D01*
X102728665Y-77635000D01*
X103011335Y-77635000D01*
X103288574Y-77579853D01*
X103549727Y-77471680D01*
X103784759Y-77314637D01*
X103984637Y-77114759D01*
X104141680Y-76879727D01*
X104249853Y-76618574D01*
X104305000Y-76341335D01*
X104305000Y-76058665D01*
X104249853Y-75781426D01*
X104141680Y-75520273D01*
X103984637Y-75285241D01*
X103784759Y-75085363D01*
X103549727Y-74928320D01*
X103288574Y-74820147D01*
X103011335Y-74765000D01*
X102728665Y-74765000D01*
X102451426Y-74820147D01*
X102190273Y-74928320D01*
X101955241Y-75085363D01*
X101755363Y-75285241D01*
X101598320Y-75520273D01*
X101490147Y-75781426D01*
X101435000Y-76058665D01*
X99225000Y-76058665D01*
X99169853Y-75781426D01*
X99061680Y-75520273D01*
X98904637Y-75285241D01*
X98704759Y-75085363D01*
X98469727Y-74928320D01*
X98208574Y-74820147D01*
X97931335Y-74765000D01*
X97648665Y-74765000D01*
X97371426Y-74820147D01*
X97110273Y-74928320D01*
X96875241Y-75085363D01*
X96675363Y-75285241D01*
X96648915Y-75324823D01*
X95960000Y-74635909D01*
X95960000Y-72424874D01*
X95963435Y-72389999D01*
X95959872Y-72353825D01*
X95949727Y-72250816D01*
X95909128Y-72116980D01*
X95843200Y-71993637D01*
X95754475Y-71885525D01*
X95727384Y-71863292D01*
X94506712Y-70642621D01*
X94484475Y-70615525D01*
X94376363Y-70526800D01*
X94253020Y-70460872D01*
X94119184Y-70420273D01*
X94014877Y-70410000D01*
X94014875Y-70410000D01*
X93980000Y-70406565D01*
X93960444Y-70408491D01*
X93824637Y-70205241D01*
X93624759Y-70005363D01*
X93392241Y-69850000D01*
X93624759Y-69694637D01*
X93824637Y-69494759D01*
X93981680Y-69259727D01*
X94089853Y-68998574D01*
X94145000Y-68721335D01*
X94145000Y-68438665D01*
X94089853Y-68161426D01*
X93981680Y-67900273D01*
X93901317Y-67780000D01*
X96351928Y-67780000D01*
X96351928Y-69380000D01*
X96364188Y-69504482D01*
X96400498Y-69624180D01*
X96459463Y-69734494D01*
X96538815Y-69831185D01*
X96635506Y-69910537D01*
X96745820Y-69969502D01*
X96865518Y-70005812D01*
X96990000Y-70018072D01*
X98590000Y-70018072D01*
X98714482Y-70005812D01*
X98834180Y-69969502D01*
X98944494Y-69910537D01*
X99041185Y-69831185D01*
X99120537Y-69734494D01*
X99179502Y-69624180D01*
X99215812Y-69504482D01*
X99228072Y-69380000D01*
X99228072Y-68438665D01*
X101435000Y-68438665D01*
X101435000Y-68721335D01*
X101490147Y-68998574D01*
X101598320Y-69259727D01*
X101755363Y-69494759D01*
X101955241Y-69694637D01*
X102190273Y-69851680D01*
X102451426Y-69959853D01*
X102728665Y-70015000D01*
X103011335Y-70015000D01*
X103288574Y-69959853D01*
X103549727Y-69851680D01*
X103784759Y-69694637D01*
X103984637Y-69494759D01*
X104141680Y-69259727D01*
X104249853Y-68998574D01*
X104305000Y-68721335D01*
X104305000Y-68438665D01*
X104249853Y-68161426D01*
X104141680Y-67900273D01*
X103984637Y-67665241D01*
X103784759Y-67465363D01*
X103549727Y-67308320D01*
X103288574Y-67200147D01*
X103011335Y-67145000D01*
X102728665Y-67145000D01*
X102451426Y-67200147D01*
X102190273Y-67308320D01*
X101955241Y-67465363D01*
X101755363Y-67665241D01*
X101598320Y-67900273D01*
X101490147Y-68161426D01*
X101435000Y-68438665D01*
X99228072Y-68438665D01*
X99228072Y-67780000D01*
X99215812Y-67655518D01*
X99179502Y-67535820D01*
X99120537Y-67425506D01*
X99041185Y-67328815D01*
X98944494Y-67249463D01*
X98834180Y-67190498D01*
X98714482Y-67154188D01*
X98590000Y-67141928D01*
X96990000Y-67141928D01*
X96865518Y-67154188D01*
X96745820Y-67190498D01*
X96635506Y-67249463D01*
X96538815Y-67328815D01*
X96459463Y-67425506D01*
X96400498Y-67535820D01*
X96364188Y-67655518D01*
X96351928Y-67780000D01*
X93901317Y-67780000D01*
X93824637Y-67665241D01*
X93624759Y-67465363D01*
X93389727Y-67308320D01*
X93128574Y-67200147D01*
X92851335Y-67145000D01*
X92568665Y-67145000D01*
X92291426Y-67200147D01*
X92030273Y-67308320D01*
X91795241Y-67465363D01*
X91595363Y-67665241D01*
X91438320Y-67900273D01*
X91330147Y-68161426D01*
X91275000Y-68438665D01*
X91275000Y-68721335D01*
X91330147Y-68998574D01*
X91438320Y-69259727D01*
X91595363Y-69494759D01*
X91795241Y-69694637D01*
X92027759Y-69850000D01*
X91795241Y-70005363D01*
X91595363Y-70205241D01*
X91438320Y-70440273D01*
X91330147Y-70701426D01*
X91275000Y-70978665D01*
X91275000Y-71261335D01*
X91330147Y-71538574D01*
X91438320Y-71799727D01*
X91595363Y-72034759D01*
X91795241Y-72234637D01*
X92027759Y-72390000D01*
X91795241Y-72545363D01*
X91595363Y-72745241D01*
X91438320Y-72980273D01*
X91330147Y-73241426D01*
X91275000Y-73518665D01*
X91275000Y-73801335D01*
X91330147Y-74078574D01*
X91438320Y-74339727D01*
X91595363Y-74574759D01*
X91793961Y-74773357D01*
X91785518Y-74774188D01*
X91665820Y-74810498D01*
X91555506Y-74869463D01*
X91458815Y-74948815D01*
X91379463Y-75045506D01*
X91320498Y-75155820D01*
X91284188Y-75275518D01*
X91271928Y-75400000D01*
X86281317Y-75400000D01*
X86204637Y-75285241D01*
X86004759Y-75085363D01*
X85772241Y-74930000D01*
X86004759Y-74774637D01*
X86204637Y-74574759D01*
X86361680Y-74339727D01*
X86469853Y-74078574D01*
X86525000Y-73801335D01*
X86525000Y-73518665D01*
X86469853Y-73241426D01*
X86361680Y-72980273D01*
X86204637Y-72745241D01*
X86004759Y-72545363D01*
X85772241Y-72390000D01*
X86004759Y-72234637D01*
X86204637Y-72034759D01*
X86361680Y-71799727D01*
X86469853Y-71538574D01*
X86525000Y-71261335D01*
X86525000Y-70978665D01*
X86469853Y-70701426D01*
X86361680Y-70440273D01*
X86204637Y-70205241D01*
X86004759Y-70005363D01*
X85770872Y-69849085D01*
X85831514Y-69816671D01*
X85903097Y-69572702D01*
X85090000Y-68759605D01*
X84276903Y-69572702D01*
X84348486Y-69816671D01*
X84412992Y-69847194D01*
X84410273Y-69848320D01*
X84175241Y-70005363D01*
X83975363Y-70205241D01*
X83818320Y-70440273D01*
X83710147Y-70701426D01*
X83655000Y-70978665D01*
X83655000Y-71261335D01*
X83710147Y-71538574D01*
X83818320Y-71799727D01*
X83975363Y-72034759D01*
X84175241Y-72234637D01*
X84407759Y-72390000D01*
X84175241Y-72545363D01*
X83975363Y-72745241D01*
X83818320Y-72980273D01*
X83710147Y-73241426D01*
X83655000Y-73518665D01*
X83655000Y-73801335D01*
X83710147Y-74078574D01*
X83818320Y-74339727D01*
X83975363Y-74574759D01*
X84175241Y-74774637D01*
X84407759Y-74930000D01*
X84175241Y-75085363D01*
X83975363Y-75285241D01*
X83818320Y-75520273D01*
X83710147Y-75781426D01*
X83655000Y-76058665D01*
X83655000Y-76341335D01*
X83710147Y-76618574D01*
X83818320Y-76879727D01*
X83975363Y-77114759D01*
X84175241Y-77314637D01*
X84380001Y-77451453D01*
X84380000Y-79715908D01*
X83525909Y-80570000D01*
X76368072Y-80570000D01*
X76368072Y-80480000D01*
X76355812Y-80355518D01*
X76319502Y-80235820D01*
X76260537Y-80125506D01*
X76181185Y-80028815D01*
X76084494Y-79949463D01*
X75974180Y-79890498D01*
X75854482Y-79854188D01*
X75846039Y-79853357D01*
X76044637Y-79654759D01*
X76201680Y-79419727D01*
X76309853Y-79158574D01*
X76365000Y-78881335D01*
X76365000Y-78598665D01*
X76309853Y-78321426D01*
X76201680Y-78060273D01*
X76044637Y-77825241D01*
X75844759Y-77625363D01*
X75612241Y-77470000D01*
X75844759Y-77314637D01*
X76044637Y-77114759D01*
X76201680Y-76879727D01*
X76309853Y-76618574D01*
X76365000Y-76341335D01*
X76365000Y-76058665D01*
X76309853Y-75781426D01*
X76201680Y-75520273D01*
X76044637Y-75285241D01*
X75844759Y-75085363D01*
X75612241Y-74930000D01*
X75844759Y-74774637D01*
X76044637Y-74574759D01*
X76201680Y-74339727D01*
X76309853Y-74078574D01*
X76365000Y-73801335D01*
X76365000Y-73518665D01*
X76309853Y-73241426D01*
X76201680Y-72980273D01*
X76044637Y-72745241D01*
X75844759Y-72545363D01*
X75612241Y-72390000D01*
X75844759Y-72234637D01*
X76044637Y-72034759D01*
X76201680Y-71799727D01*
X76309853Y-71538574D01*
X76365000Y-71261335D01*
X76365000Y-70978665D01*
X76309853Y-70701426D01*
X76201680Y-70440273D01*
X76044637Y-70205241D01*
X75844759Y-70005363D01*
X75612241Y-69850000D01*
X75844759Y-69694637D01*
X76044637Y-69494759D01*
X76201680Y-69259727D01*
X76309853Y-68998574D01*
X76365000Y-68721335D01*
X76365000Y-68438665D01*
X78575000Y-68438665D01*
X78575000Y-68721335D01*
X78630147Y-68998574D01*
X78738320Y-69259727D01*
X78895363Y-69494759D01*
X79095241Y-69694637D01*
X79330273Y-69851680D01*
X79591426Y-69959853D01*
X79868665Y-70015000D01*
X80151335Y-70015000D01*
X80428574Y-69959853D01*
X80689727Y-69851680D01*
X80924759Y-69694637D01*
X81124637Y-69494759D01*
X81281680Y-69259727D01*
X81389853Y-68998574D01*
X81445000Y-68721335D01*
X81445000Y-68438665D01*
X81389853Y-68161426D01*
X81281680Y-67900273D01*
X81124637Y-67665241D01*
X80924759Y-67465363D01*
X80689727Y-67308320D01*
X80428574Y-67200147D01*
X80151335Y-67145000D01*
X79868665Y-67145000D01*
X79591426Y-67200147D01*
X79330273Y-67308320D01*
X79095241Y-67465363D01*
X78895363Y-67665241D01*
X78738320Y-67900273D01*
X78630147Y-68161426D01*
X78575000Y-68438665D01*
X76365000Y-68438665D01*
X76309853Y-68161426D01*
X76201680Y-67900273D01*
X76044637Y-67665241D01*
X75844759Y-67465363D01*
X75612241Y-67310000D01*
X75844759Y-67154637D01*
X76044637Y-66954759D01*
X76201680Y-66719727D01*
X76309853Y-66458574D01*
X76365000Y-66181335D01*
X76365000Y-65898665D01*
X76309853Y-65621426D01*
X76201680Y-65360273D01*
X76044637Y-65125241D01*
X75844759Y-64925363D01*
X75609727Y-64768320D01*
X75348574Y-64660147D01*
X75071335Y-64605000D01*
X74788665Y-64605000D01*
X74511426Y-64660147D01*
X74250273Y-64768320D01*
X74015241Y-64925363D01*
X73815363Y-65125241D01*
X73658320Y-65360273D01*
X73550147Y-65621426D01*
X73495000Y-65898665D01*
X73495000Y-66181335D01*
X73550147Y-66458574D01*
X73658320Y-66719727D01*
X73815363Y-66954759D01*
X74015241Y-67154637D01*
X74247759Y-67310000D01*
X74015241Y-67465363D01*
X73815363Y-67665241D01*
X73658320Y-67900273D01*
X73550147Y-68161426D01*
X73495000Y-68438665D01*
X73495000Y-68721335D01*
X73550147Y-68998574D01*
X73658320Y-69259727D01*
X73815363Y-69494759D01*
X74015241Y-69694637D01*
X74247759Y-69850000D01*
X74015241Y-70005363D01*
X73815363Y-70205241D01*
X73658320Y-70440273D01*
X73550147Y-70701426D01*
X73495000Y-70978665D01*
X73495000Y-71261335D01*
X73550147Y-71538574D01*
X73658320Y-71799727D01*
X73815363Y-72034759D01*
X74015241Y-72234637D01*
X74247759Y-72390000D01*
X74015241Y-72545363D01*
X73815363Y-72745241D01*
X73678548Y-72950000D01*
X72684092Y-72950000D01*
X71830000Y-72095909D01*
X71830000Y-63534874D01*
X71833435Y-63499999D01*
X71830000Y-63465123D01*
X71819727Y-63360816D01*
X71779128Y-63226980D01*
X71713200Y-63103637D01*
X71713199Y-63103635D01*
X71646707Y-63022615D01*
X71624475Y-62995525D01*
X71597384Y-62973292D01*
X69106712Y-60482621D01*
X69084475Y-60455525D01*
X69016817Y-60400000D01*
X78445909Y-60400000D01*
X81840001Y-63794092D01*
X81840000Y-74635908D01*
X81151085Y-75324824D01*
X81124637Y-75285241D01*
X80924759Y-75085363D01*
X80689727Y-74928320D01*
X80428574Y-74820147D01*
X80151335Y-74765000D01*
X79868665Y-74765000D01*
X79591426Y-74820147D01*
X79330273Y-74928320D01*
X79095241Y-75085363D01*
X78895363Y-75285241D01*
X78738320Y-75520273D01*
X78630147Y-75781426D01*
X78575000Y-76058665D01*
X78575000Y-76341335D01*
X78630147Y-76618574D01*
X78738320Y-76879727D01*
X78895363Y-77114759D01*
X79095241Y-77314637D01*
X79330273Y-77471680D01*
X79591426Y-77579853D01*
X79868665Y-77635000D01*
X80151335Y-77635000D01*
X80428574Y-77579853D01*
X80689727Y-77471680D01*
X80924759Y-77314637D01*
X81124637Y-77114759D01*
X81260444Y-76911509D01*
X81280000Y-76913435D01*
X81314875Y-76910000D01*
X81314877Y-76910000D01*
X81419184Y-76899727D01*
X81553020Y-76859128D01*
X81676363Y-76793200D01*
X81784475Y-76704475D01*
X81806712Y-76677379D01*
X83027389Y-75456703D01*
X83054474Y-75434475D01*
X83076704Y-75407388D01*
X83076707Y-75407385D01*
X83143199Y-75326364D01*
X83143201Y-75326362D01*
X83209128Y-75203020D01*
X83249727Y-75069184D01*
X83260000Y-74964877D01*
X83260000Y-74964876D01*
X83263435Y-74930001D01*
X83260000Y-74895123D01*
X83260000Y-68650512D01*
X83649783Y-68650512D01*
X83691213Y-68930130D01*
X83786397Y-69196292D01*
X83853329Y-69321514D01*
X84097298Y-69393097D01*
X84910395Y-68580000D01*
X85269605Y-68580000D01*
X86082702Y-69393097D01*
X86326671Y-69321514D01*
X86447571Y-69066004D01*
X86516300Y-68791816D01*
X86530217Y-68509488D01*
X86488787Y-68229870D01*
X86393603Y-67963708D01*
X86326671Y-67838486D01*
X86082702Y-67766903D01*
X85269605Y-68580000D01*
X84910395Y-68580000D01*
X84097298Y-67766903D01*
X83853329Y-67838486D01*
X83732429Y-68093996D01*
X83663700Y-68368184D01*
X83649783Y-68650512D01*
X83260000Y-68650512D01*
X83260000Y-67587298D01*
X84276903Y-67587298D01*
X85090000Y-68400395D01*
X85903097Y-67587298D01*
X85831514Y-67343329D01*
X85576004Y-67222429D01*
X85301816Y-67153700D01*
X85019488Y-67139783D01*
X84739870Y-67181213D01*
X84473708Y-67276397D01*
X84348486Y-67343329D01*
X84276903Y-67587298D01*
X83260000Y-67587298D01*
X83260000Y-63534875D01*
X83263435Y-63500000D01*
X83260000Y-63465123D01*
X83249727Y-63360816D01*
X83225173Y-63279872D01*
X101905000Y-63279872D01*
X101905000Y-63720128D01*
X101990890Y-64151925D01*
X102159369Y-64558669D01*
X102403962Y-64924729D01*
X102715271Y-65236038D01*
X103081331Y-65480631D01*
X103488075Y-65649110D01*
X103919872Y-65735000D01*
X104360128Y-65735000D01*
X104791925Y-65649110D01*
X105198669Y-65480631D01*
X105564729Y-65236038D01*
X105876038Y-64924729D01*
X106120631Y-64558669D01*
X106289110Y-64151925D01*
X106375000Y-63720128D01*
X106375000Y-63279872D01*
X106289110Y-62848075D01*
X106120631Y-62441331D01*
X105876038Y-62075271D01*
X105564729Y-61763962D01*
X105198669Y-61519369D01*
X104791925Y-61350890D01*
X104360128Y-61265000D01*
X103919872Y-61265000D01*
X103488075Y-61350890D01*
X103081331Y-61519369D01*
X102715271Y-61763962D01*
X102403962Y-62075271D01*
X102159369Y-62441331D01*
X101990890Y-62848075D01*
X101905000Y-63279872D01*
X83225173Y-63279872D01*
X83209128Y-63226980D01*
X83143200Y-63103637D01*
X83054475Y-62995525D01*
X83027379Y-62973288D01*
X79266712Y-59212621D01*
X79244475Y-59185525D01*
X79136363Y-59096800D01*
X79013020Y-59030872D01*
X78879184Y-58990273D01*
X78774877Y-58980000D01*
X78774875Y-58980000D01*
X78740000Y-58976565D01*
X78705125Y-58980000D01*
X35594874Y-58980000D01*
X35559999Y-58976565D01*
X35525124Y-58980000D01*
X35525123Y-58980000D01*
X35420816Y-58990273D01*
X35286980Y-59030872D01*
X35163637Y-59096800D01*
X35055525Y-59185525D01*
X35033292Y-59212616D01*
X33812617Y-60433292D01*
X33785525Y-60455526D01*
X33696800Y-60563638D01*
X33630872Y-60686981D01*
X33590273Y-60820817D01*
X33580000Y-60925123D01*
X33576565Y-60960000D01*
X33580000Y-60994875D01*
X33580001Y-64788547D01*
X33375241Y-64925363D01*
X33175363Y-65125241D01*
X33020000Y-65357759D01*
X32864637Y-65125241D01*
X32664759Y-64925363D01*
X32429727Y-64768320D01*
X32168574Y-64660147D01*
X31891335Y-64605000D01*
X31608665Y-64605000D01*
X31331426Y-64660147D01*
X31070273Y-64768320D01*
X30835241Y-64925363D01*
X30635363Y-65125241D01*
X30480000Y-65357759D01*
X30324637Y-65125241D01*
X30124759Y-64925363D01*
X29889727Y-64768320D01*
X29628574Y-64660147D01*
X29351335Y-64605000D01*
X29068665Y-64605000D01*
X28791426Y-64660147D01*
X28530273Y-64768320D01*
X28295241Y-64925363D01*
X28095363Y-65125241D01*
X27938320Y-65360273D01*
X27830147Y-65621426D01*
X27775000Y-65898665D01*
X27775000Y-66181335D01*
X27830147Y-66458574D01*
X27938320Y-66719727D01*
X28095363Y-66954759D01*
X28295241Y-67154637D01*
X28500000Y-67291452D01*
X28500001Y-73625115D01*
X28496565Y-73660000D01*
X28510274Y-73799184D01*
X28550872Y-73933019D01*
X28550873Y-73933020D01*
X28616801Y-74056363D01*
X28705526Y-74164475D01*
X28732616Y-74186707D01*
X29953292Y-75407384D01*
X29975525Y-75434475D01*
X30083637Y-75523200D01*
X30206980Y-75589128D01*
X30340816Y-75629727D01*
X30445123Y-75640000D01*
X30445124Y-75640000D01*
X30479999Y-75643435D01*
X30514874Y-75640000D01*
X60908728Y-75640000D01*
X60850147Y-75781426D01*
X60795000Y-76058665D01*
X60795000Y-76341335D01*
X60850147Y-76618574D01*
X60958320Y-76879727D01*
X61115363Y-77114759D01*
X61315241Y-77314637D01*
X61547759Y-77470000D01*
X61315241Y-77625363D01*
X61115363Y-77825241D01*
X60958320Y-78060273D01*
X60850147Y-78321426D01*
X60795000Y-78598665D01*
X60795000Y-78881335D01*
X60850147Y-79158574D01*
X60958320Y-79419727D01*
X61115363Y-79654759D01*
X61315241Y-79854637D01*
X61547759Y-80010000D01*
X61315241Y-80165363D01*
X61115363Y-80365241D01*
X60960000Y-80597759D01*
X60804637Y-80365241D01*
X60604759Y-80165363D01*
X60369727Y-80008320D01*
X60108574Y-79900147D01*
X59831335Y-79845000D01*
X59548665Y-79845000D01*
X59271426Y-79900147D01*
X59010273Y-80008320D01*
X58775241Y-80165363D01*
X58575363Y-80365241D01*
X58420000Y-80597759D01*
X58264637Y-80365241D01*
X58064759Y-80165363D01*
X57829727Y-80008320D01*
X57568574Y-79900147D01*
X57291335Y-79845000D01*
X57008665Y-79845000D01*
X56731426Y-79900147D01*
X56470273Y-80008320D01*
X56235241Y-80165363D01*
X56035363Y-80365241D01*
X55880000Y-80597759D01*
X55724637Y-80365241D01*
X55524759Y-80165363D01*
X55289727Y-80008320D01*
X55028574Y-79900147D01*
X54751335Y-79845000D01*
X54468665Y-79845000D01*
X54191426Y-79900147D01*
X53930273Y-80008320D01*
X53695241Y-80165363D01*
X53495363Y-80365241D01*
X53340000Y-80597759D01*
X53184637Y-80365241D01*
X52984759Y-80165363D01*
X52749727Y-80008320D01*
X52488574Y-79900147D01*
X52211335Y-79845000D01*
X51928665Y-79845000D01*
X51651426Y-79900147D01*
X51390273Y-80008320D01*
X51155241Y-80165363D01*
X50955363Y-80365241D01*
X50800000Y-80597759D01*
X50644637Y-80365241D01*
X50444759Y-80165363D01*
X50209727Y-80008320D01*
X49948574Y-79900147D01*
X49671335Y-79845000D01*
X49388665Y-79845000D01*
X49111426Y-79900147D01*
X48850273Y-80008320D01*
X48615241Y-80165363D01*
X48415363Y-80365241D01*
X48260000Y-80597759D01*
X48104637Y-80365241D01*
X47904759Y-80165363D01*
X47669727Y-80008320D01*
X47408574Y-79900147D01*
X47131335Y-79845000D01*
X46848665Y-79845000D01*
X46571426Y-79900147D01*
X46310273Y-80008320D01*
X46075241Y-80165363D01*
X45875363Y-80365241D01*
X45720000Y-80597759D01*
X45564637Y-80365241D01*
X45364759Y-80165363D01*
X45129727Y-80008320D01*
X44868574Y-79900147D01*
X44591335Y-79845000D01*
X44308665Y-79845000D01*
X44031426Y-79900147D01*
X43770273Y-80008320D01*
X43535241Y-80165363D01*
X43335363Y-80365241D01*
X43180000Y-80597759D01*
X43024637Y-80365241D01*
X42824759Y-80165363D01*
X42589727Y-80008320D01*
X42328574Y-79900147D01*
X42051335Y-79845000D01*
X41768665Y-79845000D01*
X41491426Y-79900147D01*
X41230273Y-80008320D01*
X40995241Y-80165363D01*
X40795363Y-80365241D01*
X40640000Y-80597759D01*
X40484637Y-80365241D01*
X40284759Y-80165363D01*
X40049727Y-80008320D01*
X39788574Y-79900147D01*
X39511335Y-79845000D01*
X39228665Y-79845000D01*
X38951426Y-79900147D01*
X38690273Y-80008320D01*
X38455241Y-80165363D01*
X38255363Y-80365241D01*
X38100000Y-80597759D01*
X37944637Y-80365241D01*
X37744759Y-80165363D01*
X37509727Y-80008320D01*
X37248574Y-79900147D01*
X36971335Y-79845000D01*
X36688665Y-79845000D01*
X36411426Y-79900147D01*
X36150273Y-80008320D01*
X35915241Y-80165363D01*
X35715363Y-80365241D01*
X35560000Y-80597759D01*
X35404637Y-80365241D01*
X35204759Y-80165363D01*
X34969727Y-80008320D01*
X34708574Y-79900147D01*
X34431335Y-79845000D01*
X34148665Y-79845000D01*
X33871426Y-79900147D01*
X33610273Y-80008320D01*
X33375241Y-80165363D01*
X33175363Y-80365241D01*
X33020000Y-80597759D01*
X32864637Y-80365241D01*
X32664759Y-80165363D01*
X32429727Y-80008320D01*
X32168574Y-79900147D01*
X31891335Y-79845000D01*
X31608665Y-79845000D01*
X31331426Y-79900147D01*
X31070273Y-80008320D01*
X30835241Y-80165363D01*
X30636643Y-80363961D01*
X30635812Y-80355518D01*
X30599502Y-80235820D01*
X30540537Y-80125506D01*
X30461185Y-80028815D01*
X30364494Y-79949463D01*
X30254180Y-79890498D01*
X30134482Y-79854188D01*
X30010000Y-79841928D01*
X29495750Y-79845000D01*
X29337000Y-80003750D01*
X29337000Y-81153000D01*
X29357000Y-81153000D01*
X29357000Y-81407000D01*
X29337000Y-81407000D01*
X29337000Y-82556250D01*
X29495750Y-82715000D01*
X30010000Y-82718072D01*
X30134482Y-82705812D01*
X30254180Y-82669502D01*
X30364494Y-82610537D01*
X30461185Y-82531185D01*
X30540537Y-82434494D01*
X30599502Y-82324180D01*
X30635812Y-82204482D01*
X30636643Y-82196039D01*
X30835241Y-82394637D01*
X31070273Y-82551680D01*
X31331426Y-82659853D01*
X31608665Y-82715000D01*
X31891335Y-82715000D01*
X32168574Y-82659853D01*
X32429727Y-82551680D01*
X32664759Y-82394637D01*
X32864637Y-82194759D01*
X33020000Y-81962241D01*
X33175363Y-82194759D01*
X33375241Y-82394637D01*
X33610273Y-82551680D01*
X33871426Y-82659853D01*
X34148665Y-82715000D01*
X34431335Y-82715000D01*
X34708574Y-82659853D01*
X34969727Y-82551680D01*
X35204759Y-82394637D01*
X35404637Y-82194759D01*
X35560000Y-81962241D01*
X35715363Y-82194759D01*
X35915241Y-82394637D01*
X36150273Y-82551680D01*
X36411426Y-82659853D01*
X36688665Y-82715000D01*
X36971335Y-82715000D01*
X37248574Y-82659853D01*
X37509727Y-82551680D01*
X37744759Y-82394637D01*
X37944637Y-82194759D01*
X38100000Y-81962241D01*
X38255363Y-82194759D01*
X38455241Y-82394637D01*
X38690273Y-82551680D01*
X38951426Y-82659853D01*
X39228665Y-82715000D01*
X39511335Y-82715000D01*
X39788574Y-82659853D01*
X40049727Y-82551680D01*
X40284759Y-82394637D01*
X40484637Y-82194759D01*
X40640000Y-81962241D01*
X40795363Y-82194759D01*
X40995241Y-82394637D01*
X41230273Y-82551680D01*
X41491426Y-82659853D01*
X41768665Y-82715000D01*
X42051335Y-82715000D01*
X42328574Y-82659853D01*
X42589727Y-82551680D01*
X42824759Y-82394637D01*
X43024637Y-82194759D01*
X43180000Y-81962241D01*
X43335363Y-82194759D01*
X43535241Y-82394637D01*
X43770273Y-82551680D01*
X44031426Y-82659853D01*
X44308665Y-82715000D01*
X44591335Y-82715000D01*
X44868574Y-82659853D01*
X45129727Y-82551680D01*
X45364759Y-82394637D01*
X45564637Y-82194759D01*
X45720000Y-81962241D01*
X45875363Y-82194759D01*
X46075241Y-82394637D01*
X46310273Y-82551680D01*
X46571426Y-82659853D01*
X46848665Y-82715000D01*
X47131335Y-82715000D01*
X47408574Y-82659853D01*
X47669727Y-82551680D01*
X47904759Y-82394637D01*
X48104637Y-82194759D01*
X48260000Y-81962241D01*
X48415363Y-82194759D01*
X48615241Y-82394637D01*
X48850273Y-82551680D01*
X49111426Y-82659853D01*
X49388665Y-82715000D01*
X49671335Y-82715000D01*
X49948574Y-82659853D01*
X50209727Y-82551680D01*
X50444759Y-82394637D01*
X50644637Y-82194759D01*
X50800000Y-81962241D01*
X50955363Y-82194759D01*
X51155241Y-82394637D01*
X51390273Y-82551680D01*
X51651426Y-82659853D01*
X51928665Y-82715000D01*
X52211335Y-82715000D01*
X52488574Y-82659853D01*
X52749727Y-82551680D01*
X52984759Y-82394637D01*
X53184637Y-82194759D01*
X53340000Y-81962241D01*
X53495363Y-82194759D01*
X53695241Y-82394637D01*
X53930273Y-82551680D01*
X54191426Y-82659853D01*
X54468665Y-82715000D01*
X54751335Y-82715000D01*
X55028574Y-82659853D01*
X55289727Y-82551680D01*
X55524759Y-82394637D01*
X55724637Y-82194759D01*
X55880000Y-81962241D01*
X56035363Y-82194759D01*
X56235241Y-82394637D01*
X56440001Y-82531453D01*
X56440000Y-83785125D01*
X56436565Y-83820000D01*
X56440000Y-83854875D01*
X56440000Y-83854876D01*
X56450273Y-83959183D01*
X56490872Y-84093019D01*
X56556800Y-84216362D01*
X56645525Y-84324474D01*
X56672617Y-84346708D01*
X57893292Y-85567384D01*
X57915525Y-85594475D01*
X58023637Y-85683200D01*
X58055068Y-85700000D01*
X27330000Y-85700000D01*
X27330000Y-82080000D01*
X27771928Y-82080000D01*
X27784188Y-82204482D01*
X27820498Y-82324180D01*
X27879463Y-82434494D01*
X27958815Y-82531185D01*
X28055506Y-82610537D01*
X28165820Y-82669502D01*
X28285518Y-82705812D01*
X28410000Y-82718072D01*
X28924250Y-82715000D01*
X29083000Y-82556250D01*
X29083000Y-81407000D01*
X27933750Y-81407000D01*
X27775000Y-81565750D01*
X27771928Y-82080000D01*
X27330000Y-82080000D01*
X27330000Y-80480000D01*
X27771928Y-80480000D01*
X27775000Y-80994250D01*
X27933750Y-81153000D01*
X29083000Y-81153000D01*
X29083000Y-80003750D01*
X28924250Y-79845000D01*
X28410000Y-79841928D01*
X28285518Y-79854188D01*
X28165820Y-79890498D01*
X28055506Y-79949463D01*
X27958815Y-80028815D01*
X27879463Y-80125506D01*
X27820498Y-80235820D01*
X27784188Y-80355518D01*
X27771928Y-80480000D01*
X27330000Y-80480000D01*
X27330000Y-59548665D01*
X27775000Y-59548665D01*
X27775000Y-59831335D01*
X27830147Y-60108574D01*
X27938320Y-60369727D01*
X28095363Y-60604759D01*
X28295241Y-60804637D01*
X28530273Y-60961680D01*
X28791426Y-61069853D01*
X29068665Y-61125000D01*
X29351335Y-61125000D01*
X29628574Y-61069853D01*
X29889727Y-60961680D01*
X30124759Y-60804637D01*
X30246694Y-60682702D01*
X30896903Y-60682702D01*
X30968486Y-60926671D01*
X31223996Y-61047571D01*
X31498184Y-61116300D01*
X31780512Y-61130217D01*
X32060130Y-61088787D01*
X32326292Y-60993603D01*
X32451514Y-60926671D01*
X32523097Y-60682702D01*
X31710000Y-59869605D01*
X30896903Y-60682702D01*
X30246694Y-60682702D01*
X30324637Y-60604759D01*
X30458692Y-60404131D01*
X30473329Y-60431514D01*
X30717298Y-60503097D01*
X31530395Y-59690000D01*
X31889605Y-59690000D01*
X32702702Y-60503097D01*
X32946671Y-60431514D01*
X33067571Y-60176004D01*
X33136300Y-59901816D01*
X33150217Y-59619488D01*
X33108787Y-59339870D01*
X33013603Y-59073708D01*
X32946671Y-58948486D01*
X32702702Y-58876903D01*
X31889605Y-59690000D01*
X31530395Y-59690000D01*
X30717298Y-58876903D01*
X30473329Y-58948486D01*
X30459676Y-58977341D01*
X30324637Y-58775241D01*
X30246694Y-58697298D01*
X30896903Y-58697298D01*
X31710000Y-59510395D01*
X32430395Y-58790000D01*
X119111928Y-58790000D01*
X119115000Y-59404250D01*
X119273750Y-59563000D01*
X120523000Y-59563000D01*
X120523000Y-58313750D01*
X120364250Y-58155000D01*
X119750000Y-58151928D01*
X119625518Y-58164188D01*
X119505820Y-58200498D01*
X119395506Y-58259463D01*
X119298815Y-58338815D01*
X119219463Y-58435506D01*
X119160498Y-58545820D01*
X119124188Y-58665518D01*
X119111928Y-58790000D01*
X32430395Y-58790000D01*
X32523097Y-58697298D01*
X32451514Y-58453329D01*
X32196004Y-58332429D01*
X31921816Y-58263700D01*
X31639488Y-58249783D01*
X31359870Y-58291213D01*
X31093708Y-58386397D01*
X30968486Y-58453329D01*
X30896903Y-58697298D01*
X30246694Y-58697298D01*
X30124759Y-58575363D01*
X29889727Y-58418320D01*
X29628574Y-58310147D01*
X29351335Y-58255000D01*
X29068665Y-58255000D01*
X28791426Y-58310147D01*
X28530273Y-58418320D01*
X28295241Y-58575363D01*
X28095363Y-58775241D01*
X27938320Y-59010273D01*
X27830147Y-59271426D01*
X27775000Y-59548665D01*
X27330000Y-59548665D01*
X27330000Y-54389872D01*
X40945000Y-54389872D01*
X40945000Y-54830128D01*
X41030890Y-55261925D01*
X41199369Y-55668669D01*
X41443962Y-56034729D01*
X41755271Y-56346038D01*
X42121331Y-56590631D01*
X42528075Y-56759110D01*
X42959872Y-56845000D01*
X43400128Y-56845000D01*
X43831925Y-56759110D01*
X44238669Y-56590631D01*
X44604729Y-56346038D01*
X44916038Y-56034729D01*
X45160631Y-55668669D01*
X45329110Y-55261925D01*
X45415000Y-54830128D01*
X45415000Y-54630000D01*
X74741928Y-54630000D01*
X74741928Y-57130000D01*
X74754188Y-57254482D01*
X74790498Y-57374180D01*
X74849463Y-57484494D01*
X74928815Y-57581185D01*
X75025506Y-57660537D01*
X75135820Y-57719502D01*
X75255518Y-57755812D01*
X75380000Y-57768072D01*
X77180000Y-57768072D01*
X77304482Y-57755812D01*
X77424180Y-57719502D01*
X77534494Y-57660537D01*
X77631185Y-57581185D01*
X77710537Y-57484494D01*
X77769502Y-57374180D01*
X77805812Y-57254482D01*
X77818072Y-57130000D01*
X77818072Y-55758363D01*
X80045000Y-55758363D01*
X80045000Y-56001637D01*
X80092460Y-56240236D01*
X80185557Y-56464992D01*
X80320713Y-56667267D01*
X80492733Y-56839287D01*
X80695008Y-56974443D01*
X80919764Y-57067540D01*
X81158363Y-57115000D01*
X81401637Y-57115000D01*
X81640236Y-57067540D01*
X81864992Y-56974443D01*
X82067267Y-56839287D01*
X82239287Y-56667267D01*
X82374443Y-56464992D01*
X82467540Y-56240236D01*
X82515000Y-56001637D01*
X82515000Y-55758363D01*
X82467540Y-55519764D01*
X82374443Y-55295008D01*
X82239287Y-55092733D01*
X82067267Y-54920713D01*
X81864992Y-54785557D01*
X81640236Y-54692460D01*
X81401637Y-54645000D01*
X81158363Y-54645000D01*
X80919764Y-54692460D01*
X80695008Y-54785557D01*
X80492733Y-54920713D01*
X80320713Y-55092733D01*
X80185557Y-55295008D01*
X80092460Y-55519764D01*
X80045000Y-55758363D01*
X77818072Y-55758363D01*
X77818072Y-54630000D01*
X84741928Y-54630000D01*
X84741928Y-57130000D01*
X84754188Y-57254482D01*
X84790498Y-57374180D01*
X84849463Y-57484494D01*
X84928815Y-57581185D01*
X85025506Y-57660537D01*
X85135820Y-57719502D01*
X85255518Y-57755812D01*
X85380000Y-57768072D01*
X87180000Y-57768072D01*
X87304482Y-57755812D01*
X87424180Y-57719502D01*
X87534494Y-57660537D01*
X87631185Y-57581185D01*
X87710537Y-57484494D01*
X87769502Y-57374180D01*
X87805812Y-57254482D01*
X87818072Y-57130000D01*
X87818072Y-54630000D01*
X89981928Y-54630000D01*
X89981928Y-57130000D01*
X89994188Y-57254482D01*
X90030498Y-57374180D01*
X90089463Y-57484494D01*
X90168815Y-57581185D01*
X90265506Y-57660537D01*
X90375820Y-57719502D01*
X90495518Y-57755812D01*
X90620000Y-57768072D01*
X92420000Y-57768072D01*
X92544482Y-57755812D01*
X92664180Y-57719502D01*
X92774494Y-57660537D01*
X92871185Y-57581185D01*
X92950537Y-57484494D01*
X93009502Y-57374180D01*
X93045812Y-57254482D01*
X93058072Y-57130000D01*
X93058072Y-55758363D01*
X95285000Y-55758363D01*
X95285000Y-56001637D01*
X95332460Y-56240236D01*
X95425557Y-56464992D01*
X95560713Y-56667267D01*
X95732733Y-56839287D01*
X95935008Y-56974443D01*
X96159764Y-57067540D01*
X96398363Y-57115000D01*
X96641637Y-57115000D01*
X96880236Y-57067540D01*
X97104992Y-56974443D01*
X97307267Y-56839287D01*
X97479287Y-56667267D01*
X97614443Y-56464992D01*
X97707540Y-56240236D01*
X97755000Y-56001637D01*
X97755000Y-55758363D01*
X97707540Y-55519764D01*
X97614443Y-55295008D01*
X97479287Y-55092733D01*
X97307267Y-54920713D01*
X97104992Y-54785557D01*
X96880236Y-54692460D01*
X96641637Y-54645000D01*
X96398363Y-54645000D01*
X96159764Y-54692460D01*
X95935008Y-54785557D01*
X95732733Y-54920713D01*
X95560713Y-55092733D01*
X95425557Y-55295008D01*
X95332460Y-55519764D01*
X95285000Y-55758363D01*
X93058072Y-55758363D01*
X93058072Y-54630000D01*
X99981928Y-54630000D01*
X99981928Y-57130000D01*
X99994188Y-57254482D01*
X100030498Y-57374180D01*
X100089463Y-57484494D01*
X100168815Y-57581185D01*
X100265506Y-57660537D01*
X100375820Y-57719502D01*
X100495518Y-57755812D01*
X100620000Y-57768072D01*
X102420000Y-57768072D01*
X102544482Y-57755812D01*
X102664180Y-57719502D01*
X102774494Y-57660537D01*
X102871185Y-57581185D01*
X102950537Y-57484494D01*
X103009502Y-57374180D01*
X103045812Y-57254482D01*
X103058072Y-57130000D01*
X103058072Y-54630000D01*
X105221928Y-54630000D01*
X105221928Y-57130000D01*
X105234188Y-57254482D01*
X105270498Y-57374180D01*
X105329463Y-57484494D01*
X105408815Y-57581185D01*
X105505506Y-57660537D01*
X105615820Y-57719502D01*
X105735518Y-57755812D01*
X105860000Y-57768072D01*
X107660000Y-57768072D01*
X107784482Y-57755812D01*
X107904180Y-57719502D01*
X108014494Y-57660537D01*
X108111185Y-57581185D01*
X108190537Y-57484494D01*
X108249502Y-57374180D01*
X108285812Y-57254482D01*
X108298072Y-57130000D01*
X108298072Y-55758363D01*
X110525000Y-55758363D01*
X110525000Y-56001637D01*
X110572460Y-56240236D01*
X110665557Y-56464992D01*
X110800713Y-56667267D01*
X110972733Y-56839287D01*
X111175008Y-56974443D01*
X111399764Y-57067540D01*
X111638363Y-57115000D01*
X111881637Y-57115000D01*
X112120236Y-57067540D01*
X112344992Y-56974443D01*
X112547267Y-56839287D01*
X112719287Y-56667267D01*
X112854443Y-56464992D01*
X112947540Y-56240236D01*
X112995000Y-56001637D01*
X112995000Y-55758363D01*
X112947540Y-55519764D01*
X112854443Y-55295008D01*
X112719287Y-55092733D01*
X112547267Y-54920713D01*
X112344992Y-54785557D01*
X112120236Y-54692460D01*
X111881637Y-54645000D01*
X111638363Y-54645000D01*
X111399764Y-54692460D01*
X111175008Y-54785557D01*
X110972733Y-54920713D01*
X110800713Y-55092733D01*
X110665557Y-55295008D01*
X110572460Y-55519764D01*
X110525000Y-55758363D01*
X108298072Y-55758363D01*
X108298072Y-54630000D01*
X115221928Y-54630000D01*
X115221928Y-57130000D01*
X115234188Y-57254482D01*
X115270498Y-57374180D01*
X115329463Y-57484494D01*
X115408815Y-57581185D01*
X115505506Y-57660537D01*
X115615820Y-57719502D01*
X115735518Y-57755812D01*
X115860000Y-57768072D01*
X117660000Y-57768072D01*
X117784482Y-57755812D01*
X117904180Y-57719502D01*
X118014494Y-57660537D01*
X118111185Y-57581185D01*
X118190537Y-57484494D01*
X118249502Y-57374180D01*
X118285812Y-57254482D01*
X118298072Y-57130000D01*
X118298072Y-54630000D01*
X118285812Y-54505518D01*
X118249502Y-54385820D01*
X118190537Y-54275506D01*
X118111185Y-54178815D01*
X118014494Y-54099463D01*
X117904180Y-54040498D01*
X117784482Y-54004188D01*
X117660000Y-53991928D01*
X115860000Y-53991928D01*
X115735518Y-54004188D01*
X115615820Y-54040498D01*
X115505506Y-54099463D01*
X115408815Y-54178815D01*
X115329463Y-54275506D01*
X115270498Y-54385820D01*
X115234188Y-54505518D01*
X115221928Y-54630000D01*
X108298072Y-54630000D01*
X108285812Y-54505518D01*
X108249502Y-54385820D01*
X108190537Y-54275506D01*
X108111185Y-54178815D01*
X108014494Y-54099463D01*
X107904180Y-54040498D01*
X107784482Y-54004188D01*
X107660000Y-53991928D01*
X105860000Y-53991928D01*
X105735518Y-54004188D01*
X105615820Y-54040498D01*
X105505506Y-54099463D01*
X105408815Y-54178815D01*
X105329463Y-54275506D01*
X105270498Y-54385820D01*
X105234188Y-54505518D01*
X105221928Y-54630000D01*
X103058072Y-54630000D01*
X103045812Y-54505518D01*
X103009502Y-54385820D01*
X102950537Y-54275506D01*
X102871185Y-54178815D01*
X102774494Y-54099463D01*
X102664180Y-54040498D01*
X102544482Y-54004188D01*
X102420000Y-53991928D01*
X100620000Y-53991928D01*
X100495518Y-54004188D01*
X100375820Y-54040498D01*
X100265506Y-54099463D01*
X100168815Y-54178815D01*
X100089463Y-54275506D01*
X100030498Y-54385820D01*
X99994188Y-54505518D01*
X99981928Y-54630000D01*
X93058072Y-54630000D01*
X93045812Y-54505518D01*
X93009502Y-54385820D01*
X92950537Y-54275506D01*
X92871185Y-54178815D01*
X92774494Y-54099463D01*
X92664180Y-54040498D01*
X92544482Y-54004188D01*
X92420000Y-53991928D01*
X90620000Y-53991928D01*
X90495518Y-54004188D01*
X90375820Y-54040498D01*
X90265506Y-54099463D01*
X90168815Y-54178815D01*
X90089463Y-54275506D01*
X90030498Y-54385820D01*
X89994188Y-54505518D01*
X89981928Y-54630000D01*
X87818072Y-54630000D01*
X87805812Y-54505518D01*
X87769502Y-54385820D01*
X87710537Y-54275506D01*
X87631185Y-54178815D01*
X87534494Y-54099463D01*
X87424180Y-54040498D01*
X87304482Y-54004188D01*
X87180000Y-53991928D01*
X85380000Y-53991928D01*
X85255518Y-54004188D01*
X85135820Y-54040498D01*
X85025506Y-54099463D01*
X84928815Y-54178815D01*
X84849463Y-54275506D01*
X84790498Y-54385820D01*
X84754188Y-54505518D01*
X84741928Y-54630000D01*
X77818072Y-54630000D01*
X77805812Y-54505518D01*
X77769502Y-54385820D01*
X77710537Y-54275506D01*
X77631185Y-54178815D01*
X77534494Y-54099463D01*
X77424180Y-54040498D01*
X77304482Y-54004188D01*
X77180000Y-53991928D01*
X75380000Y-53991928D01*
X75255518Y-54004188D01*
X75135820Y-54040498D01*
X75025506Y-54099463D01*
X74928815Y-54178815D01*
X74849463Y-54275506D01*
X74790498Y-54385820D01*
X74754188Y-54505518D01*
X74741928Y-54630000D01*
X45415000Y-54630000D01*
X45415000Y-54389872D01*
X45329110Y-53958075D01*
X45160631Y-53551331D01*
X44916038Y-53185271D01*
X44604729Y-52873962D01*
X44238669Y-52629369D01*
X43831925Y-52460890D01*
X43400128Y-52375000D01*
X42959872Y-52375000D01*
X42528075Y-52460890D01*
X42121331Y-52629369D01*
X41755271Y-52873962D01*
X41443962Y-53185271D01*
X41199369Y-53551331D01*
X41030890Y-53958075D01*
X40945000Y-54389872D01*
X27330000Y-54389872D01*
X27330000Y-50758363D01*
X75045000Y-50758363D01*
X75045000Y-51001637D01*
X75092460Y-51240236D01*
X75185557Y-51464992D01*
X75320713Y-51667267D01*
X75492733Y-51839287D01*
X75695008Y-51974443D01*
X75919764Y-52067540D01*
X76158363Y-52115000D01*
X76401637Y-52115000D01*
X76640236Y-52067540D01*
X76864992Y-51974443D01*
X77067267Y-51839287D01*
X77126554Y-51780000D01*
X79391928Y-51780000D01*
X79404188Y-51904482D01*
X79440498Y-52024180D01*
X79499463Y-52134494D01*
X79578815Y-52231185D01*
X79675506Y-52310537D01*
X79785820Y-52369502D01*
X79905518Y-52405812D01*
X80030000Y-52418072D01*
X80994250Y-52415000D01*
X81153000Y-52256250D01*
X81153000Y-51007000D01*
X81407000Y-51007000D01*
X81407000Y-52256250D01*
X81565750Y-52415000D01*
X82530000Y-52418072D01*
X82654482Y-52405812D01*
X82774180Y-52369502D01*
X82884494Y-52310537D01*
X82981185Y-52231185D01*
X83060537Y-52134494D01*
X83119502Y-52024180D01*
X83155812Y-51904482D01*
X83168072Y-51780000D01*
X83165000Y-51165750D01*
X83006250Y-51007000D01*
X81407000Y-51007000D01*
X81153000Y-51007000D01*
X79553750Y-51007000D01*
X79395000Y-51165750D01*
X79391928Y-51780000D01*
X77126554Y-51780000D01*
X77239287Y-51667267D01*
X77374443Y-51464992D01*
X77467540Y-51240236D01*
X77515000Y-51001637D01*
X77515000Y-50758363D01*
X85045000Y-50758363D01*
X85045000Y-51001637D01*
X85092460Y-51240236D01*
X85185557Y-51464992D01*
X85320713Y-51667267D01*
X85492733Y-51839287D01*
X85695008Y-51974443D01*
X85919764Y-52067540D01*
X86158363Y-52115000D01*
X86401637Y-52115000D01*
X86640236Y-52067540D01*
X86864992Y-51974443D01*
X87067267Y-51839287D01*
X87239287Y-51667267D01*
X87374443Y-51464992D01*
X87467540Y-51240236D01*
X87515000Y-51001637D01*
X87515000Y-50758363D01*
X90285000Y-50758363D01*
X90285000Y-51001637D01*
X90332460Y-51240236D01*
X90425557Y-51464992D01*
X90560713Y-51667267D01*
X90732733Y-51839287D01*
X90935008Y-51974443D01*
X91159764Y-52067540D01*
X91398363Y-52115000D01*
X91641637Y-52115000D01*
X91880236Y-52067540D01*
X92104992Y-51974443D01*
X92307267Y-51839287D01*
X92366554Y-51780000D01*
X94631928Y-51780000D01*
X94644188Y-51904482D01*
X94680498Y-52024180D01*
X94739463Y-52134494D01*
X94818815Y-52231185D01*
X94915506Y-52310537D01*
X95025820Y-52369502D01*
X95145518Y-52405812D01*
X95270000Y-52418072D01*
X96234250Y-52415000D01*
X96393000Y-52256250D01*
X96393000Y-51007000D01*
X96647000Y-51007000D01*
X96647000Y-52256250D01*
X96805750Y-52415000D01*
X97770000Y-52418072D01*
X97894482Y-52405812D01*
X98014180Y-52369502D01*
X98124494Y-52310537D01*
X98221185Y-52231185D01*
X98300537Y-52134494D01*
X98359502Y-52024180D01*
X98395812Y-51904482D01*
X98408072Y-51780000D01*
X98405000Y-51165750D01*
X98246250Y-51007000D01*
X96647000Y-51007000D01*
X96393000Y-51007000D01*
X94793750Y-51007000D01*
X94635000Y-51165750D01*
X94631928Y-51780000D01*
X92366554Y-51780000D01*
X92479287Y-51667267D01*
X92614443Y-51464992D01*
X92707540Y-51240236D01*
X92755000Y-51001637D01*
X92755000Y-50758363D01*
X100285000Y-50758363D01*
X100285000Y-51001637D01*
X100332460Y-51240236D01*
X100425557Y-51464992D01*
X100560713Y-51667267D01*
X100732733Y-51839287D01*
X100935008Y-51974443D01*
X101159764Y-52067540D01*
X101398363Y-52115000D01*
X101641637Y-52115000D01*
X101880236Y-52067540D01*
X102104992Y-51974443D01*
X102307267Y-51839287D01*
X102479287Y-51667267D01*
X102614443Y-51464992D01*
X102707540Y-51240236D01*
X102755000Y-51001637D01*
X102755000Y-50758363D01*
X105525000Y-50758363D01*
X105525000Y-51001637D01*
X105572460Y-51240236D01*
X105665557Y-51464992D01*
X105800713Y-51667267D01*
X105972733Y-51839287D01*
X106175008Y-51974443D01*
X106399764Y-52067540D01*
X106638363Y-52115000D01*
X106881637Y-52115000D01*
X107120236Y-52067540D01*
X107344992Y-51974443D01*
X107547267Y-51839287D01*
X107606554Y-51780000D01*
X109871928Y-51780000D01*
X109884188Y-51904482D01*
X109920498Y-52024180D01*
X109979463Y-52134494D01*
X110058815Y-52231185D01*
X110155506Y-52310537D01*
X110265820Y-52369502D01*
X110385518Y-52405812D01*
X110510000Y-52418072D01*
X111474250Y-52415000D01*
X111633000Y-52256250D01*
X111633000Y-51007000D01*
X111887000Y-51007000D01*
X111887000Y-52256250D01*
X112045750Y-52415000D01*
X113010000Y-52418072D01*
X113134482Y-52405812D01*
X113254180Y-52369502D01*
X113364494Y-52310537D01*
X113461185Y-52231185D01*
X113540537Y-52134494D01*
X113599502Y-52024180D01*
X113635812Y-51904482D01*
X113648072Y-51780000D01*
X113645000Y-51165750D01*
X113486250Y-51007000D01*
X111887000Y-51007000D01*
X111633000Y-51007000D01*
X110033750Y-51007000D01*
X109875000Y-51165750D01*
X109871928Y-51780000D01*
X107606554Y-51780000D01*
X107719287Y-51667267D01*
X107854443Y-51464992D01*
X107947540Y-51240236D01*
X107995000Y-51001637D01*
X107995000Y-50758363D01*
X115525000Y-50758363D01*
X115525000Y-51001637D01*
X115572460Y-51240236D01*
X115665557Y-51464992D01*
X115800713Y-51667267D01*
X115972733Y-51839287D01*
X116175008Y-51974443D01*
X116399764Y-52067540D01*
X116638363Y-52115000D01*
X116881637Y-52115000D01*
X117120236Y-52067540D01*
X117344992Y-51974443D01*
X117547267Y-51839287D01*
X117719287Y-51667267D01*
X117854443Y-51464992D01*
X117947540Y-51240236D01*
X117995000Y-51001637D01*
X117995000Y-50758363D01*
X117947540Y-50519764D01*
X117854443Y-50295008D01*
X117719287Y-50092733D01*
X117547267Y-49920713D01*
X117344992Y-49785557D01*
X117120236Y-49692460D01*
X116881637Y-49645000D01*
X116638363Y-49645000D01*
X116399764Y-49692460D01*
X116175008Y-49785557D01*
X115972733Y-49920713D01*
X115800713Y-50092733D01*
X115665557Y-50295008D01*
X115572460Y-50519764D01*
X115525000Y-50758363D01*
X107995000Y-50758363D01*
X107947540Y-50519764D01*
X107854443Y-50295008D01*
X107719287Y-50092733D01*
X107606554Y-49980000D01*
X109871928Y-49980000D01*
X109875000Y-50594250D01*
X110033750Y-50753000D01*
X111633000Y-50753000D01*
X111633000Y-49503750D01*
X111887000Y-49503750D01*
X111887000Y-50753000D01*
X113486250Y-50753000D01*
X113645000Y-50594250D01*
X113648072Y-49980000D01*
X113635812Y-49855518D01*
X113599502Y-49735820D01*
X113540537Y-49625506D01*
X113461185Y-49528815D01*
X113364494Y-49449463D01*
X113254180Y-49390498D01*
X113134482Y-49354188D01*
X113010000Y-49341928D01*
X112045750Y-49345000D01*
X111887000Y-49503750D01*
X111633000Y-49503750D01*
X111474250Y-49345000D01*
X110510000Y-49341928D01*
X110385518Y-49354188D01*
X110265820Y-49390498D01*
X110155506Y-49449463D01*
X110058815Y-49528815D01*
X109979463Y-49625506D01*
X109920498Y-49735820D01*
X109884188Y-49855518D01*
X109871928Y-49980000D01*
X107606554Y-49980000D01*
X107547267Y-49920713D01*
X107344992Y-49785557D01*
X107120236Y-49692460D01*
X106881637Y-49645000D01*
X106638363Y-49645000D01*
X106399764Y-49692460D01*
X106175008Y-49785557D01*
X105972733Y-49920713D01*
X105800713Y-50092733D01*
X105665557Y-50295008D01*
X105572460Y-50519764D01*
X105525000Y-50758363D01*
X102755000Y-50758363D01*
X102707540Y-50519764D01*
X102614443Y-50295008D01*
X102479287Y-50092733D01*
X102307267Y-49920713D01*
X102104992Y-49785557D01*
X101880236Y-49692460D01*
X101641637Y-49645000D01*
X101398363Y-49645000D01*
X101159764Y-49692460D01*
X100935008Y-49785557D01*
X100732733Y-49920713D01*
X100560713Y-50092733D01*
X100425557Y-50295008D01*
X100332460Y-50519764D01*
X100285000Y-50758363D01*
X92755000Y-50758363D01*
X92707540Y-50519764D01*
X92614443Y-50295008D01*
X92479287Y-50092733D01*
X92366554Y-49980000D01*
X94631928Y-49980000D01*
X94635000Y-50594250D01*
X94793750Y-50753000D01*
X96393000Y-50753000D01*
X96393000Y-49503750D01*
X96647000Y-49503750D01*
X96647000Y-50753000D01*
X98246250Y-50753000D01*
X98405000Y-50594250D01*
X98408072Y-49980000D01*
X98395812Y-49855518D01*
X98359502Y-49735820D01*
X98300537Y-49625506D01*
X98221185Y-49528815D01*
X98124494Y-49449463D01*
X98014180Y-49390498D01*
X97894482Y-49354188D01*
X97770000Y-49341928D01*
X96805750Y-49345000D01*
X96647000Y-49503750D01*
X96393000Y-49503750D01*
X96234250Y-49345000D01*
X95270000Y-49341928D01*
X95145518Y-49354188D01*
X95025820Y-49390498D01*
X94915506Y-49449463D01*
X94818815Y-49528815D01*
X94739463Y-49625506D01*
X94680498Y-49735820D01*
X94644188Y-49855518D01*
X94631928Y-49980000D01*
X92366554Y-49980000D01*
X92307267Y-49920713D01*
X92104992Y-49785557D01*
X91880236Y-49692460D01*
X91641637Y-49645000D01*
X91398363Y-49645000D01*
X91159764Y-49692460D01*
X90935008Y-49785557D01*
X90732733Y-49920713D01*
X90560713Y-50092733D01*
X90425557Y-50295008D01*
X90332460Y-50519764D01*
X90285000Y-50758363D01*
X87515000Y-50758363D01*
X87467540Y-50519764D01*
X87374443Y-50295008D01*
X87239287Y-50092733D01*
X87067267Y-49920713D01*
X86864992Y-49785557D01*
X86640236Y-49692460D01*
X86401637Y-49645000D01*
X86158363Y-49645000D01*
X85919764Y-49692460D01*
X85695008Y-49785557D01*
X85492733Y-49920713D01*
X85320713Y-50092733D01*
X85185557Y-50295008D01*
X85092460Y-50519764D01*
X85045000Y-50758363D01*
X77515000Y-50758363D01*
X77467540Y-50519764D01*
X77374443Y-50295008D01*
X77239287Y-50092733D01*
X77126554Y-49980000D01*
X79391928Y-49980000D01*
X79395000Y-50594250D01*
X79553750Y-50753000D01*
X81153000Y-50753000D01*
X81153000Y-49503750D01*
X81407000Y-49503750D01*
X81407000Y-50753000D01*
X83006250Y-50753000D01*
X83165000Y-50594250D01*
X83168072Y-49980000D01*
X83155812Y-49855518D01*
X83119502Y-49735820D01*
X83060537Y-49625506D01*
X82981185Y-49528815D01*
X82884494Y-49449463D01*
X82774180Y-49390498D01*
X82654482Y-49354188D01*
X82530000Y-49341928D01*
X81565750Y-49345000D01*
X81407000Y-49503750D01*
X81153000Y-49503750D01*
X80994250Y-49345000D01*
X80030000Y-49341928D01*
X79905518Y-49354188D01*
X79785820Y-49390498D01*
X79675506Y-49449463D01*
X79578815Y-49528815D01*
X79499463Y-49625506D01*
X79440498Y-49735820D01*
X79404188Y-49855518D01*
X79391928Y-49980000D01*
X77126554Y-49980000D01*
X77067267Y-49920713D01*
X76864992Y-49785557D01*
X76640236Y-49692460D01*
X76401637Y-49645000D01*
X76158363Y-49645000D01*
X75919764Y-49692460D01*
X75695008Y-49785557D01*
X75492733Y-49920713D01*
X75320713Y-50092733D01*
X75185557Y-50295008D01*
X75092460Y-50519764D01*
X75045000Y-50758363D01*
X27330000Y-50758363D01*
X27330000Y-48258363D01*
X75045000Y-48258363D01*
X75045000Y-48501637D01*
X75092460Y-48740236D01*
X75185557Y-48964992D01*
X75320713Y-49167267D01*
X75492733Y-49339287D01*
X75695008Y-49474443D01*
X75919764Y-49567540D01*
X76158363Y-49615000D01*
X76401637Y-49615000D01*
X76640236Y-49567540D01*
X76864992Y-49474443D01*
X77067267Y-49339287D01*
X77239287Y-49167267D01*
X77374443Y-48964992D01*
X77467540Y-48740236D01*
X77515000Y-48501637D01*
X77515000Y-48258363D01*
X85045000Y-48258363D01*
X85045000Y-48501637D01*
X85092460Y-48740236D01*
X85185557Y-48964992D01*
X85320713Y-49167267D01*
X85492733Y-49339287D01*
X85695008Y-49474443D01*
X85919764Y-49567540D01*
X86158363Y-49615000D01*
X86401637Y-49615000D01*
X86640236Y-49567540D01*
X86864992Y-49474443D01*
X87067267Y-49339287D01*
X87239287Y-49167267D01*
X87374443Y-48964992D01*
X87467540Y-48740236D01*
X87515000Y-48501637D01*
X87515000Y-48258363D01*
X90285000Y-48258363D01*
X90285000Y-48501637D01*
X90332460Y-48740236D01*
X90425557Y-48964992D01*
X90560713Y-49167267D01*
X90732733Y-49339287D01*
X90935008Y-49474443D01*
X91159764Y-49567540D01*
X91398363Y-49615000D01*
X91641637Y-49615000D01*
X91880236Y-49567540D01*
X92104992Y-49474443D01*
X92307267Y-49339287D01*
X92479287Y-49167267D01*
X92614443Y-48964992D01*
X92707540Y-48740236D01*
X92755000Y-48501637D01*
X92755000Y-48258363D01*
X100285000Y-48258363D01*
X100285000Y-48501637D01*
X100332460Y-48740236D01*
X100425557Y-48964992D01*
X100560713Y-49167267D01*
X100732733Y-49339287D01*
X100935008Y-49474443D01*
X101159764Y-49567540D01*
X101398363Y-49615000D01*
X101641637Y-49615000D01*
X101880236Y-49567540D01*
X102104992Y-49474443D01*
X102307267Y-49339287D01*
X102479287Y-49167267D01*
X102614443Y-48964992D01*
X102707540Y-48740236D01*
X102755000Y-48501637D01*
X102755000Y-48258363D01*
X105525000Y-48258363D01*
X105525000Y-48501637D01*
X105572460Y-48740236D01*
X105665557Y-48964992D01*
X105800713Y-49167267D01*
X105972733Y-49339287D01*
X106175008Y-49474443D01*
X106399764Y-49567540D01*
X106638363Y-49615000D01*
X106881637Y-49615000D01*
X107120236Y-49567540D01*
X107344992Y-49474443D01*
X107547267Y-49339287D01*
X107719287Y-49167267D01*
X107854443Y-48964992D01*
X107947540Y-48740236D01*
X107995000Y-48501637D01*
X107995000Y-48258363D01*
X115525000Y-48258363D01*
X115525000Y-48501637D01*
X115572460Y-48740236D01*
X115665557Y-48964992D01*
X115800713Y-49167267D01*
X115972733Y-49339287D01*
X116175008Y-49474443D01*
X116399764Y-49567540D01*
X116638363Y-49615000D01*
X116881637Y-49615000D01*
X117120236Y-49567540D01*
X117344992Y-49474443D01*
X117547267Y-49339287D01*
X117719287Y-49167267D01*
X117854443Y-48964992D01*
X117947540Y-48740236D01*
X117995000Y-48501637D01*
X117995000Y-48258363D01*
X117947540Y-48019764D01*
X117854443Y-47795008D01*
X117719287Y-47592733D01*
X117547267Y-47420713D01*
X117344992Y-47285557D01*
X117120236Y-47192460D01*
X116881637Y-47145000D01*
X116638363Y-47145000D01*
X116399764Y-47192460D01*
X116175008Y-47285557D01*
X115972733Y-47420713D01*
X115800713Y-47592733D01*
X115665557Y-47795008D01*
X115572460Y-48019764D01*
X115525000Y-48258363D01*
X107995000Y-48258363D01*
X107947540Y-48019764D01*
X107854443Y-47795008D01*
X107719287Y-47592733D01*
X107547267Y-47420713D01*
X107344992Y-47285557D01*
X107120236Y-47192460D01*
X106881637Y-47145000D01*
X106638363Y-47145000D01*
X106399764Y-47192460D01*
X106175008Y-47285557D01*
X105972733Y-47420713D01*
X105800713Y-47592733D01*
X105665557Y-47795008D01*
X105572460Y-48019764D01*
X105525000Y-48258363D01*
X102755000Y-48258363D01*
X102707540Y-48019764D01*
X102614443Y-47795008D01*
X102479287Y-47592733D01*
X102307267Y-47420713D01*
X102104992Y-47285557D01*
X101880236Y-47192460D01*
X101641637Y-47145000D01*
X101398363Y-47145000D01*
X101159764Y-47192460D01*
X100935008Y-47285557D01*
X100732733Y-47420713D01*
X100560713Y-47592733D01*
X100425557Y-47795008D01*
X100332460Y-48019764D01*
X100285000Y-48258363D01*
X92755000Y-48258363D01*
X92707540Y-48019764D01*
X92614443Y-47795008D01*
X92479287Y-47592733D01*
X92307267Y-47420713D01*
X92104992Y-47285557D01*
X91880236Y-47192460D01*
X91641637Y-47145000D01*
X91398363Y-47145000D01*
X91159764Y-47192460D01*
X90935008Y-47285557D01*
X90732733Y-47420713D01*
X90560713Y-47592733D01*
X90425557Y-47795008D01*
X90332460Y-48019764D01*
X90285000Y-48258363D01*
X87515000Y-48258363D01*
X87467540Y-48019764D01*
X87374443Y-47795008D01*
X87239287Y-47592733D01*
X87067267Y-47420713D01*
X86864992Y-47285557D01*
X86640236Y-47192460D01*
X86401637Y-47145000D01*
X86158363Y-47145000D01*
X85919764Y-47192460D01*
X85695008Y-47285557D01*
X85492733Y-47420713D01*
X85320713Y-47592733D01*
X85185557Y-47795008D01*
X85092460Y-48019764D01*
X85045000Y-48258363D01*
X77515000Y-48258363D01*
X77467540Y-48019764D01*
X77374443Y-47795008D01*
X77239287Y-47592733D01*
X77067267Y-47420713D01*
X76864992Y-47285557D01*
X76640236Y-47192460D01*
X76401637Y-47145000D01*
X76158363Y-47145000D01*
X75919764Y-47192460D01*
X75695008Y-47285557D01*
X75492733Y-47420713D01*
X75320713Y-47592733D01*
X75185557Y-47795008D01*
X75092460Y-48019764D01*
X75045000Y-48258363D01*
X27330000Y-48258363D01*
X27330000Y-45110000D01*
X125070001Y-45110000D01*
X125070000Y-85700000D01*
G37*
%TD.AperFunction*%
D22*
X69140001Y-63794093D02*
X69140000Y-74895123D01*
X69136565Y-74930000D01*
X69140000Y-74964875D01*
X69140000Y-74964876D01*
X69150273Y-75069183D01*
X69190872Y-75203019D01*
X69256800Y-75326362D01*
X69345525Y-75434474D01*
X69372616Y-75456707D01*
X70593292Y-76677384D01*
X70615525Y-76704475D01*
X70723637Y-76793200D01*
X70846980Y-76859128D01*
X70980816Y-76899727D01*
X71085123Y-76910000D01*
X71085124Y-76910000D01*
X71119999Y-76913435D01*
X71154874Y-76910000D01*
X73678548Y-76910000D01*
X73815363Y-77114759D01*
X74015241Y-77314637D01*
X74247759Y-77470000D01*
X74015241Y-77625363D01*
X73815363Y-77825241D01*
X73658320Y-78060273D01*
X73550147Y-78321426D01*
X73495000Y-78598665D01*
X73495000Y-78840909D01*
X72916712Y-78262621D01*
X72894475Y-78235525D01*
X72786363Y-78146800D01*
X72663020Y-78080872D01*
X72529184Y-78040273D01*
X72424877Y-78030000D01*
X72424875Y-78030000D01*
X72390000Y-78026565D01*
X72355125Y-78030000D01*
X68561452Y-78030000D01*
X68424637Y-77825241D01*
X68224759Y-77625363D01*
X67990872Y-77469085D01*
X68051514Y-77436671D01*
X68123097Y-77192702D01*
X67310000Y-76379605D01*
X67295858Y-76393748D01*
X67116253Y-76214143D01*
X67130395Y-76200000D01*
X67489605Y-76200000D01*
X68302702Y-77013097D01*
X68546671Y-76941514D01*
X68667571Y-76686004D01*
X68736300Y-76411816D01*
X68750217Y-76129488D01*
X68708787Y-75849870D01*
X68613603Y-75583708D01*
X68546671Y-75458486D01*
X68302702Y-75386903D01*
X67489605Y-76200000D01*
X67130395Y-76200000D01*
X66317298Y-75386903D01*
X66073329Y-75458486D01*
X65952429Y-75713996D01*
X65883700Y-75988184D01*
X65869783Y-76270512D01*
X65874163Y-76300071D01*
X65480000Y-75905909D01*
X65480000Y-75224091D01*
X66168915Y-74535177D01*
X66195363Y-74574759D01*
X66395241Y-74774637D01*
X66629128Y-74930915D01*
X66568486Y-74963329D01*
X66496903Y-75207298D01*
X67310000Y-76020395D01*
X68123097Y-75207298D01*
X68051514Y-74963329D01*
X67987008Y-74932806D01*
X67989727Y-74931680D01*
X68224759Y-74774637D01*
X68424637Y-74574759D01*
X68581680Y-74339727D01*
X68689853Y-74078574D01*
X68745000Y-73801335D01*
X68745000Y-73518665D01*
X68689853Y-73241426D01*
X68581680Y-72980273D01*
X68424637Y-72745241D01*
X68224759Y-72545363D01*
X67992241Y-72390000D01*
X68224759Y-72234637D01*
X68424637Y-72034759D01*
X68581680Y-71799727D01*
X68689853Y-71538574D01*
X68745000Y-71261335D01*
X68745000Y-70978665D01*
X68689853Y-70701426D01*
X68581680Y-70440273D01*
X68424637Y-70205241D01*
X68224759Y-70005363D01*
X67992241Y-69850000D01*
X68224759Y-69694637D01*
X68424637Y-69494759D01*
X68581680Y-69259727D01*
X68689853Y-68998574D01*
X68745000Y-68721335D01*
X68745000Y-68438665D01*
X68689853Y-68161426D01*
X68581680Y-67900273D01*
X68424637Y-67665241D01*
X68224759Y-67465363D01*
X67990872Y-67309085D01*
X68051514Y-67276671D01*
X68123097Y-67032702D01*
X67310000Y-66219605D01*
X66496903Y-67032702D01*
X66568486Y-67276671D01*
X66632992Y-67307194D01*
X66630273Y-67308320D01*
X66395241Y-67465363D01*
X66195363Y-67665241D01*
X66038320Y-67900273D01*
X65930147Y-68161426D01*
X65875000Y-68438665D01*
X65875000Y-68721335D01*
X65923044Y-68962865D01*
X64292617Y-70593292D01*
X64265526Y-70615525D01*
X64243293Y-70642616D01*
X64176801Y-70723637D01*
X64110872Y-70846981D01*
X64070274Y-70980816D01*
X64056565Y-71120000D01*
X64060001Y-71154885D01*
X64060000Y-74220000D01*
X63551272Y-74220000D01*
X63609853Y-74078574D01*
X63665000Y-73801335D01*
X63665000Y-73518665D01*
X63609853Y-73241426D01*
X63501680Y-72980273D01*
X63344637Y-72745241D01*
X63144759Y-72545363D01*
X62912241Y-72390000D01*
X63144759Y-72234637D01*
X63344637Y-72034759D01*
X63501680Y-71799727D01*
X63609853Y-71538574D01*
X63665000Y-71261335D01*
X63665000Y-70978665D01*
X63609853Y-70701426D01*
X63501680Y-70440273D01*
X63344637Y-70205241D01*
X63144759Y-70005363D01*
X62912241Y-69850000D01*
X63144759Y-69694637D01*
X63344637Y-69494759D01*
X63501680Y-69259727D01*
X63609853Y-68998574D01*
X63665000Y-68721335D01*
X63665000Y-68438665D01*
X63609853Y-68161426D01*
X63501680Y-67900273D01*
X63344637Y-67665241D01*
X63144759Y-67465363D01*
X62912241Y-67310000D01*
X63144759Y-67154637D01*
X63344637Y-66954759D01*
X63501680Y-66719727D01*
X63609853Y-66458574D01*
X63665000Y-66181335D01*
X63665000Y-66110512D01*
X65869783Y-66110512D01*
X65911213Y-66390130D01*
X66006397Y-66656292D01*
X66073329Y-66781514D01*
X66317298Y-66853097D01*
X67130395Y-66040000D01*
X67489605Y-66040000D01*
X68302702Y-66853097D01*
X68546671Y-66781514D01*
X68667571Y-66526004D01*
X68736300Y-66251816D01*
X68750217Y-65969488D01*
X68708787Y-65689870D01*
X68613603Y-65423708D01*
X68546671Y-65298486D01*
X68302702Y-65226903D01*
X67489605Y-66040000D01*
X67130395Y-66040000D01*
X66317298Y-65226903D01*
X66073329Y-65298486D01*
X65952429Y-65553996D01*
X65883700Y-65828184D01*
X65869783Y-66110512D01*
X63665000Y-66110512D01*
X63665000Y-65898665D01*
X63609853Y-65621426D01*
X63501680Y-65360273D01*
X63344637Y-65125241D01*
X63266694Y-65047298D01*
X66496903Y-65047298D01*
X67310000Y-65860395D01*
X68123097Y-65047298D01*
X68051514Y-64803329D01*
X67796004Y-64682429D01*
X67521816Y-64613700D01*
X67239488Y-64599783D01*
X66959870Y-64641213D01*
X66693708Y-64736397D01*
X66568486Y-64803329D01*
X66496903Y-65047298D01*
X63266694Y-65047298D01*
X63144759Y-64925363D01*
X62940000Y-64788548D01*
X62940000Y-62980335D01*
X63057111Y-63058586D01*
X63227271Y-63129068D01*
X63407911Y-63165000D01*
X63592089Y-63165000D01*
X63772729Y-63129068D01*
X63942889Y-63058586D01*
X64096028Y-62956262D01*
X64112290Y-62940000D01*
X68285909Y-62940000D01*
X69140001Y-63794093D01*
%TA.AperFunction,Conductor*%
D21*
G36*
X69140001Y-63794093D02*
G01*
X69140000Y-74895123D01*
X69136565Y-74930000D01*
X69140000Y-74964875D01*
X69140000Y-74964876D01*
X69150273Y-75069183D01*
X69190872Y-75203019D01*
X69256800Y-75326362D01*
X69345525Y-75434474D01*
X69372616Y-75456707D01*
X70593292Y-76677384D01*
X70615525Y-76704475D01*
X70723637Y-76793200D01*
X70846980Y-76859128D01*
X70980816Y-76899727D01*
X71085123Y-76910000D01*
X71085124Y-76910000D01*
X71119999Y-76913435D01*
X71154874Y-76910000D01*
X73678548Y-76910000D01*
X73815363Y-77114759D01*
X74015241Y-77314637D01*
X74247759Y-77470000D01*
X74015241Y-77625363D01*
X73815363Y-77825241D01*
X73658320Y-78060273D01*
X73550147Y-78321426D01*
X73495000Y-78598665D01*
X73495000Y-78840909D01*
X72916712Y-78262621D01*
X72894475Y-78235525D01*
X72786363Y-78146800D01*
X72663020Y-78080872D01*
X72529184Y-78040273D01*
X72424877Y-78030000D01*
X72424875Y-78030000D01*
X72390000Y-78026565D01*
X72355125Y-78030000D01*
X68561452Y-78030000D01*
X68424637Y-77825241D01*
X68224759Y-77625363D01*
X67990872Y-77469085D01*
X68051514Y-77436671D01*
X68123097Y-77192702D01*
X67310000Y-76379605D01*
X67295858Y-76393748D01*
X67116253Y-76214143D01*
X67130395Y-76200000D01*
X67489605Y-76200000D01*
X68302702Y-77013097D01*
X68546671Y-76941514D01*
X68667571Y-76686004D01*
X68736300Y-76411816D01*
X68750217Y-76129488D01*
X68708787Y-75849870D01*
X68613603Y-75583708D01*
X68546671Y-75458486D01*
X68302702Y-75386903D01*
X67489605Y-76200000D01*
X67130395Y-76200000D01*
X66317298Y-75386903D01*
X66073329Y-75458486D01*
X65952429Y-75713996D01*
X65883700Y-75988184D01*
X65869783Y-76270512D01*
X65874163Y-76300071D01*
X65480000Y-75905909D01*
X65480000Y-75224091D01*
X66168915Y-74535177D01*
X66195363Y-74574759D01*
X66395241Y-74774637D01*
X66629128Y-74930915D01*
X66568486Y-74963329D01*
X66496903Y-75207298D01*
X67310000Y-76020395D01*
X68123097Y-75207298D01*
X68051514Y-74963329D01*
X67987008Y-74932806D01*
X67989727Y-74931680D01*
X68224759Y-74774637D01*
X68424637Y-74574759D01*
X68581680Y-74339727D01*
X68689853Y-74078574D01*
X68745000Y-73801335D01*
X68745000Y-73518665D01*
X68689853Y-73241426D01*
X68581680Y-72980273D01*
X68424637Y-72745241D01*
X68224759Y-72545363D01*
X67992241Y-72390000D01*
X68224759Y-72234637D01*
X68424637Y-72034759D01*
X68581680Y-71799727D01*
X68689853Y-71538574D01*
X68745000Y-71261335D01*
X68745000Y-70978665D01*
X68689853Y-70701426D01*
X68581680Y-70440273D01*
X68424637Y-70205241D01*
X68224759Y-70005363D01*
X67992241Y-69850000D01*
X68224759Y-69694637D01*
X68424637Y-69494759D01*
X68581680Y-69259727D01*
X68689853Y-68998574D01*
X68745000Y-68721335D01*
X68745000Y-68438665D01*
X68689853Y-68161426D01*
X68581680Y-67900273D01*
X68424637Y-67665241D01*
X68224759Y-67465363D01*
X67990872Y-67309085D01*
X68051514Y-67276671D01*
X68123097Y-67032702D01*
X67310000Y-66219605D01*
X66496903Y-67032702D01*
X66568486Y-67276671D01*
X66632992Y-67307194D01*
X66630273Y-67308320D01*
X66395241Y-67465363D01*
X66195363Y-67665241D01*
X66038320Y-67900273D01*
X65930147Y-68161426D01*
X65875000Y-68438665D01*
X65875000Y-68721335D01*
X65923044Y-68962865D01*
X64292617Y-70593292D01*
X64265526Y-70615525D01*
X64243293Y-70642616D01*
X64176801Y-70723637D01*
X64110872Y-70846981D01*
X64070274Y-70980816D01*
X64056565Y-71120000D01*
X64060001Y-71154885D01*
X64060000Y-74220000D01*
X63551272Y-74220000D01*
X63609853Y-74078574D01*
X63665000Y-73801335D01*
X63665000Y-73518665D01*
X63609853Y-73241426D01*
X63501680Y-72980273D01*
X63344637Y-72745241D01*
X63144759Y-72545363D01*
X62912241Y-72390000D01*
X63144759Y-72234637D01*
X63344637Y-72034759D01*
X63501680Y-71799727D01*
X63609853Y-71538574D01*
X63665000Y-71261335D01*
X63665000Y-70978665D01*
X63609853Y-70701426D01*
X63501680Y-70440273D01*
X63344637Y-70205241D01*
X63144759Y-70005363D01*
X62912241Y-69850000D01*
X63144759Y-69694637D01*
X63344637Y-69494759D01*
X63501680Y-69259727D01*
X63609853Y-68998574D01*
X63665000Y-68721335D01*
X63665000Y-68438665D01*
X63609853Y-68161426D01*
X63501680Y-67900273D01*
X63344637Y-67665241D01*
X63144759Y-67465363D01*
X62912241Y-67310000D01*
X63144759Y-67154637D01*
X63344637Y-66954759D01*
X63501680Y-66719727D01*
X63609853Y-66458574D01*
X63665000Y-66181335D01*
X63665000Y-66110512D01*
X65869783Y-66110512D01*
X65911213Y-66390130D01*
X66006397Y-66656292D01*
X66073329Y-66781514D01*
X66317298Y-66853097D01*
X67130395Y-66040000D01*
X67489605Y-66040000D01*
X68302702Y-66853097D01*
X68546671Y-66781514D01*
X68667571Y-66526004D01*
X68736300Y-66251816D01*
X68750217Y-65969488D01*
X68708787Y-65689870D01*
X68613603Y-65423708D01*
X68546671Y-65298486D01*
X68302702Y-65226903D01*
X67489605Y-66040000D01*
X67130395Y-66040000D01*
X66317298Y-65226903D01*
X66073329Y-65298486D01*
X65952429Y-65553996D01*
X65883700Y-65828184D01*
X65869783Y-66110512D01*
X63665000Y-66110512D01*
X63665000Y-65898665D01*
X63609853Y-65621426D01*
X63501680Y-65360273D01*
X63344637Y-65125241D01*
X63266694Y-65047298D01*
X66496903Y-65047298D01*
X67310000Y-65860395D01*
X68123097Y-65047298D01*
X68051514Y-64803329D01*
X67796004Y-64682429D01*
X67521816Y-64613700D01*
X67239488Y-64599783D01*
X66959870Y-64641213D01*
X66693708Y-64736397D01*
X66568486Y-64803329D01*
X66496903Y-65047298D01*
X63266694Y-65047298D01*
X63144759Y-64925363D01*
X62940000Y-64788548D01*
X62940000Y-62980335D01*
X63057111Y-63058586D01*
X63227271Y-63129068D01*
X63407911Y-63165000D01*
X63592089Y-63165000D01*
X63772729Y-63129068D01*
X63942889Y-63058586D01*
X64096028Y-62956262D01*
X64112290Y-62940000D01*
X68285909Y-62940000D01*
X69140001Y-63794093D01*
G37*
%TD.AperFunction*%
%TD*%
M02*
