%TF.GenerationSoftware,KiCad,Pcbnew,(5.1.8-0-10_14)*%
%TF.CreationDate,2020-12-14T15:32:48+01:00*%
%TF.ProjectId,FlexMAFD,466c6578-4d41-4464-942e-6b696361645f,rev?*%
%TF.SameCoordinates,Original*%
%TF.FileFunction,Copper,L1,Top*%
%TF.FilePolarity,Positive*%
%FSLAX46Y46*%
G04 Gerber Fmt 4.6, Leading zero omitted, Abs format (unit mm)*
G04 Created by KiCad (PCBNEW (5.1.8-0-10_14)) date 2020-12-14 15:32:48*
%MOMM*%
%LPD*%
G01*
G04 APERTURE LIST*
%TA.AperFunction,ComponentPad*%
%ADD10C,1.600000*%
%TD*%
%TA.AperFunction,ComponentPad*%
%ADD11R,1.800000X2.500000*%
%TD*%
%TA.AperFunction,ComponentPad*%
%ADD12R,2.500000X1.800000*%
%TD*%
%TA.AperFunction,ComponentPad*%
%ADD13R,1.600000X1.600000*%
%TD*%
%TA.AperFunction,ComponentPad*%
%ADD14O,1.600000X1.600000*%
%TD*%
%TA.AperFunction,ComponentPad*%
%ADD15R,1.800000X1.800000*%
%TD*%
%TA.AperFunction,ComponentPad*%
%ADD16C,1.800000*%
%TD*%
%TA.AperFunction,ComponentPad*%
%ADD17C,2.100000*%
%TD*%
%TA.AperFunction,ComponentPad*%
%ADD18C,3.585000*%
%TD*%
%TA.AperFunction,ComponentPad*%
%ADD19C,1.900000*%
%TD*%
%TA.AperFunction,ViaPad*%
%ADD20C,0.600000*%
%TD*%
%TA.AperFunction,Conductor*%
%ADD21C,0.150000*%
%TD*%
%TA.AperFunction,Conductor*%
%ADD22C,0.254000*%
%TD*%
G04 APERTURE END LIST*
D10*
%TO.P,C1,1*%
%TO.N,Net-(C1-Pad1)*%
X29210000Y-59690000D03*
%TO.P,C1,2*%
%TO.N,Earth*%
X31710000Y-59690000D03*
%TD*%
D11*
%TO.P,CON1,3*%
%TO.N,Net-(CON1-Pad3)*%
X86280000Y-55880000D03*
%TO.P,CON1,2*%
%TO.N,Net-(CON1-Pad2)*%
X76280000Y-55880000D03*
D12*
%TO.P,CON1,1*%
%TO.N,Earth*%
X81280000Y-50880000D03*
%TD*%
%TO.P,CON2,1*%
%TO.N,Earth*%
X96520000Y-50880000D03*
D11*
%TO.P,CON2,2*%
%TO.N,Net-(CON2-Pad2)*%
X91520000Y-55880000D03*
%TO.P,CON2,3*%
%TO.N,Net-(CON2-Pad3)*%
X101520000Y-55880000D03*
%TD*%
%TO.P,CON3,3*%
%TO.N,Net-(CON3-Pad3)*%
X116760000Y-55880000D03*
%TO.P,CON3,2*%
%TO.N,Net-(CON3-Pad2)*%
X106760000Y-55880000D03*
D12*
%TO.P,CON3,1*%
%TO.N,Earth*%
X111760000Y-50880000D03*
%TD*%
D13*
%TO.P,D1,1*%
%TO.N,Net-(D1-Pad1)*%
X97790000Y-68580000D03*
D14*
%TO.P,D1,2*%
%TO.N,Net-(D1-Pad2)*%
X97790000Y-76200000D03*
%TD*%
D15*
%TO.P,D2,1*%
%TO.N,Earth*%
X120650000Y-59690000D03*
D16*
%TO.P,D2,2*%
%TO.N,Net-(D2-Pad2)*%
X123190000Y-59690000D03*
%TD*%
D17*
%TO.P,J1,1*%
%TO.N,Net-(J1-Pad1)*%
X113030000Y-66040000D03*
%TO.P,J1,2*%
%TO.N,Net-(J1-Pad2)*%
X113030000Y-73545000D03*
%TO.P,J1,3*%
%TO.N,Net-(J1-Pad3)*%
X113030000Y-81050000D03*
%TO.P,J1,4*%
%TO.N,Net-(J1-Pad4)*%
X110540000Y-68540000D03*
%TO.P,J1,5*%
%TO.N,Net-(D1-Pad2)*%
X110540000Y-78550000D03*
%TO.P,J1,6*%
%TO.N,Net-(J1-Pad6)*%
X123040000Y-71045000D03*
%TO.P,J1,7*%
%TO.N,Net-(J1-Pad7)*%
X123040000Y-76045000D03*
D18*
%TO.P,J1,MH1*%
%TO.N,Net-(J1-PadMH1)*%
X118040000Y-66040000D03*
%TO.P,J1,MH2*%
%TO.N,Net-(J1-PadMH2)*%
X118040000Y-81050000D03*
%TD*%
D10*
%TO.P,R1,1*%
%TO.N,Net-(D1-Pad1)*%
X102870000Y-68580000D03*
D14*
%TO.P,R1,2*%
%TO.N,Net-(J1-Pad4)*%
X102870000Y-76200000D03*
%TD*%
%TO.P,R2,2*%
%TO.N,Net-(R2-Pad2)*%
X80010000Y-68580000D03*
D10*
%TO.P,R2,1*%
%TO.N,Net-(R2-Pad1)*%
X80010000Y-76200000D03*
%TD*%
D13*
%TO.P,U1,1*%
%TO.N,Net-(U1-Pad1)*%
X92710000Y-76200000D03*
D10*
%TO.P,U1,2*%
%TO.N,Net-(D1-Pad1)*%
X92710000Y-73660000D03*
%TO.P,U1,3*%
%TO.N,Net-(D1-Pad2)*%
X92710000Y-71120000D03*
%TO.P,U1,4*%
%TO.N,Net-(U1-Pad4)*%
X92710000Y-68580000D03*
%TO.P,U1,5*%
%TO.N,Earth*%
X85090000Y-68580000D03*
%TO.P,U1,6*%
%TO.N,Net-(R2-Pad2)*%
X85090000Y-71120000D03*
%TO.P,U1,7*%
%TO.N,Net-(U1-Pad7)*%
X85090000Y-73660000D03*
%TO.P,U1,8*%
%TO.N,Net-(C1-Pad1)*%
X85090000Y-76200000D03*
%TD*%
%TO.P,U2,17*%
%TO.N,Net-(U2-Pad17)*%
X62230000Y-73660000D03*
%TO.P,U2,18*%
%TO.N,Net-(U2-Pad18)*%
X62230000Y-71120000D03*
%TO.P,U2,19*%
%TO.N,Net-(U2-Pad19)*%
X62230000Y-68580000D03*
%TO.P,U2,20*%
%TO.N,Net-(U2-Pad20)*%
X62230000Y-66040000D03*
%TO.P,U2,16*%
%TO.N,Net-(U2-Pad16)*%
X62230000Y-76200000D03*
%TO.P,U2,15*%
%TO.N,Net-(U2-Pad15)*%
X62230000Y-78740000D03*
%TO.P,U2,14*%
%TO.N,Net-(U2-Pad14)*%
X62230000Y-81280000D03*
%TO.P,U2,21*%
%TO.N,Net-(U2-Pad21)*%
X59690000Y-66040000D03*
%TO.P,U2,22*%
%TO.N,Net-(U2-Pad22)*%
X57150000Y-66040000D03*
%TO.P,U2,23*%
%TO.N,Net-(U2-Pad23)*%
X54610000Y-66040000D03*
%TO.P,U2,24*%
%TO.N,Net-(CON1-Pad2)*%
X52070000Y-66040000D03*
%TO.P,U2,25*%
%TO.N,Net-(U2-Pad25)*%
X49530000Y-66040000D03*
%TO.P,U2,26*%
%TO.N,Net-(U2-Pad26)*%
X46990000Y-66040000D03*
%TO.P,U2,27*%
%TO.N,Net-(U2-Pad27)*%
X44450000Y-66040000D03*
%TO.P,U2,28*%
%TO.N,Net-(U2-Pad28)*%
X41910000Y-66040000D03*
%TO.P,U2,29*%
%TO.N,Net-(U2-Pad29)*%
X39370000Y-66040000D03*
%TO.P,U2,30*%
%TO.N,Net-(U2-Pad30)*%
X36830000Y-66040000D03*
%TO.P,U2,31*%
%TO.N,Net-(R2-Pad1)*%
X34290000Y-66040000D03*
%TO.P,U2,32*%
%TO.N,Net-(U2-Pad32)*%
X31750000Y-66040000D03*
%TO.P,U2,33*%
%TO.N,Net-(C1-Pad1)*%
X29210000Y-66040000D03*
%TO.P,U2,34*%
%TO.N,Net-(U2-Pad34)*%
X31750000Y-68580000D03*
%TO.P,U2,35*%
%TO.N,Net-(U2-Pad35)*%
X36830000Y-68580000D03*
%TO.P,U2,36*%
%TO.N,Net-(U2-Pad36)*%
X39370000Y-68580000D03*
%TO.P,U2,37*%
%TO.N,Net-(U2-Pad37)*%
X41910000Y-68580000D03*
%TO.P,U2,13*%
%TO.N,Net-(U2-Pad13)*%
X59690000Y-81280000D03*
%TO.P,U2,12*%
%TO.N,Net-(D2-Pad2)*%
X57150000Y-81280000D03*
%TO.P,U2,11*%
%TO.N,Net-(U2-Pad11)*%
X54610000Y-81280000D03*
%TO.P,U2,10*%
%TO.N,Net-(U2-Pad10)*%
X52070000Y-81280000D03*
%TO.P,U2,9*%
%TO.N,Net-(U2-Pad9)*%
X49530000Y-81280000D03*
%TO.P,U2,8*%
%TO.N,Net-(U2-Pad8)*%
X46990000Y-81280000D03*
%TO.P,U2,7*%
%TO.N,Net-(U2-Pad7)*%
X44450000Y-81280000D03*
%TO.P,U2,6*%
%TO.N,Net-(U2-Pad6)*%
X41910000Y-81280000D03*
%TO.P,U2,5*%
%TO.N,Net-(U2-Pad5)*%
X39370000Y-81280000D03*
%TO.P,U2,4*%
%TO.N,Net-(U2-Pad4)*%
X36830000Y-81280000D03*
%TO.P,U2,3*%
%TO.N,Net-(U2-Pad3)*%
X34290000Y-81280000D03*
%TO.P,U2,2*%
%TO.N,Net-(R2-Pad2)*%
X31750000Y-81280000D03*
D13*
%TO.P,U2,1*%
%TO.N,Earth*%
X29210000Y-81280000D03*
D19*
%TO.P,U2,52*%
%TO.N,N/C*%
X39370000Y-73660000D03*
X35560000Y-73660000D03*
%TD*%
D13*
%TO.P,U3,1*%
%TO.N,Net-(C1-Pad1)*%
X74930000Y-81280000D03*
D10*
%TO.P,U3,2*%
%TO.N,Net-(U3-Pad2)*%
X74930000Y-78740000D03*
%TO.P,U3,3*%
%TO.N,Net-(U2-Pad21)*%
X74930000Y-76200000D03*
%TO.P,U3,4*%
%TO.N,Net-(U2-Pad20)*%
X74930000Y-73660000D03*
%TO.P,U3,5*%
%TO.N,Net-(U2-Pad13)*%
X74930000Y-71120000D03*
%TO.P,U3,6*%
%TO.N,Net-(U3-Pad6)*%
X74930000Y-68580000D03*
%TO.P,U3,7*%
%TO.N,Net-(U3-Pad7)*%
X74930000Y-66040000D03*
%TO.P,U3,8*%
%TO.N,Earth*%
X67310000Y-66040000D03*
%TO.P,U3,9*%
%TO.N,Net-(C1-Pad1)*%
X67310000Y-68580000D03*
%TO.P,U3,10*%
%TO.N,Net-(CON3-Pad2)*%
X67310000Y-71120000D03*
%TO.P,U3,11*%
%TO.N,Net-(C1-Pad1)*%
X67310000Y-73660000D03*
%TO.P,U3,12*%
%TO.N,Earth*%
X67310000Y-76200000D03*
%TO.P,U3,13*%
%TO.N,Net-(C1-Pad1)*%
X67310000Y-78740000D03*
%TO.P,U3,14*%
%TO.N,Net-(CON2-Pad2)*%
X67310000Y-81280000D03*
%TD*%
D20*
%TO.N,Net-(U2-Pad21)*%
X63500000Y-62230000D03*
%TD*%
D21*
%TO.N,Net-(C1-Pad1)*%
X29210000Y-66040000D02*
X29210000Y-59690000D01*
%TO.N,Net-(CON1-Pad2)*%
X52070000Y-66040000D02*
X52070000Y-57150000D01*
X53340000Y-55880000D02*
X76280000Y-55880000D01*
X52070000Y-57150000D02*
X53340000Y-55880000D01*
%TO.N,Net-(CON2-Pad2)*%
X67310000Y-81280000D02*
X66040000Y-81280000D01*
X87710000Y-59690000D02*
X91520000Y-55880000D01*
X67310000Y-59690000D02*
X87710000Y-59690000D01*
X64770000Y-62230000D02*
X67310000Y-59690000D01*
X64770000Y-80010000D02*
X64770000Y-62230000D01*
X66040000Y-81280000D02*
X64770000Y-80010000D01*
%TO.N,Net-(CON3-Pad2)*%
X67310000Y-71120000D02*
X68580000Y-71120000D01*
X101680000Y-60960000D02*
X106760000Y-55880000D01*
X73660000Y-60960000D02*
X101680000Y-60960000D01*
X72390000Y-62230000D02*
X73660000Y-60960000D01*
X72390000Y-67310000D02*
X72390000Y-62230000D01*
X68580000Y-71120000D02*
X72390000Y-67310000D01*
%TO.N,Net-(D1-Pad1)*%
X102870000Y-68580000D02*
X97790000Y-68580000D01*
X97790000Y-68580000D02*
X92710000Y-73660000D01*
%TO.N,Net-(D1-Pad2)*%
X110540000Y-78550000D02*
X100140000Y-78550000D01*
X100140000Y-78550000D02*
X97790000Y-76200000D01*
%TO.N,Net-(J1-Pad4)*%
X110540000Y-68540000D02*
X110530000Y-68540000D01*
X110530000Y-68540000D02*
X102870000Y-76200000D01*
%TO.N,Net-(R2-Pad2)*%
X85090000Y-71120000D02*
X82550000Y-71120000D01*
X82550000Y-71120000D02*
X80010000Y-68580000D01*
X80010000Y-68580000D02*
X78740000Y-68580000D01*
X31750000Y-83820000D02*
X31750000Y-81280000D01*
X33020000Y-85090000D02*
X31750000Y-83820000D01*
X76200000Y-85090000D02*
X33020000Y-85090000D01*
X77470000Y-83820000D02*
X76200000Y-85090000D01*
X77470000Y-69850000D02*
X77470000Y-83820000D01*
X78740000Y-68580000D02*
X77470000Y-69850000D01*
%TO.N,Net-(U2-Pad21)*%
X59690000Y-63500000D02*
X59690000Y-66040000D01*
X60960000Y-62230000D02*
X59690000Y-63500000D01*
X63500000Y-62230000D02*
X60960000Y-62230000D01*
%TO.N,Net-(U2-Pad13)*%
X59690000Y-81280000D02*
X59690000Y-82550000D01*
X72390000Y-71120000D02*
X74930000Y-71120000D01*
X71120000Y-72390000D02*
X72390000Y-71120000D01*
X71120000Y-80010000D02*
X71120000Y-72390000D01*
X67310000Y-83820000D02*
X71120000Y-80010000D01*
X60960000Y-83820000D02*
X67310000Y-83820000D01*
X59690000Y-82550000D02*
X60960000Y-83820000D01*
%TD*%
D22*
%TO.N,Earth*%
X125070000Y-85700000D02*
X76564932Y-85700000D01*
X76596363Y-85683200D01*
X76704475Y-85594475D01*
X76726712Y-85567379D01*
X77947385Y-84346707D01*
X77974475Y-84324475D01*
X78063200Y-84216363D01*
X78129128Y-84093020D01*
X78169727Y-83959184D01*
X78180000Y-83854877D01*
X78180000Y-83854876D01*
X78183435Y-83820001D01*
X78180000Y-83785126D01*
X78180000Y-80884042D01*
X111345000Y-80884042D01*
X111345000Y-81215958D01*
X111409754Y-81541496D01*
X111536772Y-81848147D01*
X111721175Y-82124125D01*
X111955875Y-82358825D01*
X112231853Y-82543228D01*
X112538504Y-82670246D01*
X112864042Y-82735000D01*
X113195958Y-82735000D01*
X113521496Y-82670246D01*
X113828147Y-82543228D01*
X114104125Y-82358825D01*
X114338825Y-82124125D01*
X114523228Y-81848147D01*
X114650246Y-81541496D01*
X114715000Y-81215958D01*
X114715000Y-80884042D01*
X114700454Y-80810912D01*
X115612500Y-80810912D01*
X115612500Y-81289088D01*
X115705787Y-81758076D01*
X115888777Y-82199853D01*
X116154437Y-82597441D01*
X116492559Y-82935563D01*
X116890147Y-83201223D01*
X117331924Y-83384213D01*
X117800912Y-83477500D01*
X118279088Y-83477500D01*
X118748076Y-83384213D01*
X119189853Y-83201223D01*
X119587441Y-82935563D01*
X119925563Y-82597441D01*
X120191223Y-82199853D01*
X120374213Y-81758076D01*
X120467500Y-81289088D01*
X120467500Y-80810912D01*
X120374213Y-80341924D01*
X120191223Y-79900147D01*
X119925563Y-79502559D01*
X119587441Y-79164437D01*
X119189853Y-78898777D01*
X118748076Y-78715787D01*
X118279088Y-78622500D01*
X117800912Y-78622500D01*
X117331924Y-78715787D01*
X116890147Y-78898777D01*
X116492559Y-79164437D01*
X116154437Y-79502559D01*
X115888777Y-79900147D01*
X115705787Y-80341924D01*
X115612500Y-80810912D01*
X114700454Y-80810912D01*
X114650246Y-80558504D01*
X114523228Y-80251853D01*
X114338825Y-79975875D01*
X114104125Y-79741175D01*
X113828147Y-79556772D01*
X113521496Y-79429754D01*
X113195958Y-79365000D01*
X112864042Y-79365000D01*
X112538504Y-79429754D01*
X112231853Y-79556772D01*
X111955875Y-79741175D01*
X111721175Y-79975875D01*
X111536772Y-80251853D01*
X111409754Y-80558504D01*
X111345000Y-80884042D01*
X78180000Y-80884042D01*
X78180000Y-76058665D01*
X78575000Y-76058665D01*
X78575000Y-76341335D01*
X78630147Y-76618574D01*
X78738320Y-76879727D01*
X78895363Y-77114759D01*
X79095241Y-77314637D01*
X79330273Y-77471680D01*
X79591426Y-77579853D01*
X79868665Y-77635000D01*
X80151335Y-77635000D01*
X80428574Y-77579853D01*
X80689727Y-77471680D01*
X80924759Y-77314637D01*
X81124637Y-77114759D01*
X81281680Y-76879727D01*
X81389853Y-76618574D01*
X81445000Y-76341335D01*
X81445000Y-76058665D01*
X81389853Y-75781426D01*
X81281680Y-75520273D01*
X81124637Y-75285241D01*
X80924759Y-75085363D01*
X80689727Y-74928320D01*
X80428574Y-74820147D01*
X80151335Y-74765000D01*
X79868665Y-74765000D01*
X79591426Y-74820147D01*
X79330273Y-74928320D01*
X79095241Y-75085363D01*
X78895363Y-75285241D01*
X78738320Y-75520273D01*
X78630147Y-75781426D01*
X78575000Y-76058665D01*
X78180000Y-76058665D01*
X78180000Y-70144091D01*
X78868915Y-69455177D01*
X78895363Y-69494759D01*
X79095241Y-69694637D01*
X79330273Y-69851680D01*
X79591426Y-69959853D01*
X79868665Y-70015000D01*
X80151335Y-70015000D01*
X80392865Y-69966956D01*
X82023292Y-71597384D01*
X82045525Y-71624475D01*
X82072615Y-71646707D01*
X82153635Y-71713199D01*
X82153637Y-71713200D01*
X82276980Y-71779128D01*
X82410816Y-71819727D01*
X82515123Y-71830000D01*
X82515124Y-71830000D01*
X82549999Y-71833435D01*
X82584874Y-71830000D01*
X83838548Y-71830000D01*
X83975363Y-72034759D01*
X84175241Y-72234637D01*
X84407759Y-72390000D01*
X84175241Y-72545363D01*
X83975363Y-72745241D01*
X83818320Y-72980273D01*
X83710147Y-73241426D01*
X83655000Y-73518665D01*
X83655000Y-73801335D01*
X83710147Y-74078574D01*
X83818320Y-74339727D01*
X83975363Y-74574759D01*
X84175241Y-74774637D01*
X84407759Y-74930000D01*
X84175241Y-75085363D01*
X83975363Y-75285241D01*
X83818320Y-75520273D01*
X83710147Y-75781426D01*
X83655000Y-76058665D01*
X83655000Y-76341335D01*
X83710147Y-76618574D01*
X83818320Y-76879727D01*
X83975363Y-77114759D01*
X84175241Y-77314637D01*
X84410273Y-77471680D01*
X84671426Y-77579853D01*
X84948665Y-77635000D01*
X85231335Y-77635000D01*
X85508574Y-77579853D01*
X85769727Y-77471680D01*
X86004759Y-77314637D01*
X86204637Y-77114759D01*
X86361680Y-76879727D01*
X86469853Y-76618574D01*
X86525000Y-76341335D01*
X86525000Y-76058665D01*
X86469853Y-75781426D01*
X86361680Y-75520273D01*
X86281317Y-75400000D01*
X91271928Y-75400000D01*
X91271928Y-77000000D01*
X91284188Y-77124482D01*
X91320498Y-77244180D01*
X91379463Y-77354494D01*
X91458815Y-77451185D01*
X91555506Y-77530537D01*
X91665820Y-77589502D01*
X91785518Y-77625812D01*
X91910000Y-77638072D01*
X93510000Y-77638072D01*
X93634482Y-77625812D01*
X93754180Y-77589502D01*
X93864494Y-77530537D01*
X93961185Y-77451185D01*
X94040537Y-77354494D01*
X94099502Y-77244180D01*
X94135812Y-77124482D01*
X94148072Y-77000000D01*
X94148072Y-76058665D01*
X96355000Y-76058665D01*
X96355000Y-76341335D01*
X96410147Y-76618574D01*
X96518320Y-76879727D01*
X96675363Y-77114759D01*
X96875241Y-77314637D01*
X97110273Y-77471680D01*
X97371426Y-77579853D01*
X97648665Y-77635000D01*
X97931335Y-77635000D01*
X98172865Y-77586956D01*
X99613288Y-79027379D01*
X99635525Y-79054475D01*
X99743637Y-79143200D01*
X99866980Y-79209128D01*
X100000816Y-79249727D01*
X100105123Y-79260000D01*
X100105125Y-79260000D01*
X100140000Y-79263435D01*
X100174875Y-79260000D01*
X109010261Y-79260000D01*
X109046772Y-79348147D01*
X109231175Y-79624125D01*
X109465875Y-79858825D01*
X109741853Y-80043228D01*
X110048504Y-80170246D01*
X110374042Y-80235000D01*
X110705958Y-80235000D01*
X111031496Y-80170246D01*
X111338147Y-80043228D01*
X111614125Y-79858825D01*
X111848825Y-79624125D01*
X112033228Y-79348147D01*
X112160246Y-79041496D01*
X112225000Y-78715958D01*
X112225000Y-78384042D01*
X112160246Y-78058504D01*
X112033228Y-77751853D01*
X111848825Y-77475875D01*
X111614125Y-77241175D01*
X111338147Y-77056772D01*
X111031496Y-76929754D01*
X110705958Y-76865000D01*
X110374042Y-76865000D01*
X110048504Y-76929754D01*
X109741853Y-77056772D01*
X109465875Y-77241175D01*
X109231175Y-77475875D01*
X109046772Y-77751853D01*
X109010261Y-77840000D01*
X100434091Y-77840000D01*
X99176956Y-76582865D01*
X99225000Y-76341335D01*
X99225000Y-76058665D01*
X101435000Y-76058665D01*
X101435000Y-76341335D01*
X101490147Y-76618574D01*
X101598320Y-76879727D01*
X101755363Y-77114759D01*
X101955241Y-77314637D01*
X102190273Y-77471680D01*
X102451426Y-77579853D01*
X102728665Y-77635000D01*
X103011335Y-77635000D01*
X103288574Y-77579853D01*
X103549727Y-77471680D01*
X103784759Y-77314637D01*
X103984637Y-77114759D01*
X104141680Y-76879727D01*
X104249853Y-76618574D01*
X104305000Y-76341335D01*
X104305000Y-76058665D01*
X104269271Y-75879042D01*
X121355000Y-75879042D01*
X121355000Y-76210958D01*
X121419754Y-76536496D01*
X121546772Y-76843147D01*
X121731175Y-77119125D01*
X121965875Y-77353825D01*
X122241853Y-77538228D01*
X122548504Y-77665246D01*
X122874042Y-77730000D01*
X123205958Y-77730000D01*
X123531496Y-77665246D01*
X123838147Y-77538228D01*
X124114125Y-77353825D01*
X124348825Y-77119125D01*
X124533228Y-76843147D01*
X124660246Y-76536496D01*
X124725000Y-76210958D01*
X124725000Y-75879042D01*
X124660246Y-75553504D01*
X124533228Y-75246853D01*
X124348825Y-74970875D01*
X124114125Y-74736175D01*
X123838147Y-74551772D01*
X123531496Y-74424754D01*
X123205958Y-74360000D01*
X122874042Y-74360000D01*
X122548504Y-74424754D01*
X122241853Y-74551772D01*
X121965875Y-74736175D01*
X121731175Y-74970875D01*
X121546772Y-75246853D01*
X121419754Y-75553504D01*
X121355000Y-75879042D01*
X104269271Y-75879042D01*
X104256956Y-75817135D01*
X106695049Y-73379042D01*
X111345000Y-73379042D01*
X111345000Y-73710958D01*
X111409754Y-74036496D01*
X111536772Y-74343147D01*
X111721175Y-74619125D01*
X111955875Y-74853825D01*
X112231853Y-75038228D01*
X112538504Y-75165246D01*
X112864042Y-75230000D01*
X113195958Y-75230000D01*
X113521496Y-75165246D01*
X113828147Y-75038228D01*
X114104125Y-74853825D01*
X114338825Y-74619125D01*
X114523228Y-74343147D01*
X114650246Y-74036496D01*
X114715000Y-73710958D01*
X114715000Y-73379042D01*
X114650246Y-73053504D01*
X114523228Y-72746853D01*
X114338825Y-72470875D01*
X114104125Y-72236175D01*
X113828147Y-72051772D01*
X113521496Y-71924754D01*
X113195958Y-71860000D01*
X112864042Y-71860000D01*
X112538504Y-71924754D01*
X112231853Y-72051772D01*
X111955875Y-72236175D01*
X111721175Y-72470875D01*
X111536772Y-72746853D01*
X111409754Y-73053504D01*
X111345000Y-73379042D01*
X106695049Y-73379042D01*
X109195049Y-70879042D01*
X121355000Y-70879042D01*
X121355000Y-71210958D01*
X121419754Y-71536496D01*
X121546772Y-71843147D01*
X121731175Y-72119125D01*
X121965875Y-72353825D01*
X122241853Y-72538228D01*
X122548504Y-72665246D01*
X122874042Y-72730000D01*
X123205958Y-72730000D01*
X123531496Y-72665246D01*
X123838147Y-72538228D01*
X124114125Y-72353825D01*
X124348825Y-72119125D01*
X124533228Y-71843147D01*
X124660246Y-71536496D01*
X124725000Y-71210958D01*
X124725000Y-70879042D01*
X124660246Y-70553504D01*
X124533228Y-70246853D01*
X124348825Y-69970875D01*
X124114125Y-69736175D01*
X123838147Y-69551772D01*
X123531496Y-69424754D01*
X123205958Y-69360000D01*
X122874042Y-69360000D01*
X122548504Y-69424754D01*
X122241853Y-69551772D01*
X121965875Y-69736175D01*
X121731175Y-69970875D01*
X121546772Y-70246853D01*
X121419754Y-70553504D01*
X121355000Y-70879042D01*
X109195049Y-70879042D01*
X109953285Y-70120806D01*
X110048504Y-70160246D01*
X110374042Y-70225000D01*
X110705958Y-70225000D01*
X111031496Y-70160246D01*
X111338147Y-70033228D01*
X111614125Y-69848825D01*
X111848825Y-69614125D01*
X112033228Y-69338147D01*
X112160246Y-69031496D01*
X112225000Y-68705958D01*
X112225000Y-68374042D01*
X112160246Y-68048504D01*
X112033228Y-67741853D01*
X111848825Y-67465875D01*
X111614125Y-67231175D01*
X111338147Y-67046772D01*
X111031496Y-66919754D01*
X110705958Y-66855000D01*
X110374042Y-66855000D01*
X110048504Y-66919754D01*
X109741853Y-67046772D01*
X109465875Y-67231175D01*
X109231175Y-67465875D01*
X109046772Y-67741853D01*
X108919754Y-68048504D01*
X108855000Y-68374042D01*
X108855000Y-68705958D01*
X108919754Y-69031496D01*
X108953337Y-69112572D01*
X103252865Y-74813044D01*
X103011335Y-74765000D01*
X102728665Y-74765000D01*
X102451426Y-74820147D01*
X102190273Y-74928320D01*
X101955241Y-75085363D01*
X101755363Y-75285241D01*
X101598320Y-75520273D01*
X101490147Y-75781426D01*
X101435000Y-76058665D01*
X99225000Y-76058665D01*
X99169853Y-75781426D01*
X99061680Y-75520273D01*
X98904637Y-75285241D01*
X98704759Y-75085363D01*
X98469727Y-74928320D01*
X98208574Y-74820147D01*
X97931335Y-74765000D01*
X97648665Y-74765000D01*
X97371426Y-74820147D01*
X97110273Y-74928320D01*
X96875241Y-75085363D01*
X96675363Y-75285241D01*
X96518320Y-75520273D01*
X96410147Y-75781426D01*
X96355000Y-76058665D01*
X94148072Y-76058665D01*
X94148072Y-75400000D01*
X94135812Y-75275518D01*
X94099502Y-75155820D01*
X94040537Y-75045506D01*
X93961185Y-74948815D01*
X93864494Y-74869463D01*
X93754180Y-74810498D01*
X93634482Y-74774188D01*
X93626039Y-74773357D01*
X93824637Y-74574759D01*
X93981680Y-74339727D01*
X94089853Y-74078574D01*
X94145000Y-73801335D01*
X94145000Y-73518665D01*
X94096956Y-73277135D01*
X97356019Y-70018072D01*
X98590000Y-70018072D01*
X98714482Y-70005812D01*
X98834180Y-69969502D01*
X98944494Y-69910537D01*
X99041185Y-69831185D01*
X99120537Y-69734494D01*
X99179502Y-69624180D01*
X99215812Y-69504482D01*
X99228072Y-69380000D01*
X99228072Y-69290000D01*
X101618548Y-69290000D01*
X101755363Y-69494759D01*
X101955241Y-69694637D01*
X102190273Y-69851680D01*
X102451426Y-69959853D01*
X102728665Y-70015000D01*
X103011335Y-70015000D01*
X103288574Y-69959853D01*
X103549727Y-69851680D01*
X103784759Y-69694637D01*
X103984637Y-69494759D01*
X104141680Y-69259727D01*
X104249853Y-68998574D01*
X104305000Y-68721335D01*
X104305000Y-68438665D01*
X104249853Y-68161426D01*
X104141680Y-67900273D01*
X103984637Y-67665241D01*
X103784759Y-67465363D01*
X103549727Y-67308320D01*
X103288574Y-67200147D01*
X103011335Y-67145000D01*
X102728665Y-67145000D01*
X102451426Y-67200147D01*
X102190273Y-67308320D01*
X101955241Y-67465363D01*
X101755363Y-67665241D01*
X101618548Y-67870000D01*
X99228072Y-67870000D01*
X99228072Y-67780000D01*
X99215812Y-67655518D01*
X99179502Y-67535820D01*
X99120537Y-67425506D01*
X99041185Y-67328815D01*
X98944494Y-67249463D01*
X98834180Y-67190498D01*
X98714482Y-67154188D01*
X98590000Y-67141928D01*
X96990000Y-67141928D01*
X96865518Y-67154188D01*
X96745820Y-67190498D01*
X96635506Y-67249463D01*
X96538815Y-67328815D01*
X96459463Y-67425506D01*
X96400498Y-67535820D01*
X96364188Y-67655518D01*
X96351928Y-67780000D01*
X96351928Y-69013981D01*
X94145000Y-71220909D01*
X94145000Y-70978665D01*
X94089853Y-70701426D01*
X93981680Y-70440273D01*
X93824637Y-70205241D01*
X93624759Y-70005363D01*
X93392241Y-69850000D01*
X93624759Y-69694637D01*
X93824637Y-69494759D01*
X93981680Y-69259727D01*
X94089853Y-68998574D01*
X94145000Y-68721335D01*
X94145000Y-68438665D01*
X94089853Y-68161426D01*
X93981680Y-67900273D01*
X93824637Y-67665241D01*
X93624759Y-67465363D01*
X93389727Y-67308320D01*
X93128574Y-67200147D01*
X92851335Y-67145000D01*
X92568665Y-67145000D01*
X92291426Y-67200147D01*
X92030273Y-67308320D01*
X91795241Y-67465363D01*
X91595363Y-67665241D01*
X91438320Y-67900273D01*
X91330147Y-68161426D01*
X91275000Y-68438665D01*
X91275000Y-68721335D01*
X91330147Y-68998574D01*
X91438320Y-69259727D01*
X91595363Y-69494759D01*
X91795241Y-69694637D01*
X92027759Y-69850000D01*
X91795241Y-70005363D01*
X91595363Y-70205241D01*
X91438320Y-70440273D01*
X91330147Y-70701426D01*
X91275000Y-70978665D01*
X91275000Y-71261335D01*
X91330147Y-71538574D01*
X91438320Y-71799727D01*
X91595363Y-72034759D01*
X91795241Y-72234637D01*
X92027759Y-72390000D01*
X91795241Y-72545363D01*
X91595363Y-72745241D01*
X91438320Y-72980273D01*
X91330147Y-73241426D01*
X91275000Y-73518665D01*
X91275000Y-73801335D01*
X91330147Y-74078574D01*
X91438320Y-74339727D01*
X91595363Y-74574759D01*
X91793961Y-74773357D01*
X91785518Y-74774188D01*
X91665820Y-74810498D01*
X91555506Y-74869463D01*
X91458815Y-74948815D01*
X91379463Y-75045506D01*
X91320498Y-75155820D01*
X91284188Y-75275518D01*
X91271928Y-75400000D01*
X86281317Y-75400000D01*
X86204637Y-75285241D01*
X86004759Y-75085363D01*
X85772241Y-74930000D01*
X86004759Y-74774637D01*
X86204637Y-74574759D01*
X86361680Y-74339727D01*
X86469853Y-74078574D01*
X86525000Y-73801335D01*
X86525000Y-73518665D01*
X86469853Y-73241426D01*
X86361680Y-72980273D01*
X86204637Y-72745241D01*
X86004759Y-72545363D01*
X85772241Y-72390000D01*
X86004759Y-72234637D01*
X86204637Y-72034759D01*
X86361680Y-71799727D01*
X86469853Y-71538574D01*
X86525000Y-71261335D01*
X86525000Y-70978665D01*
X86469853Y-70701426D01*
X86361680Y-70440273D01*
X86204637Y-70205241D01*
X86004759Y-70005363D01*
X85770872Y-69849085D01*
X85831514Y-69816671D01*
X85903097Y-69572702D01*
X85090000Y-68759605D01*
X84276903Y-69572702D01*
X84348486Y-69816671D01*
X84412992Y-69847194D01*
X84410273Y-69848320D01*
X84175241Y-70005363D01*
X83975363Y-70205241D01*
X83838548Y-70410000D01*
X82844092Y-70410000D01*
X81396956Y-68962865D01*
X81445000Y-68721335D01*
X81445000Y-68650512D01*
X83649783Y-68650512D01*
X83691213Y-68930130D01*
X83786397Y-69196292D01*
X83853329Y-69321514D01*
X84097298Y-69393097D01*
X84910395Y-68580000D01*
X85269605Y-68580000D01*
X86082702Y-69393097D01*
X86326671Y-69321514D01*
X86447571Y-69066004D01*
X86516300Y-68791816D01*
X86530217Y-68509488D01*
X86488787Y-68229870D01*
X86393603Y-67963708D01*
X86326671Y-67838486D01*
X86082702Y-67766903D01*
X85269605Y-68580000D01*
X84910395Y-68580000D01*
X84097298Y-67766903D01*
X83853329Y-67838486D01*
X83732429Y-68093996D01*
X83663700Y-68368184D01*
X83649783Y-68650512D01*
X81445000Y-68650512D01*
X81445000Y-68438665D01*
X81389853Y-68161426D01*
X81281680Y-67900273D01*
X81124637Y-67665241D01*
X81046694Y-67587298D01*
X84276903Y-67587298D01*
X85090000Y-68400395D01*
X85903097Y-67587298D01*
X85831514Y-67343329D01*
X85576004Y-67222429D01*
X85301816Y-67153700D01*
X85019488Y-67139783D01*
X84739870Y-67181213D01*
X84473708Y-67276397D01*
X84348486Y-67343329D01*
X84276903Y-67587298D01*
X81046694Y-67587298D01*
X80924759Y-67465363D01*
X80689727Y-67308320D01*
X80428574Y-67200147D01*
X80151335Y-67145000D01*
X79868665Y-67145000D01*
X79591426Y-67200147D01*
X79330273Y-67308320D01*
X79095241Y-67465363D01*
X78895363Y-67665241D01*
X78759556Y-67868491D01*
X78739999Y-67866565D01*
X78705124Y-67870000D01*
X78705123Y-67870000D01*
X78600816Y-67880273D01*
X78466980Y-67920872D01*
X78343637Y-67986800D01*
X78235525Y-68075525D01*
X78213292Y-68102616D01*
X76992617Y-69323292D01*
X76965525Y-69345526D01*
X76876800Y-69453638D01*
X76810872Y-69576981D01*
X76770273Y-69710817D01*
X76760000Y-69815123D01*
X76756565Y-69850000D01*
X76760000Y-69884875D01*
X76760001Y-83525907D01*
X75905909Y-84380000D01*
X67746817Y-84380000D01*
X67814475Y-84324475D01*
X67836712Y-84297379D01*
X71597383Y-80536708D01*
X71624474Y-80514475D01*
X71713200Y-80406363D01*
X71779128Y-80283020D01*
X71819727Y-80149184D01*
X71830000Y-80044877D01*
X71830000Y-80044875D01*
X71833435Y-80010000D01*
X71830000Y-79975125D01*
X71830000Y-72684091D01*
X72684092Y-71830000D01*
X73678548Y-71830000D01*
X73815363Y-72034759D01*
X74015241Y-72234637D01*
X74247759Y-72390000D01*
X74015241Y-72545363D01*
X73815363Y-72745241D01*
X73658320Y-72980273D01*
X73550147Y-73241426D01*
X73495000Y-73518665D01*
X73495000Y-73801335D01*
X73550147Y-74078574D01*
X73658320Y-74339727D01*
X73815363Y-74574759D01*
X74015241Y-74774637D01*
X74247759Y-74930000D01*
X74015241Y-75085363D01*
X73815363Y-75285241D01*
X73658320Y-75520273D01*
X73550147Y-75781426D01*
X73495000Y-76058665D01*
X73495000Y-76341335D01*
X73550147Y-76618574D01*
X73658320Y-76879727D01*
X73815363Y-77114759D01*
X74015241Y-77314637D01*
X74247759Y-77470000D01*
X74015241Y-77625363D01*
X73815363Y-77825241D01*
X73658320Y-78060273D01*
X73550147Y-78321426D01*
X73495000Y-78598665D01*
X73495000Y-78881335D01*
X73550147Y-79158574D01*
X73658320Y-79419727D01*
X73815363Y-79654759D01*
X74013961Y-79853357D01*
X74005518Y-79854188D01*
X73885820Y-79890498D01*
X73775506Y-79949463D01*
X73678815Y-80028815D01*
X73599463Y-80125506D01*
X73540498Y-80235820D01*
X73504188Y-80355518D01*
X73491928Y-80480000D01*
X73491928Y-82080000D01*
X73504188Y-82204482D01*
X73540498Y-82324180D01*
X73599463Y-82434494D01*
X73678815Y-82531185D01*
X73775506Y-82610537D01*
X73885820Y-82669502D01*
X74005518Y-82705812D01*
X74130000Y-82718072D01*
X75730000Y-82718072D01*
X75854482Y-82705812D01*
X75974180Y-82669502D01*
X76084494Y-82610537D01*
X76181185Y-82531185D01*
X76260537Y-82434494D01*
X76319502Y-82324180D01*
X76355812Y-82204482D01*
X76368072Y-82080000D01*
X76368072Y-80480000D01*
X76355812Y-80355518D01*
X76319502Y-80235820D01*
X76260537Y-80125506D01*
X76181185Y-80028815D01*
X76084494Y-79949463D01*
X75974180Y-79890498D01*
X75854482Y-79854188D01*
X75846039Y-79853357D01*
X76044637Y-79654759D01*
X76201680Y-79419727D01*
X76309853Y-79158574D01*
X76365000Y-78881335D01*
X76365000Y-78598665D01*
X76309853Y-78321426D01*
X76201680Y-78060273D01*
X76044637Y-77825241D01*
X75844759Y-77625363D01*
X75612241Y-77470000D01*
X75844759Y-77314637D01*
X76044637Y-77114759D01*
X76201680Y-76879727D01*
X76309853Y-76618574D01*
X76365000Y-76341335D01*
X76365000Y-76058665D01*
X76309853Y-75781426D01*
X76201680Y-75520273D01*
X76044637Y-75285241D01*
X75844759Y-75085363D01*
X75612241Y-74930000D01*
X75844759Y-74774637D01*
X76044637Y-74574759D01*
X76201680Y-74339727D01*
X76309853Y-74078574D01*
X76365000Y-73801335D01*
X76365000Y-73518665D01*
X76309853Y-73241426D01*
X76201680Y-72980273D01*
X76044637Y-72745241D01*
X75844759Y-72545363D01*
X75612241Y-72390000D01*
X75844759Y-72234637D01*
X76044637Y-72034759D01*
X76201680Y-71799727D01*
X76309853Y-71538574D01*
X76365000Y-71261335D01*
X76365000Y-70978665D01*
X76309853Y-70701426D01*
X76201680Y-70440273D01*
X76044637Y-70205241D01*
X75844759Y-70005363D01*
X75612241Y-69850000D01*
X75844759Y-69694637D01*
X76044637Y-69494759D01*
X76201680Y-69259727D01*
X76309853Y-68998574D01*
X76365000Y-68721335D01*
X76365000Y-68438665D01*
X76309853Y-68161426D01*
X76201680Y-67900273D01*
X76044637Y-67665241D01*
X75844759Y-67465363D01*
X75612241Y-67310000D01*
X75844759Y-67154637D01*
X76044637Y-66954759D01*
X76201680Y-66719727D01*
X76309853Y-66458574D01*
X76365000Y-66181335D01*
X76365000Y-65898665D01*
X76360103Y-65874042D01*
X111345000Y-65874042D01*
X111345000Y-66205958D01*
X111409754Y-66531496D01*
X111536772Y-66838147D01*
X111721175Y-67114125D01*
X111955875Y-67348825D01*
X112231853Y-67533228D01*
X112538504Y-67660246D01*
X112864042Y-67725000D01*
X113195958Y-67725000D01*
X113521496Y-67660246D01*
X113828147Y-67533228D01*
X114104125Y-67348825D01*
X114338825Y-67114125D01*
X114523228Y-66838147D01*
X114650246Y-66531496D01*
X114715000Y-66205958D01*
X114715000Y-65874042D01*
X114700454Y-65800912D01*
X115612500Y-65800912D01*
X115612500Y-66279088D01*
X115705787Y-66748076D01*
X115888777Y-67189853D01*
X116154437Y-67587441D01*
X116492559Y-67925563D01*
X116890147Y-68191223D01*
X117331924Y-68374213D01*
X117800912Y-68467500D01*
X118279088Y-68467500D01*
X118748076Y-68374213D01*
X119189853Y-68191223D01*
X119587441Y-67925563D01*
X119925563Y-67587441D01*
X120191223Y-67189853D01*
X120374213Y-66748076D01*
X120467500Y-66279088D01*
X120467500Y-65800912D01*
X120374213Y-65331924D01*
X120191223Y-64890147D01*
X119925563Y-64492559D01*
X119587441Y-64154437D01*
X119189853Y-63888777D01*
X118748076Y-63705787D01*
X118279088Y-63612500D01*
X117800912Y-63612500D01*
X117331924Y-63705787D01*
X116890147Y-63888777D01*
X116492559Y-64154437D01*
X116154437Y-64492559D01*
X115888777Y-64890147D01*
X115705787Y-65331924D01*
X115612500Y-65800912D01*
X114700454Y-65800912D01*
X114650246Y-65548504D01*
X114523228Y-65241853D01*
X114338825Y-64965875D01*
X114104125Y-64731175D01*
X113828147Y-64546772D01*
X113521496Y-64419754D01*
X113195958Y-64355000D01*
X112864042Y-64355000D01*
X112538504Y-64419754D01*
X112231853Y-64546772D01*
X111955875Y-64731175D01*
X111721175Y-64965875D01*
X111536772Y-65241853D01*
X111409754Y-65548504D01*
X111345000Y-65874042D01*
X76360103Y-65874042D01*
X76309853Y-65621426D01*
X76201680Y-65360273D01*
X76044637Y-65125241D01*
X75844759Y-64925363D01*
X75609727Y-64768320D01*
X75348574Y-64660147D01*
X75071335Y-64605000D01*
X74788665Y-64605000D01*
X74511426Y-64660147D01*
X74250273Y-64768320D01*
X74015241Y-64925363D01*
X73815363Y-65125241D01*
X73658320Y-65360273D01*
X73550147Y-65621426D01*
X73495000Y-65898665D01*
X73495000Y-66181335D01*
X73550147Y-66458574D01*
X73658320Y-66719727D01*
X73815363Y-66954759D01*
X74015241Y-67154637D01*
X74247759Y-67310000D01*
X74015241Y-67465363D01*
X73815363Y-67665241D01*
X73658320Y-67900273D01*
X73550147Y-68161426D01*
X73495000Y-68438665D01*
X73495000Y-68721335D01*
X73550147Y-68998574D01*
X73658320Y-69259727D01*
X73815363Y-69494759D01*
X74015241Y-69694637D01*
X74247759Y-69850000D01*
X74015241Y-70005363D01*
X73815363Y-70205241D01*
X73678548Y-70410000D01*
X72424874Y-70410000D01*
X72389999Y-70406565D01*
X72355124Y-70410000D01*
X72355123Y-70410000D01*
X72250816Y-70420273D01*
X72116980Y-70460872D01*
X71993637Y-70526800D01*
X71885525Y-70615525D01*
X71863293Y-70642615D01*
X70642617Y-71863292D01*
X70615526Y-71885525D01*
X70593293Y-71912616D01*
X70526801Y-71993637D01*
X70460872Y-72116981D01*
X70420274Y-72250816D01*
X70406565Y-72390000D01*
X70410001Y-72424885D01*
X70410000Y-79715909D01*
X68745000Y-81380909D01*
X68745000Y-81138665D01*
X68689853Y-80861426D01*
X68581680Y-80600273D01*
X68424637Y-80365241D01*
X68224759Y-80165363D01*
X67992241Y-80010000D01*
X68224759Y-79854637D01*
X68424637Y-79654759D01*
X68581680Y-79419727D01*
X68689853Y-79158574D01*
X68745000Y-78881335D01*
X68745000Y-78598665D01*
X68689853Y-78321426D01*
X68581680Y-78060273D01*
X68424637Y-77825241D01*
X68224759Y-77625363D01*
X67990872Y-77469085D01*
X68051514Y-77436671D01*
X68123097Y-77192702D01*
X67310000Y-76379605D01*
X66496903Y-77192702D01*
X66568486Y-77436671D01*
X66632992Y-77467194D01*
X66630273Y-77468320D01*
X66395241Y-77625363D01*
X66195363Y-77825241D01*
X66038320Y-78060273D01*
X65930147Y-78321426D01*
X65875000Y-78598665D01*
X65875000Y-78881335D01*
X65930147Y-79158574D01*
X66038320Y-79419727D01*
X66195363Y-79654759D01*
X66395241Y-79854637D01*
X66627759Y-80010000D01*
X66395241Y-80165363D01*
X66195363Y-80365241D01*
X66168915Y-80404823D01*
X65480000Y-79715909D01*
X65480000Y-76270512D01*
X65869783Y-76270512D01*
X65911213Y-76550130D01*
X66006397Y-76816292D01*
X66073329Y-76941514D01*
X66317298Y-77013097D01*
X67130395Y-76200000D01*
X67489605Y-76200000D01*
X68302702Y-77013097D01*
X68546671Y-76941514D01*
X68667571Y-76686004D01*
X68736300Y-76411816D01*
X68750217Y-76129488D01*
X68708787Y-75849870D01*
X68613603Y-75583708D01*
X68546671Y-75458486D01*
X68302702Y-75386903D01*
X67489605Y-76200000D01*
X67130395Y-76200000D01*
X66317298Y-75386903D01*
X66073329Y-75458486D01*
X65952429Y-75713996D01*
X65883700Y-75988184D01*
X65869783Y-76270512D01*
X65480000Y-76270512D01*
X65480000Y-66110512D01*
X65869783Y-66110512D01*
X65911213Y-66390130D01*
X66006397Y-66656292D01*
X66073329Y-66781514D01*
X66317298Y-66853097D01*
X67130395Y-66040000D01*
X67489605Y-66040000D01*
X68302702Y-66853097D01*
X68546671Y-66781514D01*
X68667571Y-66526004D01*
X68736300Y-66251816D01*
X68750217Y-65969488D01*
X68708787Y-65689870D01*
X68613603Y-65423708D01*
X68546671Y-65298486D01*
X68302702Y-65226903D01*
X67489605Y-66040000D01*
X67130395Y-66040000D01*
X66317298Y-65226903D01*
X66073329Y-65298486D01*
X65952429Y-65553996D01*
X65883700Y-65828184D01*
X65869783Y-66110512D01*
X65480000Y-66110512D01*
X65480000Y-65047298D01*
X66496903Y-65047298D01*
X67310000Y-65860395D01*
X68123097Y-65047298D01*
X68051514Y-64803329D01*
X67796004Y-64682429D01*
X67521816Y-64613700D01*
X67239488Y-64599783D01*
X66959870Y-64641213D01*
X66693708Y-64736397D01*
X66568486Y-64803329D01*
X66496903Y-65047298D01*
X65480000Y-65047298D01*
X65480000Y-62524091D01*
X67604092Y-60400000D01*
X73223183Y-60400000D01*
X73155525Y-60455525D01*
X73133292Y-60482616D01*
X71912617Y-61703292D01*
X71885526Y-61725525D01*
X71863293Y-61752616D01*
X71796801Y-61833637D01*
X71730872Y-61956981D01*
X71690274Y-62090816D01*
X71676565Y-62230000D01*
X71680001Y-62264885D01*
X71680000Y-67015909D01*
X68451085Y-70244824D01*
X68424637Y-70205241D01*
X68224759Y-70005363D01*
X67992241Y-69850000D01*
X68224759Y-69694637D01*
X68424637Y-69494759D01*
X68581680Y-69259727D01*
X68689853Y-68998574D01*
X68745000Y-68721335D01*
X68745000Y-68438665D01*
X68689853Y-68161426D01*
X68581680Y-67900273D01*
X68424637Y-67665241D01*
X68224759Y-67465363D01*
X67990872Y-67309085D01*
X68051514Y-67276671D01*
X68123097Y-67032702D01*
X67310000Y-66219605D01*
X66496903Y-67032702D01*
X66568486Y-67276671D01*
X66632992Y-67307194D01*
X66630273Y-67308320D01*
X66395241Y-67465363D01*
X66195363Y-67665241D01*
X66038320Y-67900273D01*
X65930147Y-68161426D01*
X65875000Y-68438665D01*
X65875000Y-68721335D01*
X65930147Y-68998574D01*
X66038320Y-69259727D01*
X66195363Y-69494759D01*
X66395241Y-69694637D01*
X66627759Y-69850000D01*
X66395241Y-70005363D01*
X66195363Y-70205241D01*
X66038320Y-70440273D01*
X65930147Y-70701426D01*
X65875000Y-70978665D01*
X65875000Y-71261335D01*
X65930147Y-71538574D01*
X66038320Y-71799727D01*
X66195363Y-72034759D01*
X66395241Y-72234637D01*
X66627759Y-72390000D01*
X66395241Y-72545363D01*
X66195363Y-72745241D01*
X66038320Y-72980273D01*
X65930147Y-73241426D01*
X65875000Y-73518665D01*
X65875000Y-73801335D01*
X65930147Y-74078574D01*
X66038320Y-74339727D01*
X66195363Y-74574759D01*
X66395241Y-74774637D01*
X66629128Y-74930915D01*
X66568486Y-74963329D01*
X66496903Y-75207298D01*
X67310000Y-76020395D01*
X68123097Y-75207298D01*
X68051514Y-74963329D01*
X67987008Y-74932806D01*
X67989727Y-74931680D01*
X68224759Y-74774637D01*
X68424637Y-74574759D01*
X68581680Y-74339727D01*
X68689853Y-74078574D01*
X68745000Y-73801335D01*
X68745000Y-73518665D01*
X68689853Y-73241426D01*
X68581680Y-72980273D01*
X68424637Y-72745241D01*
X68224759Y-72545363D01*
X67992241Y-72390000D01*
X68224759Y-72234637D01*
X68424637Y-72034759D01*
X68560444Y-71831509D01*
X68580000Y-71833435D01*
X68614875Y-71830000D01*
X68614877Y-71830000D01*
X68719184Y-71819727D01*
X68853020Y-71779128D01*
X68976363Y-71713200D01*
X69084475Y-71624475D01*
X69106712Y-71597379D01*
X72867383Y-67836708D01*
X72894474Y-67814475D01*
X72983200Y-67706363D01*
X73049128Y-67583020D01*
X73089727Y-67449184D01*
X73100000Y-67344877D01*
X73100000Y-67344875D01*
X73103435Y-67310000D01*
X73100000Y-67275125D01*
X73100000Y-63279872D01*
X101905000Y-63279872D01*
X101905000Y-63720128D01*
X101990890Y-64151925D01*
X102159369Y-64558669D01*
X102403962Y-64924729D01*
X102715271Y-65236038D01*
X103081331Y-65480631D01*
X103488075Y-65649110D01*
X103919872Y-65735000D01*
X104360128Y-65735000D01*
X104791925Y-65649110D01*
X105198669Y-65480631D01*
X105564729Y-65236038D01*
X105876038Y-64924729D01*
X106120631Y-64558669D01*
X106289110Y-64151925D01*
X106375000Y-63720128D01*
X106375000Y-63279872D01*
X106289110Y-62848075D01*
X106120631Y-62441331D01*
X105876038Y-62075271D01*
X105564729Y-61763962D01*
X105198669Y-61519369D01*
X104791925Y-61350890D01*
X104360128Y-61265000D01*
X103919872Y-61265000D01*
X103488075Y-61350890D01*
X103081331Y-61519369D01*
X102715271Y-61763962D01*
X102403962Y-62075271D01*
X102159369Y-62441331D01*
X101990890Y-62848075D01*
X101905000Y-63279872D01*
X73100000Y-63279872D01*
X73100000Y-62524091D01*
X73954092Y-61670000D01*
X101645125Y-61670000D01*
X101680000Y-61673435D01*
X101714875Y-61670000D01*
X101714877Y-61670000D01*
X101819184Y-61659727D01*
X101953020Y-61619128D01*
X102076363Y-61553200D01*
X102184475Y-61464475D01*
X102206712Y-61437379D01*
X103054091Y-60590000D01*
X119111928Y-60590000D01*
X119124188Y-60714482D01*
X119160498Y-60834180D01*
X119219463Y-60944494D01*
X119298815Y-61041185D01*
X119395506Y-61120537D01*
X119505820Y-61179502D01*
X119625518Y-61215812D01*
X119750000Y-61228072D01*
X120364250Y-61225000D01*
X120523000Y-61066250D01*
X120523000Y-59817000D01*
X119273750Y-59817000D01*
X119115000Y-59975750D01*
X119111928Y-60590000D01*
X103054091Y-60590000D01*
X104854091Y-58790000D01*
X119111928Y-58790000D01*
X119115000Y-59404250D01*
X119273750Y-59563000D01*
X120523000Y-59563000D01*
X120523000Y-58313750D01*
X120777000Y-58313750D01*
X120777000Y-59563000D01*
X120797000Y-59563000D01*
X120797000Y-59817000D01*
X120777000Y-59817000D01*
X120777000Y-61066250D01*
X120935750Y-61225000D01*
X121550000Y-61228072D01*
X121674482Y-61215812D01*
X121794180Y-61179502D01*
X121904494Y-61120537D01*
X122001185Y-61041185D01*
X122080537Y-60944494D01*
X122139502Y-60834180D01*
X122145056Y-60815873D01*
X122211495Y-60882312D01*
X122462905Y-61050299D01*
X122742257Y-61166011D01*
X123038816Y-61225000D01*
X123341184Y-61225000D01*
X123637743Y-61166011D01*
X123917095Y-61050299D01*
X124168505Y-60882312D01*
X124382312Y-60668505D01*
X124550299Y-60417095D01*
X124666011Y-60137743D01*
X124725000Y-59841184D01*
X124725000Y-59538816D01*
X124666011Y-59242257D01*
X124550299Y-58962905D01*
X124382312Y-58711495D01*
X124168505Y-58497688D01*
X123917095Y-58329701D01*
X123637743Y-58213989D01*
X123341184Y-58155000D01*
X123038816Y-58155000D01*
X122742257Y-58213989D01*
X122462905Y-58329701D01*
X122211495Y-58497688D01*
X122145056Y-58564127D01*
X122139502Y-58545820D01*
X122080537Y-58435506D01*
X122001185Y-58338815D01*
X121904494Y-58259463D01*
X121794180Y-58200498D01*
X121674482Y-58164188D01*
X121550000Y-58151928D01*
X120935750Y-58155000D01*
X120777000Y-58313750D01*
X120523000Y-58313750D01*
X120364250Y-58155000D01*
X119750000Y-58151928D01*
X119625518Y-58164188D01*
X119505820Y-58200498D01*
X119395506Y-58259463D01*
X119298815Y-58338815D01*
X119219463Y-58435506D01*
X119160498Y-58545820D01*
X119124188Y-58665518D01*
X119111928Y-58790000D01*
X104854091Y-58790000D01*
X105876019Y-57768072D01*
X107660000Y-57768072D01*
X107784482Y-57755812D01*
X107904180Y-57719502D01*
X108014494Y-57660537D01*
X108111185Y-57581185D01*
X108190537Y-57484494D01*
X108249502Y-57374180D01*
X108285812Y-57254482D01*
X108298072Y-57130000D01*
X108298072Y-55758363D01*
X110525000Y-55758363D01*
X110525000Y-56001637D01*
X110572460Y-56240236D01*
X110665557Y-56464992D01*
X110800713Y-56667267D01*
X110972733Y-56839287D01*
X111175008Y-56974443D01*
X111399764Y-57067540D01*
X111638363Y-57115000D01*
X111881637Y-57115000D01*
X112120236Y-57067540D01*
X112344992Y-56974443D01*
X112547267Y-56839287D01*
X112719287Y-56667267D01*
X112854443Y-56464992D01*
X112947540Y-56240236D01*
X112995000Y-56001637D01*
X112995000Y-55758363D01*
X112947540Y-55519764D01*
X112854443Y-55295008D01*
X112719287Y-55092733D01*
X112547267Y-54920713D01*
X112344992Y-54785557D01*
X112120236Y-54692460D01*
X111881637Y-54645000D01*
X111638363Y-54645000D01*
X111399764Y-54692460D01*
X111175008Y-54785557D01*
X110972733Y-54920713D01*
X110800713Y-55092733D01*
X110665557Y-55295008D01*
X110572460Y-55519764D01*
X110525000Y-55758363D01*
X108298072Y-55758363D01*
X108298072Y-54630000D01*
X115221928Y-54630000D01*
X115221928Y-57130000D01*
X115234188Y-57254482D01*
X115270498Y-57374180D01*
X115329463Y-57484494D01*
X115408815Y-57581185D01*
X115505506Y-57660537D01*
X115615820Y-57719502D01*
X115735518Y-57755812D01*
X115860000Y-57768072D01*
X117660000Y-57768072D01*
X117784482Y-57755812D01*
X117904180Y-57719502D01*
X118014494Y-57660537D01*
X118111185Y-57581185D01*
X118190537Y-57484494D01*
X118249502Y-57374180D01*
X118285812Y-57254482D01*
X118298072Y-57130000D01*
X118298072Y-54630000D01*
X118285812Y-54505518D01*
X118249502Y-54385820D01*
X118190537Y-54275506D01*
X118111185Y-54178815D01*
X118014494Y-54099463D01*
X117904180Y-54040498D01*
X117784482Y-54004188D01*
X117660000Y-53991928D01*
X115860000Y-53991928D01*
X115735518Y-54004188D01*
X115615820Y-54040498D01*
X115505506Y-54099463D01*
X115408815Y-54178815D01*
X115329463Y-54275506D01*
X115270498Y-54385820D01*
X115234188Y-54505518D01*
X115221928Y-54630000D01*
X108298072Y-54630000D01*
X108285812Y-54505518D01*
X108249502Y-54385820D01*
X108190537Y-54275506D01*
X108111185Y-54178815D01*
X108014494Y-54099463D01*
X107904180Y-54040498D01*
X107784482Y-54004188D01*
X107660000Y-53991928D01*
X105860000Y-53991928D01*
X105735518Y-54004188D01*
X105615820Y-54040498D01*
X105505506Y-54099463D01*
X105408815Y-54178815D01*
X105329463Y-54275506D01*
X105270498Y-54385820D01*
X105234188Y-54505518D01*
X105221928Y-54630000D01*
X105221928Y-56413981D01*
X101385909Y-60250000D01*
X88146817Y-60250000D01*
X88214475Y-60194475D01*
X88236712Y-60167379D01*
X90636019Y-57768072D01*
X92420000Y-57768072D01*
X92544482Y-57755812D01*
X92664180Y-57719502D01*
X92774494Y-57660537D01*
X92871185Y-57581185D01*
X92950537Y-57484494D01*
X93009502Y-57374180D01*
X93045812Y-57254482D01*
X93058072Y-57130000D01*
X93058072Y-55758363D01*
X95285000Y-55758363D01*
X95285000Y-56001637D01*
X95332460Y-56240236D01*
X95425557Y-56464992D01*
X95560713Y-56667267D01*
X95732733Y-56839287D01*
X95935008Y-56974443D01*
X96159764Y-57067540D01*
X96398363Y-57115000D01*
X96641637Y-57115000D01*
X96880236Y-57067540D01*
X97104992Y-56974443D01*
X97307267Y-56839287D01*
X97479287Y-56667267D01*
X97614443Y-56464992D01*
X97707540Y-56240236D01*
X97755000Y-56001637D01*
X97755000Y-55758363D01*
X97707540Y-55519764D01*
X97614443Y-55295008D01*
X97479287Y-55092733D01*
X97307267Y-54920713D01*
X97104992Y-54785557D01*
X96880236Y-54692460D01*
X96641637Y-54645000D01*
X96398363Y-54645000D01*
X96159764Y-54692460D01*
X95935008Y-54785557D01*
X95732733Y-54920713D01*
X95560713Y-55092733D01*
X95425557Y-55295008D01*
X95332460Y-55519764D01*
X95285000Y-55758363D01*
X93058072Y-55758363D01*
X93058072Y-54630000D01*
X99981928Y-54630000D01*
X99981928Y-57130000D01*
X99994188Y-57254482D01*
X100030498Y-57374180D01*
X100089463Y-57484494D01*
X100168815Y-57581185D01*
X100265506Y-57660537D01*
X100375820Y-57719502D01*
X100495518Y-57755812D01*
X100620000Y-57768072D01*
X102420000Y-57768072D01*
X102544482Y-57755812D01*
X102664180Y-57719502D01*
X102774494Y-57660537D01*
X102871185Y-57581185D01*
X102950537Y-57484494D01*
X103009502Y-57374180D01*
X103045812Y-57254482D01*
X103058072Y-57130000D01*
X103058072Y-54630000D01*
X103045812Y-54505518D01*
X103009502Y-54385820D01*
X102950537Y-54275506D01*
X102871185Y-54178815D01*
X102774494Y-54099463D01*
X102664180Y-54040498D01*
X102544482Y-54004188D01*
X102420000Y-53991928D01*
X100620000Y-53991928D01*
X100495518Y-54004188D01*
X100375820Y-54040498D01*
X100265506Y-54099463D01*
X100168815Y-54178815D01*
X100089463Y-54275506D01*
X100030498Y-54385820D01*
X99994188Y-54505518D01*
X99981928Y-54630000D01*
X93058072Y-54630000D01*
X93045812Y-54505518D01*
X93009502Y-54385820D01*
X92950537Y-54275506D01*
X92871185Y-54178815D01*
X92774494Y-54099463D01*
X92664180Y-54040498D01*
X92544482Y-54004188D01*
X92420000Y-53991928D01*
X90620000Y-53991928D01*
X90495518Y-54004188D01*
X90375820Y-54040498D01*
X90265506Y-54099463D01*
X90168815Y-54178815D01*
X90089463Y-54275506D01*
X90030498Y-54385820D01*
X89994188Y-54505518D01*
X89981928Y-54630000D01*
X89981928Y-56413981D01*
X87415909Y-58980000D01*
X67344874Y-58980000D01*
X67309999Y-58976565D01*
X67275124Y-58980000D01*
X67275123Y-58980000D01*
X67170816Y-58990273D01*
X67036980Y-59030872D01*
X66921599Y-59092545D01*
X66913635Y-59096801D01*
X66846440Y-59151947D01*
X66805525Y-59185525D01*
X66783292Y-59212616D01*
X64292617Y-61703292D01*
X64279676Y-61713912D01*
X64226262Y-61633972D01*
X64096028Y-61503738D01*
X63942889Y-61401414D01*
X63772729Y-61330932D01*
X63592089Y-61295000D01*
X63407911Y-61295000D01*
X63227271Y-61330932D01*
X63057111Y-61401414D01*
X62903972Y-61503738D01*
X62887710Y-61520000D01*
X60994874Y-61520000D01*
X60959999Y-61516565D01*
X60925124Y-61520000D01*
X60925123Y-61520000D01*
X60820816Y-61530273D01*
X60686980Y-61570872D01*
X60563637Y-61636800D01*
X60455525Y-61725525D01*
X60433292Y-61752616D01*
X59212617Y-62973292D01*
X59185525Y-62995526D01*
X59096800Y-63103638D01*
X59030872Y-63226981D01*
X58990273Y-63360817D01*
X58980000Y-63465123D01*
X58976565Y-63500000D01*
X58980000Y-63534875D01*
X58980001Y-64788547D01*
X58775241Y-64925363D01*
X58575363Y-65125241D01*
X58420000Y-65357759D01*
X58264637Y-65125241D01*
X58064759Y-64925363D01*
X57829727Y-64768320D01*
X57568574Y-64660147D01*
X57291335Y-64605000D01*
X57008665Y-64605000D01*
X56731426Y-64660147D01*
X56470273Y-64768320D01*
X56235241Y-64925363D01*
X56035363Y-65125241D01*
X55880000Y-65357759D01*
X55724637Y-65125241D01*
X55524759Y-64925363D01*
X55289727Y-64768320D01*
X55028574Y-64660147D01*
X54751335Y-64605000D01*
X54468665Y-64605000D01*
X54191426Y-64660147D01*
X53930273Y-64768320D01*
X53695241Y-64925363D01*
X53495363Y-65125241D01*
X53340000Y-65357759D01*
X53184637Y-65125241D01*
X52984759Y-64925363D01*
X52780000Y-64788548D01*
X52780000Y-57444091D01*
X53634092Y-56590000D01*
X74741928Y-56590000D01*
X74741928Y-57130000D01*
X74754188Y-57254482D01*
X74790498Y-57374180D01*
X74849463Y-57484494D01*
X74928815Y-57581185D01*
X75025506Y-57660537D01*
X75135820Y-57719502D01*
X75255518Y-57755812D01*
X75380000Y-57768072D01*
X77180000Y-57768072D01*
X77304482Y-57755812D01*
X77424180Y-57719502D01*
X77534494Y-57660537D01*
X77631185Y-57581185D01*
X77710537Y-57484494D01*
X77769502Y-57374180D01*
X77805812Y-57254482D01*
X77818072Y-57130000D01*
X77818072Y-55758363D01*
X80045000Y-55758363D01*
X80045000Y-56001637D01*
X80092460Y-56240236D01*
X80185557Y-56464992D01*
X80320713Y-56667267D01*
X80492733Y-56839287D01*
X80695008Y-56974443D01*
X80919764Y-57067540D01*
X81158363Y-57115000D01*
X81401637Y-57115000D01*
X81640236Y-57067540D01*
X81864992Y-56974443D01*
X82067267Y-56839287D01*
X82239287Y-56667267D01*
X82374443Y-56464992D01*
X82467540Y-56240236D01*
X82515000Y-56001637D01*
X82515000Y-55758363D01*
X82467540Y-55519764D01*
X82374443Y-55295008D01*
X82239287Y-55092733D01*
X82067267Y-54920713D01*
X81864992Y-54785557D01*
X81640236Y-54692460D01*
X81401637Y-54645000D01*
X81158363Y-54645000D01*
X80919764Y-54692460D01*
X80695008Y-54785557D01*
X80492733Y-54920713D01*
X80320713Y-55092733D01*
X80185557Y-55295008D01*
X80092460Y-55519764D01*
X80045000Y-55758363D01*
X77818072Y-55758363D01*
X77818072Y-54630000D01*
X84741928Y-54630000D01*
X84741928Y-57130000D01*
X84754188Y-57254482D01*
X84790498Y-57374180D01*
X84849463Y-57484494D01*
X84928815Y-57581185D01*
X85025506Y-57660537D01*
X85135820Y-57719502D01*
X85255518Y-57755812D01*
X85380000Y-57768072D01*
X87180000Y-57768072D01*
X87304482Y-57755812D01*
X87424180Y-57719502D01*
X87534494Y-57660537D01*
X87631185Y-57581185D01*
X87710537Y-57484494D01*
X87769502Y-57374180D01*
X87805812Y-57254482D01*
X87818072Y-57130000D01*
X87818072Y-54630000D01*
X87805812Y-54505518D01*
X87769502Y-54385820D01*
X87710537Y-54275506D01*
X87631185Y-54178815D01*
X87534494Y-54099463D01*
X87424180Y-54040498D01*
X87304482Y-54004188D01*
X87180000Y-53991928D01*
X85380000Y-53991928D01*
X85255518Y-54004188D01*
X85135820Y-54040498D01*
X85025506Y-54099463D01*
X84928815Y-54178815D01*
X84849463Y-54275506D01*
X84790498Y-54385820D01*
X84754188Y-54505518D01*
X84741928Y-54630000D01*
X77818072Y-54630000D01*
X77805812Y-54505518D01*
X77769502Y-54385820D01*
X77710537Y-54275506D01*
X77631185Y-54178815D01*
X77534494Y-54099463D01*
X77424180Y-54040498D01*
X77304482Y-54004188D01*
X77180000Y-53991928D01*
X75380000Y-53991928D01*
X75255518Y-54004188D01*
X75135820Y-54040498D01*
X75025506Y-54099463D01*
X74928815Y-54178815D01*
X74849463Y-54275506D01*
X74790498Y-54385820D01*
X74754188Y-54505518D01*
X74741928Y-54630000D01*
X74741928Y-55170000D01*
X53374874Y-55170000D01*
X53339999Y-55166565D01*
X53305124Y-55170000D01*
X53305123Y-55170000D01*
X53200816Y-55180273D01*
X53066980Y-55220872D01*
X52943637Y-55286800D01*
X52835525Y-55375525D01*
X52813292Y-55402616D01*
X51592617Y-56623292D01*
X51565526Y-56645525D01*
X51543293Y-56672616D01*
X51476801Y-56753637D01*
X51410872Y-56876981D01*
X51370274Y-57010816D01*
X51356565Y-57150000D01*
X51360001Y-57184885D01*
X51360000Y-64788548D01*
X51155241Y-64925363D01*
X50955363Y-65125241D01*
X50800000Y-65357759D01*
X50644637Y-65125241D01*
X50444759Y-64925363D01*
X50209727Y-64768320D01*
X49948574Y-64660147D01*
X49671335Y-64605000D01*
X49388665Y-64605000D01*
X49111426Y-64660147D01*
X48850273Y-64768320D01*
X48615241Y-64925363D01*
X48415363Y-65125241D01*
X48260000Y-65357759D01*
X48104637Y-65125241D01*
X47904759Y-64925363D01*
X47669727Y-64768320D01*
X47408574Y-64660147D01*
X47131335Y-64605000D01*
X46848665Y-64605000D01*
X46571426Y-64660147D01*
X46310273Y-64768320D01*
X46075241Y-64925363D01*
X45875363Y-65125241D01*
X45720000Y-65357759D01*
X45564637Y-65125241D01*
X45364759Y-64925363D01*
X45129727Y-64768320D01*
X44868574Y-64660147D01*
X44591335Y-64605000D01*
X44308665Y-64605000D01*
X44031426Y-64660147D01*
X43770273Y-64768320D01*
X43535241Y-64925363D01*
X43335363Y-65125241D01*
X43180000Y-65357759D01*
X43024637Y-65125241D01*
X42824759Y-64925363D01*
X42589727Y-64768320D01*
X42328574Y-64660147D01*
X42051335Y-64605000D01*
X41768665Y-64605000D01*
X41491426Y-64660147D01*
X41230273Y-64768320D01*
X40995241Y-64925363D01*
X40795363Y-65125241D01*
X40640000Y-65357759D01*
X40484637Y-65125241D01*
X40284759Y-64925363D01*
X40049727Y-64768320D01*
X39788574Y-64660147D01*
X39511335Y-64605000D01*
X39228665Y-64605000D01*
X38951426Y-64660147D01*
X38690273Y-64768320D01*
X38455241Y-64925363D01*
X38255363Y-65125241D01*
X38100000Y-65357759D01*
X37944637Y-65125241D01*
X37744759Y-64925363D01*
X37509727Y-64768320D01*
X37248574Y-64660147D01*
X36971335Y-64605000D01*
X36688665Y-64605000D01*
X36411426Y-64660147D01*
X36150273Y-64768320D01*
X35915241Y-64925363D01*
X35715363Y-65125241D01*
X35560000Y-65357759D01*
X35404637Y-65125241D01*
X35204759Y-64925363D01*
X34969727Y-64768320D01*
X34708574Y-64660147D01*
X34431335Y-64605000D01*
X34148665Y-64605000D01*
X33871426Y-64660147D01*
X33610273Y-64768320D01*
X33375241Y-64925363D01*
X33175363Y-65125241D01*
X33020000Y-65357759D01*
X32864637Y-65125241D01*
X32664759Y-64925363D01*
X32429727Y-64768320D01*
X32168574Y-64660147D01*
X31891335Y-64605000D01*
X31608665Y-64605000D01*
X31331426Y-64660147D01*
X31070273Y-64768320D01*
X30835241Y-64925363D01*
X30635363Y-65125241D01*
X30480000Y-65357759D01*
X30324637Y-65125241D01*
X30124759Y-64925363D01*
X29920000Y-64788548D01*
X29920000Y-60941452D01*
X30124759Y-60804637D01*
X30246694Y-60682702D01*
X30896903Y-60682702D01*
X30968486Y-60926671D01*
X31223996Y-61047571D01*
X31498184Y-61116300D01*
X31780512Y-61130217D01*
X32060130Y-61088787D01*
X32326292Y-60993603D01*
X32451514Y-60926671D01*
X32523097Y-60682702D01*
X31710000Y-59869605D01*
X30896903Y-60682702D01*
X30246694Y-60682702D01*
X30324637Y-60604759D01*
X30458692Y-60404131D01*
X30473329Y-60431514D01*
X30717298Y-60503097D01*
X31530395Y-59690000D01*
X31889605Y-59690000D01*
X32702702Y-60503097D01*
X32946671Y-60431514D01*
X33067571Y-60176004D01*
X33136300Y-59901816D01*
X33150217Y-59619488D01*
X33108787Y-59339870D01*
X33013603Y-59073708D01*
X32946671Y-58948486D01*
X32702702Y-58876903D01*
X31889605Y-59690000D01*
X31530395Y-59690000D01*
X30717298Y-58876903D01*
X30473329Y-58948486D01*
X30459676Y-58977341D01*
X30324637Y-58775241D01*
X30246694Y-58697298D01*
X30896903Y-58697298D01*
X31710000Y-59510395D01*
X32523097Y-58697298D01*
X32451514Y-58453329D01*
X32196004Y-58332429D01*
X31921816Y-58263700D01*
X31639488Y-58249783D01*
X31359870Y-58291213D01*
X31093708Y-58386397D01*
X30968486Y-58453329D01*
X30896903Y-58697298D01*
X30246694Y-58697298D01*
X30124759Y-58575363D01*
X29889727Y-58418320D01*
X29628574Y-58310147D01*
X29351335Y-58255000D01*
X29068665Y-58255000D01*
X28791426Y-58310147D01*
X28530273Y-58418320D01*
X28295241Y-58575363D01*
X28095363Y-58775241D01*
X27938320Y-59010273D01*
X27830147Y-59271426D01*
X27775000Y-59548665D01*
X27775000Y-59831335D01*
X27830147Y-60108574D01*
X27938320Y-60369727D01*
X28095363Y-60604759D01*
X28295241Y-60804637D01*
X28500001Y-60941453D01*
X28500000Y-64788548D01*
X28295241Y-64925363D01*
X28095363Y-65125241D01*
X27938320Y-65360273D01*
X27830147Y-65621426D01*
X27775000Y-65898665D01*
X27775000Y-66181335D01*
X27830147Y-66458574D01*
X27938320Y-66719727D01*
X28095363Y-66954759D01*
X28295241Y-67154637D01*
X28530273Y-67311680D01*
X28791426Y-67419853D01*
X29068665Y-67475000D01*
X29351335Y-67475000D01*
X29628574Y-67419853D01*
X29889727Y-67311680D01*
X30124759Y-67154637D01*
X30324637Y-66954759D01*
X30480000Y-66722241D01*
X30635363Y-66954759D01*
X30835241Y-67154637D01*
X31067759Y-67310000D01*
X30835241Y-67465363D01*
X30635363Y-67665241D01*
X30478320Y-67900273D01*
X30370147Y-68161426D01*
X30315000Y-68438665D01*
X30315000Y-68721335D01*
X30370147Y-68998574D01*
X30478320Y-69259727D01*
X30635363Y-69494759D01*
X30835241Y-69694637D01*
X31070273Y-69851680D01*
X31331426Y-69959853D01*
X31608665Y-70015000D01*
X31891335Y-70015000D01*
X32168574Y-69959853D01*
X32429727Y-69851680D01*
X32664759Y-69694637D01*
X32864637Y-69494759D01*
X33021680Y-69259727D01*
X33129853Y-68998574D01*
X33185000Y-68721335D01*
X33185000Y-68438665D01*
X33129853Y-68161426D01*
X33021680Y-67900273D01*
X32864637Y-67665241D01*
X32664759Y-67465363D01*
X32432241Y-67310000D01*
X32664759Y-67154637D01*
X32864637Y-66954759D01*
X33020000Y-66722241D01*
X33175363Y-66954759D01*
X33375241Y-67154637D01*
X33610273Y-67311680D01*
X33871426Y-67419853D01*
X34148665Y-67475000D01*
X34431335Y-67475000D01*
X34708574Y-67419853D01*
X34969727Y-67311680D01*
X35204759Y-67154637D01*
X35404637Y-66954759D01*
X35560000Y-66722241D01*
X35715363Y-66954759D01*
X35915241Y-67154637D01*
X36147759Y-67310000D01*
X35915241Y-67465363D01*
X35715363Y-67665241D01*
X35558320Y-67900273D01*
X35450147Y-68161426D01*
X35395000Y-68438665D01*
X35395000Y-68721335D01*
X35450147Y-68998574D01*
X35558320Y-69259727D01*
X35715363Y-69494759D01*
X35915241Y-69694637D01*
X36150273Y-69851680D01*
X36411426Y-69959853D01*
X36688665Y-70015000D01*
X36971335Y-70015000D01*
X37248574Y-69959853D01*
X37509727Y-69851680D01*
X37744759Y-69694637D01*
X37944637Y-69494759D01*
X38100000Y-69262241D01*
X38255363Y-69494759D01*
X38455241Y-69694637D01*
X38690273Y-69851680D01*
X38951426Y-69959853D01*
X39228665Y-70015000D01*
X39511335Y-70015000D01*
X39788574Y-69959853D01*
X40049727Y-69851680D01*
X40284759Y-69694637D01*
X40484637Y-69494759D01*
X40640000Y-69262241D01*
X40795363Y-69494759D01*
X40995241Y-69694637D01*
X41230273Y-69851680D01*
X41491426Y-69959853D01*
X41768665Y-70015000D01*
X42051335Y-70015000D01*
X42328574Y-69959853D01*
X42589727Y-69851680D01*
X42824759Y-69694637D01*
X43024637Y-69494759D01*
X43181680Y-69259727D01*
X43289853Y-68998574D01*
X43345000Y-68721335D01*
X43345000Y-68438665D01*
X43289853Y-68161426D01*
X43181680Y-67900273D01*
X43024637Y-67665241D01*
X42824759Y-67465363D01*
X42592241Y-67310000D01*
X42824759Y-67154637D01*
X43024637Y-66954759D01*
X43180000Y-66722241D01*
X43335363Y-66954759D01*
X43535241Y-67154637D01*
X43770273Y-67311680D01*
X44031426Y-67419853D01*
X44308665Y-67475000D01*
X44591335Y-67475000D01*
X44868574Y-67419853D01*
X45129727Y-67311680D01*
X45364759Y-67154637D01*
X45564637Y-66954759D01*
X45720000Y-66722241D01*
X45875363Y-66954759D01*
X46075241Y-67154637D01*
X46310273Y-67311680D01*
X46571426Y-67419853D01*
X46848665Y-67475000D01*
X47131335Y-67475000D01*
X47408574Y-67419853D01*
X47669727Y-67311680D01*
X47904759Y-67154637D01*
X48104637Y-66954759D01*
X48260000Y-66722241D01*
X48415363Y-66954759D01*
X48615241Y-67154637D01*
X48850273Y-67311680D01*
X49111426Y-67419853D01*
X49388665Y-67475000D01*
X49671335Y-67475000D01*
X49948574Y-67419853D01*
X50209727Y-67311680D01*
X50444759Y-67154637D01*
X50644637Y-66954759D01*
X50800000Y-66722241D01*
X50955363Y-66954759D01*
X51155241Y-67154637D01*
X51390273Y-67311680D01*
X51651426Y-67419853D01*
X51928665Y-67475000D01*
X52211335Y-67475000D01*
X52488574Y-67419853D01*
X52749727Y-67311680D01*
X52984759Y-67154637D01*
X53184637Y-66954759D01*
X53340000Y-66722241D01*
X53495363Y-66954759D01*
X53695241Y-67154637D01*
X53930273Y-67311680D01*
X54191426Y-67419853D01*
X54468665Y-67475000D01*
X54751335Y-67475000D01*
X55028574Y-67419853D01*
X55289727Y-67311680D01*
X55524759Y-67154637D01*
X55724637Y-66954759D01*
X55880000Y-66722241D01*
X56035363Y-66954759D01*
X56235241Y-67154637D01*
X56470273Y-67311680D01*
X56731426Y-67419853D01*
X57008665Y-67475000D01*
X57291335Y-67475000D01*
X57568574Y-67419853D01*
X57829727Y-67311680D01*
X58064759Y-67154637D01*
X58264637Y-66954759D01*
X58420000Y-66722241D01*
X58575363Y-66954759D01*
X58775241Y-67154637D01*
X59010273Y-67311680D01*
X59271426Y-67419853D01*
X59548665Y-67475000D01*
X59831335Y-67475000D01*
X60108574Y-67419853D01*
X60369727Y-67311680D01*
X60604759Y-67154637D01*
X60804637Y-66954759D01*
X60960000Y-66722241D01*
X61115363Y-66954759D01*
X61315241Y-67154637D01*
X61547759Y-67310000D01*
X61315241Y-67465363D01*
X61115363Y-67665241D01*
X60958320Y-67900273D01*
X60850147Y-68161426D01*
X60795000Y-68438665D01*
X60795000Y-68721335D01*
X60850147Y-68998574D01*
X60958320Y-69259727D01*
X61115363Y-69494759D01*
X61315241Y-69694637D01*
X61547759Y-69850000D01*
X61315241Y-70005363D01*
X61115363Y-70205241D01*
X60958320Y-70440273D01*
X60850147Y-70701426D01*
X60795000Y-70978665D01*
X60795000Y-71261335D01*
X60850147Y-71538574D01*
X60958320Y-71799727D01*
X61115363Y-72034759D01*
X61315241Y-72234637D01*
X61547759Y-72390000D01*
X61315241Y-72545363D01*
X61115363Y-72745241D01*
X60958320Y-72980273D01*
X60850147Y-73241426D01*
X60795000Y-73518665D01*
X60795000Y-73801335D01*
X60850147Y-74078574D01*
X60958320Y-74339727D01*
X61115363Y-74574759D01*
X61315241Y-74774637D01*
X61547759Y-74930000D01*
X61315241Y-75085363D01*
X61115363Y-75285241D01*
X60958320Y-75520273D01*
X60850147Y-75781426D01*
X60795000Y-76058665D01*
X60795000Y-76341335D01*
X60850147Y-76618574D01*
X60958320Y-76879727D01*
X61115363Y-77114759D01*
X61315241Y-77314637D01*
X61547759Y-77470000D01*
X61315241Y-77625363D01*
X61115363Y-77825241D01*
X60958320Y-78060273D01*
X60850147Y-78321426D01*
X60795000Y-78598665D01*
X60795000Y-78881335D01*
X60850147Y-79158574D01*
X60958320Y-79419727D01*
X61115363Y-79654759D01*
X61315241Y-79854637D01*
X61547759Y-80010000D01*
X61315241Y-80165363D01*
X61115363Y-80365241D01*
X60960000Y-80597759D01*
X60804637Y-80365241D01*
X60604759Y-80165363D01*
X60369727Y-80008320D01*
X60108574Y-79900147D01*
X59831335Y-79845000D01*
X59548665Y-79845000D01*
X59271426Y-79900147D01*
X59010273Y-80008320D01*
X58775241Y-80165363D01*
X58575363Y-80365241D01*
X58420000Y-80597759D01*
X58264637Y-80365241D01*
X58064759Y-80165363D01*
X57829727Y-80008320D01*
X57568574Y-79900147D01*
X57291335Y-79845000D01*
X57008665Y-79845000D01*
X56731426Y-79900147D01*
X56470273Y-80008320D01*
X56235241Y-80165363D01*
X56035363Y-80365241D01*
X55880000Y-80597759D01*
X55724637Y-80365241D01*
X55524759Y-80165363D01*
X55289727Y-80008320D01*
X55028574Y-79900147D01*
X54751335Y-79845000D01*
X54468665Y-79845000D01*
X54191426Y-79900147D01*
X53930273Y-80008320D01*
X53695241Y-80165363D01*
X53495363Y-80365241D01*
X53340000Y-80597759D01*
X53184637Y-80365241D01*
X52984759Y-80165363D01*
X52749727Y-80008320D01*
X52488574Y-79900147D01*
X52211335Y-79845000D01*
X51928665Y-79845000D01*
X51651426Y-79900147D01*
X51390273Y-80008320D01*
X51155241Y-80165363D01*
X50955363Y-80365241D01*
X50800000Y-80597759D01*
X50644637Y-80365241D01*
X50444759Y-80165363D01*
X50209727Y-80008320D01*
X49948574Y-79900147D01*
X49671335Y-79845000D01*
X49388665Y-79845000D01*
X49111426Y-79900147D01*
X48850273Y-80008320D01*
X48615241Y-80165363D01*
X48415363Y-80365241D01*
X48260000Y-80597759D01*
X48104637Y-80365241D01*
X47904759Y-80165363D01*
X47669727Y-80008320D01*
X47408574Y-79900147D01*
X47131335Y-79845000D01*
X46848665Y-79845000D01*
X46571426Y-79900147D01*
X46310273Y-80008320D01*
X46075241Y-80165363D01*
X45875363Y-80365241D01*
X45720000Y-80597759D01*
X45564637Y-80365241D01*
X45364759Y-80165363D01*
X45129727Y-80008320D01*
X44868574Y-79900147D01*
X44591335Y-79845000D01*
X44308665Y-79845000D01*
X44031426Y-79900147D01*
X43770273Y-80008320D01*
X43535241Y-80165363D01*
X43335363Y-80365241D01*
X43180000Y-80597759D01*
X43024637Y-80365241D01*
X42824759Y-80165363D01*
X42589727Y-80008320D01*
X42328574Y-79900147D01*
X42051335Y-79845000D01*
X41768665Y-79845000D01*
X41491426Y-79900147D01*
X41230273Y-80008320D01*
X40995241Y-80165363D01*
X40795363Y-80365241D01*
X40640000Y-80597759D01*
X40484637Y-80365241D01*
X40284759Y-80165363D01*
X40049727Y-80008320D01*
X39788574Y-79900147D01*
X39511335Y-79845000D01*
X39228665Y-79845000D01*
X38951426Y-79900147D01*
X38690273Y-80008320D01*
X38455241Y-80165363D01*
X38255363Y-80365241D01*
X38100000Y-80597759D01*
X37944637Y-80365241D01*
X37744759Y-80165363D01*
X37509727Y-80008320D01*
X37248574Y-79900147D01*
X36971335Y-79845000D01*
X36688665Y-79845000D01*
X36411426Y-79900147D01*
X36150273Y-80008320D01*
X35915241Y-80165363D01*
X35715363Y-80365241D01*
X35560000Y-80597759D01*
X35404637Y-80365241D01*
X35204759Y-80165363D01*
X34969727Y-80008320D01*
X34708574Y-79900147D01*
X34431335Y-79845000D01*
X34148665Y-79845000D01*
X33871426Y-79900147D01*
X33610273Y-80008320D01*
X33375241Y-80165363D01*
X33175363Y-80365241D01*
X33020000Y-80597759D01*
X32864637Y-80365241D01*
X32664759Y-80165363D01*
X32429727Y-80008320D01*
X32168574Y-79900147D01*
X31891335Y-79845000D01*
X31608665Y-79845000D01*
X31331426Y-79900147D01*
X31070273Y-80008320D01*
X30835241Y-80165363D01*
X30636643Y-80363961D01*
X30635812Y-80355518D01*
X30599502Y-80235820D01*
X30540537Y-80125506D01*
X30461185Y-80028815D01*
X30364494Y-79949463D01*
X30254180Y-79890498D01*
X30134482Y-79854188D01*
X30010000Y-79841928D01*
X29495750Y-79845000D01*
X29337000Y-80003750D01*
X29337000Y-81153000D01*
X29357000Y-81153000D01*
X29357000Y-81407000D01*
X29337000Y-81407000D01*
X29337000Y-82556250D01*
X29495750Y-82715000D01*
X30010000Y-82718072D01*
X30134482Y-82705812D01*
X30254180Y-82669502D01*
X30364494Y-82610537D01*
X30461185Y-82531185D01*
X30540537Y-82434494D01*
X30599502Y-82324180D01*
X30635812Y-82204482D01*
X30636643Y-82196039D01*
X30835241Y-82394637D01*
X31040001Y-82531453D01*
X31040000Y-83785125D01*
X31036565Y-83820000D01*
X31040000Y-83854875D01*
X31040000Y-83854876D01*
X31050273Y-83959183D01*
X31090872Y-84093019D01*
X31156800Y-84216362D01*
X31245525Y-84324474D01*
X31272616Y-84346707D01*
X32493292Y-85567384D01*
X32515525Y-85594475D01*
X32623637Y-85683200D01*
X32655068Y-85700000D01*
X27330000Y-85700000D01*
X27330000Y-82080000D01*
X27771928Y-82080000D01*
X27784188Y-82204482D01*
X27820498Y-82324180D01*
X27879463Y-82434494D01*
X27958815Y-82531185D01*
X28055506Y-82610537D01*
X28165820Y-82669502D01*
X28285518Y-82705812D01*
X28410000Y-82718072D01*
X28924250Y-82715000D01*
X29083000Y-82556250D01*
X29083000Y-81407000D01*
X27933750Y-81407000D01*
X27775000Y-81565750D01*
X27771928Y-82080000D01*
X27330000Y-82080000D01*
X27330000Y-80480000D01*
X27771928Y-80480000D01*
X27775000Y-80994250D01*
X27933750Y-81153000D01*
X29083000Y-81153000D01*
X29083000Y-80003750D01*
X28924250Y-79845000D01*
X28410000Y-79841928D01*
X28285518Y-79854188D01*
X28165820Y-79890498D01*
X28055506Y-79949463D01*
X27958815Y-80028815D01*
X27879463Y-80125506D01*
X27820498Y-80235820D01*
X27784188Y-80355518D01*
X27771928Y-80480000D01*
X27330000Y-80480000D01*
X27330000Y-73503891D01*
X33975000Y-73503891D01*
X33975000Y-73816109D01*
X34035911Y-74122327D01*
X34155391Y-74410779D01*
X34328850Y-74670379D01*
X34549621Y-74891150D01*
X34809221Y-75064609D01*
X35097673Y-75184089D01*
X35403891Y-75245000D01*
X35716109Y-75245000D01*
X36022327Y-75184089D01*
X36310779Y-75064609D01*
X36570379Y-74891150D01*
X36791150Y-74670379D01*
X36964609Y-74410779D01*
X37084089Y-74122327D01*
X37145000Y-73816109D01*
X37145000Y-73503891D01*
X37785000Y-73503891D01*
X37785000Y-73816109D01*
X37845911Y-74122327D01*
X37965391Y-74410779D01*
X38138850Y-74670379D01*
X38359621Y-74891150D01*
X38619221Y-75064609D01*
X38907673Y-75184089D01*
X39213891Y-75245000D01*
X39526109Y-75245000D01*
X39832327Y-75184089D01*
X40120779Y-75064609D01*
X40380379Y-74891150D01*
X40601150Y-74670379D01*
X40774609Y-74410779D01*
X40894089Y-74122327D01*
X40955000Y-73816109D01*
X40955000Y-73503891D01*
X40894089Y-73197673D01*
X40774609Y-72909221D01*
X40601150Y-72649621D01*
X40380379Y-72428850D01*
X40120779Y-72255391D01*
X39832327Y-72135911D01*
X39526109Y-72075000D01*
X39213891Y-72075000D01*
X38907673Y-72135911D01*
X38619221Y-72255391D01*
X38359621Y-72428850D01*
X38138850Y-72649621D01*
X37965391Y-72909221D01*
X37845911Y-73197673D01*
X37785000Y-73503891D01*
X37145000Y-73503891D01*
X37084089Y-73197673D01*
X36964609Y-72909221D01*
X36791150Y-72649621D01*
X36570379Y-72428850D01*
X36310779Y-72255391D01*
X36022327Y-72135911D01*
X35716109Y-72075000D01*
X35403891Y-72075000D01*
X35097673Y-72135911D01*
X34809221Y-72255391D01*
X34549621Y-72428850D01*
X34328850Y-72649621D01*
X34155391Y-72909221D01*
X34035911Y-73197673D01*
X33975000Y-73503891D01*
X27330000Y-73503891D01*
X27330000Y-54389872D01*
X40945000Y-54389872D01*
X40945000Y-54830128D01*
X41030890Y-55261925D01*
X41199369Y-55668669D01*
X41443962Y-56034729D01*
X41755271Y-56346038D01*
X42121331Y-56590631D01*
X42528075Y-56759110D01*
X42959872Y-56845000D01*
X43400128Y-56845000D01*
X43831925Y-56759110D01*
X44238669Y-56590631D01*
X44604729Y-56346038D01*
X44916038Y-56034729D01*
X45160631Y-55668669D01*
X45329110Y-55261925D01*
X45415000Y-54830128D01*
X45415000Y-54389872D01*
X45329110Y-53958075D01*
X45160631Y-53551331D01*
X44916038Y-53185271D01*
X44604729Y-52873962D01*
X44238669Y-52629369D01*
X43831925Y-52460890D01*
X43400128Y-52375000D01*
X42959872Y-52375000D01*
X42528075Y-52460890D01*
X42121331Y-52629369D01*
X41755271Y-52873962D01*
X41443962Y-53185271D01*
X41199369Y-53551331D01*
X41030890Y-53958075D01*
X40945000Y-54389872D01*
X27330000Y-54389872D01*
X27330000Y-50758363D01*
X75045000Y-50758363D01*
X75045000Y-51001637D01*
X75092460Y-51240236D01*
X75185557Y-51464992D01*
X75320713Y-51667267D01*
X75492733Y-51839287D01*
X75695008Y-51974443D01*
X75919764Y-52067540D01*
X76158363Y-52115000D01*
X76401637Y-52115000D01*
X76640236Y-52067540D01*
X76864992Y-51974443D01*
X77067267Y-51839287D01*
X77126554Y-51780000D01*
X79391928Y-51780000D01*
X79404188Y-51904482D01*
X79440498Y-52024180D01*
X79499463Y-52134494D01*
X79578815Y-52231185D01*
X79675506Y-52310537D01*
X79785820Y-52369502D01*
X79905518Y-52405812D01*
X80030000Y-52418072D01*
X80994250Y-52415000D01*
X81153000Y-52256250D01*
X81153000Y-51007000D01*
X81407000Y-51007000D01*
X81407000Y-52256250D01*
X81565750Y-52415000D01*
X82530000Y-52418072D01*
X82654482Y-52405812D01*
X82774180Y-52369502D01*
X82884494Y-52310537D01*
X82981185Y-52231185D01*
X83060537Y-52134494D01*
X83119502Y-52024180D01*
X83155812Y-51904482D01*
X83168072Y-51780000D01*
X83165000Y-51165750D01*
X83006250Y-51007000D01*
X81407000Y-51007000D01*
X81153000Y-51007000D01*
X79553750Y-51007000D01*
X79395000Y-51165750D01*
X79391928Y-51780000D01*
X77126554Y-51780000D01*
X77239287Y-51667267D01*
X77374443Y-51464992D01*
X77467540Y-51240236D01*
X77515000Y-51001637D01*
X77515000Y-50758363D01*
X85045000Y-50758363D01*
X85045000Y-51001637D01*
X85092460Y-51240236D01*
X85185557Y-51464992D01*
X85320713Y-51667267D01*
X85492733Y-51839287D01*
X85695008Y-51974443D01*
X85919764Y-52067540D01*
X86158363Y-52115000D01*
X86401637Y-52115000D01*
X86640236Y-52067540D01*
X86864992Y-51974443D01*
X87067267Y-51839287D01*
X87239287Y-51667267D01*
X87374443Y-51464992D01*
X87467540Y-51240236D01*
X87515000Y-51001637D01*
X87515000Y-50758363D01*
X90285000Y-50758363D01*
X90285000Y-51001637D01*
X90332460Y-51240236D01*
X90425557Y-51464992D01*
X90560713Y-51667267D01*
X90732733Y-51839287D01*
X90935008Y-51974443D01*
X91159764Y-52067540D01*
X91398363Y-52115000D01*
X91641637Y-52115000D01*
X91880236Y-52067540D01*
X92104992Y-51974443D01*
X92307267Y-51839287D01*
X92366554Y-51780000D01*
X94631928Y-51780000D01*
X94644188Y-51904482D01*
X94680498Y-52024180D01*
X94739463Y-52134494D01*
X94818815Y-52231185D01*
X94915506Y-52310537D01*
X95025820Y-52369502D01*
X95145518Y-52405812D01*
X95270000Y-52418072D01*
X96234250Y-52415000D01*
X96393000Y-52256250D01*
X96393000Y-51007000D01*
X96647000Y-51007000D01*
X96647000Y-52256250D01*
X96805750Y-52415000D01*
X97770000Y-52418072D01*
X97894482Y-52405812D01*
X98014180Y-52369502D01*
X98124494Y-52310537D01*
X98221185Y-52231185D01*
X98300537Y-52134494D01*
X98359502Y-52024180D01*
X98395812Y-51904482D01*
X98408072Y-51780000D01*
X98405000Y-51165750D01*
X98246250Y-51007000D01*
X96647000Y-51007000D01*
X96393000Y-51007000D01*
X94793750Y-51007000D01*
X94635000Y-51165750D01*
X94631928Y-51780000D01*
X92366554Y-51780000D01*
X92479287Y-51667267D01*
X92614443Y-51464992D01*
X92707540Y-51240236D01*
X92755000Y-51001637D01*
X92755000Y-50758363D01*
X100285000Y-50758363D01*
X100285000Y-51001637D01*
X100332460Y-51240236D01*
X100425557Y-51464992D01*
X100560713Y-51667267D01*
X100732733Y-51839287D01*
X100935008Y-51974443D01*
X101159764Y-52067540D01*
X101398363Y-52115000D01*
X101641637Y-52115000D01*
X101880236Y-52067540D01*
X102104992Y-51974443D01*
X102307267Y-51839287D01*
X102479287Y-51667267D01*
X102614443Y-51464992D01*
X102707540Y-51240236D01*
X102755000Y-51001637D01*
X102755000Y-50758363D01*
X105525000Y-50758363D01*
X105525000Y-51001637D01*
X105572460Y-51240236D01*
X105665557Y-51464992D01*
X105800713Y-51667267D01*
X105972733Y-51839287D01*
X106175008Y-51974443D01*
X106399764Y-52067540D01*
X106638363Y-52115000D01*
X106881637Y-52115000D01*
X107120236Y-52067540D01*
X107344992Y-51974443D01*
X107547267Y-51839287D01*
X107606554Y-51780000D01*
X109871928Y-51780000D01*
X109884188Y-51904482D01*
X109920498Y-52024180D01*
X109979463Y-52134494D01*
X110058815Y-52231185D01*
X110155506Y-52310537D01*
X110265820Y-52369502D01*
X110385518Y-52405812D01*
X110510000Y-52418072D01*
X111474250Y-52415000D01*
X111633000Y-52256250D01*
X111633000Y-51007000D01*
X111887000Y-51007000D01*
X111887000Y-52256250D01*
X112045750Y-52415000D01*
X113010000Y-52418072D01*
X113134482Y-52405812D01*
X113254180Y-52369502D01*
X113364494Y-52310537D01*
X113461185Y-52231185D01*
X113540537Y-52134494D01*
X113599502Y-52024180D01*
X113635812Y-51904482D01*
X113648072Y-51780000D01*
X113645000Y-51165750D01*
X113486250Y-51007000D01*
X111887000Y-51007000D01*
X111633000Y-51007000D01*
X110033750Y-51007000D01*
X109875000Y-51165750D01*
X109871928Y-51780000D01*
X107606554Y-51780000D01*
X107719287Y-51667267D01*
X107854443Y-51464992D01*
X107947540Y-51240236D01*
X107995000Y-51001637D01*
X107995000Y-50758363D01*
X115525000Y-50758363D01*
X115525000Y-51001637D01*
X115572460Y-51240236D01*
X115665557Y-51464992D01*
X115800713Y-51667267D01*
X115972733Y-51839287D01*
X116175008Y-51974443D01*
X116399764Y-52067540D01*
X116638363Y-52115000D01*
X116881637Y-52115000D01*
X117120236Y-52067540D01*
X117344992Y-51974443D01*
X117547267Y-51839287D01*
X117719287Y-51667267D01*
X117854443Y-51464992D01*
X117947540Y-51240236D01*
X117995000Y-51001637D01*
X117995000Y-50758363D01*
X117947540Y-50519764D01*
X117854443Y-50295008D01*
X117719287Y-50092733D01*
X117547267Y-49920713D01*
X117344992Y-49785557D01*
X117120236Y-49692460D01*
X116881637Y-49645000D01*
X116638363Y-49645000D01*
X116399764Y-49692460D01*
X116175008Y-49785557D01*
X115972733Y-49920713D01*
X115800713Y-50092733D01*
X115665557Y-50295008D01*
X115572460Y-50519764D01*
X115525000Y-50758363D01*
X107995000Y-50758363D01*
X107947540Y-50519764D01*
X107854443Y-50295008D01*
X107719287Y-50092733D01*
X107606554Y-49980000D01*
X109871928Y-49980000D01*
X109875000Y-50594250D01*
X110033750Y-50753000D01*
X111633000Y-50753000D01*
X111633000Y-49503750D01*
X111887000Y-49503750D01*
X111887000Y-50753000D01*
X113486250Y-50753000D01*
X113645000Y-50594250D01*
X113648072Y-49980000D01*
X113635812Y-49855518D01*
X113599502Y-49735820D01*
X113540537Y-49625506D01*
X113461185Y-49528815D01*
X113364494Y-49449463D01*
X113254180Y-49390498D01*
X113134482Y-49354188D01*
X113010000Y-49341928D01*
X112045750Y-49345000D01*
X111887000Y-49503750D01*
X111633000Y-49503750D01*
X111474250Y-49345000D01*
X110510000Y-49341928D01*
X110385518Y-49354188D01*
X110265820Y-49390498D01*
X110155506Y-49449463D01*
X110058815Y-49528815D01*
X109979463Y-49625506D01*
X109920498Y-49735820D01*
X109884188Y-49855518D01*
X109871928Y-49980000D01*
X107606554Y-49980000D01*
X107547267Y-49920713D01*
X107344992Y-49785557D01*
X107120236Y-49692460D01*
X106881637Y-49645000D01*
X106638363Y-49645000D01*
X106399764Y-49692460D01*
X106175008Y-49785557D01*
X105972733Y-49920713D01*
X105800713Y-50092733D01*
X105665557Y-50295008D01*
X105572460Y-50519764D01*
X105525000Y-50758363D01*
X102755000Y-50758363D01*
X102707540Y-50519764D01*
X102614443Y-50295008D01*
X102479287Y-50092733D01*
X102307267Y-49920713D01*
X102104992Y-49785557D01*
X101880236Y-49692460D01*
X101641637Y-49645000D01*
X101398363Y-49645000D01*
X101159764Y-49692460D01*
X100935008Y-49785557D01*
X100732733Y-49920713D01*
X100560713Y-50092733D01*
X100425557Y-50295008D01*
X100332460Y-50519764D01*
X100285000Y-50758363D01*
X92755000Y-50758363D01*
X92707540Y-50519764D01*
X92614443Y-50295008D01*
X92479287Y-50092733D01*
X92366554Y-49980000D01*
X94631928Y-49980000D01*
X94635000Y-50594250D01*
X94793750Y-50753000D01*
X96393000Y-50753000D01*
X96393000Y-49503750D01*
X96647000Y-49503750D01*
X96647000Y-50753000D01*
X98246250Y-50753000D01*
X98405000Y-50594250D01*
X98408072Y-49980000D01*
X98395812Y-49855518D01*
X98359502Y-49735820D01*
X98300537Y-49625506D01*
X98221185Y-49528815D01*
X98124494Y-49449463D01*
X98014180Y-49390498D01*
X97894482Y-49354188D01*
X97770000Y-49341928D01*
X96805750Y-49345000D01*
X96647000Y-49503750D01*
X96393000Y-49503750D01*
X96234250Y-49345000D01*
X95270000Y-49341928D01*
X95145518Y-49354188D01*
X95025820Y-49390498D01*
X94915506Y-49449463D01*
X94818815Y-49528815D01*
X94739463Y-49625506D01*
X94680498Y-49735820D01*
X94644188Y-49855518D01*
X94631928Y-49980000D01*
X92366554Y-49980000D01*
X92307267Y-49920713D01*
X92104992Y-49785557D01*
X91880236Y-49692460D01*
X91641637Y-49645000D01*
X91398363Y-49645000D01*
X91159764Y-49692460D01*
X90935008Y-49785557D01*
X90732733Y-49920713D01*
X90560713Y-50092733D01*
X90425557Y-50295008D01*
X90332460Y-50519764D01*
X90285000Y-50758363D01*
X87515000Y-50758363D01*
X87467540Y-50519764D01*
X87374443Y-50295008D01*
X87239287Y-50092733D01*
X87067267Y-49920713D01*
X86864992Y-49785557D01*
X86640236Y-49692460D01*
X86401637Y-49645000D01*
X86158363Y-49645000D01*
X85919764Y-49692460D01*
X85695008Y-49785557D01*
X85492733Y-49920713D01*
X85320713Y-50092733D01*
X85185557Y-50295008D01*
X85092460Y-50519764D01*
X85045000Y-50758363D01*
X77515000Y-50758363D01*
X77467540Y-50519764D01*
X77374443Y-50295008D01*
X77239287Y-50092733D01*
X77126554Y-49980000D01*
X79391928Y-49980000D01*
X79395000Y-50594250D01*
X79553750Y-50753000D01*
X81153000Y-50753000D01*
X81153000Y-49503750D01*
X81407000Y-49503750D01*
X81407000Y-50753000D01*
X83006250Y-50753000D01*
X83165000Y-50594250D01*
X83168072Y-49980000D01*
X83155812Y-49855518D01*
X83119502Y-49735820D01*
X83060537Y-49625506D01*
X82981185Y-49528815D01*
X82884494Y-49449463D01*
X82774180Y-49390498D01*
X82654482Y-49354188D01*
X82530000Y-49341928D01*
X81565750Y-49345000D01*
X81407000Y-49503750D01*
X81153000Y-49503750D01*
X80994250Y-49345000D01*
X80030000Y-49341928D01*
X79905518Y-49354188D01*
X79785820Y-49390498D01*
X79675506Y-49449463D01*
X79578815Y-49528815D01*
X79499463Y-49625506D01*
X79440498Y-49735820D01*
X79404188Y-49855518D01*
X79391928Y-49980000D01*
X77126554Y-49980000D01*
X77067267Y-49920713D01*
X76864992Y-49785557D01*
X76640236Y-49692460D01*
X76401637Y-49645000D01*
X76158363Y-49645000D01*
X75919764Y-49692460D01*
X75695008Y-49785557D01*
X75492733Y-49920713D01*
X75320713Y-50092733D01*
X75185557Y-50295008D01*
X75092460Y-50519764D01*
X75045000Y-50758363D01*
X27330000Y-50758363D01*
X27330000Y-48258363D01*
X75045000Y-48258363D01*
X75045000Y-48501637D01*
X75092460Y-48740236D01*
X75185557Y-48964992D01*
X75320713Y-49167267D01*
X75492733Y-49339287D01*
X75695008Y-49474443D01*
X75919764Y-49567540D01*
X76158363Y-49615000D01*
X76401637Y-49615000D01*
X76640236Y-49567540D01*
X76864992Y-49474443D01*
X77067267Y-49339287D01*
X77239287Y-49167267D01*
X77374443Y-48964992D01*
X77467540Y-48740236D01*
X77515000Y-48501637D01*
X77515000Y-48258363D01*
X85045000Y-48258363D01*
X85045000Y-48501637D01*
X85092460Y-48740236D01*
X85185557Y-48964992D01*
X85320713Y-49167267D01*
X85492733Y-49339287D01*
X85695008Y-49474443D01*
X85919764Y-49567540D01*
X86158363Y-49615000D01*
X86401637Y-49615000D01*
X86640236Y-49567540D01*
X86864992Y-49474443D01*
X87067267Y-49339287D01*
X87239287Y-49167267D01*
X87374443Y-48964992D01*
X87467540Y-48740236D01*
X87515000Y-48501637D01*
X87515000Y-48258363D01*
X90285000Y-48258363D01*
X90285000Y-48501637D01*
X90332460Y-48740236D01*
X90425557Y-48964992D01*
X90560713Y-49167267D01*
X90732733Y-49339287D01*
X90935008Y-49474443D01*
X91159764Y-49567540D01*
X91398363Y-49615000D01*
X91641637Y-49615000D01*
X91880236Y-49567540D01*
X92104992Y-49474443D01*
X92307267Y-49339287D01*
X92479287Y-49167267D01*
X92614443Y-48964992D01*
X92707540Y-48740236D01*
X92755000Y-48501637D01*
X92755000Y-48258363D01*
X100285000Y-48258363D01*
X100285000Y-48501637D01*
X100332460Y-48740236D01*
X100425557Y-48964992D01*
X100560713Y-49167267D01*
X100732733Y-49339287D01*
X100935008Y-49474443D01*
X101159764Y-49567540D01*
X101398363Y-49615000D01*
X101641637Y-49615000D01*
X101880236Y-49567540D01*
X102104992Y-49474443D01*
X102307267Y-49339287D01*
X102479287Y-49167267D01*
X102614443Y-48964992D01*
X102707540Y-48740236D01*
X102755000Y-48501637D01*
X102755000Y-48258363D01*
X105525000Y-48258363D01*
X105525000Y-48501637D01*
X105572460Y-48740236D01*
X105665557Y-48964992D01*
X105800713Y-49167267D01*
X105972733Y-49339287D01*
X106175008Y-49474443D01*
X106399764Y-49567540D01*
X106638363Y-49615000D01*
X106881637Y-49615000D01*
X107120236Y-49567540D01*
X107344992Y-49474443D01*
X107547267Y-49339287D01*
X107719287Y-49167267D01*
X107854443Y-48964992D01*
X107947540Y-48740236D01*
X107995000Y-48501637D01*
X107995000Y-48258363D01*
X115525000Y-48258363D01*
X115525000Y-48501637D01*
X115572460Y-48740236D01*
X115665557Y-48964992D01*
X115800713Y-49167267D01*
X115972733Y-49339287D01*
X116175008Y-49474443D01*
X116399764Y-49567540D01*
X116638363Y-49615000D01*
X116881637Y-49615000D01*
X117120236Y-49567540D01*
X117344992Y-49474443D01*
X117547267Y-49339287D01*
X117719287Y-49167267D01*
X117854443Y-48964992D01*
X117947540Y-48740236D01*
X117995000Y-48501637D01*
X117995000Y-48258363D01*
X117947540Y-48019764D01*
X117854443Y-47795008D01*
X117719287Y-47592733D01*
X117547267Y-47420713D01*
X117344992Y-47285557D01*
X117120236Y-47192460D01*
X116881637Y-47145000D01*
X116638363Y-47145000D01*
X116399764Y-47192460D01*
X116175008Y-47285557D01*
X115972733Y-47420713D01*
X115800713Y-47592733D01*
X115665557Y-47795008D01*
X115572460Y-48019764D01*
X115525000Y-48258363D01*
X107995000Y-48258363D01*
X107947540Y-48019764D01*
X107854443Y-47795008D01*
X107719287Y-47592733D01*
X107547267Y-47420713D01*
X107344992Y-47285557D01*
X107120236Y-47192460D01*
X106881637Y-47145000D01*
X106638363Y-47145000D01*
X106399764Y-47192460D01*
X106175008Y-47285557D01*
X105972733Y-47420713D01*
X105800713Y-47592733D01*
X105665557Y-47795008D01*
X105572460Y-48019764D01*
X105525000Y-48258363D01*
X102755000Y-48258363D01*
X102707540Y-48019764D01*
X102614443Y-47795008D01*
X102479287Y-47592733D01*
X102307267Y-47420713D01*
X102104992Y-47285557D01*
X101880236Y-47192460D01*
X101641637Y-47145000D01*
X101398363Y-47145000D01*
X101159764Y-47192460D01*
X100935008Y-47285557D01*
X100732733Y-47420713D01*
X100560713Y-47592733D01*
X100425557Y-47795008D01*
X100332460Y-48019764D01*
X100285000Y-48258363D01*
X92755000Y-48258363D01*
X92707540Y-48019764D01*
X92614443Y-47795008D01*
X92479287Y-47592733D01*
X92307267Y-47420713D01*
X92104992Y-47285557D01*
X91880236Y-47192460D01*
X91641637Y-47145000D01*
X91398363Y-47145000D01*
X91159764Y-47192460D01*
X90935008Y-47285557D01*
X90732733Y-47420713D01*
X90560713Y-47592733D01*
X90425557Y-47795008D01*
X90332460Y-48019764D01*
X90285000Y-48258363D01*
X87515000Y-48258363D01*
X87467540Y-48019764D01*
X87374443Y-47795008D01*
X87239287Y-47592733D01*
X87067267Y-47420713D01*
X86864992Y-47285557D01*
X86640236Y-47192460D01*
X86401637Y-47145000D01*
X86158363Y-47145000D01*
X85919764Y-47192460D01*
X85695008Y-47285557D01*
X85492733Y-47420713D01*
X85320713Y-47592733D01*
X85185557Y-47795008D01*
X85092460Y-48019764D01*
X85045000Y-48258363D01*
X77515000Y-48258363D01*
X77467540Y-48019764D01*
X77374443Y-47795008D01*
X77239287Y-47592733D01*
X77067267Y-47420713D01*
X76864992Y-47285557D01*
X76640236Y-47192460D01*
X76401637Y-47145000D01*
X76158363Y-47145000D01*
X75919764Y-47192460D01*
X75695008Y-47285557D01*
X75492733Y-47420713D01*
X75320713Y-47592733D01*
X75185557Y-47795008D01*
X75092460Y-48019764D01*
X75045000Y-48258363D01*
X27330000Y-48258363D01*
X27330000Y-45110000D01*
X125070001Y-45110000D01*
X125070000Y-85700000D01*
%TA.AperFunction,Conductor*%
D21*
G36*
X125070000Y-85700000D02*
G01*
X76564932Y-85700000D01*
X76596363Y-85683200D01*
X76704475Y-85594475D01*
X76726712Y-85567379D01*
X77947385Y-84346707D01*
X77974475Y-84324475D01*
X78063200Y-84216363D01*
X78129128Y-84093020D01*
X78169727Y-83959184D01*
X78180000Y-83854877D01*
X78180000Y-83854876D01*
X78183435Y-83820001D01*
X78180000Y-83785126D01*
X78180000Y-80884042D01*
X111345000Y-80884042D01*
X111345000Y-81215958D01*
X111409754Y-81541496D01*
X111536772Y-81848147D01*
X111721175Y-82124125D01*
X111955875Y-82358825D01*
X112231853Y-82543228D01*
X112538504Y-82670246D01*
X112864042Y-82735000D01*
X113195958Y-82735000D01*
X113521496Y-82670246D01*
X113828147Y-82543228D01*
X114104125Y-82358825D01*
X114338825Y-82124125D01*
X114523228Y-81848147D01*
X114650246Y-81541496D01*
X114715000Y-81215958D01*
X114715000Y-80884042D01*
X114700454Y-80810912D01*
X115612500Y-80810912D01*
X115612500Y-81289088D01*
X115705787Y-81758076D01*
X115888777Y-82199853D01*
X116154437Y-82597441D01*
X116492559Y-82935563D01*
X116890147Y-83201223D01*
X117331924Y-83384213D01*
X117800912Y-83477500D01*
X118279088Y-83477500D01*
X118748076Y-83384213D01*
X119189853Y-83201223D01*
X119587441Y-82935563D01*
X119925563Y-82597441D01*
X120191223Y-82199853D01*
X120374213Y-81758076D01*
X120467500Y-81289088D01*
X120467500Y-80810912D01*
X120374213Y-80341924D01*
X120191223Y-79900147D01*
X119925563Y-79502559D01*
X119587441Y-79164437D01*
X119189853Y-78898777D01*
X118748076Y-78715787D01*
X118279088Y-78622500D01*
X117800912Y-78622500D01*
X117331924Y-78715787D01*
X116890147Y-78898777D01*
X116492559Y-79164437D01*
X116154437Y-79502559D01*
X115888777Y-79900147D01*
X115705787Y-80341924D01*
X115612500Y-80810912D01*
X114700454Y-80810912D01*
X114650246Y-80558504D01*
X114523228Y-80251853D01*
X114338825Y-79975875D01*
X114104125Y-79741175D01*
X113828147Y-79556772D01*
X113521496Y-79429754D01*
X113195958Y-79365000D01*
X112864042Y-79365000D01*
X112538504Y-79429754D01*
X112231853Y-79556772D01*
X111955875Y-79741175D01*
X111721175Y-79975875D01*
X111536772Y-80251853D01*
X111409754Y-80558504D01*
X111345000Y-80884042D01*
X78180000Y-80884042D01*
X78180000Y-76058665D01*
X78575000Y-76058665D01*
X78575000Y-76341335D01*
X78630147Y-76618574D01*
X78738320Y-76879727D01*
X78895363Y-77114759D01*
X79095241Y-77314637D01*
X79330273Y-77471680D01*
X79591426Y-77579853D01*
X79868665Y-77635000D01*
X80151335Y-77635000D01*
X80428574Y-77579853D01*
X80689727Y-77471680D01*
X80924759Y-77314637D01*
X81124637Y-77114759D01*
X81281680Y-76879727D01*
X81389853Y-76618574D01*
X81445000Y-76341335D01*
X81445000Y-76058665D01*
X81389853Y-75781426D01*
X81281680Y-75520273D01*
X81124637Y-75285241D01*
X80924759Y-75085363D01*
X80689727Y-74928320D01*
X80428574Y-74820147D01*
X80151335Y-74765000D01*
X79868665Y-74765000D01*
X79591426Y-74820147D01*
X79330273Y-74928320D01*
X79095241Y-75085363D01*
X78895363Y-75285241D01*
X78738320Y-75520273D01*
X78630147Y-75781426D01*
X78575000Y-76058665D01*
X78180000Y-76058665D01*
X78180000Y-70144091D01*
X78868915Y-69455177D01*
X78895363Y-69494759D01*
X79095241Y-69694637D01*
X79330273Y-69851680D01*
X79591426Y-69959853D01*
X79868665Y-70015000D01*
X80151335Y-70015000D01*
X80392865Y-69966956D01*
X82023292Y-71597384D01*
X82045525Y-71624475D01*
X82072615Y-71646707D01*
X82153635Y-71713199D01*
X82153637Y-71713200D01*
X82276980Y-71779128D01*
X82410816Y-71819727D01*
X82515123Y-71830000D01*
X82515124Y-71830000D01*
X82549999Y-71833435D01*
X82584874Y-71830000D01*
X83838548Y-71830000D01*
X83975363Y-72034759D01*
X84175241Y-72234637D01*
X84407759Y-72390000D01*
X84175241Y-72545363D01*
X83975363Y-72745241D01*
X83818320Y-72980273D01*
X83710147Y-73241426D01*
X83655000Y-73518665D01*
X83655000Y-73801335D01*
X83710147Y-74078574D01*
X83818320Y-74339727D01*
X83975363Y-74574759D01*
X84175241Y-74774637D01*
X84407759Y-74930000D01*
X84175241Y-75085363D01*
X83975363Y-75285241D01*
X83818320Y-75520273D01*
X83710147Y-75781426D01*
X83655000Y-76058665D01*
X83655000Y-76341335D01*
X83710147Y-76618574D01*
X83818320Y-76879727D01*
X83975363Y-77114759D01*
X84175241Y-77314637D01*
X84410273Y-77471680D01*
X84671426Y-77579853D01*
X84948665Y-77635000D01*
X85231335Y-77635000D01*
X85508574Y-77579853D01*
X85769727Y-77471680D01*
X86004759Y-77314637D01*
X86204637Y-77114759D01*
X86361680Y-76879727D01*
X86469853Y-76618574D01*
X86525000Y-76341335D01*
X86525000Y-76058665D01*
X86469853Y-75781426D01*
X86361680Y-75520273D01*
X86281317Y-75400000D01*
X91271928Y-75400000D01*
X91271928Y-77000000D01*
X91284188Y-77124482D01*
X91320498Y-77244180D01*
X91379463Y-77354494D01*
X91458815Y-77451185D01*
X91555506Y-77530537D01*
X91665820Y-77589502D01*
X91785518Y-77625812D01*
X91910000Y-77638072D01*
X93510000Y-77638072D01*
X93634482Y-77625812D01*
X93754180Y-77589502D01*
X93864494Y-77530537D01*
X93961185Y-77451185D01*
X94040537Y-77354494D01*
X94099502Y-77244180D01*
X94135812Y-77124482D01*
X94148072Y-77000000D01*
X94148072Y-76058665D01*
X96355000Y-76058665D01*
X96355000Y-76341335D01*
X96410147Y-76618574D01*
X96518320Y-76879727D01*
X96675363Y-77114759D01*
X96875241Y-77314637D01*
X97110273Y-77471680D01*
X97371426Y-77579853D01*
X97648665Y-77635000D01*
X97931335Y-77635000D01*
X98172865Y-77586956D01*
X99613288Y-79027379D01*
X99635525Y-79054475D01*
X99743637Y-79143200D01*
X99866980Y-79209128D01*
X100000816Y-79249727D01*
X100105123Y-79260000D01*
X100105125Y-79260000D01*
X100140000Y-79263435D01*
X100174875Y-79260000D01*
X109010261Y-79260000D01*
X109046772Y-79348147D01*
X109231175Y-79624125D01*
X109465875Y-79858825D01*
X109741853Y-80043228D01*
X110048504Y-80170246D01*
X110374042Y-80235000D01*
X110705958Y-80235000D01*
X111031496Y-80170246D01*
X111338147Y-80043228D01*
X111614125Y-79858825D01*
X111848825Y-79624125D01*
X112033228Y-79348147D01*
X112160246Y-79041496D01*
X112225000Y-78715958D01*
X112225000Y-78384042D01*
X112160246Y-78058504D01*
X112033228Y-77751853D01*
X111848825Y-77475875D01*
X111614125Y-77241175D01*
X111338147Y-77056772D01*
X111031496Y-76929754D01*
X110705958Y-76865000D01*
X110374042Y-76865000D01*
X110048504Y-76929754D01*
X109741853Y-77056772D01*
X109465875Y-77241175D01*
X109231175Y-77475875D01*
X109046772Y-77751853D01*
X109010261Y-77840000D01*
X100434091Y-77840000D01*
X99176956Y-76582865D01*
X99225000Y-76341335D01*
X99225000Y-76058665D01*
X101435000Y-76058665D01*
X101435000Y-76341335D01*
X101490147Y-76618574D01*
X101598320Y-76879727D01*
X101755363Y-77114759D01*
X101955241Y-77314637D01*
X102190273Y-77471680D01*
X102451426Y-77579853D01*
X102728665Y-77635000D01*
X103011335Y-77635000D01*
X103288574Y-77579853D01*
X103549727Y-77471680D01*
X103784759Y-77314637D01*
X103984637Y-77114759D01*
X104141680Y-76879727D01*
X104249853Y-76618574D01*
X104305000Y-76341335D01*
X104305000Y-76058665D01*
X104269271Y-75879042D01*
X121355000Y-75879042D01*
X121355000Y-76210958D01*
X121419754Y-76536496D01*
X121546772Y-76843147D01*
X121731175Y-77119125D01*
X121965875Y-77353825D01*
X122241853Y-77538228D01*
X122548504Y-77665246D01*
X122874042Y-77730000D01*
X123205958Y-77730000D01*
X123531496Y-77665246D01*
X123838147Y-77538228D01*
X124114125Y-77353825D01*
X124348825Y-77119125D01*
X124533228Y-76843147D01*
X124660246Y-76536496D01*
X124725000Y-76210958D01*
X124725000Y-75879042D01*
X124660246Y-75553504D01*
X124533228Y-75246853D01*
X124348825Y-74970875D01*
X124114125Y-74736175D01*
X123838147Y-74551772D01*
X123531496Y-74424754D01*
X123205958Y-74360000D01*
X122874042Y-74360000D01*
X122548504Y-74424754D01*
X122241853Y-74551772D01*
X121965875Y-74736175D01*
X121731175Y-74970875D01*
X121546772Y-75246853D01*
X121419754Y-75553504D01*
X121355000Y-75879042D01*
X104269271Y-75879042D01*
X104256956Y-75817135D01*
X106695049Y-73379042D01*
X111345000Y-73379042D01*
X111345000Y-73710958D01*
X111409754Y-74036496D01*
X111536772Y-74343147D01*
X111721175Y-74619125D01*
X111955875Y-74853825D01*
X112231853Y-75038228D01*
X112538504Y-75165246D01*
X112864042Y-75230000D01*
X113195958Y-75230000D01*
X113521496Y-75165246D01*
X113828147Y-75038228D01*
X114104125Y-74853825D01*
X114338825Y-74619125D01*
X114523228Y-74343147D01*
X114650246Y-74036496D01*
X114715000Y-73710958D01*
X114715000Y-73379042D01*
X114650246Y-73053504D01*
X114523228Y-72746853D01*
X114338825Y-72470875D01*
X114104125Y-72236175D01*
X113828147Y-72051772D01*
X113521496Y-71924754D01*
X113195958Y-71860000D01*
X112864042Y-71860000D01*
X112538504Y-71924754D01*
X112231853Y-72051772D01*
X111955875Y-72236175D01*
X111721175Y-72470875D01*
X111536772Y-72746853D01*
X111409754Y-73053504D01*
X111345000Y-73379042D01*
X106695049Y-73379042D01*
X109195049Y-70879042D01*
X121355000Y-70879042D01*
X121355000Y-71210958D01*
X121419754Y-71536496D01*
X121546772Y-71843147D01*
X121731175Y-72119125D01*
X121965875Y-72353825D01*
X122241853Y-72538228D01*
X122548504Y-72665246D01*
X122874042Y-72730000D01*
X123205958Y-72730000D01*
X123531496Y-72665246D01*
X123838147Y-72538228D01*
X124114125Y-72353825D01*
X124348825Y-72119125D01*
X124533228Y-71843147D01*
X124660246Y-71536496D01*
X124725000Y-71210958D01*
X124725000Y-70879042D01*
X124660246Y-70553504D01*
X124533228Y-70246853D01*
X124348825Y-69970875D01*
X124114125Y-69736175D01*
X123838147Y-69551772D01*
X123531496Y-69424754D01*
X123205958Y-69360000D01*
X122874042Y-69360000D01*
X122548504Y-69424754D01*
X122241853Y-69551772D01*
X121965875Y-69736175D01*
X121731175Y-69970875D01*
X121546772Y-70246853D01*
X121419754Y-70553504D01*
X121355000Y-70879042D01*
X109195049Y-70879042D01*
X109953285Y-70120806D01*
X110048504Y-70160246D01*
X110374042Y-70225000D01*
X110705958Y-70225000D01*
X111031496Y-70160246D01*
X111338147Y-70033228D01*
X111614125Y-69848825D01*
X111848825Y-69614125D01*
X112033228Y-69338147D01*
X112160246Y-69031496D01*
X112225000Y-68705958D01*
X112225000Y-68374042D01*
X112160246Y-68048504D01*
X112033228Y-67741853D01*
X111848825Y-67465875D01*
X111614125Y-67231175D01*
X111338147Y-67046772D01*
X111031496Y-66919754D01*
X110705958Y-66855000D01*
X110374042Y-66855000D01*
X110048504Y-66919754D01*
X109741853Y-67046772D01*
X109465875Y-67231175D01*
X109231175Y-67465875D01*
X109046772Y-67741853D01*
X108919754Y-68048504D01*
X108855000Y-68374042D01*
X108855000Y-68705958D01*
X108919754Y-69031496D01*
X108953337Y-69112572D01*
X103252865Y-74813044D01*
X103011335Y-74765000D01*
X102728665Y-74765000D01*
X102451426Y-74820147D01*
X102190273Y-74928320D01*
X101955241Y-75085363D01*
X101755363Y-75285241D01*
X101598320Y-75520273D01*
X101490147Y-75781426D01*
X101435000Y-76058665D01*
X99225000Y-76058665D01*
X99169853Y-75781426D01*
X99061680Y-75520273D01*
X98904637Y-75285241D01*
X98704759Y-75085363D01*
X98469727Y-74928320D01*
X98208574Y-74820147D01*
X97931335Y-74765000D01*
X97648665Y-74765000D01*
X97371426Y-74820147D01*
X97110273Y-74928320D01*
X96875241Y-75085363D01*
X96675363Y-75285241D01*
X96518320Y-75520273D01*
X96410147Y-75781426D01*
X96355000Y-76058665D01*
X94148072Y-76058665D01*
X94148072Y-75400000D01*
X94135812Y-75275518D01*
X94099502Y-75155820D01*
X94040537Y-75045506D01*
X93961185Y-74948815D01*
X93864494Y-74869463D01*
X93754180Y-74810498D01*
X93634482Y-74774188D01*
X93626039Y-74773357D01*
X93824637Y-74574759D01*
X93981680Y-74339727D01*
X94089853Y-74078574D01*
X94145000Y-73801335D01*
X94145000Y-73518665D01*
X94096956Y-73277135D01*
X97356019Y-70018072D01*
X98590000Y-70018072D01*
X98714482Y-70005812D01*
X98834180Y-69969502D01*
X98944494Y-69910537D01*
X99041185Y-69831185D01*
X99120537Y-69734494D01*
X99179502Y-69624180D01*
X99215812Y-69504482D01*
X99228072Y-69380000D01*
X99228072Y-69290000D01*
X101618548Y-69290000D01*
X101755363Y-69494759D01*
X101955241Y-69694637D01*
X102190273Y-69851680D01*
X102451426Y-69959853D01*
X102728665Y-70015000D01*
X103011335Y-70015000D01*
X103288574Y-69959853D01*
X103549727Y-69851680D01*
X103784759Y-69694637D01*
X103984637Y-69494759D01*
X104141680Y-69259727D01*
X104249853Y-68998574D01*
X104305000Y-68721335D01*
X104305000Y-68438665D01*
X104249853Y-68161426D01*
X104141680Y-67900273D01*
X103984637Y-67665241D01*
X103784759Y-67465363D01*
X103549727Y-67308320D01*
X103288574Y-67200147D01*
X103011335Y-67145000D01*
X102728665Y-67145000D01*
X102451426Y-67200147D01*
X102190273Y-67308320D01*
X101955241Y-67465363D01*
X101755363Y-67665241D01*
X101618548Y-67870000D01*
X99228072Y-67870000D01*
X99228072Y-67780000D01*
X99215812Y-67655518D01*
X99179502Y-67535820D01*
X99120537Y-67425506D01*
X99041185Y-67328815D01*
X98944494Y-67249463D01*
X98834180Y-67190498D01*
X98714482Y-67154188D01*
X98590000Y-67141928D01*
X96990000Y-67141928D01*
X96865518Y-67154188D01*
X96745820Y-67190498D01*
X96635506Y-67249463D01*
X96538815Y-67328815D01*
X96459463Y-67425506D01*
X96400498Y-67535820D01*
X96364188Y-67655518D01*
X96351928Y-67780000D01*
X96351928Y-69013981D01*
X94145000Y-71220909D01*
X94145000Y-70978665D01*
X94089853Y-70701426D01*
X93981680Y-70440273D01*
X93824637Y-70205241D01*
X93624759Y-70005363D01*
X93392241Y-69850000D01*
X93624759Y-69694637D01*
X93824637Y-69494759D01*
X93981680Y-69259727D01*
X94089853Y-68998574D01*
X94145000Y-68721335D01*
X94145000Y-68438665D01*
X94089853Y-68161426D01*
X93981680Y-67900273D01*
X93824637Y-67665241D01*
X93624759Y-67465363D01*
X93389727Y-67308320D01*
X93128574Y-67200147D01*
X92851335Y-67145000D01*
X92568665Y-67145000D01*
X92291426Y-67200147D01*
X92030273Y-67308320D01*
X91795241Y-67465363D01*
X91595363Y-67665241D01*
X91438320Y-67900273D01*
X91330147Y-68161426D01*
X91275000Y-68438665D01*
X91275000Y-68721335D01*
X91330147Y-68998574D01*
X91438320Y-69259727D01*
X91595363Y-69494759D01*
X91795241Y-69694637D01*
X92027759Y-69850000D01*
X91795241Y-70005363D01*
X91595363Y-70205241D01*
X91438320Y-70440273D01*
X91330147Y-70701426D01*
X91275000Y-70978665D01*
X91275000Y-71261335D01*
X91330147Y-71538574D01*
X91438320Y-71799727D01*
X91595363Y-72034759D01*
X91795241Y-72234637D01*
X92027759Y-72390000D01*
X91795241Y-72545363D01*
X91595363Y-72745241D01*
X91438320Y-72980273D01*
X91330147Y-73241426D01*
X91275000Y-73518665D01*
X91275000Y-73801335D01*
X91330147Y-74078574D01*
X91438320Y-74339727D01*
X91595363Y-74574759D01*
X91793961Y-74773357D01*
X91785518Y-74774188D01*
X91665820Y-74810498D01*
X91555506Y-74869463D01*
X91458815Y-74948815D01*
X91379463Y-75045506D01*
X91320498Y-75155820D01*
X91284188Y-75275518D01*
X91271928Y-75400000D01*
X86281317Y-75400000D01*
X86204637Y-75285241D01*
X86004759Y-75085363D01*
X85772241Y-74930000D01*
X86004759Y-74774637D01*
X86204637Y-74574759D01*
X86361680Y-74339727D01*
X86469853Y-74078574D01*
X86525000Y-73801335D01*
X86525000Y-73518665D01*
X86469853Y-73241426D01*
X86361680Y-72980273D01*
X86204637Y-72745241D01*
X86004759Y-72545363D01*
X85772241Y-72390000D01*
X86004759Y-72234637D01*
X86204637Y-72034759D01*
X86361680Y-71799727D01*
X86469853Y-71538574D01*
X86525000Y-71261335D01*
X86525000Y-70978665D01*
X86469853Y-70701426D01*
X86361680Y-70440273D01*
X86204637Y-70205241D01*
X86004759Y-70005363D01*
X85770872Y-69849085D01*
X85831514Y-69816671D01*
X85903097Y-69572702D01*
X85090000Y-68759605D01*
X84276903Y-69572702D01*
X84348486Y-69816671D01*
X84412992Y-69847194D01*
X84410273Y-69848320D01*
X84175241Y-70005363D01*
X83975363Y-70205241D01*
X83838548Y-70410000D01*
X82844092Y-70410000D01*
X81396956Y-68962865D01*
X81445000Y-68721335D01*
X81445000Y-68650512D01*
X83649783Y-68650512D01*
X83691213Y-68930130D01*
X83786397Y-69196292D01*
X83853329Y-69321514D01*
X84097298Y-69393097D01*
X84910395Y-68580000D01*
X85269605Y-68580000D01*
X86082702Y-69393097D01*
X86326671Y-69321514D01*
X86447571Y-69066004D01*
X86516300Y-68791816D01*
X86530217Y-68509488D01*
X86488787Y-68229870D01*
X86393603Y-67963708D01*
X86326671Y-67838486D01*
X86082702Y-67766903D01*
X85269605Y-68580000D01*
X84910395Y-68580000D01*
X84097298Y-67766903D01*
X83853329Y-67838486D01*
X83732429Y-68093996D01*
X83663700Y-68368184D01*
X83649783Y-68650512D01*
X81445000Y-68650512D01*
X81445000Y-68438665D01*
X81389853Y-68161426D01*
X81281680Y-67900273D01*
X81124637Y-67665241D01*
X81046694Y-67587298D01*
X84276903Y-67587298D01*
X85090000Y-68400395D01*
X85903097Y-67587298D01*
X85831514Y-67343329D01*
X85576004Y-67222429D01*
X85301816Y-67153700D01*
X85019488Y-67139783D01*
X84739870Y-67181213D01*
X84473708Y-67276397D01*
X84348486Y-67343329D01*
X84276903Y-67587298D01*
X81046694Y-67587298D01*
X80924759Y-67465363D01*
X80689727Y-67308320D01*
X80428574Y-67200147D01*
X80151335Y-67145000D01*
X79868665Y-67145000D01*
X79591426Y-67200147D01*
X79330273Y-67308320D01*
X79095241Y-67465363D01*
X78895363Y-67665241D01*
X78759556Y-67868491D01*
X78739999Y-67866565D01*
X78705124Y-67870000D01*
X78705123Y-67870000D01*
X78600816Y-67880273D01*
X78466980Y-67920872D01*
X78343637Y-67986800D01*
X78235525Y-68075525D01*
X78213292Y-68102616D01*
X76992617Y-69323292D01*
X76965525Y-69345526D01*
X76876800Y-69453638D01*
X76810872Y-69576981D01*
X76770273Y-69710817D01*
X76760000Y-69815123D01*
X76756565Y-69850000D01*
X76760000Y-69884875D01*
X76760001Y-83525907D01*
X75905909Y-84380000D01*
X67746817Y-84380000D01*
X67814475Y-84324475D01*
X67836712Y-84297379D01*
X71597383Y-80536708D01*
X71624474Y-80514475D01*
X71713200Y-80406363D01*
X71779128Y-80283020D01*
X71819727Y-80149184D01*
X71830000Y-80044877D01*
X71830000Y-80044875D01*
X71833435Y-80010000D01*
X71830000Y-79975125D01*
X71830000Y-72684091D01*
X72684092Y-71830000D01*
X73678548Y-71830000D01*
X73815363Y-72034759D01*
X74015241Y-72234637D01*
X74247759Y-72390000D01*
X74015241Y-72545363D01*
X73815363Y-72745241D01*
X73658320Y-72980273D01*
X73550147Y-73241426D01*
X73495000Y-73518665D01*
X73495000Y-73801335D01*
X73550147Y-74078574D01*
X73658320Y-74339727D01*
X73815363Y-74574759D01*
X74015241Y-74774637D01*
X74247759Y-74930000D01*
X74015241Y-75085363D01*
X73815363Y-75285241D01*
X73658320Y-75520273D01*
X73550147Y-75781426D01*
X73495000Y-76058665D01*
X73495000Y-76341335D01*
X73550147Y-76618574D01*
X73658320Y-76879727D01*
X73815363Y-77114759D01*
X74015241Y-77314637D01*
X74247759Y-77470000D01*
X74015241Y-77625363D01*
X73815363Y-77825241D01*
X73658320Y-78060273D01*
X73550147Y-78321426D01*
X73495000Y-78598665D01*
X73495000Y-78881335D01*
X73550147Y-79158574D01*
X73658320Y-79419727D01*
X73815363Y-79654759D01*
X74013961Y-79853357D01*
X74005518Y-79854188D01*
X73885820Y-79890498D01*
X73775506Y-79949463D01*
X73678815Y-80028815D01*
X73599463Y-80125506D01*
X73540498Y-80235820D01*
X73504188Y-80355518D01*
X73491928Y-80480000D01*
X73491928Y-82080000D01*
X73504188Y-82204482D01*
X73540498Y-82324180D01*
X73599463Y-82434494D01*
X73678815Y-82531185D01*
X73775506Y-82610537D01*
X73885820Y-82669502D01*
X74005518Y-82705812D01*
X74130000Y-82718072D01*
X75730000Y-82718072D01*
X75854482Y-82705812D01*
X75974180Y-82669502D01*
X76084494Y-82610537D01*
X76181185Y-82531185D01*
X76260537Y-82434494D01*
X76319502Y-82324180D01*
X76355812Y-82204482D01*
X76368072Y-82080000D01*
X76368072Y-80480000D01*
X76355812Y-80355518D01*
X76319502Y-80235820D01*
X76260537Y-80125506D01*
X76181185Y-80028815D01*
X76084494Y-79949463D01*
X75974180Y-79890498D01*
X75854482Y-79854188D01*
X75846039Y-79853357D01*
X76044637Y-79654759D01*
X76201680Y-79419727D01*
X76309853Y-79158574D01*
X76365000Y-78881335D01*
X76365000Y-78598665D01*
X76309853Y-78321426D01*
X76201680Y-78060273D01*
X76044637Y-77825241D01*
X75844759Y-77625363D01*
X75612241Y-77470000D01*
X75844759Y-77314637D01*
X76044637Y-77114759D01*
X76201680Y-76879727D01*
X76309853Y-76618574D01*
X76365000Y-76341335D01*
X76365000Y-76058665D01*
X76309853Y-75781426D01*
X76201680Y-75520273D01*
X76044637Y-75285241D01*
X75844759Y-75085363D01*
X75612241Y-74930000D01*
X75844759Y-74774637D01*
X76044637Y-74574759D01*
X76201680Y-74339727D01*
X76309853Y-74078574D01*
X76365000Y-73801335D01*
X76365000Y-73518665D01*
X76309853Y-73241426D01*
X76201680Y-72980273D01*
X76044637Y-72745241D01*
X75844759Y-72545363D01*
X75612241Y-72390000D01*
X75844759Y-72234637D01*
X76044637Y-72034759D01*
X76201680Y-71799727D01*
X76309853Y-71538574D01*
X76365000Y-71261335D01*
X76365000Y-70978665D01*
X76309853Y-70701426D01*
X76201680Y-70440273D01*
X76044637Y-70205241D01*
X75844759Y-70005363D01*
X75612241Y-69850000D01*
X75844759Y-69694637D01*
X76044637Y-69494759D01*
X76201680Y-69259727D01*
X76309853Y-68998574D01*
X76365000Y-68721335D01*
X76365000Y-68438665D01*
X76309853Y-68161426D01*
X76201680Y-67900273D01*
X76044637Y-67665241D01*
X75844759Y-67465363D01*
X75612241Y-67310000D01*
X75844759Y-67154637D01*
X76044637Y-66954759D01*
X76201680Y-66719727D01*
X76309853Y-66458574D01*
X76365000Y-66181335D01*
X76365000Y-65898665D01*
X76360103Y-65874042D01*
X111345000Y-65874042D01*
X111345000Y-66205958D01*
X111409754Y-66531496D01*
X111536772Y-66838147D01*
X111721175Y-67114125D01*
X111955875Y-67348825D01*
X112231853Y-67533228D01*
X112538504Y-67660246D01*
X112864042Y-67725000D01*
X113195958Y-67725000D01*
X113521496Y-67660246D01*
X113828147Y-67533228D01*
X114104125Y-67348825D01*
X114338825Y-67114125D01*
X114523228Y-66838147D01*
X114650246Y-66531496D01*
X114715000Y-66205958D01*
X114715000Y-65874042D01*
X114700454Y-65800912D01*
X115612500Y-65800912D01*
X115612500Y-66279088D01*
X115705787Y-66748076D01*
X115888777Y-67189853D01*
X116154437Y-67587441D01*
X116492559Y-67925563D01*
X116890147Y-68191223D01*
X117331924Y-68374213D01*
X117800912Y-68467500D01*
X118279088Y-68467500D01*
X118748076Y-68374213D01*
X119189853Y-68191223D01*
X119587441Y-67925563D01*
X119925563Y-67587441D01*
X120191223Y-67189853D01*
X120374213Y-66748076D01*
X120467500Y-66279088D01*
X120467500Y-65800912D01*
X120374213Y-65331924D01*
X120191223Y-64890147D01*
X119925563Y-64492559D01*
X119587441Y-64154437D01*
X119189853Y-63888777D01*
X118748076Y-63705787D01*
X118279088Y-63612500D01*
X117800912Y-63612500D01*
X117331924Y-63705787D01*
X116890147Y-63888777D01*
X116492559Y-64154437D01*
X116154437Y-64492559D01*
X115888777Y-64890147D01*
X115705787Y-65331924D01*
X115612500Y-65800912D01*
X114700454Y-65800912D01*
X114650246Y-65548504D01*
X114523228Y-65241853D01*
X114338825Y-64965875D01*
X114104125Y-64731175D01*
X113828147Y-64546772D01*
X113521496Y-64419754D01*
X113195958Y-64355000D01*
X112864042Y-64355000D01*
X112538504Y-64419754D01*
X112231853Y-64546772D01*
X111955875Y-64731175D01*
X111721175Y-64965875D01*
X111536772Y-65241853D01*
X111409754Y-65548504D01*
X111345000Y-65874042D01*
X76360103Y-65874042D01*
X76309853Y-65621426D01*
X76201680Y-65360273D01*
X76044637Y-65125241D01*
X75844759Y-64925363D01*
X75609727Y-64768320D01*
X75348574Y-64660147D01*
X75071335Y-64605000D01*
X74788665Y-64605000D01*
X74511426Y-64660147D01*
X74250273Y-64768320D01*
X74015241Y-64925363D01*
X73815363Y-65125241D01*
X73658320Y-65360273D01*
X73550147Y-65621426D01*
X73495000Y-65898665D01*
X73495000Y-66181335D01*
X73550147Y-66458574D01*
X73658320Y-66719727D01*
X73815363Y-66954759D01*
X74015241Y-67154637D01*
X74247759Y-67310000D01*
X74015241Y-67465363D01*
X73815363Y-67665241D01*
X73658320Y-67900273D01*
X73550147Y-68161426D01*
X73495000Y-68438665D01*
X73495000Y-68721335D01*
X73550147Y-68998574D01*
X73658320Y-69259727D01*
X73815363Y-69494759D01*
X74015241Y-69694637D01*
X74247759Y-69850000D01*
X74015241Y-70005363D01*
X73815363Y-70205241D01*
X73678548Y-70410000D01*
X72424874Y-70410000D01*
X72389999Y-70406565D01*
X72355124Y-70410000D01*
X72355123Y-70410000D01*
X72250816Y-70420273D01*
X72116980Y-70460872D01*
X71993637Y-70526800D01*
X71885525Y-70615525D01*
X71863293Y-70642615D01*
X70642617Y-71863292D01*
X70615526Y-71885525D01*
X70593293Y-71912616D01*
X70526801Y-71993637D01*
X70460872Y-72116981D01*
X70420274Y-72250816D01*
X70406565Y-72390000D01*
X70410001Y-72424885D01*
X70410000Y-79715909D01*
X68745000Y-81380909D01*
X68745000Y-81138665D01*
X68689853Y-80861426D01*
X68581680Y-80600273D01*
X68424637Y-80365241D01*
X68224759Y-80165363D01*
X67992241Y-80010000D01*
X68224759Y-79854637D01*
X68424637Y-79654759D01*
X68581680Y-79419727D01*
X68689853Y-79158574D01*
X68745000Y-78881335D01*
X68745000Y-78598665D01*
X68689853Y-78321426D01*
X68581680Y-78060273D01*
X68424637Y-77825241D01*
X68224759Y-77625363D01*
X67990872Y-77469085D01*
X68051514Y-77436671D01*
X68123097Y-77192702D01*
X67310000Y-76379605D01*
X66496903Y-77192702D01*
X66568486Y-77436671D01*
X66632992Y-77467194D01*
X66630273Y-77468320D01*
X66395241Y-77625363D01*
X66195363Y-77825241D01*
X66038320Y-78060273D01*
X65930147Y-78321426D01*
X65875000Y-78598665D01*
X65875000Y-78881335D01*
X65930147Y-79158574D01*
X66038320Y-79419727D01*
X66195363Y-79654759D01*
X66395241Y-79854637D01*
X66627759Y-80010000D01*
X66395241Y-80165363D01*
X66195363Y-80365241D01*
X66168915Y-80404823D01*
X65480000Y-79715909D01*
X65480000Y-76270512D01*
X65869783Y-76270512D01*
X65911213Y-76550130D01*
X66006397Y-76816292D01*
X66073329Y-76941514D01*
X66317298Y-77013097D01*
X67130395Y-76200000D01*
X67489605Y-76200000D01*
X68302702Y-77013097D01*
X68546671Y-76941514D01*
X68667571Y-76686004D01*
X68736300Y-76411816D01*
X68750217Y-76129488D01*
X68708787Y-75849870D01*
X68613603Y-75583708D01*
X68546671Y-75458486D01*
X68302702Y-75386903D01*
X67489605Y-76200000D01*
X67130395Y-76200000D01*
X66317298Y-75386903D01*
X66073329Y-75458486D01*
X65952429Y-75713996D01*
X65883700Y-75988184D01*
X65869783Y-76270512D01*
X65480000Y-76270512D01*
X65480000Y-66110512D01*
X65869783Y-66110512D01*
X65911213Y-66390130D01*
X66006397Y-66656292D01*
X66073329Y-66781514D01*
X66317298Y-66853097D01*
X67130395Y-66040000D01*
X67489605Y-66040000D01*
X68302702Y-66853097D01*
X68546671Y-66781514D01*
X68667571Y-66526004D01*
X68736300Y-66251816D01*
X68750217Y-65969488D01*
X68708787Y-65689870D01*
X68613603Y-65423708D01*
X68546671Y-65298486D01*
X68302702Y-65226903D01*
X67489605Y-66040000D01*
X67130395Y-66040000D01*
X66317298Y-65226903D01*
X66073329Y-65298486D01*
X65952429Y-65553996D01*
X65883700Y-65828184D01*
X65869783Y-66110512D01*
X65480000Y-66110512D01*
X65480000Y-65047298D01*
X66496903Y-65047298D01*
X67310000Y-65860395D01*
X68123097Y-65047298D01*
X68051514Y-64803329D01*
X67796004Y-64682429D01*
X67521816Y-64613700D01*
X67239488Y-64599783D01*
X66959870Y-64641213D01*
X66693708Y-64736397D01*
X66568486Y-64803329D01*
X66496903Y-65047298D01*
X65480000Y-65047298D01*
X65480000Y-62524091D01*
X67604092Y-60400000D01*
X73223183Y-60400000D01*
X73155525Y-60455525D01*
X73133292Y-60482616D01*
X71912617Y-61703292D01*
X71885526Y-61725525D01*
X71863293Y-61752616D01*
X71796801Y-61833637D01*
X71730872Y-61956981D01*
X71690274Y-62090816D01*
X71676565Y-62230000D01*
X71680001Y-62264885D01*
X71680000Y-67015909D01*
X68451085Y-70244824D01*
X68424637Y-70205241D01*
X68224759Y-70005363D01*
X67992241Y-69850000D01*
X68224759Y-69694637D01*
X68424637Y-69494759D01*
X68581680Y-69259727D01*
X68689853Y-68998574D01*
X68745000Y-68721335D01*
X68745000Y-68438665D01*
X68689853Y-68161426D01*
X68581680Y-67900273D01*
X68424637Y-67665241D01*
X68224759Y-67465363D01*
X67990872Y-67309085D01*
X68051514Y-67276671D01*
X68123097Y-67032702D01*
X67310000Y-66219605D01*
X66496903Y-67032702D01*
X66568486Y-67276671D01*
X66632992Y-67307194D01*
X66630273Y-67308320D01*
X66395241Y-67465363D01*
X66195363Y-67665241D01*
X66038320Y-67900273D01*
X65930147Y-68161426D01*
X65875000Y-68438665D01*
X65875000Y-68721335D01*
X65930147Y-68998574D01*
X66038320Y-69259727D01*
X66195363Y-69494759D01*
X66395241Y-69694637D01*
X66627759Y-69850000D01*
X66395241Y-70005363D01*
X66195363Y-70205241D01*
X66038320Y-70440273D01*
X65930147Y-70701426D01*
X65875000Y-70978665D01*
X65875000Y-71261335D01*
X65930147Y-71538574D01*
X66038320Y-71799727D01*
X66195363Y-72034759D01*
X66395241Y-72234637D01*
X66627759Y-72390000D01*
X66395241Y-72545363D01*
X66195363Y-72745241D01*
X66038320Y-72980273D01*
X65930147Y-73241426D01*
X65875000Y-73518665D01*
X65875000Y-73801335D01*
X65930147Y-74078574D01*
X66038320Y-74339727D01*
X66195363Y-74574759D01*
X66395241Y-74774637D01*
X66629128Y-74930915D01*
X66568486Y-74963329D01*
X66496903Y-75207298D01*
X67310000Y-76020395D01*
X68123097Y-75207298D01*
X68051514Y-74963329D01*
X67987008Y-74932806D01*
X67989727Y-74931680D01*
X68224759Y-74774637D01*
X68424637Y-74574759D01*
X68581680Y-74339727D01*
X68689853Y-74078574D01*
X68745000Y-73801335D01*
X68745000Y-73518665D01*
X68689853Y-73241426D01*
X68581680Y-72980273D01*
X68424637Y-72745241D01*
X68224759Y-72545363D01*
X67992241Y-72390000D01*
X68224759Y-72234637D01*
X68424637Y-72034759D01*
X68560444Y-71831509D01*
X68580000Y-71833435D01*
X68614875Y-71830000D01*
X68614877Y-71830000D01*
X68719184Y-71819727D01*
X68853020Y-71779128D01*
X68976363Y-71713200D01*
X69084475Y-71624475D01*
X69106712Y-71597379D01*
X72867383Y-67836708D01*
X72894474Y-67814475D01*
X72983200Y-67706363D01*
X73049128Y-67583020D01*
X73089727Y-67449184D01*
X73100000Y-67344877D01*
X73100000Y-67344875D01*
X73103435Y-67310000D01*
X73100000Y-67275125D01*
X73100000Y-63279872D01*
X101905000Y-63279872D01*
X101905000Y-63720128D01*
X101990890Y-64151925D01*
X102159369Y-64558669D01*
X102403962Y-64924729D01*
X102715271Y-65236038D01*
X103081331Y-65480631D01*
X103488075Y-65649110D01*
X103919872Y-65735000D01*
X104360128Y-65735000D01*
X104791925Y-65649110D01*
X105198669Y-65480631D01*
X105564729Y-65236038D01*
X105876038Y-64924729D01*
X106120631Y-64558669D01*
X106289110Y-64151925D01*
X106375000Y-63720128D01*
X106375000Y-63279872D01*
X106289110Y-62848075D01*
X106120631Y-62441331D01*
X105876038Y-62075271D01*
X105564729Y-61763962D01*
X105198669Y-61519369D01*
X104791925Y-61350890D01*
X104360128Y-61265000D01*
X103919872Y-61265000D01*
X103488075Y-61350890D01*
X103081331Y-61519369D01*
X102715271Y-61763962D01*
X102403962Y-62075271D01*
X102159369Y-62441331D01*
X101990890Y-62848075D01*
X101905000Y-63279872D01*
X73100000Y-63279872D01*
X73100000Y-62524091D01*
X73954092Y-61670000D01*
X101645125Y-61670000D01*
X101680000Y-61673435D01*
X101714875Y-61670000D01*
X101714877Y-61670000D01*
X101819184Y-61659727D01*
X101953020Y-61619128D01*
X102076363Y-61553200D01*
X102184475Y-61464475D01*
X102206712Y-61437379D01*
X103054091Y-60590000D01*
X119111928Y-60590000D01*
X119124188Y-60714482D01*
X119160498Y-60834180D01*
X119219463Y-60944494D01*
X119298815Y-61041185D01*
X119395506Y-61120537D01*
X119505820Y-61179502D01*
X119625518Y-61215812D01*
X119750000Y-61228072D01*
X120364250Y-61225000D01*
X120523000Y-61066250D01*
X120523000Y-59817000D01*
X119273750Y-59817000D01*
X119115000Y-59975750D01*
X119111928Y-60590000D01*
X103054091Y-60590000D01*
X104854091Y-58790000D01*
X119111928Y-58790000D01*
X119115000Y-59404250D01*
X119273750Y-59563000D01*
X120523000Y-59563000D01*
X120523000Y-58313750D01*
X120777000Y-58313750D01*
X120777000Y-59563000D01*
X120797000Y-59563000D01*
X120797000Y-59817000D01*
X120777000Y-59817000D01*
X120777000Y-61066250D01*
X120935750Y-61225000D01*
X121550000Y-61228072D01*
X121674482Y-61215812D01*
X121794180Y-61179502D01*
X121904494Y-61120537D01*
X122001185Y-61041185D01*
X122080537Y-60944494D01*
X122139502Y-60834180D01*
X122145056Y-60815873D01*
X122211495Y-60882312D01*
X122462905Y-61050299D01*
X122742257Y-61166011D01*
X123038816Y-61225000D01*
X123341184Y-61225000D01*
X123637743Y-61166011D01*
X123917095Y-61050299D01*
X124168505Y-60882312D01*
X124382312Y-60668505D01*
X124550299Y-60417095D01*
X124666011Y-60137743D01*
X124725000Y-59841184D01*
X124725000Y-59538816D01*
X124666011Y-59242257D01*
X124550299Y-58962905D01*
X124382312Y-58711495D01*
X124168505Y-58497688D01*
X123917095Y-58329701D01*
X123637743Y-58213989D01*
X123341184Y-58155000D01*
X123038816Y-58155000D01*
X122742257Y-58213989D01*
X122462905Y-58329701D01*
X122211495Y-58497688D01*
X122145056Y-58564127D01*
X122139502Y-58545820D01*
X122080537Y-58435506D01*
X122001185Y-58338815D01*
X121904494Y-58259463D01*
X121794180Y-58200498D01*
X121674482Y-58164188D01*
X121550000Y-58151928D01*
X120935750Y-58155000D01*
X120777000Y-58313750D01*
X120523000Y-58313750D01*
X120364250Y-58155000D01*
X119750000Y-58151928D01*
X119625518Y-58164188D01*
X119505820Y-58200498D01*
X119395506Y-58259463D01*
X119298815Y-58338815D01*
X119219463Y-58435506D01*
X119160498Y-58545820D01*
X119124188Y-58665518D01*
X119111928Y-58790000D01*
X104854091Y-58790000D01*
X105876019Y-57768072D01*
X107660000Y-57768072D01*
X107784482Y-57755812D01*
X107904180Y-57719502D01*
X108014494Y-57660537D01*
X108111185Y-57581185D01*
X108190537Y-57484494D01*
X108249502Y-57374180D01*
X108285812Y-57254482D01*
X108298072Y-57130000D01*
X108298072Y-55758363D01*
X110525000Y-55758363D01*
X110525000Y-56001637D01*
X110572460Y-56240236D01*
X110665557Y-56464992D01*
X110800713Y-56667267D01*
X110972733Y-56839287D01*
X111175008Y-56974443D01*
X111399764Y-57067540D01*
X111638363Y-57115000D01*
X111881637Y-57115000D01*
X112120236Y-57067540D01*
X112344992Y-56974443D01*
X112547267Y-56839287D01*
X112719287Y-56667267D01*
X112854443Y-56464992D01*
X112947540Y-56240236D01*
X112995000Y-56001637D01*
X112995000Y-55758363D01*
X112947540Y-55519764D01*
X112854443Y-55295008D01*
X112719287Y-55092733D01*
X112547267Y-54920713D01*
X112344992Y-54785557D01*
X112120236Y-54692460D01*
X111881637Y-54645000D01*
X111638363Y-54645000D01*
X111399764Y-54692460D01*
X111175008Y-54785557D01*
X110972733Y-54920713D01*
X110800713Y-55092733D01*
X110665557Y-55295008D01*
X110572460Y-55519764D01*
X110525000Y-55758363D01*
X108298072Y-55758363D01*
X108298072Y-54630000D01*
X115221928Y-54630000D01*
X115221928Y-57130000D01*
X115234188Y-57254482D01*
X115270498Y-57374180D01*
X115329463Y-57484494D01*
X115408815Y-57581185D01*
X115505506Y-57660537D01*
X115615820Y-57719502D01*
X115735518Y-57755812D01*
X115860000Y-57768072D01*
X117660000Y-57768072D01*
X117784482Y-57755812D01*
X117904180Y-57719502D01*
X118014494Y-57660537D01*
X118111185Y-57581185D01*
X118190537Y-57484494D01*
X118249502Y-57374180D01*
X118285812Y-57254482D01*
X118298072Y-57130000D01*
X118298072Y-54630000D01*
X118285812Y-54505518D01*
X118249502Y-54385820D01*
X118190537Y-54275506D01*
X118111185Y-54178815D01*
X118014494Y-54099463D01*
X117904180Y-54040498D01*
X117784482Y-54004188D01*
X117660000Y-53991928D01*
X115860000Y-53991928D01*
X115735518Y-54004188D01*
X115615820Y-54040498D01*
X115505506Y-54099463D01*
X115408815Y-54178815D01*
X115329463Y-54275506D01*
X115270498Y-54385820D01*
X115234188Y-54505518D01*
X115221928Y-54630000D01*
X108298072Y-54630000D01*
X108285812Y-54505518D01*
X108249502Y-54385820D01*
X108190537Y-54275506D01*
X108111185Y-54178815D01*
X108014494Y-54099463D01*
X107904180Y-54040498D01*
X107784482Y-54004188D01*
X107660000Y-53991928D01*
X105860000Y-53991928D01*
X105735518Y-54004188D01*
X105615820Y-54040498D01*
X105505506Y-54099463D01*
X105408815Y-54178815D01*
X105329463Y-54275506D01*
X105270498Y-54385820D01*
X105234188Y-54505518D01*
X105221928Y-54630000D01*
X105221928Y-56413981D01*
X101385909Y-60250000D01*
X88146817Y-60250000D01*
X88214475Y-60194475D01*
X88236712Y-60167379D01*
X90636019Y-57768072D01*
X92420000Y-57768072D01*
X92544482Y-57755812D01*
X92664180Y-57719502D01*
X92774494Y-57660537D01*
X92871185Y-57581185D01*
X92950537Y-57484494D01*
X93009502Y-57374180D01*
X93045812Y-57254482D01*
X93058072Y-57130000D01*
X93058072Y-55758363D01*
X95285000Y-55758363D01*
X95285000Y-56001637D01*
X95332460Y-56240236D01*
X95425557Y-56464992D01*
X95560713Y-56667267D01*
X95732733Y-56839287D01*
X95935008Y-56974443D01*
X96159764Y-57067540D01*
X96398363Y-57115000D01*
X96641637Y-57115000D01*
X96880236Y-57067540D01*
X97104992Y-56974443D01*
X97307267Y-56839287D01*
X97479287Y-56667267D01*
X97614443Y-56464992D01*
X97707540Y-56240236D01*
X97755000Y-56001637D01*
X97755000Y-55758363D01*
X97707540Y-55519764D01*
X97614443Y-55295008D01*
X97479287Y-55092733D01*
X97307267Y-54920713D01*
X97104992Y-54785557D01*
X96880236Y-54692460D01*
X96641637Y-54645000D01*
X96398363Y-54645000D01*
X96159764Y-54692460D01*
X95935008Y-54785557D01*
X95732733Y-54920713D01*
X95560713Y-55092733D01*
X95425557Y-55295008D01*
X95332460Y-55519764D01*
X95285000Y-55758363D01*
X93058072Y-55758363D01*
X93058072Y-54630000D01*
X99981928Y-54630000D01*
X99981928Y-57130000D01*
X99994188Y-57254482D01*
X100030498Y-57374180D01*
X100089463Y-57484494D01*
X100168815Y-57581185D01*
X100265506Y-57660537D01*
X100375820Y-57719502D01*
X100495518Y-57755812D01*
X100620000Y-57768072D01*
X102420000Y-57768072D01*
X102544482Y-57755812D01*
X102664180Y-57719502D01*
X102774494Y-57660537D01*
X102871185Y-57581185D01*
X102950537Y-57484494D01*
X103009502Y-57374180D01*
X103045812Y-57254482D01*
X103058072Y-57130000D01*
X103058072Y-54630000D01*
X103045812Y-54505518D01*
X103009502Y-54385820D01*
X102950537Y-54275506D01*
X102871185Y-54178815D01*
X102774494Y-54099463D01*
X102664180Y-54040498D01*
X102544482Y-54004188D01*
X102420000Y-53991928D01*
X100620000Y-53991928D01*
X100495518Y-54004188D01*
X100375820Y-54040498D01*
X100265506Y-54099463D01*
X100168815Y-54178815D01*
X100089463Y-54275506D01*
X100030498Y-54385820D01*
X99994188Y-54505518D01*
X99981928Y-54630000D01*
X93058072Y-54630000D01*
X93045812Y-54505518D01*
X93009502Y-54385820D01*
X92950537Y-54275506D01*
X92871185Y-54178815D01*
X92774494Y-54099463D01*
X92664180Y-54040498D01*
X92544482Y-54004188D01*
X92420000Y-53991928D01*
X90620000Y-53991928D01*
X90495518Y-54004188D01*
X90375820Y-54040498D01*
X90265506Y-54099463D01*
X90168815Y-54178815D01*
X90089463Y-54275506D01*
X90030498Y-54385820D01*
X89994188Y-54505518D01*
X89981928Y-54630000D01*
X89981928Y-56413981D01*
X87415909Y-58980000D01*
X67344874Y-58980000D01*
X67309999Y-58976565D01*
X67275124Y-58980000D01*
X67275123Y-58980000D01*
X67170816Y-58990273D01*
X67036980Y-59030872D01*
X66921599Y-59092545D01*
X66913635Y-59096801D01*
X66846440Y-59151947D01*
X66805525Y-59185525D01*
X66783292Y-59212616D01*
X64292617Y-61703292D01*
X64279676Y-61713912D01*
X64226262Y-61633972D01*
X64096028Y-61503738D01*
X63942889Y-61401414D01*
X63772729Y-61330932D01*
X63592089Y-61295000D01*
X63407911Y-61295000D01*
X63227271Y-61330932D01*
X63057111Y-61401414D01*
X62903972Y-61503738D01*
X62887710Y-61520000D01*
X60994874Y-61520000D01*
X60959999Y-61516565D01*
X60925124Y-61520000D01*
X60925123Y-61520000D01*
X60820816Y-61530273D01*
X60686980Y-61570872D01*
X60563637Y-61636800D01*
X60455525Y-61725525D01*
X60433292Y-61752616D01*
X59212617Y-62973292D01*
X59185525Y-62995526D01*
X59096800Y-63103638D01*
X59030872Y-63226981D01*
X58990273Y-63360817D01*
X58980000Y-63465123D01*
X58976565Y-63500000D01*
X58980000Y-63534875D01*
X58980001Y-64788547D01*
X58775241Y-64925363D01*
X58575363Y-65125241D01*
X58420000Y-65357759D01*
X58264637Y-65125241D01*
X58064759Y-64925363D01*
X57829727Y-64768320D01*
X57568574Y-64660147D01*
X57291335Y-64605000D01*
X57008665Y-64605000D01*
X56731426Y-64660147D01*
X56470273Y-64768320D01*
X56235241Y-64925363D01*
X56035363Y-65125241D01*
X55880000Y-65357759D01*
X55724637Y-65125241D01*
X55524759Y-64925363D01*
X55289727Y-64768320D01*
X55028574Y-64660147D01*
X54751335Y-64605000D01*
X54468665Y-64605000D01*
X54191426Y-64660147D01*
X53930273Y-64768320D01*
X53695241Y-64925363D01*
X53495363Y-65125241D01*
X53340000Y-65357759D01*
X53184637Y-65125241D01*
X52984759Y-64925363D01*
X52780000Y-64788548D01*
X52780000Y-57444091D01*
X53634092Y-56590000D01*
X74741928Y-56590000D01*
X74741928Y-57130000D01*
X74754188Y-57254482D01*
X74790498Y-57374180D01*
X74849463Y-57484494D01*
X74928815Y-57581185D01*
X75025506Y-57660537D01*
X75135820Y-57719502D01*
X75255518Y-57755812D01*
X75380000Y-57768072D01*
X77180000Y-57768072D01*
X77304482Y-57755812D01*
X77424180Y-57719502D01*
X77534494Y-57660537D01*
X77631185Y-57581185D01*
X77710537Y-57484494D01*
X77769502Y-57374180D01*
X77805812Y-57254482D01*
X77818072Y-57130000D01*
X77818072Y-55758363D01*
X80045000Y-55758363D01*
X80045000Y-56001637D01*
X80092460Y-56240236D01*
X80185557Y-56464992D01*
X80320713Y-56667267D01*
X80492733Y-56839287D01*
X80695008Y-56974443D01*
X80919764Y-57067540D01*
X81158363Y-57115000D01*
X81401637Y-57115000D01*
X81640236Y-57067540D01*
X81864992Y-56974443D01*
X82067267Y-56839287D01*
X82239287Y-56667267D01*
X82374443Y-56464992D01*
X82467540Y-56240236D01*
X82515000Y-56001637D01*
X82515000Y-55758363D01*
X82467540Y-55519764D01*
X82374443Y-55295008D01*
X82239287Y-55092733D01*
X82067267Y-54920713D01*
X81864992Y-54785557D01*
X81640236Y-54692460D01*
X81401637Y-54645000D01*
X81158363Y-54645000D01*
X80919764Y-54692460D01*
X80695008Y-54785557D01*
X80492733Y-54920713D01*
X80320713Y-55092733D01*
X80185557Y-55295008D01*
X80092460Y-55519764D01*
X80045000Y-55758363D01*
X77818072Y-55758363D01*
X77818072Y-54630000D01*
X84741928Y-54630000D01*
X84741928Y-57130000D01*
X84754188Y-57254482D01*
X84790498Y-57374180D01*
X84849463Y-57484494D01*
X84928815Y-57581185D01*
X85025506Y-57660537D01*
X85135820Y-57719502D01*
X85255518Y-57755812D01*
X85380000Y-57768072D01*
X87180000Y-57768072D01*
X87304482Y-57755812D01*
X87424180Y-57719502D01*
X87534494Y-57660537D01*
X87631185Y-57581185D01*
X87710537Y-57484494D01*
X87769502Y-57374180D01*
X87805812Y-57254482D01*
X87818072Y-57130000D01*
X87818072Y-54630000D01*
X87805812Y-54505518D01*
X87769502Y-54385820D01*
X87710537Y-54275506D01*
X87631185Y-54178815D01*
X87534494Y-54099463D01*
X87424180Y-54040498D01*
X87304482Y-54004188D01*
X87180000Y-53991928D01*
X85380000Y-53991928D01*
X85255518Y-54004188D01*
X85135820Y-54040498D01*
X85025506Y-54099463D01*
X84928815Y-54178815D01*
X84849463Y-54275506D01*
X84790498Y-54385820D01*
X84754188Y-54505518D01*
X84741928Y-54630000D01*
X77818072Y-54630000D01*
X77805812Y-54505518D01*
X77769502Y-54385820D01*
X77710537Y-54275506D01*
X77631185Y-54178815D01*
X77534494Y-54099463D01*
X77424180Y-54040498D01*
X77304482Y-54004188D01*
X77180000Y-53991928D01*
X75380000Y-53991928D01*
X75255518Y-54004188D01*
X75135820Y-54040498D01*
X75025506Y-54099463D01*
X74928815Y-54178815D01*
X74849463Y-54275506D01*
X74790498Y-54385820D01*
X74754188Y-54505518D01*
X74741928Y-54630000D01*
X74741928Y-55170000D01*
X53374874Y-55170000D01*
X53339999Y-55166565D01*
X53305124Y-55170000D01*
X53305123Y-55170000D01*
X53200816Y-55180273D01*
X53066980Y-55220872D01*
X52943637Y-55286800D01*
X52835525Y-55375525D01*
X52813292Y-55402616D01*
X51592617Y-56623292D01*
X51565526Y-56645525D01*
X51543293Y-56672616D01*
X51476801Y-56753637D01*
X51410872Y-56876981D01*
X51370274Y-57010816D01*
X51356565Y-57150000D01*
X51360001Y-57184885D01*
X51360000Y-64788548D01*
X51155241Y-64925363D01*
X50955363Y-65125241D01*
X50800000Y-65357759D01*
X50644637Y-65125241D01*
X50444759Y-64925363D01*
X50209727Y-64768320D01*
X49948574Y-64660147D01*
X49671335Y-64605000D01*
X49388665Y-64605000D01*
X49111426Y-64660147D01*
X48850273Y-64768320D01*
X48615241Y-64925363D01*
X48415363Y-65125241D01*
X48260000Y-65357759D01*
X48104637Y-65125241D01*
X47904759Y-64925363D01*
X47669727Y-64768320D01*
X47408574Y-64660147D01*
X47131335Y-64605000D01*
X46848665Y-64605000D01*
X46571426Y-64660147D01*
X46310273Y-64768320D01*
X46075241Y-64925363D01*
X45875363Y-65125241D01*
X45720000Y-65357759D01*
X45564637Y-65125241D01*
X45364759Y-64925363D01*
X45129727Y-64768320D01*
X44868574Y-64660147D01*
X44591335Y-64605000D01*
X44308665Y-64605000D01*
X44031426Y-64660147D01*
X43770273Y-64768320D01*
X43535241Y-64925363D01*
X43335363Y-65125241D01*
X43180000Y-65357759D01*
X43024637Y-65125241D01*
X42824759Y-64925363D01*
X42589727Y-64768320D01*
X42328574Y-64660147D01*
X42051335Y-64605000D01*
X41768665Y-64605000D01*
X41491426Y-64660147D01*
X41230273Y-64768320D01*
X40995241Y-64925363D01*
X40795363Y-65125241D01*
X40640000Y-65357759D01*
X40484637Y-65125241D01*
X40284759Y-64925363D01*
X40049727Y-64768320D01*
X39788574Y-64660147D01*
X39511335Y-64605000D01*
X39228665Y-64605000D01*
X38951426Y-64660147D01*
X38690273Y-64768320D01*
X38455241Y-64925363D01*
X38255363Y-65125241D01*
X38100000Y-65357759D01*
X37944637Y-65125241D01*
X37744759Y-64925363D01*
X37509727Y-64768320D01*
X37248574Y-64660147D01*
X36971335Y-64605000D01*
X36688665Y-64605000D01*
X36411426Y-64660147D01*
X36150273Y-64768320D01*
X35915241Y-64925363D01*
X35715363Y-65125241D01*
X35560000Y-65357759D01*
X35404637Y-65125241D01*
X35204759Y-64925363D01*
X34969727Y-64768320D01*
X34708574Y-64660147D01*
X34431335Y-64605000D01*
X34148665Y-64605000D01*
X33871426Y-64660147D01*
X33610273Y-64768320D01*
X33375241Y-64925363D01*
X33175363Y-65125241D01*
X33020000Y-65357759D01*
X32864637Y-65125241D01*
X32664759Y-64925363D01*
X32429727Y-64768320D01*
X32168574Y-64660147D01*
X31891335Y-64605000D01*
X31608665Y-64605000D01*
X31331426Y-64660147D01*
X31070273Y-64768320D01*
X30835241Y-64925363D01*
X30635363Y-65125241D01*
X30480000Y-65357759D01*
X30324637Y-65125241D01*
X30124759Y-64925363D01*
X29920000Y-64788548D01*
X29920000Y-60941452D01*
X30124759Y-60804637D01*
X30246694Y-60682702D01*
X30896903Y-60682702D01*
X30968486Y-60926671D01*
X31223996Y-61047571D01*
X31498184Y-61116300D01*
X31780512Y-61130217D01*
X32060130Y-61088787D01*
X32326292Y-60993603D01*
X32451514Y-60926671D01*
X32523097Y-60682702D01*
X31710000Y-59869605D01*
X30896903Y-60682702D01*
X30246694Y-60682702D01*
X30324637Y-60604759D01*
X30458692Y-60404131D01*
X30473329Y-60431514D01*
X30717298Y-60503097D01*
X31530395Y-59690000D01*
X31889605Y-59690000D01*
X32702702Y-60503097D01*
X32946671Y-60431514D01*
X33067571Y-60176004D01*
X33136300Y-59901816D01*
X33150217Y-59619488D01*
X33108787Y-59339870D01*
X33013603Y-59073708D01*
X32946671Y-58948486D01*
X32702702Y-58876903D01*
X31889605Y-59690000D01*
X31530395Y-59690000D01*
X30717298Y-58876903D01*
X30473329Y-58948486D01*
X30459676Y-58977341D01*
X30324637Y-58775241D01*
X30246694Y-58697298D01*
X30896903Y-58697298D01*
X31710000Y-59510395D01*
X32523097Y-58697298D01*
X32451514Y-58453329D01*
X32196004Y-58332429D01*
X31921816Y-58263700D01*
X31639488Y-58249783D01*
X31359870Y-58291213D01*
X31093708Y-58386397D01*
X30968486Y-58453329D01*
X30896903Y-58697298D01*
X30246694Y-58697298D01*
X30124759Y-58575363D01*
X29889727Y-58418320D01*
X29628574Y-58310147D01*
X29351335Y-58255000D01*
X29068665Y-58255000D01*
X28791426Y-58310147D01*
X28530273Y-58418320D01*
X28295241Y-58575363D01*
X28095363Y-58775241D01*
X27938320Y-59010273D01*
X27830147Y-59271426D01*
X27775000Y-59548665D01*
X27775000Y-59831335D01*
X27830147Y-60108574D01*
X27938320Y-60369727D01*
X28095363Y-60604759D01*
X28295241Y-60804637D01*
X28500001Y-60941453D01*
X28500000Y-64788548D01*
X28295241Y-64925363D01*
X28095363Y-65125241D01*
X27938320Y-65360273D01*
X27830147Y-65621426D01*
X27775000Y-65898665D01*
X27775000Y-66181335D01*
X27830147Y-66458574D01*
X27938320Y-66719727D01*
X28095363Y-66954759D01*
X28295241Y-67154637D01*
X28530273Y-67311680D01*
X28791426Y-67419853D01*
X29068665Y-67475000D01*
X29351335Y-67475000D01*
X29628574Y-67419853D01*
X29889727Y-67311680D01*
X30124759Y-67154637D01*
X30324637Y-66954759D01*
X30480000Y-66722241D01*
X30635363Y-66954759D01*
X30835241Y-67154637D01*
X31067759Y-67310000D01*
X30835241Y-67465363D01*
X30635363Y-67665241D01*
X30478320Y-67900273D01*
X30370147Y-68161426D01*
X30315000Y-68438665D01*
X30315000Y-68721335D01*
X30370147Y-68998574D01*
X30478320Y-69259727D01*
X30635363Y-69494759D01*
X30835241Y-69694637D01*
X31070273Y-69851680D01*
X31331426Y-69959853D01*
X31608665Y-70015000D01*
X31891335Y-70015000D01*
X32168574Y-69959853D01*
X32429727Y-69851680D01*
X32664759Y-69694637D01*
X32864637Y-69494759D01*
X33021680Y-69259727D01*
X33129853Y-68998574D01*
X33185000Y-68721335D01*
X33185000Y-68438665D01*
X33129853Y-68161426D01*
X33021680Y-67900273D01*
X32864637Y-67665241D01*
X32664759Y-67465363D01*
X32432241Y-67310000D01*
X32664759Y-67154637D01*
X32864637Y-66954759D01*
X33020000Y-66722241D01*
X33175363Y-66954759D01*
X33375241Y-67154637D01*
X33610273Y-67311680D01*
X33871426Y-67419853D01*
X34148665Y-67475000D01*
X34431335Y-67475000D01*
X34708574Y-67419853D01*
X34969727Y-67311680D01*
X35204759Y-67154637D01*
X35404637Y-66954759D01*
X35560000Y-66722241D01*
X35715363Y-66954759D01*
X35915241Y-67154637D01*
X36147759Y-67310000D01*
X35915241Y-67465363D01*
X35715363Y-67665241D01*
X35558320Y-67900273D01*
X35450147Y-68161426D01*
X35395000Y-68438665D01*
X35395000Y-68721335D01*
X35450147Y-68998574D01*
X35558320Y-69259727D01*
X35715363Y-69494759D01*
X35915241Y-69694637D01*
X36150273Y-69851680D01*
X36411426Y-69959853D01*
X36688665Y-70015000D01*
X36971335Y-70015000D01*
X37248574Y-69959853D01*
X37509727Y-69851680D01*
X37744759Y-69694637D01*
X37944637Y-69494759D01*
X38100000Y-69262241D01*
X38255363Y-69494759D01*
X38455241Y-69694637D01*
X38690273Y-69851680D01*
X38951426Y-69959853D01*
X39228665Y-70015000D01*
X39511335Y-70015000D01*
X39788574Y-69959853D01*
X40049727Y-69851680D01*
X40284759Y-69694637D01*
X40484637Y-69494759D01*
X40640000Y-69262241D01*
X40795363Y-69494759D01*
X40995241Y-69694637D01*
X41230273Y-69851680D01*
X41491426Y-69959853D01*
X41768665Y-70015000D01*
X42051335Y-70015000D01*
X42328574Y-69959853D01*
X42589727Y-69851680D01*
X42824759Y-69694637D01*
X43024637Y-69494759D01*
X43181680Y-69259727D01*
X43289853Y-68998574D01*
X43345000Y-68721335D01*
X43345000Y-68438665D01*
X43289853Y-68161426D01*
X43181680Y-67900273D01*
X43024637Y-67665241D01*
X42824759Y-67465363D01*
X42592241Y-67310000D01*
X42824759Y-67154637D01*
X43024637Y-66954759D01*
X43180000Y-66722241D01*
X43335363Y-66954759D01*
X43535241Y-67154637D01*
X43770273Y-67311680D01*
X44031426Y-67419853D01*
X44308665Y-67475000D01*
X44591335Y-67475000D01*
X44868574Y-67419853D01*
X45129727Y-67311680D01*
X45364759Y-67154637D01*
X45564637Y-66954759D01*
X45720000Y-66722241D01*
X45875363Y-66954759D01*
X46075241Y-67154637D01*
X46310273Y-67311680D01*
X46571426Y-67419853D01*
X46848665Y-67475000D01*
X47131335Y-67475000D01*
X47408574Y-67419853D01*
X47669727Y-67311680D01*
X47904759Y-67154637D01*
X48104637Y-66954759D01*
X48260000Y-66722241D01*
X48415363Y-66954759D01*
X48615241Y-67154637D01*
X48850273Y-67311680D01*
X49111426Y-67419853D01*
X49388665Y-67475000D01*
X49671335Y-67475000D01*
X49948574Y-67419853D01*
X50209727Y-67311680D01*
X50444759Y-67154637D01*
X50644637Y-66954759D01*
X50800000Y-66722241D01*
X50955363Y-66954759D01*
X51155241Y-67154637D01*
X51390273Y-67311680D01*
X51651426Y-67419853D01*
X51928665Y-67475000D01*
X52211335Y-67475000D01*
X52488574Y-67419853D01*
X52749727Y-67311680D01*
X52984759Y-67154637D01*
X53184637Y-66954759D01*
X53340000Y-66722241D01*
X53495363Y-66954759D01*
X53695241Y-67154637D01*
X53930273Y-67311680D01*
X54191426Y-67419853D01*
X54468665Y-67475000D01*
X54751335Y-67475000D01*
X55028574Y-67419853D01*
X55289727Y-67311680D01*
X55524759Y-67154637D01*
X55724637Y-66954759D01*
X55880000Y-66722241D01*
X56035363Y-66954759D01*
X56235241Y-67154637D01*
X56470273Y-67311680D01*
X56731426Y-67419853D01*
X57008665Y-67475000D01*
X57291335Y-67475000D01*
X57568574Y-67419853D01*
X57829727Y-67311680D01*
X58064759Y-67154637D01*
X58264637Y-66954759D01*
X58420000Y-66722241D01*
X58575363Y-66954759D01*
X58775241Y-67154637D01*
X59010273Y-67311680D01*
X59271426Y-67419853D01*
X59548665Y-67475000D01*
X59831335Y-67475000D01*
X60108574Y-67419853D01*
X60369727Y-67311680D01*
X60604759Y-67154637D01*
X60804637Y-66954759D01*
X60960000Y-66722241D01*
X61115363Y-66954759D01*
X61315241Y-67154637D01*
X61547759Y-67310000D01*
X61315241Y-67465363D01*
X61115363Y-67665241D01*
X60958320Y-67900273D01*
X60850147Y-68161426D01*
X60795000Y-68438665D01*
X60795000Y-68721335D01*
X60850147Y-68998574D01*
X60958320Y-69259727D01*
X61115363Y-69494759D01*
X61315241Y-69694637D01*
X61547759Y-69850000D01*
X61315241Y-70005363D01*
X61115363Y-70205241D01*
X60958320Y-70440273D01*
X60850147Y-70701426D01*
X60795000Y-70978665D01*
X60795000Y-71261335D01*
X60850147Y-71538574D01*
X60958320Y-71799727D01*
X61115363Y-72034759D01*
X61315241Y-72234637D01*
X61547759Y-72390000D01*
X61315241Y-72545363D01*
X61115363Y-72745241D01*
X60958320Y-72980273D01*
X60850147Y-73241426D01*
X60795000Y-73518665D01*
X60795000Y-73801335D01*
X60850147Y-74078574D01*
X60958320Y-74339727D01*
X61115363Y-74574759D01*
X61315241Y-74774637D01*
X61547759Y-74930000D01*
X61315241Y-75085363D01*
X61115363Y-75285241D01*
X60958320Y-75520273D01*
X60850147Y-75781426D01*
X60795000Y-76058665D01*
X60795000Y-76341335D01*
X60850147Y-76618574D01*
X60958320Y-76879727D01*
X61115363Y-77114759D01*
X61315241Y-77314637D01*
X61547759Y-77470000D01*
X61315241Y-77625363D01*
X61115363Y-77825241D01*
X60958320Y-78060273D01*
X60850147Y-78321426D01*
X60795000Y-78598665D01*
X60795000Y-78881335D01*
X60850147Y-79158574D01*
X60958320Y-79419727D01*
X61115363Y-79654759D01*
X61315241Y-79854637D01*
X61547759Y-80010000D01*
X61315241Y-80165363D01*
X61115363Y-80365241D01*
X60960000Y-80597759D01*
X60804637Y-80365241D01*
X60604759Y-80165363D01*
X60369727Y-80008320D01*
X60108574Y-79900147D01*
X59831335Y-79845000D01*
X59548665Y-79845000D01*
X59271426Y-79900147D01*
X59010273Y-80008320D01*
X58775241Y-80165363D01*
X58575363Y-80365241D01*
X58420000Y-80597759D01*
X58264637Y-80365241D01*
X58064759Y-80165363D01*
X57829727Y-80008320D01*
X57568574Y-79900147D01*
X57291335Y-79845000D01*
X57008665Y-79845000D01*
X56731426Y-79900147D01*
X56470273Y-80008320D01*
X56235241Y-80165363D01*
X56035363Y-80365241D01*
X55880000Y-80597759D01*
X55724637Y-80365241D01*
X55524759Y-80165363D01*
X55289727Y-80008320D01*
X55028574Y-79900147D01*
X54751335Y-79845000D01*
X54468665Y-79845000D01*
X54191426Y-79900147D01*
X53930273Y-80008320D01*
X53695241Y-80165363D01*
X53495363Y-80365241D01*
X53340000Y-80597759D01*
X53184637Y-80365241D01*
X52984759Y-80165363D01*
X52749727Y-80008320D01*
X52488574Y-79900147D01*
X52211335Y-79845000D01*
X51928665Y-79845000D01*
X51651426Y-79900147D01*
X51390273Y-80008320D01*
X51155241Y-80165363D01*
X50955363Y-80365241D01*
X50800000Y-80597759D01*
X50644637Y-80365241D01*
X50444759Y-80165363D01*
X50209727Y-80008320D01*
X49948574Y-79900147D01*
X49671335Y-79845000D01*
X49388665Y-79845000D01*
X49111426Y-79900147D01*
X48850273Y-80008320D01*
X48615241Y-80165363D01*
X48415363Y-80365241D01*
X48260000Y-80597759D01*
X48104637Y-80365241D01*
X47904759Y-80165363D01*
X47669727Y-80008320D01*
X47408574Y-79900147D01*
X47131335Y-79845000D01*
X46848665Y-79845000D01*
X46571426Y-79900147D01*
X46310273Y-80008320D01*
X46075241Y-80165363D01*
X45875363Y-80365241D01*
X45720000Y-80597759D01*
X45564637Y-80365241D01*
X45364759Y-80165363D01*
X45129727Y-80008320D01*
X44868574Y-79900147D01*
X44591335Y-79845000D01*
X44308665Y-79845000D01*
X44031426Y-79900147D01*
X43770273Y-80008320D01*
X43535241Y-80165363D01*
X43335363Y-80365241D01*
X43180000Y-80597759D01*
X43024637Y-80365241D01*
X42824759Y-80165363D01*
X42589727Y-80008320D01*
X42328574Y-79900147D01*
X42051335Y-79845000D01*
X41768665Y-79845000D01*
X41491426Y-79900147D01*
X41230273Y-80008320D01*
X40995241Y-80165363D01*
X40795363Y-80365241D01*
X40640000Y-80597759D01*
X40484637Y-80365241D01*
X40284759Y-80165363D01*
X40049727Y-80008320D01*
X39788574Y-79900147D01*
X39511335Y-79845000D01*
X39228665Y-79845000D01*
X38951426Y-79900147D01*
X38690273Y-80008320D01*
X38455241Y-80165363D01*
X38255363Y-80365241D01*
X38100000Y-80597759D01*
X37944637Y-80365241D01*
X37744759Y-80165363D01*
X37509727Y-80008320D01*
X37248574Y-79900147D01*
X36971335Y-79845000D01*
X36688665Y-79845000D01*
X36411426Y-79900147D01*
X36150273Y-80008320D01*
X35915241Y-80165363D01*
X35715363Y-80365241D01*
X35560000Y-80597759D01*
X35404637Y-80365241D01*
X35204759Y-80165363D01*
X34969727Y-80008320D01*
X34708574Y-79900147D01*
X34431335Y-79845000D01*
X34148665Y-79845000D01*
X33871426Y-79900147D01*
X33610273Y-80008320D01*
X33375241Y-80165363D01*
X33175363Y-80365241D01*
X33020000Y-80597759D01*
X32864637Y-80365241D01*
X32664759Y-80165363D01*
X32429727Y-80008320D01*
X32168574Y-79900147D01*
X31891335Y-79845000D01*
X31608665Y-79845000D01*
X31331426Y-79900147D01*
X31070273Y-80008320D01*
X30835241Y-80165363D01*
X30636643Y-80363961D01*
X30635812Y-80355518D01*
X30599502Y-80235820D01*
X30540537Y-80125506D01*
X30461185Y-80028815D01*
X30364494Y-79949463D01*
X30254180Y-79890498D01*
X30134482Y-79854188D01*
X30010000Y-79841928D01*
X29495750Y-79845000D01*
X29337000Y-80003750D01*
X29337000Y-81153000D01*
X29357000Y-81153000D01*
X29357000Y-81407000D01*
X29337000Y-81407000D01*
X29337000Y-82556250D01*
X29495750Y-82715000D01*
X30010000Y-82718072D01*
X30134482Y-82705812D01*
X30254180Y-82669502D01*
X30364494Y-82610537D01*
X30461185Y-82531185D01*
X30540537Y-82434494D01*
X30599502Y-82324180D01*
X30635812Y-82204482D01*
X30636643Y-82196039D01*
X30835241Y-82394637D01*
X31040001Y-82531453D01*
X31040000Y-83785125D01*
X31036565Y-83820000D01*
X31040000Y-83854875D01*
X31040000Y-83854876D01*
X31050273Y-83959183D01*
X31090872Y-84093019D01*
X31156800Y-84216362D01*
X31245525Y-84324474D01*
X31272616Y-84346707D01*
X32493292Y-85567384D01*
X32515525Y-85594475D01*
X32623637Y-85683200D01*
X32655068Y-85700000D01*
X27330000Y-85700000D01*
X27330000Y-82080000D01*
X27771928Y-82080000D01*
X27784188Y-82204482D01*
X27820498Y-82324180D01*
X27879463Y-82434494D01*
X27958815Y-82531185D01*
X28055506Y-82610537D01*
X28165820Y-82669502D01*
X28285518Y-82705812D01*
X28410000Y-82718072D01*
X28924250Y-82715000D01*
X29083000Y-82556250D01*
X29083000Y-81407000D01*
X27933750Y-81407000D01*
X27775000Y-81565750D01*
X27771928Y-82080000D01*
X27330000Y-82080000D01*
X27330000Y-80480000D01*
X27771928Y-80480000D01*
X27775000Y-80994250D01*
X27933750Y-81153000D01*
X29083000Y-81153000D01*
X29083000Y-80003750D01*
X28924250Y-79845000D01*
X28410000Y-79841928D01*
X28285518Y-79854188D01*
X28165820Y-79890498D01*
X28055506Y-79949463D01*
X27958815Y-80028815D01*
X27879463Y-80125506D01*
X27820498Y-80235820D01*
X27784188Y-80355518D01*
X27771928Y-80480000D01*
X27330000Y-80480000D01*
X27330000Y-73503891D01*
X33975000Y-73503891D01*
X33975000Y-73816109D01*
X34035911Y-74122327D01*
X34155391Y-74410779D01*
X34328850Y-74670379D01*
X34549621Y-74891150D01*
X34809221Y-75064609D01*
X35097673Y-75184089D01*
X35403891Y-75245000D01*
X35716109Y-75245000D01*
X36022327Y-75184089D01*
X36310779Y-75064609D01*
X36570379Y-74891150D01*
X36791150Y-74670379D01*
X36964609Y-74410779D01*
X37084089Y-74122327D01*
X37145000Y-73816109D01*
X37145000Y-73503891D01*
X37785000Y-73503891D01*
X37785000Y-73816109D01*
X37845911Y-74122327D01*
X37965391Y-74410779D01*
X38138850Y-74670379D01*
X38359621Y-74891150D01*
X38619221Y-75064609D01*
X38907673Y-75184089D01*
X39213891Y-75245000D01*
X39526109Y-75245000D01*
X39832327Y-75184089D01*
X40120779Y-75064609D01*
X40380379Y-74891150D01*
X40601150Y-74670379D01*
X40774609Y-74410779D01*
X40894089Y-74122327D01*
X40955000Y-73816109D01*
X40955000Y-73503891D01*
X40894089Y-73197673D01*
X40774609Y-72909221D01*
X40601150Y-72649621D01*
X40380379Y-72428850D01*
X40120779Y-72255391D01*
X39832327Y-72135911D01*
X39526109Y-72075000D01*
X39213891Y-72075000D01*
X38907673Y-72135911D01*
X38619221Y-72255391D01*
X38359621Y-72428850D01*
X38138850Y-72649621D01*
X37965391Y-72909221D01*
X37845911Y-73197673D01*
X37785000Y-73503891D01*
X37145000Y-73503891D01*
X37084089Y-73197673D01*
X36964609Y-72909221D01*
X36791150Y-72649621D01*
X36570379Y-72428850D01*
X36310779Y-72255391D01*
X36022327Y-72135911D01*
X35716109Y-72075000D01*
X35403891Y-72075000D01*
X35097673Y-72135911D01*
X34809221Y-72255391D01*
X34549621Y-72428850D01*
X34328850Y-72649621D01*
X34155391Y-72909221D01*
X34035911Y-73197673D01*
X33975000Y-73503891D01*
X27330000Y-73503891D01*
X27330000Y-54389872D01*
X40945000Y-54389872D01*
X40945000Y-54830128D01*
X41030890Y-55261925D01*
X41199369Y-55668669D01*
X41443962Y-56034729D01*
X41755271Y-56346038D01*
X42121331Y-56590631D01*
X42528075Y-56759110D01*
X42959872Y-56845000D01*
X43400128Y-56845000D01*
X43831925Y-56759110D01*
X44238669Y-56590631D01*
X44604729Y-56346038D01*
X44916038Y-56034729D01*
X45160631Y-55668669D01*
X45329110Y-55261925D01*
X45415000Y-54830128D01*
X45415000Y-54389872D01*
X45329110Y-53958075D01*
X45160631Y-53551331D01*
X44916038Y-53185271D01*
X44604729Y-52873962D01*
X44238669Y-52629369D01*
X43831925Y-52460890D01*
X43400128Y-52375000D01*
X42959872Y-52375000D01*
X42528075Y-52460890D01*
X42121331Y-52629369D01*
X41755271Y-52873962D01*
X41443962Y-53185271D01*
X41199369Y-53551331D01*
X41030890Y-53958075D01*
X40945000Y-54389872D01*
X27330000Y-54389872D01*
X27330000Y-50758363D01*
X75045000Y-50758363D01*
X75045000Y-51001637D01*
X75092460Y-51240236D01*
X75185557Y-51464992D01*
X75320713Y-51667267D01*
X75492733Y-51839287D01*
X75695008Y-51974443D01*
X75919764Y-52067540D01*
X76158363Y-52115000D01*
X76401637Y-52115000D01*
X76640236Y-52067540D01*
X76864992Y-51974443D01*
X77067267Y-51839287D01*
X77126554Y-51780000D01*
X79391928Y-51780000D01*
X79404188Y-51904482D01*
X79440498Y-52024180D01*
X79499463Y-52134494D01*
X79578815Y-52231185D01*
X79675506Y-52310537D01*
X79785820Y-52369502D01*
X79905518Y-52405812D01*
X80030000Y-52418072D01*
X80994250Y-52415000D01*
X81153000Y-52256250D01*
X81153000Y-51007000D01*
X81407000Y-51007000D01*
X81407000Y-52256250D01*
X81565750Y-52415000D01*
X82530000Y-52418072D01*
X82654482Y-52405812D01*
X82774180Y-52369502D01*
X82884494Y-52310537D01*
X82981185Y-52231185D01*
X83060537Y-52134494D01*
X83119502Y-52024180D01*
X83155812Y-51904482D01*
X83168072Y-51780000D01*
X83165000Y-51165750D01*
X83006250Y-51007000D01*
X81407000Y-51007000D01*
X81153000Y-51007000D01*
X79553750Y-51007000D01*
X79395000Y-51165750D01*
X79391928Y-51780000D01*
X77126554Y-51780000D01*
X77239287Y-51667267D01*
X77374443Y-51464992D01*
X77467540Y-51240236D01*
X77515000Y-51001637D01*
X77515000Y-50758363D01*
X85045000Y-50758363D01*
X85045000Y-51001637D01*
X85092460Y-51240236D01*
X85185557Y-51464992D01*
X85320713Y-51667267D01*
X85492733Y-51839287D01*
X85695008Y-51974443D01*
X85919764Y-52067540D01*
X86158363Y-52115000D01*
X86401637Y-52115000D01*
X86640236Y-52067540D01*
X86864992Y-51974443D01*
X87067267Y-51839287D01*
X87239287Y-51667267D01*
X87374443Y-51464992D01*
X87467540Y-51240236D01*
X87515000Y-51001637D01*
X87515000Y-50758363D01*
X90285000Y-50758363D01*
X90285000Y-51001637D01*
X90332460Y-51240236D01*
X90425557Y-51464992D01*
X90560713Y-51667267D01*
X90732733Y-51839287D01*
X90935008Y-51974443D01*
X91159764Y-52067540D01*
X91398363Y-52115000D01*
X91641637Y-52115000D01*
X91880236Y-52067540D01*
X92104992Y-51974443D01*
X92307267Y-51839287D01*
X92366554Y-51780000D01*
X94631928Y-51780000D01*
X94644188Y-51904482D01*
X94680498Y-52024180D01*
X94739463Y-52134494D01*
X94818815Y-52231185D01*
X94915506Y-52310537D01*
X95025820Y-52369502D01*
X95145518Y-52405812D01*
X95270000Y-52418072D01*
X96234250Y-52415000D01*
X96393000Y-52256250D01*
X96393000Y-51007000D01*
X96647000Y-51007000D01*
X96647000Y-52256250D01*
X96805750Y-52415000D01*
X97770000Y-52418072D01*
X97894482Y-52405812D01*
X98014180Y-52369502D01*
X98124494Y-52310537D01*
X98221185Y-52231185D01*
X98300537Y-52134494D01*
X98359502Y-52024180D01*
X98395812Y-51904482D01*
X98408072Y-51780000D01*
X98405000Y-51165750D01*
X98246250Y-51007000D01*
X96647000Y-51007000D01*
X96393000Y-51007000D01*
X94793750Y-51007000D01*
X94635000Y-51165750D01*
X94631928Y-51780000D01*
X92366554Y-51780000D01*
X92479287Y-51667267D01*
X92614443Y-51464992D01*
X92707540Y-51240236D01*
X92755000Y-51001637D01*
X92755000Y-50758363D01*
X100285000Y-50758363D01*
X100285000Y-51001637D01*
X100332460Y-51240236D01*
X100425557Y-51464992D01*
X100560713Y-51667267D01*
X100732733Y-51839287D01*
X100935008Y-51974443D01*
X101159764Y-52067540D01*
X101398363Y-52115000D01*
X101641637Y-52115000D01*
X101880236Y-52067540D01*
X102104992Y-51974443D01*
X102307267Y-51839287D01*
X102479287Y-51667267D01*
X102614443Y-51464992D01*
X102707540Y-51240236D01*
X102755000Y-51001637D01*
X102755000Y-50758363D01*
X105525000Y-50758363D01*
X105525000Y-51001637D01*
X105572460Y-51240236D01*
X105665557Y-51464992D01*
X105800713Y-51667267D01*
X105972733Y-51839287D01*
X106175008Y-51974443D01*
X106399764Y-52067540D01*
X106638363Y-52115000D01*
X106881637Y-52115000D01*
X107120236Y-52067540D01*
X107344992Y-51974443D01*
X107547267Y-51839287D01*
X107606554Y-51780000D01*
X109871928Y-51780000D01*
X109884188Y-51904482D01*
X109920498Y-52024180D01*
X109979463Y-52134494D01*
X110058815Y-52231185D01*
X110155506Y-52310537D01*
X110265820Y-52369502D01*
X110385518Y-52405812D01*
X110510000Y-52418072D01*
X111474250Y-52415000D01*
X111633000Y-52256250D01*
X111633000Y-51007000D01*
X111887000Y-51007000D01*
X111887000Y-52256250D01*
X112045750Y-52415000D01*
X113010000Y-52418072D01*
X113134482Y-52405812D01*
X113254180Y-52369502D01*
X113364494Y-52310537D01*
X113461185Y-52231185D01*
X113540537Y-52134494D01*
X113599502Y-52024180D01*
X113635812Y-51904482D01*
X113648072Y-51780000D01*
X113645000Y-51165750D01*
X113486250Y-51007000D01*
X111887000Y-51007000D01*
X111633000Y-51007000D01*
X110033750Y-51007000D01*
X109875000Y-51165750D01*
X109871928Y-51780000D01*
X107606554Y-51780000D01*
X107719287Y-51667267D01*
X107854443Y-51464992D01*
X107947540Y-51240236D01*
X107995000Y-51001637D01*
X107995000Y-50758363D01*
X115525000Y-50758363D01*
X115525000Y-51001637D01*
X115572460Y-51240236D01*
X115665557Y-51464992D01*
X115800713Y-51667267D01*
X115972733Y-51839287D01*
X116175008Y-51974443D01*
X116399764Y-52067540D01*
X116638363Y-52115000D01*
X116881637Y-52115000D01*
X117120236Y-52067540D01*
X117344992Y-51974443D01*
X117547267Y-51839287D01*
X117719287Y-51667267D01*
X117854443Y-51464992D01*
X117947540Y-51240236D01*
X117995000Y-51001637D01*
X117995000Y-50758363D01*
X117947540Y-50519764D01*
X117854443Y-50295008D01*
X117719287Y-50092733D01*
X117547267Y-49920713D01*
X117344992Y-49785557D01*
X117120236Y-49692460D01*
X116881637Y-49645000D01*
X116638363Y-49645000D01*
X116399764Y-49692460D01*
X116175008Y-49785557D01*
X115972733Y-49920713D01*
X115800713Y-50092733D01*
X115665557Y-50295008D01*
X115572460Y-50519764D01*
X115525000Y-50758363D01*
X107995000Y-50758363D01*
X107947540Y-50519764D01*
X107854443Y-50295008D01*
X107719287Y-50092733D01*
X107606554Y-49980000D01*
X109871928Y-49980000D01*
X109875000Y-50594250D01*
X110033750Y-50753000D01*
X111633000Y-50753000D01*
X111633000Y-49503750D01*
X111887000Y-49503750D01*
X111887000Y-50753000D01*
X113486250Y-50753000D01*
X113645000Y-50594250D01*
X113648072Y-49980000D01*
X113635812Y-49855518D01*
X113599502Y-49735820D01*
X113540537Y-49625506D01*
X113461185Y-49528815D01*
X113364494Y-49449463D01*
X113254180Y-49390498D01*
X113134482Y-49354188D01*
X113010000Y-49341928D01*
X112045750Y-49345000D01*
X111887000Y-49503750D01*
X111633000Y-49503750D01*
X111474250Y-49345000D01*
X110510000Y-49341928D01*
X110385518Y-49354188D01*
X110265820Y-49390498D01*
X110155506Y-49449463D01*
X110058815Y-49528815D01*
X109979463Y-49625506D01*
X109920498Y-49735820D01*
X109884188Y-49855518D01*
X109871928Y-49980000D01*
X107606554Y-49980000D01*
X107547267Y-49920713D01*
X107344992Y-49785557D01*
X107120236Y-49692460D01*
X106881637Y-49645000D01*
X106638363Y-49645000D01*
X106399764Y-49692460D01*
X106175008Y-49785557D01*
X105972733Y-49920713D01*
X105800713Y-50092733D01*
X105665557Y-50295008D01*
X105572460Y-50519764D01*
X105525000Y-50758363D01*
X102755000Y-50758363D01*
X102707540Y-50519764D01*
X102614443Y-50295008D01*
X102479287Y-50092733D01*
X102307267Y-49920713D01*
X102104992Y-49785557D01*
X101880236Y-49692460D01*
X101641637Y-49645000D01*
X101398363Y-49645000D01*
X101159764Y-49692460D01*
X100935008Y-49785557D01*
X100732733Y-49920713D01*
X100560713Y-50092733D01*
X100425557Y-50295008D01*
X100332460Y-50519764D01*
X100285000Y-50758363D01*
X92755000Y-50758363D01*
X92707540Y-50519764D01*
X92614443Y-50295008D01*
X92479287Y-50092733D01*
X92366554Y-49980000D01*
X94631928Y-49980000D01*
X94635000Y-50594250D01*
X94793750Y-50753000D01*
X96393000Y-50753000D01*
X96393000Y-49503750D01*
X96647000Y-49503750D01*
X96647000Y-50753000D01*
X98246250Y-50753000D01*
X98405000Y-50594250D01*
X98408072Y-49980000D01*
X98395812Y-49855518D01*
X98359502Y-49735820D01*
X98300537Y-49625506D01*
X98221185Y-49528815D01*
X98124494Y-49449463D01*
X98014180Y-49390498D01*
X97894482Y-49354188D01*
X97770000Y-49341928D01*
X96805750Y-49345000D01*
X96647000Y-49503750D01*
X96393000Y-49503750D01*
X96234250Y-49345000D01*
X95270000Y-49341928D01*
X95145518Y-49354188D01*
X95025820Y-49390498D01*
X94915506Y-49449463D01*
X94818815Y-49528815D01*
X94739463Y-49625506D01*
X94680498Y-49735820D01*
X94644188Y-49855518D01*
X94631928Y-49980000D01*
X92366554Y-49980000D01*
X92307267Y-49920713D01*
X92104992Y-49785557D01*
X91880236Y-49692460D01*
X91641637Y-49645000D01*
X91398363Y-49645000D01*
X91159764Y-49692460D01*
X90935008Y-49785557D01*
X90732733Y-49920713D01*
X90560713Y-50092733D01*
X90425557Y-50295008D01*
X90332460Y-50519764D01*
X90285000Y-50758363D01*
X87515000Y-50758363D01*
X87467540Y-50519764D01*
X87374443Y-50295008D01*
X87239287Y-50092733D01*
X87067267Y-49920713D01*
X86864992Y-49785557D01*
X86640236Y-49692460D01*
X86401637Y-49645000D01*
X86158363Y-49645000D01*
X85919764Y-49692460D01*
X85695008Y-49785557D01*
X85492733Y-49920713D01*
X85320713Y-50092733D01*
X85185557Y-50295008D01*
X85092460Y-50519764D01*
X85045000Y-50758363D01*
X77515000Y-50758363D01*
X77467540Y-50519764D01*
X77374443Y-50295008D01*
X77239287Y-50092733D01*
X77126554Y-49980000D01*
X79391928Y-49980000D01*
X79395000Y-50594250D01*
X79553750Y-50753000D01*
X81153000Y-50753000D01*
X81153000Y-49503750D01*
X81407000Y-49503750D01*
X81407000Y-50753000D01*
X83006250Y-50753000D01*
X83165000Y-50594250D01*
X83168072Y-49980000D01*
X83155812Y-49855518D01*
X83119502Y-49735820D01*
X83060537Y-49625506D01*
X82981185Y-49528815D01*
X82884494Y-49449463D01*
X82774180Y-49390498D01*
X82654482Y-49354188D01*
X82530000Y-49341928D01*
X81565750Y-49345000D01*
X81407000Y-49503750D01*
X81153000Y-49503750D01*
X80994250Y-49345000D01*
X80030000Y-49341928D01*
X79905518Y-49354188D01*
X79785820Y-49390498D01*
X79675506Y-49449463D01*
X79578815Y-49528815D01*
X79499463Y-49625506D01*
X79440498Y-49735820D01*
X79404188Y-49855518D01*
X79391928Y-49980000D01*
X77126554Y-49980000D01*
X77067267Y-49920713D01*
X76864992Y-49785557D01*
X76640236Y-49692460D01*
X76401637Y-49645000D01*
X76158363Y-49645000D01*
X75919764Y-49692460D01*
X75695008Y-49785557D01*
X75492733Y-49920713D01*
X75320713Y-50092733D01*
X75185557Y-50295008D01*
X75092460Y-50519764D01*
X75045000Y-50758363D01*
X27330000Y-50758363D01*
X27330000Y-48258363D01*
X75045000Y-48258363D01*
X75045000Y-48501637D01*
X75092460Y-48740236D01*
X75185557Y-48964992D01*
X75320713Y-49167267D01*
X75492733Y-49339287D01*
X75695008Y-49474443D01*
X75919764Y-49567540D01*
X76158363Y-49615000D01*
X76401637Y-49615000D01*
X76640236Y-49567540D01*
X76864992Y-49474443D01*
X77067267Y-49339287D01*
X77239287Y-49167267D01*
X77374443Y-48964992D01*
X77467540Y-48740236D01*
X77515000Y-48501637D01*
X77515000Y-48258363D01*
X85045000Y-48258363D01*
X85045000Y-48501637D01*
X85092460Y-48740236D01*
X85185557Y-48964992D01*
X85320713Y-49167267D01*
X85492733Y-49339287D01*
X85695008Y-49474443D01*
X85919764Y-49567540D01*
X86158363Y-49615000D01*
X86401637Y-49615000D01*
X86640236Y-49567540D01*
X86864992Y-49474443D01*
X87067267Y-49339287D01*
X87239287Y-49167267D01*
X87374443Y-48964992D01*
X87467540Y-48740236D01*
X87515000Y-48501637D01*
X87515000Y-48258363D01*
X90285000Y-48258363D01*
X90285000Y-48501637D01*
X90332460Y-48740236D01*
X90425557Y-48964992D01*
X90560713Y-49167267D01*
X90732733Y-49339287D01*
X90935008Y-49474443D01*
X91159764Y-49567540D01*
X91398363Y-49615000D01*
X91641637Y-49615000D01*
X91880236Y-49567540D01*
X92104992Y-49474443D01*
X92307267Y-49339287D01*
X92479287Y-49167267D01*
X92614443Y-48964992D01*
X92707540Y-48740236D01*
X92755000Y-48501637D01*
X92755000Y-48258363D01*
X100285000Y-48258363D01*
X100285000Y-48501637D01*
X100332460Y-48740236D01*
X100425557Y-48964992D01*
X100560713Y-49167267D01*
X100732733Y-49339287D01*
X100935008Y-49474443D01*
X101159764Y-49567540D01*
X101398363Y-49615000D01*
X101641637Y-49615000D01*
X101880236Y-49567540D01*
X102104992Y-49474443D01*
X102307267Y-49339287D01*
X102479287Y-49167267D01*
X102614443Y-48964992D01*
X102707540Y-48740236D01*
X102755000Y-48501637D01*
X102755000Y-48258363D01*
X105525000Y-48258363D01*
X105525000Y-48501637D01*
X105572460Y-48740236D01*
X105665557Y-48964992D01*
X105800713Y-49167267D01*
X105972733Y-49339287D01*
X106175008Y-49474443D01*
X106399764Y-49567540D01*
X106638363Y-49615000D01*
X106881637Y-49615000D01*
X107120236Y-49567540D01*
X107344992Y-49474443D01*
X107547267Y-49339287D01*
X107719287Y-49167267D01*
X107854443Y-48964992D01*
X107947540Y-48740236D01*
X107995000Y-48501637D01*
X107995000Y-48258363D01*
X115525000Y-48258363D01*
X115525000Y-48501637D01*
X115572460Y-48740236D01*
X115665557Y-48964992D01*
X115800713Y-49167267D01*
X115972733Y-49339287D01*
X116175008Y-49474443D01*
X116399764Y-49567540D01*
X116638363Y-49615000D01*
X116881637Y-49615000D01*
X117120236Y-49567540D01*
X117344992Y-49474443D01*
X117547267Y-49339287D01*
X117719287Y-49167267D01*
X117854443Y-48964992D01*
X117947540Y-48740236D01*
X117995000Y-48501637D01*
X117995000Y-48258363D01*
X117947540Y-48019764D01*
X117854443Y-47795008D01*
X117719287Y-47592733D01*
X117547267Y-47420713D01*
X117344992Y-47285557D01*
X117120236Y-47192460D01*
X116881637Y-47145000D01*
X116638363Y-47145000D01*
X116399764Y-47192460D01*
X116175008Y-47285557D01*
X115972733Y-47420713D01*
X115800713Y-47592733D01*
X115665557Y-47795008D01*
X115572460Y-48019764D01*
X115525000Y-48258363D01*
X107995000Y-48258363D01*
X107947540Y-48019764D01*
X107854443Y-47795008D01*
X107719287Y-47592733D01*
X107547267Y-47420713D01*
X107344992Y-47285557D01*
X107120236Y-47192460D01*
X106881637Y-47145000D01*
X106638363Y-47145000D01*
X106399764Y-47192460D01*
X106175008Y-47285557D01*
X105972733Y-47420713D01*
X105800713Y-47592733D01*
X105665557Y-47795008D01*
X105572460Y-48019764D01*
X105525000Y-48258363D01*
X102755000Y-48258363D01*
X102707540Y-48019764D01*
X102614443Y-47795008D01*
X102479287Y-47592733D01*
X102307267Y-47420713D01*
X102104992Y-47285557D01*
X101880236Y-47192460D01*
X101641637Y-47145000D01*
X101398363Y-47145000D01*
X101159764Y-47192460D01*
X100935008Y-47285557D01*
X100732733Y-47420713D01*
X100560713Y-47592733D01*
X100425557Y-47795008D01*
X100332460Y-48019764D01*
X100285000Y-48258363D01*
X92755000Y-48258363D01*
X92707540Y-48019764D01*
X92614443Y-47795008D01*
X92479287Y-47592733D01*
X92307267Y-47420713D01*
X92104992Y-47285557D01*
X91880236Y-47192460D01*
X91641637Y-47145000D01*
X91398363Y-47145000D01*
X91159764Y-47192460D01*
X90935008Y-47285557D01*
X90732733Y-47420713D01*
X90560713Y-47592733D01*
X90425557Y-47795008D01*
X90332460Y-48019764D01*
X90285000Y-48258363D01*
X87515000Y-48258363D01*
X87467540Y-48019764D01*
X87374443Y-47795008D01*
X87239287Y-47592733D01*
X87067267Y-47420713D01*
X86864992Y-47285557D01*
X86640236Y-47192460D01*
X86401637Y-47145000D01*
X86158363Y-47145000D01*
X85919764Y-47192460D01*
X85695008Y-47285557D01*
X85492733Y-47420713D01*
X85320713Y-47592733D01*
X85185557Y-47795008D01*
X85092460Y-48019764D01*
X85045000Y-48258363D01*
X77515000Y-48258363D01*
X77467540Y-48019764D01*
X77374443Y-47795008D01*
X77239287Y-47592733D01*
X77067267Y-47420713D01*
X76864992Y-47285557D01*
X76640236Y-47192460D01*
X76401637Y-47145000D01*
X76158363Y-47145000D01*
X75919764Y-47192460D01*
X75695008Y-47285557D01*
X75492733Y-47420713D01*
X75320713Y-47592733D01*
X75185557Y-47795008D01*
X75092460Y-48019764D01*
X75045000Y-48258363D01*
X27330000Y-48258363D01*
X27330000Y-45110000D01*
X125070001Y-45110000D01*
X125070000Y-85700000D01*
G37*
%TD.AperFunction*%
%TD*%
M02*
