%TF.GenerationSoftware,KiCad,Pcbnew,(5.1.8-0-10_14)*%
%TF.CreationDate,2020-12-14T15:32:48+01:00*%
%TF.ProjectId,FlexMAFD,466c6578-4d41-4464-942e-6b696361645f,rev?*%
%TF.SameCoordinates,Original*%
%TF.FileFunction,Legend,Top*%
%TF.FilePolarity,Positive*%
%FSLAX46Y46*%
G04 Gerber Fmt 4.6, Leading zero omitted, Abs format (unit mm)*
G04 Created by KiCad (PCBNEW (5.1.8-0-10_14)) date 2020-12-14 15:32:48*
%MOMM*%
%LPD*%
G01*
G04 APERTURE LIST*
%ADD10C,0.150000*%
%ADD11C,0.120000*%
%ADD12C,0.100000*%
%ADD13C,0.200000*%
%ADD14C,0.254000*%
G04 APERTURE END LIST*
D10*
X30022380Y-52522380D02*
X29546190Y-52522380D01*
X29546190Y-51522380D01*
X30355714Y-52522380D02*
X30355714Y-51855714D01*
X30355714Y-51522380D02*
X30308095Y-51570000D01*
X30355714Y-51617619D01*
X30403333Y-51570000D01*
X30355714Y-51522380D01*
X30355714Y-51617619D01*
X31260476Y-52474761D02*
X31165238Y-52522380D01*
X30974761Y-52522380D01*
X30879523Y-52474761D01*
X30831904Y-52427142D01*
X30784285Y-52331904D01*
X30784285Y-52046190D01*
X30831904Y-51950952D01*
X30879523Y-51903333D01*
X30974761Y-51855714D01*
X31165238Y-51855714D01*
X31260476Y-51903333D01*
X32070000Y-52474761D02*
X31974761Y-52522380D01*
X31784285Y-52522380D01*
X31689047Y-52474761D01*
X31641428Y-52379523D01*
X31641428Y-51998571D01*
X31689047Y-51903333D01*
X31784285Y-51855714D01*
X31974761Y-51855714D01*
X32070000Y-51903333D01*
X32117619Y-51998571D01*
X32117619Y-52093809D01*
X31641428Y-52189047D01*
X32546190Y-51855714D02*
X32546190Y-52522380D01*
X32546190Y-51950952D02*
X32593809Y-51903333D01*
X32689047Y-51855714D01*
X32831904Y-51855714D01*
X32927142Y-51903333D01*
X32974761Y-51998571D01*
X32974761Y-52522380D01*
X33403333Y-52474761D02*
X33498571Y-52522380D01*
X33689047Y-52522380D01*
X33784285Y-52474761D01*
X33831904Y-52379523D01*
X33831904Y-52331904D01*
X33784285Y-52236666D01*
X33689047Y-52189047D01*
X33546190Y-52189047D01*
X33450952Y-52141428D01*
X33403333Y-52046190D01*
X33403333Y-51998571D01*
X33450952Y-51903333D01*
X33546190Y-51855714D01*
X33689047Y-51855714D01*
X33784285Y-51903333D01*
X34641428Y-52474761D02*
X34546190Y-52522380D01*
X34355714Y-52522380D01*
X34260476Y-52474761D01*
X34212857Y-52379523D01*
X34212857Y-51998571D01*
X34260476Y-51903333D01*
X34355714Y-51855714D01*
X34546190Y-51855714D01*
X34641428Y-51903333D01*
X34689047Y-51998571D01*
X34689047Y-52093809D01*
X34212857Y-52189047D01*
X35117619Y-52427142D02*
X35165238Y-52474761D01*
X35117619Y-52522380D01*
X35070000Y-52474761D01*
X35117619Y-52427142D01*
X35117619Y-52522380D01*
X35117619Y-51903333D02*
X35165238Y-51950952D01*
X35117619Y-51998571D01*
X35070000Y-51950952D01*
X35117619Y-51903333D01*
X35117619Y-51998571D01*
X36927142Y-52427142D02*
X36879523Y-52474761D01*
X36736666Y-52522380D01*
X36641428Y-52522380D01*
X36498571Y-52474761D01*
X36403333Y-52379523D01*
X36355714Y-52284285D01*
X36308095Y-52093809D01*
X36308095Y-51950952D01*
X36355714Y-51760476D01*
X36403333Y-51665238D01*
X36498571Y-51570000D01*
X36641428Y-51522380D01*
X36736666Y-51522380D01*
X36879523Y-51570000D01*
X36927142Y-51617619D01*
X37927142Y-52427142D02*
X37879523Y-52474761D01*
X37736666Y-52522380D01*
X37641428Y-52522380D01*
X37498571Y-52474761D01*
X37403333Y-52379523D01*
X37355714Y-52284285D01*
X37308095Y-52093809D01*
X37308095Y-51950952D01*
X37355714Y-51760476D01*
X37403333Y-51665238D01*
X37498571Y-51570000D01*
X37641428Y-51522380D01*
X37736666Y-51522380D01*
X37879523Y-51570000D01*
X37927142Y-51617619D01*
X39450952Y-51998571D02*
X39593809Y-52046190D01*
X39641428Y-52093809D01*
X39689047Y-52189047D01*
X39689047Y-52331904D01*
X39641428Y-52427142D01*
X39593809Y-52474761D01*
X39498571Y-52522380D01*
X39117619Y-52522380D01*
X39117619Y-51522380D01*
X39450952Y-51522380D01*
X39546190Y-51570000D01*
X39593809Y-51617619D01*
X39641428Y-51712857D01*
X39641428Y-51808095D01*
X39593809Y-51903333D01*
X39546190Y-51950952D01*
X39450952Y-51998571D01*
X39117619Y-51998571D01*
X40308095Y-52046190D02*
X40308095Y-52522380D01*
X39974761Y-51522380D02*
X40308095Y-52046190D01*
X40641428Y-51522380D01*
X42165238Y-51855714D02*
X42165238Y-52522380D01*
X41927142Y-51474761D02*
X41689047Y-52189047D01*
X42308095Y-52189047D01*
X42689047Y-52427142D02*
X42736666Y-52474761D01*
X42689047Y-52522380D01*
X42641428Y-52474761D01*
X42689047Y-52427142D01*
X42689047Y-52522380D01*
X43355714Y-51522380D02*
X43450952Y-51522380D01*
X43546190Y-51570000D01*
X43593809Y-51617619D01*
X43641428Y-51712857D01*
X43689047Y-51903333D01*
X43689047Y-52141428D01*
X43641428Y-52331904D01*
X43593809Y-52427142D01*
X43546190Y-52474761D01*
X43450952Y-52522380D01*
X43355714Y-52522380D01*
X43260476Y-52474761D01*
X43212857Y-52427142D01*
X43165238Y-52331904D01*
X43117619Y-52141428D01*
X43117619Y-51903333D01*
X43165238Y-51712857D01*
X43212857Y-51617619D01*
X43260476Y-51570000D01*
X43355714Y-51522380D01*
X45308095Y-52474761D02*
X45212857Y-52522380D01*
X45022380Y-52522380D01*
X44927142Y-52474761D01*
X44879523Y-52427142D01*
X44831904Y-52331904D01*
X44831904Y-52046190D01*
X44879523Y-51950952D01*
X44927142Y-51903333D01*
X45022380Y-51855714D01*
X45212857Y-51855714D01*
X45308095Y-51903333D01*
X45736666Y-52522380D02*
X45736666Y-51855714D01*
X45736666Y-52046190D02*
X45784285Y-51950952D01*
X45831904Y-51903333D01*
X45927142Y-51855714D01*
X46022380Y-51855714D01*
X46736666Y-52474761D02*
X46641428Y-52522380D01*
X46450952Y-52522380D01*
X46355714Y-52474761D01*
X46308095Y-52379523D01*
X46308095Y-51998571D01*
X46355714Y-51903333D01*
X46450952Y-51855714D01*
X46641428Y-51855714D01*
X46736666Y-51903333D01*
X46784285Y-51998571D01*
X46784285Y-52093809D01*
X46308095Y-52189047D01*
X47641428Y-52522380D02*
X47641428Y-51998571D01*
X47593809Y-51903333D01*
X47498571Y-51855714D01*
X47308095Y-51855714D01*
X47212857Y-51903333D01*
X47641428Y-52474761D02*
X47546190Y-52522380D01*
X47308095Y-52522380D01*
X47212857Y-52474761D01*
X47165238Y-52379523D01*
X47165238Y-52284285D01*
X47212857Y-52189047D01*
X47308095Y-52141428D01*
X47546190Y-52141428D01*
X47641428Y-52093809D01*
X47974761Y-51855714D02*
X48355714Y-51855714D01*
X48117619Y-51522380D02*
X48117619Y-52379523D01*
X48165238Y-52474761D01*
X48260476Y-52522380D01*
X48355714Y-52522380D01*
X48689047Y-52522380D02*
X48689047Y-51855714D01*
X48689047Y-51522380D02*
X48641428Y-51570000D01*
X48689047Y-51617619D01*
X48736666Y-51570000D01*
X48689047Y-51522380D01*
X48689047Y-51617619D01*
X49070000Y-51855714D02*
X49308095Y-52522380D01*
X49546190Y-51855714D01*
X50308095Y-52474761D02*
X50212857Y-52522380D01*
X50022380Y-52522380D01*
X49927142Y-52474761D01*
X49879523Y-52379523D01*
X49879523Y-51998571D01*
X49927142Y-51903333D01*
X50022380Y-51855714D01*
X50212857Y-51855714D01*
X50308095Y-51903333D01*
X50355714Y-51998571D01*
X50355714Y-52093809D01*
X49879523Y-52189047D01*
X51212857Y-52474761D02*
X51117619Y-52522380D01*
X50927142Y-52522380D01*
X50831904Y-52474761D01*
X50784285Y-52427142D01*
X50736666Y-52331904D01*
X50736666Y-52046190D01*
X50784285Y-51950952D01*
X50831904Y-51903333D01*
X50927142Y-51855714D01*
X51117619Y-51855714D01*
X51212857Y-51903333D01*
X51784285Y-52522380D02*
X51689047Y-52474761D01*
X51641428Y-52427142D01*
X51593809Y-52331904D01*
X51593809Y-52046190D01*
X51641428Y-51950952D01*
X51689047Y-51903333D01*
X51784285Y-51855714D01*
X51927142Y-51855714D01*
X52022380Y-51903333D01*
X52070000Y-51950952D01*
X52117619Y-52046190D01*
X52117619Y-52331904D01*
X52070000Y-52427142D01*
X52022380Y-52474761D01*
X51927142Y-52522380D01*
X51784285Y-52522380D01*
X52546190Y-52522380D02*
X52546190Y-51855714D01*
X52546190Y-51950952D02*
X52593809Y-51903333D01*
X52689047Y-51855714D01*
X52831904Y-51855714D01*
X52927142Y-51903333D01*
X52974761Y-51998571D01*
X52974761Y-52522380D01*
X52974761Y-51998571D02*
X53022380Y-51903333D01*
X53117619Y-51855714D01*
X53260476Y-51855714D01*
X53355714Y-51903333D01*
X53403333Y-51998571D01*
X53403333Y-52522380D01*
X53879523Y-52522380D02*
X53879523Y-51855714D01*
X53879523Y-51950952D02*
X53927142Y-51903333D01*
X54022380Y-51855714D01*
X54165238Y-51855714D01*
X54260476Y-51903333D01*
X54308095Y-51998571D01*
X54308095Y-52522380D01*
X54308095Y-51998571D02*
X54355714Y-51903333D01*
X54450952Y-51855714D01*
X54593809Y-51855714D01*
X54689047Y-51903333D01*
X54736666Y-51998571D01*
X54736666Y-52522380D01*
X55355714Y-52522380D02*
X55260476Y-52474761D01*
X55212857Y-52427142D01*
X55165238Y-52331904D01*
X55165238Y-52046190D01*
X55212857Y-51950952D01*
X55260476Y-51903333D01*
X55355714Y-51855714D01*
X55498571Y-51855714D01*
X55593809Y-51903333D01*
X55641428Y-51950952D01*
X55689047Y-52046190D01*
X55689047Y-52331904D01*
X55641428Y-52427142D01*
X55593809Y-52474761D01*
X55498571Y-52522380D01*
X55355714Y-52522380D01*
X56117619Y-51855714D02*
X56117619Y-52522380D01*
X56117619Y-51950952D02*
X56165238Y-51903333D01*
X56260476Y-51855714D01*
X56403333Y-51855714D01*
X56498571Y-51903333D01*
X56546190Y-51998571D01*
X56546190Y-52522380D01*
X56974761Y-52474761D02*
X57070000Y-52522380D01*
X57260476Y-52522380D01*
X57355714Y-52474761D01*
X57403333Y-52379523D01*
X57403333Y-52331904D01*
X57355714Y-52236666D01*
X57260476Y-52189047D01*
X57117619Y-52189047D01*
X57022380Y-52141428D01*
X56974761Y-52046190D01*
X56974761Y-51998571D01*
X57022380Y-51903333D01*
X57117619Y-51855714D01*
X57260476Y-51855714D01*
X57355714Y-51903333D01*
X57831904Y-52427142D02*
X57879523Y-52474761D01*
X57831904Y-52522380D01*
X57784285Y-52474761D01*
X57831904Y-52427142D01*
X57831904Y-52522380D01*
X58450952Y-52522380D02*
X58355714Y-52474761D01*
X58308095Y-52427142D01*
X58260476Y-52331904D01*
X58260476Y-52046190D01*
X58308095Y-51950952D01*
X58355714Y-51903333D01*
X58450952Y-51855714D01*
X58593809Y-51855714D01*
X58689047Y-51903333D01*
X58736666Y-51950952D01*
X58784285Y-52046190D01*
X58784285Y-52331904D01*
X58736666Y-52427142D01*
X58689047Y-52474761D01*
X58593809Y-52522380D01*
X58450952Y-52522380D01*
X59212857Y-52522380D02*
X59212857Y-51855714D01*
X59212857Y-52046190D02*
X59260476Y-51950952D01*
X59308095Y-51903333D01*
X59403333Y-51855714D01*
X59498571Y-51855714D01*
X60260476Y-51855714D02*
X60260476Y-52665238D01*
X60212857Y-52760476D01*
X60165238Y-52808095D01*
X60070000Y-52855714D01*
X59927142Y-52855714D01*
X59831904Y-52808095D01*
X60260476Y-52474761D02*
X60165238Y-52522380D01*
X59974761Y-52522380D01*
X59879523Y-52474761D01*
X59831904Y-52427142D01*
X59784285Y-52331904D01*
X59784285Y-52046190D01*
X59831904Y-51950952D01*
X59879523Y-51903333D01*
X59974761Y-51855714D01*
X60165238Y-51855714D01*
X60260476Y-51903333D01*
X61450952Y-51474761D02*
X60593809Y-52760476D01*
X61927142Y-52522380D02*
X61831904Y-52474761D01*
X61784285Y-52379523D01*
X61784285Y-51522380D01*
X62308095Y-52522380D02*
X62308095Y-51855714D01*
X62308095Y-51522380D02*
X62260476Y-51570000D01*
X62308095Y-51617619D01*
X62355714Y-51570000D01*
X62308095Y-51522380D01*
X62308095Y-51617619D01*
X63212857Y-52474761D02*
X63117619Y-52522380D01*
X62927142Y-52522380D01*
X62831904Y-52474761D01*
X62784285Y-52427142D01*
X62736666Y-52331904D01*
X62736666Y-52046190D01*
X62784285Y-51950952D01*
X62831904Y-51903333D01*
X62927142Y-51855714D01*
X63117619Y-51855714D01*
X63212857Y-51903333D01*
X64022380Y-52474761D02*
X63927142Y-52522380D01*
X63736666Y-52522380D01*
X63641428Y-52474761D01*
X63593809Y-52379523D01*
X63593809Y-51998571D01*
X63641428Y-51903333D01*
X63736666Y-51855714D01*
X63927142Y-51855714D01*
X64022380Y-51903333D01*
X64069999Y-51998571D01*
X64069999Y-52093809D01*
X63593809Y-52189047D01*
X64498571Y-51855714D02*
X64498571Y-52522380D01*
X64498571Y-51950952D02*
X64546190Y-51903333D01*
X64641428Y-51855714D01*
X64784285Y-51855714D01*
X64879523Y-51903333D01*
X64927142Y-51998571D01*
X64927142Y-52522380D01*
X65355714Y-52474761D02*
X65450952Y-52522380D01*
X65641428Y-52522380D01*
X65736666Y-52474761D01*
X65784285Y-52379523D01*
X65784285Y-52331904D01*
X65736666Y-52236666D01*
X65641428Y-52189047D01*
X65498571Y-52189047D01*
X65403333Y-52141428D01*
X65355714Y-52046190D01*
X65355714Y-51998571D01*
X65403333Y-51903333D01*
X65498571Y-51855714D01*
X65641428Y-51855714D01*
X65736666Y-51903333D01*
X66593809Y-52474761D02*
X66498571Y-52522380D01*
X66308095Y-52522380D01*
X66212857Y-52474761D01*
X66165238Y-52379523D01*
X66165238Y-51998571D01*
X66212857Y-51903333D01*
X66308095Y-51855714D01*
X66498571Y-51855714D01*
X66593809Y-51903333D01*
X66641428Y-51998571D01*
X66641428Y-52093809D01*
X66165238Y-52189047D01*
X67022380Y-52474761D02*
X67117619Y-52522380D01*
X67308095Y-52522380D01*
X67403333Y-52474761D01*
X67450952Y-52379523D01*
X67450952Y-52331904D01*
X67403333Y-52236666D01*
X67308095Y-52189047D01*
X67165238Y-52189047D01*
X67069999Y-52141428D01*
X67022380Y-52046190D01*
X67022380Y-51998571D01*
X67069999Y-51903333D01*
X67165238Y-51855714D01*
X67308095Y-51855714D01*
X67403333Y-51903333D01*
X68593809Y-51474761D02*
X67736666Y-52760476D01*
X68927142Y-52522380D02*
X68927142Y-51522380D01*
X68927142Y-51903333D02*
X69022380Y-51855714D01*
X69212857Y-51855714D01*
X69308095Y-51903333D01*
X69355714Y-51950952D01*
X69403333Y-52046190D01*
X69403333Y-52331904D01*
X69355714Y-52427142D01*
X69308095Y-52474761D01*
X69212857Y-52522380D01*
X69022380Y-52522380D01*
X68927142Y-52474761D01*
X69736666Y-51855714D02*
X69974761Y-52522380D01*
X70212857Y-51855714D02*
X69974761Y-52522380D01*
X69879523Y-52760476D01*
X69831904Y-52808095D01*
X69736666Y-52855714D01*
X71308095Y-51474761D02*
X70450952Y-52760476D01*
X72069999Y-51855714D02*
X72069999Y-52522380D01*
X71831904Y-51474761D02*
X71593809Y-52189047D01*
X72212857Y-52189047D01*
X72593809Y-52427142D02*
X72641428Y-52474761D01*
X72593809Y-52522380D01*
X72546190Y-52474761D01*
X72593809Y-52427142D01*
X72593809Y-52522380D01*
X73260476Y-51522380D02*
X73355714Y-51522380D01*
X73450952Y-51570000D01*
X73498571Y-51617619D01*
X73546190Y-51712857D01*
X73593809Y-51903333D01*
X73593809Y-52141428D01*
X73546190Y-52331904D01*
X73498571Y-52427142D01*
X73450952Y-52474761D01*
X73355714Y-52522380D01*
X73260476Y-52522380D01*
X73165238Y-52474761D01*
X73117619Y-52427142D01*
X73069999Y-52331904D01*
X73022380Y-52141428D01*
X73022380Y-51903333D01*
X73069999Y-51712857D01*
X73117619Y-51617619D01*
X73165238Y-51570000D01*
X73260476Y-51522380D01*
X74736666Y-51474761D02*
X73879523Y-52760476D01*
X28996666Y-49696666D02*
X29472857Y-49696666D01*
X28901428Y-49982380D02*
X29234761Y-48982380D01*
X29568095Y-49982380D01*
X30330000Y-49315714D02*
X30330000Y-49982380D01*
X29901428Y-49315714D02*
X29901428Y-49839523D01*
X29949047Y-49934761D01*
X30044285Y-49982380D01*
X30187142Y-49982380D01*
X30282380Y-49934761D01*
X30330000Y-49887142D01*
X30663333Y-49315714D02*
X31044285Y-49315714D01*
X30806190Y-48982380D02*
X30806190Y-49839523D01*
X30853809Y-49934761D01*
X30949047Y-49982380D01*
X31044285Y-49982380D01*
X31377619Y-49982380D02*
X31377619Y-48982380D01*
X31806190Y-49982380D02*
X31806190Y-49458571D01*
X31758571Y-49363333D01*
X31663333Y-49315714D01*
X31520476Y-49315714D01*
X31425238Y-49363333D01*
X31377619Y-49410952D01*
X32425238Y-49982380D02*
X32330000Y-49934761D01*
X32282380Y-49887142D01*
X32234761Y-49791904D01*
X32234761Y-49506190D01*
X32282380Y-49410952D01*
X32330000Y-49363333D01*
X32425238Y-49315714D01*
X32568095Y-49315714D01*
X32663333Y-49363333D01*
X32710952Y-49410952D01*
X32758571Y-49506190D01*
X32758571Y-49791904D01*
X32710952Y-49887142D01*
X32663333Y-49934761D01*
X32568095Y-49982380D01*
X32425238Y-49982380D01*
X33187142Y-49982380D02*
X33187142Y-49315714D01*
X33187142Y-49506190D02*
X33234761Y-49410952D01*
X33282380Y-49363333D01*
X33377619Y-49315714D01*
X33472857Y-49315714D01*
X33806190Y-49887142D02*
X33853809Y-49934761D01*
X33806190Y-49982380D01*
X33758571Y-49934761D01*
X33806190Y-49887142D01*
X33806190Y-49982380D01*
X33806190Y-49363333D02*
X33853809Y-49410952D01*
X33806190Y-49458571D01*
X33758571Y-49410952D01*
X33806190Y-49363333D01*
X33806190Y-49458571D01*
X34996666Y-49696666D02*
X35472857Y-49696666D01*
X34901428Y-49982380D02*
X35234761Y-48982380D01*
X35568095Y-49982380D01*
X35901428Y-49315714D02*
X35901428Y-49982380D01*
X35901428Y-49410952D02*
X35949047Y-49363333D01*
X36044285Y-49315714D01*
X36187142Y-49315714D01*
X36282380Y-49363333D01*
X36330000Y-49458571D01*
X36330000Y-49982380D01*
X37234761Y-49982380D02*
X37234761Y-48982380D01*
X37234761Y-49934761D02*
X37139523Y-49982380D01*
X36949047Y-49982380D01*
X36853809Y-49934761D01*
X36806190Y-49887142D01*
X36758571Y-49791904D01*
X36758571Y-49506190D01*
X36806190Y-49410952D01*
X36853809Y-49363333D01*
X36949047Y-49315714D01*
X37139523Y-49315714D01*
X37234761Y-49363333D01*
X37710952Y-49982380D02*
X37710952Y-49315714D01*
X37710952Y-49506190D02*
X37758571Y-49410952D01*
X37806190Y-49363333D01*
X37901428Y-49315714D01*
X37996666Y-49315714D01*
X38710952Y-49934761D02*
X38615714Y-49982380D01*
X38425238Y-49982380D01*
X38330000Y-49934761D01*
X38282380Y-49839523D01*
X38282380Y-49458571D01*
X38330000Y-49363333D01*
X38425238Y-49315714D01*
X38615714Y-49315714D01*
X38710952Y-49363333D01*
X38758571Y-49458571D01*
X38758571Y-49553809D01*
X38282380Y-49649047D01*
X39091904Y-49315714D02*
X39282380Y-49982380D01*
X39472857Y-49506190D01*
X39663333Y-49982380D01*
X39853809Y-49315714D01*
X41568095Y-49887142D02*
X41520476Y-49934761D01*
X41377619Y-49982380D01*
X41282380Y-49982380D01*
X41139523Y-49934761D01*
X41044285Y-49839523D01*
X40996666Y-49744285D01*
X40949047Y-49553809D01*
X40949047Y-49410952D01*
X40996666Y-49220476D01*
X41044285Y-49125238D01*
X41139523Y-49030000D01*
X41282380Y-48982380D01*
X41377619Y-48982380D01*
X41520476Y-49030000D01*
X41568095Y-49077619D01*
X42139523Y-49982380D02*
X42044285Y-49934761D01*
X41996666Y-49839523D01*
X41996666Y-48982380D01*
X42949047Y-49982380D02*
X42949047Y-49458571D01*
X42901428Y-49363333D01*
X42806190Y-49315714D01*
X42615714Y-49315714D01*
X42520476Y-49363333D01*
X42949047Y-49934761D02*
X42853809Y-49982380D01*
X42615714Y-49982380D01*
X42520476Y-49934761D01*
X42472857Y-49839523D01*
X42472857Y-49744285D01*
X42520476Y-49649047D01*
X42615714Y-49601428D01*
X42853809Y-49601428D01*
X42949047Y-49553809D01*
X43806190Y-49934761D02*
X43710952Y-49982380D01*
X43520476Y-49982380D01*
X43425238Y-49934761D01*
X43377619Y-49839523D01*
X43377619Y-49458571D01*
X43425238Y-49363333D01*
X43520476Y-49315714D01*
X43710952Y-49315714D01*
X43806190Y-49363333D01*
X43853809Y-49458571D01*
X43853809Y-49553809D01*
X43377619Y-49649047D01*
X44234761Y-49934761D02*
X44330000Y-49982380D01*
X44520476Y-49982380D01*
X44615714Y-49934761D01*
X44663333Y-49839523D01*
X44663333Y-49791904D01*
X44615714Y-49696666D01*
X44520476Y-49649047D01*
X44377619Y-49649047D01*
X44282380Y-49601428D01*
X44234761Y-49506190D01*
X44234761Y-49458571D01*
X44282380Y-49363333D01*
X44377619Y-49315714D01*
X44520476Y-49315714D01*
X44615714Y-49363333D01*
X29694761Y-46918571D02*
X29361428Y-46918571D01*
X29361428Y-47442380D02*
X29361428Y-46442380D01*
X29837619Y-46442380D01*
X30361428Y-47442380D02*
X30266190Y-47394761D01*
X30218571Y-47299523D01*
X30218571Y-46442380D01*
X31123333Y-47394761D02*
X31028095Y-47442380D01*
X30837619Y-47442380D01*
X30742380Y-47394761D01*
X30694761Y-47299523D01*
X30694761Y-46918571D01*
X30742380Y-46823333D01*
X30837619Y-46775714D01*
X31028095Y-46775714D01*
X31123333Y-46823333D01*
X31170952Y-46918571D01*
X31170952Y-47013809D01*
X30694761Y-47109047D01*
X31504285Y-47442380D02*
X32028095Y-46775714D01*
X31504285Y-46775714D02*
X32028095Y-47442380D01*
X32409047Y-47442380D02*
X32409047Y-46442380D01*
X32742380Y-47156666D01*
X33075714Y-46442380D01*
X33075714Y-47442380D01*
X33504285Y-47156666D02*
X33980476Y-47156666D01*
X33409047Y-47442380D02*
X33742380Y-46442380D01*
X34075714Y-47442380D01*
X34742380Y-46918571D02*
X34409047Y-46918571D01*
X34409047Y-47442380D02*
X34409047Y-46442380D01*
X34885238Y-46442380D01*
X35266190Y-47442380D02*
X35266190Y-46442380D01*
X35504285Y-46442380D01*
X35647142Y-46490000D01*
X35742380Y-46585238D01*
X35790000Y-46680476D01*
X35837619Y-46870952D01*
X35837619Y-47013809D01*
X35790000Y-47204285D01*
X35742380Y-47299523D01*
X35647142Y-47394761D01*
X35504285Y-47442380D01*
X35266190Y-47442380D01*
X36932857Y-46775714D02*
X37170952Y-47442380D01*
X37409047Y-46775714D01*
X37980476Y-46442380D02*
X38075714Y-46442380D01*
X38170952Y-46490000D01*
X38218571Y-46537619D01*
X38266190Y-46632857D01*
X38313809Y-46823333D01*
X38313809Y-47061428D01*
X38266190Y-47251904D01*
X38218571Y-47347142D01*
X38170952Y-47394761D01*
X38075714Y-47442380D01*
X37980476Y-47442380D01*
X37885238Y-47394761D01*
X37837619Y-47347142D01*
X37790000Y-47251904D01*
X37742380Y-47061428D01*
X37742380Y-46823333D01*
X37790000Y-46632857D01*
X37837619Y-46537619D01*
X37885238Y-46490000D01*
X37980476Y-46442380D01*
X39266190Y-47442380D02*
X38694761Y-47442380D01*
X38980476Y-47442380D02*
X38980476Y-46442380D01*
X38885238Y-46585238D01*
X38790000Y-46680476D01*
X38694761Y-46728095D01*
D11*
%TO.C,C1*%
X33080000Y-58320000D02*
X33080000Y-61060000D01*
X27840000Y-58320000D02*
X27840000Y-61060000D01*
X27840000Y-61060000D02*
X33080000Y-61060000D01*
X27840000Y-58320000D02*
X33080000Y-58320000D01*
D12*
%TO.C,CON1*%
X86180000Y-44480000D02*
X86180000Y-44280000D01*
X86480000Y-44480000D02*
X86180000Y-44480000D01*
X87380000Y-45380000D02*
X86480000Y-44480000D01*
X87380000Y-45780000D02*
X87380000Y-45380000D01*
X87380000Y-58680000D02*
X85880000Y-58680000D01*
X87380000Y-58080000D02*
X87380000Y-58680000D01*
X75180000Y-58680000D02*
X76580000Y-58680000D01*
X75180000Y-58080000D02*
X75180000Y-58680000D01*
X75180000Y-44480000D02*
X76380000Y-44480000D01*
X75180000Y-45080000D02*
X75180000Y-44480000D01*
%TO.C,CON2*%
X90420000Y-45080000D02*
X90420000Y-44480000D01*
X90420000Y-44480000D02*
X91620000Y-44480000D01*
X90420000Y-58080000D02*
X90420000Y-58680000D01*
X90420000Y-58680000D02*
X91820000Y-58680000D01*
X102620000Y-58080000D02*
X102620000Y-58680000D01*
X102620000Y-58680000D02*
X101120000Y-58680000D01*
X102620000Y-45780000D02*
X102620000Y-45380000D01*
X102620000Y-45380000D02*
X101720000Y-44480000D01*
X101720000Y-44480000D02*
X101420000Y-44480000D01*
X101420000Y-44480000D02*
X101420000Y-44280000D01*
%TO.C,CON3*%
X116660000Y-44480000D02*
X116660000Y-44280000D01*
X116960000Y-44480000D02*
X116660000Y-44480000D01*
X117860000Y-45380000D02*
X116960000Y-44480000D01*
X117860000Y-45780000D02*
X117860000Y-45380000D01*
X117860000Y-58680000D02*
X116360000Y-58680000D01*
X117860000Y-58080000D02*
X117860000Y-58680000D01*
X105660000Y-58680000D02*
X107060000Y-58680000D01*
X105660000Y-58080000D02*
X105660000Y-58680000D01*
X105660000Y-44480000D02*
X106860000Y-44480000D01*
X105660000Y-45080000D02*
X105660000Y-44480000D01*
D11*
%TO.C,D1*%
X98910000Y-70870000D02*
X96670000Y-70870000D01*
X98910000Y-71110000D02*
X96670000Y-71110000D01*
X98910000Y-70990000D02*
X96670000Y-70990000D01*
X97790000Y-75160000D02*
X97790000Y-74510000D01*
X97790000Y-69620000D02*
X97790000Y-70270000D01*
X98910000Y-74510000D02*
X98910000Y-70270000D01*
X96670000Y-74510000D02*
X98910000Y-74510000D01*
X96670000Y-70270000D02*
X96670000Y-74510000D01*
X98910000Y-70270000D02*
X96670000Y-70270000D01*
%TO.C,D2*%
X120360000Y-60770000D02*
X120360000Y-60926000D01*
X120360000Y-58454000D02*
X120360000Y-58610000D01*
X123592335Y-58611392D02*
G75*
G03*
X120360000Y-58454484I-1672335J-1078608D01*
G01*
X123592335Y-60768608D02*
G75*
G02*
X120360000Y-60925516I-1672335J1078608D01*
G01*
X122961130Y-58610163D02*
G75*
G03*
X120879039Y-58610000I-1041130J-1079837D01*
G01*
X122961130Y-60769837D02*
G75*
G02*
X120879039Y-60770000I-1041130J1079837D01*
G01*
D13*
%TO.C,J1*%
X112930000Y-63040000D02*
X112930000Y-63040000D01*
X113130000Y-63040000D02*
X113130000Y-63040000D01*
D12*
X110030000Y-63545000D02*
X110030000Y-66045000D01*
X125530000Y-63545000D02*
X110030000Y-63545000D01*
X125530000Y-83545000D02*
X125530000Y-63545000D01*
X110030000Y-83545000D02*
X125530000Y-83545000D01*
X110030000Y-81050000D02*
X110030000Y-83545000D01*
D13*
X112930000Y-63040000D02*
G75*
G03*
X113130000Y-63040000I100000J0D01*
G01*
X113130000Y-63040000D02*
G75*
G03*
X112930000Y-63040000I-100000J0D01*
G01*
D11*
%TO.C,R1*%
X101500000Y-75660000D02*
X101830000Y-75660000D01*
X101500000Y-69120000D02*
X101500000Y-75660000D01*
X101830000Y-69120000D02*
X101500000Y-69120000D01*
X104240000Y-75660000D02*
X103910000Y-75660000D01*
X104240000Y-69120000D02*
X104240000Y-75660000D01*
X103910000Y-69120000D02*
X104240000Y-69120000D01*
%TO.C,R2*%
X78970000Y-75660000D02*
X78640000Y-75660000D01*
X78640000Y-75660000D02*
X78640000Y-69120000D01*
X78640000Y-69120000D02*
X78970000Y-69120000D01*
X81050000Y-75660000D02*
X81380000Y-75660000D01*
X81380000Y-75660000D02*
X81380000Y-69120000D01*
X81380000Y-69120000D02*
X81050000Y-69120000D01*
D12*
%TO.C,U1*%
X92310000Y-67400000D02*
X92010000Y-67400000D01*
X92310000Y-67700000D02*
X92310000Y-67400000D01*
X85510000Y-67400000D02*
X85810000Y-67400000D01*
X85510000Y-67700000D02*
X85510000Y-67400000D01*
X85510000Y-77400000D02*
X85810000Y-77400000D01*
X85510000Y-77100000D02*
X85510000Y-77400000D01*
X92310000Y-77400000D02*
X92010000Y-77400000D01*
X92310000Y-77100000D02*
X92310000Y-77400000D01*
%TO.C,U2*%
G36*
X50546000Y-76581000D02*
G01*
X50292000Y-76327000D01*
X50673000Y-76073000D01*
X50927000Y-76327000D01*
X50546000Y-76581000D01*
G37*
X50546000Y-76581000D02*
X50292000Y-76327000D01*
X50673000Y-76073000D01*
X50927000Y-76327000D01*
X50546000Y-76581000D01*
G36*
X49530000Y-77343000D02*
G01*
X49276000Y-77089000D01*
X49657000Y-76835000D01*
X49911000Y-77089000D01*
X49530000Y-77343000D01*
G37*
X49530000Y-77343000D02*
X49276000Y-77089000D01*
X49657000Y-76835000D01*
X49911000Y-77089000D01*
X49530000Y-77343000D01*
G36*
X50292000Y-78105000D02*
G01*
X50038000Y-77851000D01*
X50419000Y-77597000D01*
X50673000Y-77851000D01*
X50292000Y-78105000D01*
G37*
X50292000Y-78105000D02*
X50038000Y-77851000D01*
X50419000Y-77597000D01*
X50673000Y-77851000D01*
X50292000Y-78105000D01*
G36*
X50165000Y-76200000D02*
G01*
X49911000Y-75946000D01*
X50292000Y-75692000D01*
X50546000Y-75946000D01*
X50165000Y-76200000D01*
G37*
X50165000Y-76200000D02*
X49911000Y-75946000D01*
X50292000Y-75692000D01*
X50546000Y-75946000D01*
X50165000Y-76200000D01*
G36*
X49911000Y-77724000D02*
G01*
X49657000Y-77470000D01*
X50038000Y-77216000D01*
X50292000Y-77470000D01*
X49911000Y-77724000D01*
G37*
X49911000Y-77724000D02*
X49657000Y-77470000D01*
X50038000Y-77216000D01*
X50292000Y-77470000D01*
X49911000Y-77724000D01*
G36*
X50673000Y-75819000D02*
G01*
X50419000Y-75565000D01*
X50800000Y-75311000D01*
X51054000Y-75565000D01*
X50673000Y-75819000D01*
G37*
X50673000Y-75819000D02*
X50419000Y-75565000D01*
X50800000Y-75311000D01*
X51054000Y-75565000D01*
X50673000Y-75819000D01*
G36*
X50038000Y-76962000D02*
G01*
X49784000Y-76708000D01*
X50165000Y-76454000D01*
X50419000Y-76708000D01*
X50038000Y-76962000D01*
G37*
X50038000Y-76962000D02*
X49784000Y-76708000D01*
X50165000Y-76454000D01*
X50419000Y-76708000D01*
X50038000Y-76962000D01*
G36*
X49657000Y-76581000D02*
G01*
X49403000Y-76327000D01*
X49784000Y-76073000D01*
X50038000Y-76327000D01*
X49657000Y-76581000D01*
G37*
X49657000Y-76581000D02*
X49403000Y-76327000D01*
X49784000Y-76073000D01*
X50038000Y-76327000D01*
X49657000Y-76581000D01*
D10*
X27940000Y-82550000D02*
X27940000Y-64770000D01*
X63500000Y-82550000D02*
X27940000Y-82550000D01*
X63500000Y-64770000D02*
X63500000Y-82550000D01*
X27940000Y-64770000D02*
X63500000Y-64770000D01*
X54610000Y-78740000D02*
X45720000Y-78740000D01*
X54610000Y-68580000D02*
X45720000Y-68580000D01*
X45720000Y-68580000D02*
X45720000Y-78740000D01*
X54610000Y-78740000D02*
X54610000Y-68580000D01*
X58420000Y-71120000D02*
X60960000Y-71120000D01*
X58420000Y-76200000D02*
X58420000Y-71120000D01*
X60960000Y-76200000D02*
X58420000Y-76200000D01*
X60960000Y-71120000D02*
X60960000Y-76200000D01*
X34290000Y-76200000D02*
X34290000Y-78740000D01*
X36830000Y-76200000D02*
X34290000Y-76200000D01*
X36830000Y-78740000D02*
X36830000Y-76200000D01*
X34290000Y-78740000D02*
X36830000Y-78740000D01*
X33020000Y-77470000D02*
X27940000Y-77470000D01*
X33020000Y-69850000D02*
X27940000Y-69850000D01*
X33020000Y-77470000D02*
X33020000Y-69850000D01*
X39370000Y-76200000D02*
X39370000Y-78740000D01*
X43180000Y-76200000D02*
X39370000Y-76200000D01*
X43180000Y-78740000D02*
X43180000Y-76200000D01*
X39370000Y-78740000D02*
X43180000Y-78740000D01*
X26670000Y-69850000D02*
X27940000Y-69850000D01*
X26670000Y-77470000D02*
X26670000Y-69850000D01*
X27940000Y-77470000D02*
X26670000Y-77470000D01*
D12*
%TO.C,U3*%
X74530000Y-63880000D02*
X74130000Y-63880000D01*
X74530000Y-64280000D02*
X74530000Y-63880000D01*
X67730000Y-63880000D02*
X67730000Y-64280000D01*
X68230000Y-63880000D02*
X67730000Y-63880000D01*
X67730000Y-83380000D02*
X68130000Y-83380000D01*
X67730000Y-82980000D02*
X67730000Y-83380000D01*
X73630000Y-83480000D02*
X74630000Y-82480000D01*
X73330000Y-83480000D02*
X73630000Y-83480000D01*
X74630000Y-82480000D02*
X75000000Y-82480000D01*
X75010000Y-82480000D02*
X75260000Y-82480000D01*
%TO.C,C1*%
D10*
X30293333Y-57547142D02*
X30245714Y-57594761D01*
X30102857Y-57642380D01*
X30007619Y-57642380D01*
X29864761Y-57594761D01*
X29769523Y-57499523D01*
X29721904Y-57404285D01*
X29674285Y-57213809D01*
X29674285Y-57070952D01*
X29721904Y-56880476D01*
X29769523Y-56785238D01*
X29864761Y-56690000D01*
X30007619Y-56642380D01*
X30102857Y-56642380D01*
X30245714Y-56690000D01*
X30293333Y-56737619D01*
X31245714Y-57642380D02*
X30674285Y-57642380D01*
X30960000Y-57642380D02*
X30960000Y-56642380D01*
X30864761Y-56785238D01*
X30769523Y-56880476D01*
X30674285Y-56928095D01*
%TO.C,CON1*%
X88637142Y-52594285D02*
X88684761Y-52641904D01*
X88732380Y-52784761D01*
X88732380Y-52880000D01*
X88684761Y-53022857D01*
X88589523Y-53118095D01*
X88494285Y-53165714D01*
X88303809Y-53213333D01*
X88160952Y-53213333D01*
X87970476Y-53165714D01*
X87875238Y-53118095D01*
X87780000Y-53022857D01*
X87732380Y-52880000D01*
X87732380Y-52784761D01*
X87780000Y-52641904D01*
X87827619Y-52594285D01*
X87732380Y-51975238D02*
X87732380Y-51784761D01*
X87780000Y-51689523D01*
X87875238Y-51594285D01*
X88065714Y-51546666D01*
X88399047Y-51546666D01*
X88589523Y-51594285D01*
X88684761Y-51689523D01*
X88732380Y-51784761D01*
X88732380Y-51975238D01*
X88684761Y-52070476D01*
X88589523Y-52165714D01*
X88399047Y-52213333D01*
X88065714Y-52213333D01*
X87875238Y-52165714D01*
X87780000Y-52070476D01*
X87732380Y-51975238D01*
X88732380Y-51118095D02*
X87732380Y-51118095D01*
X88732380Y-50546666D01*
X87732380Y-50546666D01*
X88732380Y-49546666D02*
X88732380Y-50118095D01*
X88732380Y-49832380D02*
X87732380Y-49832380D01*
X87875238Y-49927619D01*
X87970476Y-50022857D01*
X88018095Y-50118095D01*
%TO.C,CON2*%
X103877142Y-52594285D02*
X103924761Y-52641904D01*
X103972380Y-52784761D01*
X103972380Y-52880000D01*
X103924761Y-53022857D01*
X103829523Y-53118095D01*
X103734285Y-53165714D01*
X103543809Y-53213333D01*
X103400952Y-53213333D01*
X103210476Y-53165714D01*
X103115238Y-53118095D01*
X103020000Y-53022857D01*
X102972380Y-52880000D01*
X102972380Y-52784761D01*
X103020000Y-52641904D01*
X103067619Y-52594285D01*
X102972380Y-51975238D02*
X102972380Y-51784761D01*
X103020000Y-51689523D01*
X103115238Y-51594285D01*
X103305714Y-51546666D01*
X103639047Y-51546666D01*
X103829523Y-51594285D01*
X103924761Y-51689523D01*
X103972380Y-51784761D01*
X103972380Y-51975238D01*
X103924761Y-52070476D01*
X103829523Y-52165714D01*
X103639047Y-52213333D01*
X103305714Y-52213333D01*
X103115238Y-52165714D01*
X103020000Y-52070476D01*
X102972380Y-51975238D01*
X103972380Y-51118095D02*
X102972380Y-51118095D01*
X103972380Y-50546666D01*
X102972380Y-50546666D01*
X103067619Y-50118095D02*
X103020000Y-50070476D01*
X102972380Y-49975238D01*
X102972380Y-49737142D01*
X103020000Y-49641904D01*
X103067619Y-49594285D01*
X103162857Y-49546666D01*
X103258095Y-49546666D01*
X103400952Y-49594285D01*
X103972380Y-50165714D01*
X103972380Y-49546666D01*
%TO.C,CON3*%
X119117142Y-52594285D02*
X119164761Y-52641904D01*
X119212380Y-52784761D01*
X119212380Y-52880000D01*
X119164761Y-53022857D01*
X119069523Y-53118095D01*
X118974285Y-53165714D01*
X118783809Y-53213333D01*
X118640952Y-53213333D01*
X118450476Y-53165714D01*
X118355238Y-53118095D01*
X118260000Y-53022857D01*
X118212380Y-52880000D01*
X118212380Y-52784761D01*
X118260000Y-52641904D01*
X118307619Y-52594285D01*
X118212380Y-51975238D02*
X118212380Y-51784761D01*
X118260000Y-51689523D01*
X118355238Y-51594285D01*
X118545714Y-51546666D01*
X118879047Y-51546666D01*
X119069523Y-51594285D01*
X119164761Y-51689523D01*
X119212380Y-51784761D01*
X119212380Y-51975238D01*
X119164761Y-52070476D01*
X119069523Y-52165714D01*
X118879047Y-52213333D01*
X118545714Y-52213333D01*
X118355238Y-52165714D01*
X118260000Y-52070476D01*
X118212380Y-51975238D01*
X119212380Y-51118095D02*
X118212380Y-51118095D01*
X119212380Y-50546666D01*
X118212380Y-50546666D01*
X118212380Y-50165714D02*
X118212380Y-49546666D01*
X118593333Y-49880000D01*
X118593333Y-49737142D01*
X118640952Y-49641904D01*
X118688571Y-49594285D01*
X118783809Y-49546666D01*
X119021904Y-49546666D01*
X119117142Y-49594285D01*
X119164761Y-49641904D01*
X119212380Y-49737142D01*
X119212380Y-50022857D01*
X119164761Y-50118095D01*
X119117142Y-50165714D01*
%TO.C,D1*%
X100362380Y-73128095D02*
X99362380Y-73128095D01*
X99362380Y-72890000D01*
X99410000Y-72747142D01*
X99505238Y-72651904D01*
X99600476Y-72604285D01*
X99790952Y-72556666D01*
X99933809Y-72556666D01*
X100124285Y-72604285D01*
X100219523Y-72651904D01*
X100314761Y-72747142D01*
X100362380Y-72890000D01*
X100362380Y-73128095D01*
X100362380Y-71604285D02*
X100362380Y-72175714D01*
X100362380Y-71890000D02*
X99362380Y-71890000D01*
X99505238Y-71985238D01*
X99600476Y-72080476D01*
X99648095Y-72175714D01*
X100042380Y-68841904D02*
X99042380Y-68841904D01*
X100042380Y-68270476D02*
X99470952Y-68699047D01*
X99042380Y-68270476D02*
X99613809Y-68841904D01*
%TO.C,D2*%
X121181904Y-57182380D02*
X121181904Y-56182380D01*
X121420000Y-56182380D01*
X121562857Y-56230000D01*
X121658095Y-56325238D01*
X121705714Y-56420476D01*
X121753333Y-56610952D01*
X121753333Y-56753809D01*
X121705714Y-56944285D01*
X121658095Y-57039523D01*
X121562857Y-57134761D01*
X121420000Y-57182380D01*
X121181904Y-57182380D01*
X122134285Y-56277619D02*
X122181904Y-56230000D01*
X122277142Y-56182380D01*
X122515238Y-56182380D01*
X122610476Y-56230000D01*
X122658095Y-56277619D01*
X122705714Y-56372857D01*
X122705714Y-56468095D01*
X122658095Y-56610952D01*
X122086666Y-57182380D01*
X122705714Y-57182380D01*
%TO.C,J1*%
D14*
X117086666Y-72546523D02*
X117086666Y-73453666D01*
X117026190Y-73635095D01*
X116905238Y-73756047D01*
X116723809Y-73816523D01*
X116602857Y-73816523D01*
X118356666Y-73816523D02*
X117630952Y-73816523D01*
X117993809Y-73816523D02*
X117993809Y-72546523D01*
X117872857Y-72727952D01*
X117751904Y-72848904D01*
X117630952Y-72909380D01*
%TO.C,R1*%
D10*
X105692380Y-72556666D02*
X105216190Y-72890000D01*
X105692380Y-73128095D02*
X104692380Y-73128095D01*
X104692380Y-72747142D01*
X104740000Y-72651904D01*
X104787619Y-72604285D01*
X104882857Y-72556666D01*
X105025714Y-72556666D01*
X105120952Y-72604285D01*
X105168571Y-72651904D01*
X105216190Y-72747142D01*
X105216190Y-73128095D01*
X105692380Y-71604285D02*
X105692380Y-72175714D01*
X105692380Y-71890000D02*
X104692380Y-71890000D01*
X104835238Y-71985238D01*
X104930476Y-72080476D01*
X104978095Y-72175714D01*
%TO.C,R2*%
X78092380Y-72556666D02*
X77616190Y-72890000D01*
X78092380Y-73128095D02*
X77092380Y-73128095D01*
X77092380Y-72747142D01*
X77140000Y-72651904D01*
X77187619Y-72604285D01*
X77282857Y-72556666D01*
X77425714Y-72556666D01*
X77520952Y-72604285D01*
X77568571Y-72651904D01*
X77616190Y-72747142D01*
X77616190Y-73128095D01*
X77187619Y-72175714D02*
X77140000Y-72128095D01*
X77092380Y-72032857D01*
X77092380Y-71794761D01*
X77140000Y-71699523D01*
X77187619Y-71651904D01*
X77282857Y-71604285D01*
X77378095Y-71604285D01*
X77520952Y-71651904D01*
X78092380Y-72223333D01*
X78092380Y-71604285D01*
%TO.C,U1*%
X87898095Y-78172380D02*
X87898095Y-78981904D01*
X87945714Y-79077142D01*
X87993333Y-79124761D01*
X88088571Y-79172380D01*
X88279047Y-79172380D01*
X88374285Y-79124761D01*
X88421904Y-79077142D01*
X88469523Y-78981904D01*
X88469523Y-78172380D01*
X89469523Y-79172380D02*
X88898095Y-79172380D01*
X89183809Y-79172380D02*
X89183809Y-78172380D01*
X89088571Y-78315238D01*
X88993333Y-78410476D01*
X88898095Y-78458095D01*
%TO.C,U2*%
X44958095Y-62952380D02*
X44958095Y-63761904D01*
X45005714Y-63857142D01*
X45053333Y-63904761D01*
X45148571Y-63952380D01*
X45339047Y-63952380D01*
X45434285Y-63904761D01*
X45481904Y-63857142D01*
X45529523Y-63761904D01*
X45529523Y-62952380D01*
X45958095Y-63047619D02*
X46005714Y-63000000D01*
X46100952Y-62952380D01*
X46339047Y-62952380D01*
X46434285Y-63000000D01*
X46481904Y-63047619D01*
X46529523Y-63142857D01*
X46529523Y-63238095D01*
X46481904Y-63380952D01*
X45910476Y-63952380D01*
X46529523Y-63952380D01*
X35012380Y-72596190D02*
X35012380Y-72024761D01*
X36012380Y-72310476D02*
X35012380Y-72310476D01*
X35012380Y-71786666D02*
X35012380Y-71167619D01*
X35393333Y-71500952D01*
X35393333Y-71358095D01*
X35440952Y-71262857D01*
X35488571Y-71215238D01*
X35583809Y-71167619D01*
X35821904Y-71167619D01*
X35917142Y-71215238D01*
X35964761Y-71262857D01*
X36012380Y-71358095D01*
X36012380Y-71643809D01*
X35964761Y-71739047D01*
X35917142Y-71786666D01*
X35917142Y-70739047D02*
X35964761Y-70691428D01*
X36012380Y-70739047D01*
X35964761Y-70786666D01*
X35917142Y-70739047D01*
X36012380Y-70739047D01*
X35107619Y-70310476D02*
X35060000Y-70262857D01*
X35012380Y-70167619D01*
X35012380Y-69929523D01*
X35060000Y-69834285D01*
X35107619Y-69786666D01*
X35202857Y-69739047D01*
X35298095Y-69739047D01*
X35440952Y-69786666D01*
X36012380Y-70358095D01*
X36012380Y-69739047D01*
X38822380Y-72596190D02*
X38822380Y-72024761D01*
X39822380Y-72310476D02*
X38822380Y-72310476D01*
X38822380Y-71786666D02*
X38822380Y-71167619D01*
X39203333Y-71500952D01*
X39203333Y-71358095D01*
X39250952Y-71262857D01*
X39298571Y-71215238D01*
X39393809Y-71167619D01*
X39631904Y-71167619D01*
X39727142Y-71215238D01*
X39774761Y-71262857D01*
X39822380Y-71358095D01*
X39822380Y-71643809D01*
X39774761Y-71739047D01*
X39727142Y-71786666D01*
X39727142Y-70739047D02*
X39774761Y-70691428D01*
X39822380Y-70739047D01*
X39774761Y-70786666D01*
X39727142Y-70739047D01*
X39822380Y-70739047D01*
X39822380Y-69739047D02*
X39822380Y-70310476D01*
X39822380Y-70024761D02*
X38822380Y-70024761D01*
X38965238Y-70120000D01*
X39060476Y-70215238D01*
X39108095Y-70310476D01*
X45948333Y-71182666D02*
X45948333Y-70482666D01*
X46181666Y-70982666D01*
X46415000Y-70482666D01*
X46415000Y-71182666D01*
X46748333Y-71182666D02*
X46748333Y-70482666D01*
X47148333Y-71182666D02*
X46848333Y-70782666D01*
X47148333Y-70482666D02*
X46748333Y-70882666D01*
X47415000Y-70549333D02*
X47448333Y-70516000D01*
X47515000Y-70482666D01*
X47681666Y-70482666D01*
X47748333Y-70516000D01*
X47781666Y-70549333D01*
X47815000Y-70616000D01*
X47815000Y-70682666D01*
X47781666Y-70782666D01*
X47381666Y-71182666D01*
X47815000Y-71182666D01*
X48248333Y-70482666D02*
X48315000Y-70482666D01*
X48381666Y-70516000D01*
X48415000Y-70549333D01*
X48448333Y-70616000D01*
X48481666Y-70749333D01*
X48481666Y-70916000D01*
X48448333Y-71049333D01*
X48415000Y-71116000D01*
X48381666Y-71149333D01*
X48315000Y-71182666D01*
X48248333Y-71182666D01*
X48181666Y-71149333D01*
X48148333Y-71116000D01*
X48115000Y-71049333D01*
X48081666Y-70916000D01*
X48081666Y-70749333D01*
X48115000Y-70616000D01*
X48148333Y-70549333D01*
X48181666Y-70516000D01*
X48248333Y-70482666D01*
X48781666Y-71182666D02*
X48781666Y-70482666D01*
X48948333Y-70482666D01*
X49048333Y-70516000D01*
X49115000Y-70582666D01*
X49148333Y-70649333D01*
X49181666Y-70782666D01*
X49181666Y-70882666D01*
X49148333Y-71016000D01*
X49115000Y-71082666D01*
X49048333Y-71149333D01*
X48948333Y-71182666D01*
X48781666Y-71182666D01*
X49415000Y-70482666D02*
X49881666Y-71182666D01*
X49881666Y-70482666D02*
X49415000Y-71182666D01*
X50115000Y-70549333D02*
X50148333Y-70516000D01*
X50215000Y-70482666D01*
X50381666Y-70482666D01*
X50448333Y-70516000D01*
X50481666Y-70549333D01*
X50515000Y-70616000D01*
X50515000Y-70682666D01*
X50481666Y-70782666D01*
X50081666Y-71182666D01*
X50515000Y-71182666D01*
X51148333Y-70482666D02*
X50815000Y-70482666D01*
X50781666Y-70816000D01*
X50815000Y-70782666D01*
X50881666Y-70749333D01*
X51048333Y-70749333D01*
X51115000Y-70782666D01*
X51148333Y-70816000D01*
X51181666Y-70882666D01*
X51181666Y-71049333D01*
X51148333Y-71116000D01*
X51115000Y-71149333D01*
X51048333Y-71182666D01*
X50881666Y-71182666D01*
X50815000Y-71149333D01*
X50781666Y-71116000D01*
X51781666Y-70482666D02*
X51648333Y-70482666D01*
X51581666Y-70516000D01*
X51548333Y-70549333D01*
X51481666Y-70649333D01*
X51448333Y-70782666D01*
X51448333Y-71049333D01*
X51481666Y-71116000D01*
X51515000Y-71149333D01*
X51581666Y-71182666D01*
X51715000Y-71182666D01*
X51781666Y-71149333D01*
X51815000Y-71116000D01*
X51848333Y-71049333D01*
X51848333Y-70882666D01*
X51815000Y-70816000D01*
X51781666Y-70782666D01*
X51715000Y-70749333D01*
X51581666Y-70749333D01*
X51515000Y-70782666D01*
X51481666Y-70816000D01*
X51448333Y-70882666D01*
X52048333Y-70482666D02*
X52281666Y-71182666D01*
X52515000Y-70482666D01*
X53081666Y-71182666D02*
X52748333Y-71182666D01*
X52748333Y-70482666D01*
X53315000Y-71182666D02*
X53315000Y-70482666D01*
X53315000Y-70816000D02*
X53715000Y-70816000D01*
X53715000Y-71182666D02*
X53715000Y-70482666D01*
X53981666Y-70482666D02*
X54448333Y-70482666D01*
X54148333Y-71182666D01*
X46431666Y-73722666D02*
X46431666Y-73022666D01*
X46665000Y-73522666D01*
X46898333Y-73022666D01*
X46898333Y-73722666D01*
X47231666Y-73722666D02*
X47231666Y-73022666D01*
X47631666Y-73722666D02*
X47331666Y-73322666D01*
X47631666Y-73022666D02*
X47231666Y-73422666D01*
X48265000Y-73722666D02*
X47931666Y-73722666D01*
X47931666Y-73022666D01*
X48465000Y-73089333D02*
X48498333Y-73056000D01*
X48565000Y-73022666D01*
X48731666Y-73022666D01*
X48798333Y-73056000D01*
X48831666Y-73089333D01*
X48865000Y-73156000D01*
X48865000Y-73222666D01*
X48831666Y-73322666D01*
X48431666Y-73722666D01*
X48865000Y-73722666D01*
X49465000Y-73022666D02*
X49331666Y-73022666D01*
X49265000Y-73056000D01*
X49231666Y-73089333D01*
X49165000Y-73189333D01*
X49131666Y-73322666D01*
X49131666Y-73589333D01*
X49165000Y-73656000D01*
X49198333Y-73689333D01*
X49265000Y-73722666D01*
X49398333Y-73722666D01*
X49465000Y-73689333D01*
X49498333Y-73656000D01*
X49531666Y-73589333D01*
X49531666Y-73422666D01*
X49498333Y-73356000D01*
X49465000Y-73322666D01*
X49398333Y-73289333D01*
X49265000Y-73289333D01*
X49198333Y-73322666D01*
X49165000Y-73356000D01*
X49131666Y-73422666D01*
X49765000Y-73022666D02*
X50231666Y-73022666D01*
X49765000Y-73722666D01*
X50231666Y-73722666D01*
X50798333Y-73022666D02*
X50665000Y-73022666D01*
X50598333Y-73056000D01*
X50565000Y-73089333D01*
X50498333Y-73189333D01*
X50465000Y-73322666D01*
X50465000Y-73589333D01*
X50498333Y-73656000D01*
X50531666Y-73689333D01*
X50598333Y-73722666D01*
X50731666Y-73722666D01*
X50798333Y-73689333D01*
X50831666Y-73656000D01*
X50865000Y-73589333D01*
X50865000Y-73422666D01*
X50831666Y-73356000D01*
X50798333Y-73322666D01*
X50731666Y-73289333D01*
X50598333Y-73289333D01*
X50531666Y-73322666D01*
X50498333Y-73356000D01*
X50465000Y-73422666D01*
X51465000Y-73256000D02*
X51465000Y-73722666D01*
X51298333Y-72989333D02*
X51131666Y-73489333D01*
X51565000Y-73489333D01*
X51731666Y-73022666D02*
X51965000Y-73722666D01*
X52198333Y-73022666D01*
X52665000Y-73356000D02*
X52431666Y-73356000D01*
X52431666Y-73722666D02*
X52431666Y-73022666D01*
X52765000Y-73022666D01*
X52931666Y-73022666D02*
X53331666Y-73022666D01*
X53131666Y-73722666D02*
X53131666Y-73022666D01*
X53865000Y-73256000D02*
X53865000Y-73722666D01*
X53698333Y-72989333D02*
X53531666Y-73489333D01*
X53965000Y-73489333D01*
X45948333Y-72452666D02*
X45948333Y-71752666D01*
X46181666Y-72252666D01*
X46415000Y-71752666D01*
X46415000Y-72452666D01*
X46748333Y-72452666D02*
X46748333Y-71752666D01*
X47148333Y-72452666D02*
X46848333Y-72052666D01*
X47148333Y-71752666D02*
X46748333Y-72152666D01*
X47415000Y-71819333D02*
X47448333Y-71786000D01*
X47515000Y-71752666D01*
X47681666Y-71752666D01*
X47748333Y-71786000D01*
X47781666Y-71819333D01*
X47815000Y-71886000D01*
X47815000Y-71952666D01*
X47781666Y-72052666D01*
X47381666Y-72452666D01*
X47815000Y-72452666D01*
X48248333Y-71752666D02*
X48315000Y-71752666D01*
X48381666Y-71786000D01*
X48415000Y-71819333D01*
X48448333Y-71886000D01*
X48481666Y-72019333D01*
X48481666Y-72186000D01*
X48448333Y-72319333D01*
X48415000Y-72386000D01*
X48381666Y-72419333D01*
X48315000Y-72452666D01*
X48248333Y-72452666D01*
X48181666Y-72419333D01*
X48148333Y-72386000D01*
X48115000Y-72319333D01*
X48081666Y-72186000D01*
X48081666Y-72019333D01*
X48115000Y-71886000D01*
X48148333Y-71819333D01*
X48181666Y-71786000D01*
X48248333Y-71752666D01*
X48781666Y-72452666D02*
X48781666Y-71752666D01*
X48948333Y-71752666D01*
X49048333Y-71786000D01*
X49115000Y-71852666D01*
X49148333Y-71919333D01*
X49181666Y-72052666D01*
X49181666Y-72152666D01*
X49148333Y-72286000D01*
X49115000Y-72352666D01*
X49048333Y-72419333D01*
X48948333Y-72452666D01*
X48781666Y-72452666D01*
X49415000Y-71752666D02*
X49881666Y-72452666D01*
X49881666Y-71752666D02*
X49415000Y-72452666D01*
X50515000Y-72452666D02*
X50115000Y-72452666D01*
X50315000Y-72452666D02*
X50315000Y-71752666D01*
X50248333Y-71852666D01*
X50181666Y-71919333D01*
X50115000Y-71952666D01*
X50781666Y-71819333D02*
X50815000Y-71786000D01*
X50881666Y-71752666D01*
X51048333Y-71752666D01*
X51115000Y-71786000D01*
X51148333Y-71819333D01*
X51181666Y-71886000D01*
X51181666Y-71952666D01*
X51148333Y-72052666D01*
X50748333Y-72452666D01*
X51181666Y-72452666D01*
X51581666Y-72052666D02*
X51515000Y-72019333D01*
X51481666Y-71986000D01*
X51448333Y-71919333D01*
X51448333Y-71886000D01*
X51481666Y-71819333D01*
X51515000Y-71786000D01*
X51581666Y-71752666D01*
X51715000Y-71752666D01*
X51781666Y-71786000D01*
X51815000Y-71819333D01*
X51848333Y-71886000D01*
X51848333Y-71919333D01*
X51815000Y-71986000D01*
X51781666Y-72019333D01*
X51715000Y-72052666D01*
X51581666Y-72052666D01*
X51515000Y-72086000D01*
X51481666Y-72119333D01*
X51448333Y-72186000D01*
X51448333Y-72319333D01*
X51481666Y-72386000D01*
X51515000Y-72419333D01*
X51581666Y-72452666D01*
X51715000Y-72452666D01*
X51781666Y-72419333D01*
X51815000Y-72386000D01*
X51848333Y-72319333D01*
X51848333Y-72186000D01*
X51815000Y-72119333D01*
X51781666Y-72086000D01*
X51715000Y-72052666D01*
X52048333Y-71752666D02*
X52281666Y-72452666D01*
X52515000Y-71752666D01*
X53081666Y-72452666D02*
X52748333Y-72452666D01*
X52748333Y-71752666D01*
X53315000Y-72452666D02*
X53315000Y-71752666D01*
X53315000Y-72086000D02*
X53715000Y-72086000D01*
X53715000Y-72452666D02*
X53715000Y-71752666D01*
X54381666Y-71752666D02*
X54048333Y-71752666D01*
X54015000Y-72086000D01*
X54048333Y-72052666D01*
X54115000Y-72019333D01*
X54281666Y-72019333D01*
X54348333Y-72052666D01*
X54381666Y-72086000D01*
X54415000Y-72152666D01*
X54415000Y-72319333D01*
X54381666Y-72386000D01*
X54348333Y-72419333D01*
X54281666Y-72452666D01*
X54115000Y-72452666D01*
X54048333Y-72419333D01*
X54015000Y-72386000D01*
%TO.C,U3*%
X70228095Y-83932380D02*
X70228095Y-84741904D01*
X70275714Y-84837142D01*
X70323333Y-84884761D01*
X70418571Y-84932380D01*
X70609047Y-84932380D01*
X70704285Y-84884761D01*
X70751904Y-84837142D01*
X70799523Y-84741904D01*
X70799523Y-83932380D01*
X71180476Y-83932380D02*
X71799523Y-83932380D01*
X71466190Y-84313333D01*
X71609047Y-84313333D01*
X71704285Y-84360952D01*
X71751904Y-84408571D01*
X71799523Y-84503809D01*
X71799523Y-84741904D01*
X71751904Y-84837142D01*
X71704285Y-84884761D01*
X71609047Y-84932380D01*
X71323333Y-84932380D01*
X71228095Y-84884761D01*
X71180476Y-84837142D01*
%TO.C,REF\u002A\u002A*%
X102806666Y-60152380D02*
X102473333Y-59676190D01*
X102235238Y-60152380D02*
X102235238Y-59152380D01*
X102616190Y-59152380D01*
X102711428Y-59200000D01*
X102759047Y-59247619D01*
X102806666Y-59342857D01*
X102806666Y-59485714D01*
X102759047Y-59580952D01*
X102711428Y-59628571D01*
X102616190Y-59676190D01*
X102235238Y-59676190D01*
X103235238Y-59628571D02*
X103568571Y-59628571D01*
X103711428Y-60152380D02*
X103235238Y-60152380D01*
X103235238Y-59152380D01*
X103711428Y-59152380D01*
X104473333Y-59628571D02*
X104140000Y-59628571D01*
X104140000Y-60152380D02*
X104140000Y-59152380D01*
X104616190Y-59152380D01*
X105140000Y-59152380D02*
X105140000Y-59390476D01*
X104901904Y-59295238D02*
X105140000Y-59390476D01*
X105378095Y-59295238D01*
X104997142Y-59580952D02*
X105140000Y-59390476D01*
X105282857Y-59580952D01*
X105901904Y-59152380D02*
X105901904Y-59390476D01*
X105663809Y-59295238D02*
X105901904Y-59390476D01*
X106140000Y-59295238D01*
X105759047Y-59580952D02*
X105901904Y-59390476D01*
X106044761Y-59580952D01*
X41846666Y-51262380D02*
X41513333Y-50786190D01*
X41275238Y-51262380D02*
X41275238Y-50262380D01*
X41656190Y-50262380D01*
X41751428Y-50310000D01*
X41799047Y-50357619D01*
X41846666Y-50452857D01*
X41846666Y-50595714D01*
X41799047Y-50690952D01*
X41751428Y-50738571D01*
X41656190Y-50786190D01*
X41275238Y-50786190D01*
X42275238Y-50738571D02*
X42608571Y-50738571D01*
X42751428Y-51262380D02*
X42275238Y-51262380D01*
X42275238Y-50262380D01*
X42751428Y-50262380D01*
X43513333Y-50738571D02*
X43180000Y-50738571D01*
X43180000Y-51262380D02*
X43180000Y-50262380D01*
X43656190Y-50262380D01*
X44180000Y-50262380D02*
X44180000Y-50500476D01*
X43941904Y-50405238D02*
X44180000Y-50500476D01*
X44418095Y-50405238D01*
X44037142Y-50690952D02*
X44180000Y-50500476D01*
X44322857Y-50690952D01*
X44941904Y-50262380D02*
X44941904Y-50500476D01*
X44703809Y-50405238D02*
X44941904Y-50500476D01*
X45180000Y-50405238D01*
X44799047Y-50690952D02*
X44941904Y-50500476D01*
X45084761Y-50690952D01*
%TD*%
M02*
