M48
; DRILL file {KiCad (5.1.8-0-10_14)} date Monday, December 14, 2020 at 03:31:43 PM
; FORMAT={-:-/ absolute / metric / decimal}
; #@! TF.CreationDate,2020-12-14T15:31:43+01:00
; #@! TF.GenerationSoftware,Kicad,Pcbnew,(5.1.8-0-10_14)
; #@! TF.FileFunction,Plated,1,2,PTH
FMAT,2
METRIC
T1C0.350
T2C0.500
T3C0.800
T4C0.900
T5C1.000
T6C1.100
T7C1.400
T8C2.390
%
G90
G05
T1
X63.5Y-62.23
T2
X35.56Y-73.66
X39.37Y-73.66
T3
X29.21Y-59.69
X31.71Y-59.69
X97.79Y-68.58
X97.79Y-76.2
X80.01Y-68.58
X80.01Y-76.2
X102.87Y-68.58
X102.87Y-76.2
T4
X120.65Y-59.69
X123.19Y-59.69
T5
X67.31Y-66.04
X67.31Y-68.58
X67.31Y-71.12
X67.31Y-73.66
X67.31Y-76.2
X67.31Y-78.74
X67.31Y-81.28
X74.93Y-66.04
X74.93Y-68.58
X74.93Y-71.12
X74.93Y-73.66
X74.93Y-76.2
X74.93Y-78.74
X74.93Y-81.28
X85.09Y-68.58
X85.09Y-71.12
X85.09Y-73.66
X85.09Y-76.2
X92.71Y-68.58
X92.71Y-71.12
X92.71Y-73.66
X92.71Y-76.2
T6
X29.21Y-66.04
X29.21Y-81.28
X31.75Y-66.04
X31.75Y-68.58
X31.75Y-81.28
X34.29Y-66.04
X34.29Y-81.28
X36.83Y-66.04
X36.83Y-68.58
X36.83Y-81.28
X39.37Y-66.04
X39.37Y-68.58
X39.37Y-81.28
X41.91Y-66.04
X41.91Y-68.58
X41.91Y-81.28
X44.45Y-66.04
X44.45Y-81.28
X46.99Y-66.04
X46.99Y-81.28
X49.53Y-66.04
X49.53Y-81.28
X52.07Y-66.04
X52.07Y-81.28
X54.61Y-66.04
X54.61Y-81.28
X57.15Y-66.04
X57.15Y-81.28
X59.69Y-66.04
X59.69Y-81.28
X62.23Y-66.04
X62.23Y-68.58
X62.23Y-71.12
X62.23Y-73.66
X62.23Y-76.2
X62.23Y-78.74
X62.23Y-81.28
T7
X110.54Y-68.54
X110.54Y-78.55
X113.03Y-66.04
X113.03Y-73.545
X113.03Y-81.05
X123.04Y-71.045
X123.04Y-76.045
T8
X118.04Y-66.04
X118.04Y-81.05
T3
G00X76.28Y-55.53
M15
G01X76.28Y-56.23
M16
G05
G00X81.63Y-50.88
M15
G01X80.93Y-50.88
M16
G05
G00X86.28Y-55.53
M15
G01X86.28Y-56.23
M16
G05
G00X91.52Y-55.53
M15
G01X91.52Y-56.23
M16
G05
G00X96.87Y-50.88
M15
G01X96.17Y-50.88
M16
G05
G00X101.52Y-55.53
M15
G01X101.52Y-56.23
M16
G05
G00X106.76Y-55.53
M15
G01X106.76Y-56.23
M16
G05
G00X112.11Y-50.88
M15
G01X111.41Y-50.88
M16
G05
G00X116.76Y-55.53
M15
G01X116.76Y-56.23
M16
G05
T0
M30
